%TF.GenerationSoftware,KiCad,Pcbnew,5.1.9+dfsg1-1*%
%TF.CreationDate,2022-08-07T17:24:21-05:00*%
%TF.ProjectId,aarghweeno_88,61617267-6877-4656-956e-6f5f38382e6b,rev?*%
%TF.SameCoordinates,Original*%
%TF.FileFunction,Legend,Bot*%
%TF.FilePolarity,Positive*%
%FSLAX46Y46*%
G04 Gerber Fmt 4.6, Leading zero omitted, Abs format (unit mm)*
G04 Created by KiCad (PCBNEW 5.1.9+dfsg1-1) date 2022-08-07 17:24:21*
%MOMM*%
%LPD*%
G01*
G04 APERTURE LIST*
%ADD10C,0.381000*%
%ADD11C,0.508000*%
%ADD12C,0.120000*%
%ADD13C,0.203200*%
G04 APERTURE END LIST*
D10*
X88265000Y-135255000D02*
X89535000Y-135255000D01*
D11*
X88265000Y-127635000D02*
X88265000Y-135255000D01*
D10*
X88265000Y-127635000D02*
X89535000Y-127635000D01*
D11*
X88265000Y-120015000D02*
X88265000Y-127635000D01*
D10*
X89535000Y-120015000D02*
X88265000Y-120015000D01*
D11*
X88265000Y-99695000D02*
X88265000Y-107315000D01*
D10*
X89535000Y-99695000D02*
X88265000Y-99695000D01*
X88265000Y-94615000D02*
X89535000Y-94615000D01*
D11*
X88265000Y-86995000D02*
X88265000Y-94615000D01*
D10*
X89535000Y-86995000D02*
X88265000Y-86995000D01*
D12*
X186055000Y-114935000D02*
X89535000Y-114935000D01*
X186055000Y-107315000D02*
X186055000Y-114935000D01*
D10*
X88265000Y-107315000D02*
X186055000Y-107315000D01*
X88265000Y-114935000D02*
X89535000Y-114935000D01*
D11*
X88265000Y-107315000D02*
X88265000Y-114935000D01*
D10*
X89535000Y-94615000D02*
X186055000Y-94615000D01*
D13*
X89535000Y-86995000D02*
X89535000Y-94615000D01*
D10*
X186055000Y-86995000D02*
X89535000Y-86995000D01*
D11*
X186055000Y-94615000D02*
X186055000Y-86995000D01*
X186055000Y-99695000D02*
X186055000Y-107315000D01*
D10*
X89535000Y-99695000D02*
X186055000Y-99695000D01*
D13*
X89535000Y-107315000D02*
X89535000Y-99695000D01*
D10*
X186055000Y-107315000D02*
X89535000Y-107315000D01*
D11*
X186055000Y-114935000D02*
X186055000Y-107315000D01*
D10*
X89535000Y-114935000D02*
X186055000Y-114935000D01*
D13*
X89535000Y-107315000D02*
X89535000Y-114935000D01*
X89535000Y-120015000D02*
X89535000Y-127635000D01*
D11*
X186055000Y-120015000D02*
X186055000Y-127635000D01*
D10*
X89535000Y-120015000D02*
X186055000Y-120015000D01*
X186055000Y-127635000D02*
X89535000Y-127635000D01*
D11*
X186055000Y-135255000D02*
X186055000Y-127635000D01*
X89535000Y-135255000D02*
X186055000Y-135255000D01*
D13*
X89535000Y-127635000D02*
X89535000Y-135255000D01*
M02*
