G04 #@! TF.GenerationSoftware,KiCad,Pcbnew,5.1.9+dfsg1-1*
G04 #@! TF.CreationDate,2022-07-21T18:14:53-05:00*
G04 #@! TF.ProjectId,aarghweeno_88,61617267-6877-4656-956e-6f5f38382e6b,rev?*
G04 #@! TF.SameCoordinates,Original*
G04 #@! TF.FileFunction,Copper,L1,Top*
G04 #@! TF.FilePolarity,Positive*
%FSLAX46Y46*%
G04 Gerber Fmt 4.6, Leading zero omitted, Abs format (unit mm)*
G04 Created by KiCad (PCBNEW 5.1.9+dfsg1-1) date 2022-07-21 18:14:53*
%MOMM*%
%LPD*%
G01*
G04 APERTURE LIST*
G04 #@! TA.AperFunction,ComponentPad*
%ADD10O,1.700000X1.700000*%
G04 #@! TD*
G04 #@! TA.AperFunction,ComponentPad*
%ADD11R,1.700000X1.700000*%
G04 #@! TD*
G04 #@! TA.AperFunction,ComponentPad*
%ADD12C,7.000000*%
G04 #@! TD*
G04 #@! TA.AperFunction,ComponentPad*
%ADD13O,1.600000X2.400000*%
G04 #@! TD*
G04 #@! TA.AperFunction,ComponentPad*
%ADD14R,1.600000X2.400000*%
G04 #@! TD*
G04 #@! TA.AperFunction,ComponentPad*
%ADD15C,1.500000*%
G04 #@! TD*
G04 #@! TA.AperFunction,ComponentPad*
%ADD16O,1.905000X2.000000*%
G04 #@! TD*
G04 #@! TA.AperFunction,ComponentPad*
%ADD17R,1.905000X2.000000*%
G04 #@! TD*
G04 #@! TA.AperFunction,ComponentPad*
%ADD18O,1.600000X1.600000*%
G04 #@! TD*
G04 #@! TA.AperFunction,ComponentPad*
%ADD19C,1.600000*%
G04 #@! TD*
G04 #@! TA.AperFunction,ComponentPad*
%ADD20O,2.000000X2.000000*%
G04 #@! TD*
G04 #@! TA.AperFunction,ComponentPad*
%ADD21C,2.000000*%
G04 #@! TD*
G04 #@! TA.AperFunction,ComponentPad*
%ADD22O,3.960000X1.980000*%
G04 #@! TD*
G04 #@! TA.AperFunction,ComponentPad*
%ADD23R,3.960000X1.980000*%
G04 #@! TD*
G04 #@! TA.AperFunction,ComponentPad*
%ADD24C,1.800000*%
G04 #@! TD*
G04 #@! TA.AperFunction,ComponentPad*
%ADD25R,1.800000X1.800000*%
G04 #@! TD*
G04 #@! TA.AperFunction,ComponentPad*
%ADD26R,1.600000X1.600000*%
G04 #@! TD*
G04 #@! TA.AperFunction,ViaPad*
%ADD27C,0.800000*%
G04 #@! TD*
G04 #@! TA.AperFunction,Conductor*
%ADD28C,1.270000*%
G04 #@! TD*
G04 #@! TA.AperFunction,Conductor*
%ADD29C,0.889000*%
G04 #@! TD*
G04 #@! TA.AperFunction,Conductor*
%ADD30C,0.508000*%
G04 #@! TD*
G04 #@! TA.AperFunction,Conductor*
%ADD31C,0.250000*%
G04 #@! TD*
G04 APERTURE END LIST*
D10*
X106680000Y-66040000D03*
D11*
X104140000Y-66040000D03*
D12*
X182245000Y-140335000D03*
X181610000Y-51435000D03*
X92710000Y-140335000D03*
X92710000Y-51435000D03*
D11*
X90805000Y-133985000D03*
D10*
X93345000Y-133985000D03*
X95885000Y-133985000D03*
X98425000Y-133985000D03*
X100965000Y-133985000D03*
X103505000Y-133985000D03*
X106045000Y-133985000D03*
X108585000Y-133985000D03*
X111125000Y-133985000D03*
X113665000Y-133985000D03*
X116205000Y-133985000D03*
X118745000Y-133985000D03*
X121285000Y-133985000D03*
X123825000Y-133985000D03*
X126365000Y-133985000D03*
X128905000Y-133985000D03*
X131445000Y-133985000D03*
X133985000Y-133985000D03*
X136525000Y-133985000D03*
X139065000Y-133985000D03*
X141605000Y-133985000D03*
X144145000Y-133985000D03*
X146685000Y-133985000D03*
X149225000Y-133985000D03*
X151765000Y-133985000D03*
X154305000Y-133985000D03*
X156845000Y-133985000D03*
X159385000Y-133985000D03*
X161925000Y-133985000D03*
X164465000Y-133985000D03*
X167005000Y-133985000D03*
X169545000Y-133985000D03*
X172085000Y-133985000D03*
X174625000Y-133985000D03*
X177165000Y-133985000D03*
X179705000Y-133985000D03*
X182245000Y-133985000D03*
X184785000Y-133985000D03*
D11*
X90805000Y-131445000D03*
D10*
X93345000Y-131445000D03*
X95885000Y-131445000D03*
X98425000Y-131445000D03*
X100965000Y-131445000D03*
X103505000Y-131445000D03*
X106045000Y-131445000D03*
X108585000Y-131445000D03*
X111125000Y-131445000D03*
X113665000Y-131445000D03*
X116205000Y-131445000D03*
X118745000Y-131445000D03*
X121285000Y-131445000D03*
X123825000Y-131445000D03*
X126365000Y-131445000D03*
X128905000Y-131445000D03*
X131445000Y-131445000D03*
X133985000Y-131445000D03*
X136525000Y-131445000D03*
X139065000Y-131445000D03*
X141605000Y-131445000D03*
X144145000Y-131445000D03*
X146685000Y-131445000D03*
X149225000Y-131445000D03*
X151765000Y-131445000D03*
X154305000Y-131445000D03*
X156845000Y-131445000D03*
X159385000Y-131445000D03*
X161925000Y-131445000D03*
X164465000Y-131445000D03*
X167005000Y-131445000D03*
X169545000Y-131445000D03*
X172085000Y-131445000D03*
X174625000Y-131445000D03*
X177165000Y-131445000D03*
X179705000Y-131445000D03*
X182245000Y-131445000D03*
X184785000Y-131445000D03*
D11*
X90805000Y-128905000D03*
D10*
X93345000Y-128905000D03*
X95885000Y-128905000D03*
X98425000Y-128905000D03*
X100965000Y-128905000D03*
X103505000Y-128905000D03*
X106045000Y-128905000D03*
X108585000Y-128905000D03*
X111125000Y-128905000D03*
X113665000Y-128905000D03*
X116205000Y-128905000D03*
X118745000Y-128905000D03*
X121285000Y-128905000D03*
X123825000Y-128905000D03*
X126365000Y-128905000D03*
X128905000Y-128905000D03*
X131445000Y-128905000D03*
X133985000Y-128905000D03*
X136525000Y-128905000D03*
X139065000Y-128905000D03*
X141605000Y-128905000D03*
X144145000Y-128905000D03*
X146685000Y-128905000D03*
X149225000Y-128905000D03*
X151765000Y-128905000D03*
X154305000Y-128905000D03*
X156845000Y-128905000D03*
X159385000Y-128905000D03*
X161925000Y-128905000D03*
X164465000Y-128905000D03*
X167005000Y-128905000D03*
X169545000Y-128905000D03*
X172085000Y-128905000D03*
X174625000Y-128905000D03*
X177165000Y-128905000D03*
X179705000Y-128905000D03*
X182245000Y-128905000D03*
X184785000Y-128905000D03*
D11*
X90815000Y-126365000D03*
D10*
X93355000Y-126365000D03*
X95895000Y-126365000D03*
X98435000Y-126365000D03*
X100975000Y-126365000D03*
X103515000Y-126365000D03*
X106055000Y-126365000D03*
X108595000Y-126365000D03*
X111135000Y-126365000D03*
X113675000Y-126365000D03*
X116215000Y-126365000D03*
X118755000Y-126365000D03*
X121295000Y-126365000D03*
X123835000Y-126365000D03*
X126375000Y-126365000D03*
X128915000Y-126365000D03*
X131455000Y-126365000D03*
X133995000Y-126365000D03*
X136535000Y-126365000D03*
X139075000Y-126365000D03*
X141615000Y-126365000D03*
X144155000Y-126365000D03*
X146695000Y-126365000D03*
X149235000Y-126365000D03*
X151775000Y-126365000D03*
X154315000Y-126365000D03*
X156855000Y-126365000D03*
X159395000Y-126365000D03*
X161935000Y-126365000D03*
X164475000Y-126365000D03*
X167015000Y-126365000D03*
X169555000Y-126365000D03*
X172095000Y-126365000D03*
X174635000Y-126365000D03*
X177175000Y-126365000D03*
X179715000Y-126365000D03*
X182255000Y-126365000D03*
X184795000Y-126365000D03*
D11*
X90815000Y-123825000D03*
D10*
X93355000Y-123825000D03*
X95895000Y-123825000D03*
X98435000Y-123825000D03*
X100975000Y-123825000D03*
X103515000Y-123825000D03*
X106055000Y-123825000D03*
X108595000Y-123825000D03*
X111135000Y-123825000D03*
X113675000Y-123825000D03*
X116215000Y-123825000D03*
X118755000Y-123825000D03*
X121295000Y-123825000D03*
X123835000Y-123825000D03*
X126375000Y-123825000D03*
X128915000Y-123825000D03*
X131455000Y-123825000D03*
X133995000Y-123825000D03*
X136535000Y-123825000D03*
X139075000Y-123825000D03*
X141615000Y-123825000D03*
X144155000Y-123825000D03*
X146695000Y-123825000D03*
X149235000Y-123825000D03*
X151775000Y-123825000D03*
X154315000Y-123825000D03*
X156855000Y-123825000D03*
X159395000Y-123825000D03*
X161935000Y-123825000D03*
X164475000Y-123825000D03*
X167015000Y-123825000D03*
X169555000Y-123825000D03*
X172095000Y-123825000D03*
X174635000Y-123825000D03*
X177175000Y-123825000D03*
X179715000Y-123825000D03*
X182255000Y-123825000D03*
X184795000Y-123825000D03*
D11*
X90805000Y-121285000D03*
D10*
X93345000Y-121285000D03*
X95885000Y-121285000D03*
X98425000Y-121285000D03*
X100965000Y-121285000D03*
X103505000Y-121285000D03*
X106045000Y-121285000D03*
X108585000Y-121285000D03*
X111125000Y-121285000D03*
X113665000Y-121285000D03*
X116205000Y-121285000D03*
X118745000Y-121285000D03*
X121285000Y-121285000D03*
X123825000Y-121285000D03*
X126365000Y-121285000D03*
X128905000Y-121285000D03*
X131445000Y-121285000D03*
X133985000Y-121285000D03*
X136525000Y-121285000D03*
X139065000Y-121285000D03*
X141605000Y-121285000D03*
X144145000Y-121285000D03*
X146685000Y-121285000D03*
X149225000Y-121285000D03*
X151765000Y-121285000D03*
X154305000Y-121285000D03*
X156845000Y-121285000D03*
X159385000Y-121285000D03*
X161925000Y-121285000D03*
X164465000Y-121285000D03*
X167005000Y-121285000D03*
X169545000Y-121285000D03*
X172085000Y-121285000D03*
X174625000Y-121285000D03*
X177165000Y-121285000D03*
X179705000Y-121285000D03*
X182245000Y-121285000D03*
X184785000Y-121285000D03*
D11*
X90805000Y-118745000D03*
D10*
X93345000Y-118745000D03*
X95885000Y-118745000D03*
X98425000Y-118745000D03*
X100965000Y-118745000D03*
X103505000Y-118745000D03*
X106045000Y-118745000D03*
X108585000Y-118745000D03*
X111125000Y-118745000D03*
X113665000Y-118745000D03*
X116205000Y-118745000D03*
X118745000Y-118745000D03*
X121285000Y-118745000D03*
X123825000Y-118745000D03*
X126365000Y-118745000D03*
X128905000Y-118745000D03*
X131445000Y-118745000D03*
X133985000Y-118745000D03*
X136525000Y-118745000D03*
X139065000Y-118745000D03*
X141605000Y-118745000D03*
X144145000Y-118745000D03*
X146685000Y-118745000D03*
X149225000Y-118745000D03*
X151765000Y-118745000D03*
X154305000Y-118745000D03*
X156845000Y-118745000D03*
X159385000Y-118745000D03*
X161925000Y-118745000D03*
X164465000Y-118745000D03*
X167005000Y-118745000D03*
X169545000Y-118745000D03*
X172085000Y-118745000D03*
X174625000Y-118745000D03*
X177165000Y-118745000D03*
X179705000Y-118745000D03*
X182245000Y-118745000D03*
X184785000Y-118745000D03*
D11*
X90805000Y-116205000D03*
D10*
X93345000Y-116205000D03*
X95885000Y-116205000D03*
X98425000Y-116205000D03*
X100965000Y-116205000D03*
X103505000Y-116205000D03*
X106045000Y-116205000D03*
X108585000Y-116205000D03*
X111125000Y-116205000D03*
X113665000Y-116205000D03*
X116205000Y-116205000D03*
X118745000Y-116205000D03*
X121285000Y-116205000D03*
X123825000Y-116205000D03*
X126365000Y-116205000D03*
X128905000Y-116205000D03*
X131445000Y-116205000D03*
X133985000Y-116205000D03*
X136525000Y-116205000D03*
X139065000Y-116205000D03*
X141605000Y-116205000D03*
X144145000Y-116205000D03*
X146685000Y-116205000D03*
X149225000Y-116205000D03*
X151765000Y-116205000D03*
X154305000Y-116205000D03*
X156845000Y-116205000D03*
X159385000Y-116205000D03*
X161925000Y-116205000D03*
X164465000Y-116205000D03*
X167005000Y-116205000D03*
X169545000Y-116205000D03*
X172085000Y-116205000D03*
X174625000Y-116205000D03*
X177165000Y-116205000D03*
X179705000Y-116205000D03*
X182245000Y-116205000D03*
X184785000Y-116205000D03*
D11*
X90805000Y-113665000D03*
D10*
X93345000Y-113665000D03*
X95885000Y-113665000D03*
X98425000Y-113665000D03*
X100965000Y-113665000D03*
X103505000Y-113665000D03*
X106045000Y-113665000D03*
X108585000Y-113665000D03*
X111125000Y-113665000D03*
X113665000Y-113665000D03*
X116205000Y-113665000D03*
X118745000Y-113665000D03*
X121285000Y-113665000D03*
X123825000Y-113665000D03*
X126365000Y-113665000D03*
X128905000Y-113665000D03*
X131445000Y-113665000D03*
X133985000Y-113665000D03*
X136525000Y-113665000D03*
X139065000Y-113665000D03*
X141605000Y-113665000D03*
X144145000Y-113665000D03*
X146685000Y-113665000D03*
X149225000Y-113665000D03*
X151765000Y-113665000D03*
X154305000Y-113665000D03*
X156845000Y-113665000D03*
X159385000Y-113665000D03*
X161925000Y-113665000D03*
X164465000Y-113665000D03*
X167005000Y-113665000D03*
X169545000Y-113665000D03*
X172085000Y-113665000D03*
X174625000Y-113665000D03*
X177165000Y-113665000D03*
X179705000Y-113665000D03*
X182245000Y-113665000D03*
X184785000Y-113665000D03*
D11*
X90805000Y-108585000D03*
D10*
X93345000Y-108585000D03*
X95885000Y-108585000D03*
X98425000Y-108585000D03*
X100965000Y-108585000D03*
X103505000Y-108585000D03*
X106045000Y-108585000D03*
X108585000Y-108585000D03*
X111125000Y-108585000D03*
X113665000Y-108585000D03*
X116205000Y-108585000D03*
X118745000Y-108585000D03*
X121285000Y-108585000D03*
X123825000Y-108585000D03*
X126365000Y-108585000D03*
X128905000Y-108585000D03*
X131445000Y-108585000D03*
X133985000Y-108585000D03*
X136525000Y-108585000D03*
X139065000Y-108585000D03*
X141605000Y-108585000D03*
X144145000Y-108585000D03*
X146685000Y-108585000D03*
X149225000Y-108585000D03*
X151765000Y-108585000D03*
X154305000Y-108585000D03*
X156845000Y-108585000D03*
X159385000Y-108585000D03*
X161925000Y-108585000D03*
X164465000Y-108585000D03*
X167005000Y-108585000D03*
X169545000Y-108585000D03*
X172085000Y-108585000D03*
X174625000Y-108585000D03*
X177165000Y-108585000D03*
X179705000Y-108585000D03*
X182245000Y-108585000D03*
X184785000Y-108585000D03*
D11*
X90805000Y-111125000D03*
D10*
X93345000Y-111125000D03*
X95885000Y-111125000D03*
X98425000Y-111125000D03*
X100965000Y-111125000D03*
X103505000Y-111125000D03*
X106045000Y-111125000D03*
X108585000Y-111125000D03*
X111125000Y-111125000D03*
X113665000Y-111125000D03*
X116205000Y-111125000D03*
X118745000Y-111125000D03*
X121285000Y-111125000D03*
X123825000Y-111125000D03*
X126365000Y-111125000D03*
X128905000Y-111125000D03*
X131445000Y-111125000D03*
X133985000Y-111125000D03*
X136525000Y-111125000D03*
X139065000Y-111125000D03*
X141605000Y-111125000D03*
X144145000Y-111125000D03*
X146685000Y-111125000D03*
X149225000Y-111125000D03*
X151765000Y-111125000D03*
X154305000Y-111125000D03*
X156845000Y-111125000D03*
X159385000Y-111125000D03*
X161925000Y-111125000D03*
X164465000Y-111125000D03*
X167005000Y-111125000D03*
X169545000Y-111125000D03*
X172085000Y-111125000D03*
X174625000Y-111125000D03*
X177165000Y-111125000D03*
X179705000Y-111125000D03*
X182245000Y-111125000D03*
X184785000Y-111125000D03*
D11*
X90805000Y-106045000D03*
D10*
X93345000Y-106045000D03*
X95885000Y-106045000D03*
X98425000Y-106045000D03*
X100965000Y-106045000D03*
X103505000Y-106045000D03*
X106045000Y-106045000D03*
X108585000Y-106045000D03*
X111125000Y-106045000D03*
X113665000Y-106045000D03*
X116205000Y-106045000D03*
X118745000Y-106045000D03*
X121285000Y-106045000D03*
X123825000Y-106045000D03*
X126365000Y-106045000D03*
X128905000Y-106045000D03*
X131445000Y-106045000D03*
X133985000Y-106045000D03*
X136525000Y-106045000D03*
X139065000Y-106045000D03*
X141605000Y-106045000D03*
X144145000Y-106045000D03*
X146685000Y-106045000D03*
X149225000Y-106045000D03*
X151765000Y-106045000D03*
X154305000Y-106045000D03*
X156845000Y-106045000D03*
X159385000Y-106045000D03*
X161925000Y-106045000D03*
X164465000Y-106045000D03*
X167005000Y-106045000D03*
X169545000Y-106045000D03*
X172085000Y-106045000D03*
X174625000Y-106045000D03*
X177165000Y-106045000D03*
X179705000Y-106045000D03*
X182245000Y-106045000D03*
X184785000Y-106045000D03*
D11*
X90805000Y-103505000D03*
D10*
X93345000Y-103505000D03*
X95885000Y-103505000D03*
X98425000Y-103505000D03*
X100965000Y-103505000D03*
X103505000Y-103505000D03*
X106045000Y-103505000D03*
X108585000Y-103505000D03*
X111125000Y-103505000D03*
X113665000Y-103505000D03*
X116205000Y-103505000D03*
X118745000Y-103505000D03*
X121285000Y-103505000D03*
X123825000Y-103505000D03*
X126365000Y-103505000D03*
X128905000Y-103505000D03*
X131445000Y-103505000D03*
X133985000Y-103505000D03*
X136525000Y-103505000D03*
X139065000Y-103505000D03*
X141605000Y-103505000D03*
X144145000Y-103505000D03*
X146685000Y-103505000D03*
X149225000Y-103505000D03*
X151765000Y-103505000D03*
X154305000Y-103505000D03*
X156845000Y-103505000D03*
X159385000Y-103505000D03*
X161925000Y-103505000D03*
X164465000Y-103505000D03*
X167005000Y-103505000D03*
X169545000Y-103505000D03*
X172085000Y-103505000D03*
X174625000Y-103505000D03*
X177165000Y-103505000D03*
X179705000Y-103505000D03*
X182245000Y-103505000D03*
X184785000Y-103505000D03*
D11*
X90805000Y-100965000D03*
D10*
X93345000Y-100965000D03*
X95885000Y-100965000D03*
X98425000Y-100965000D03*
X100965000Y-100965000D03*
X103505000Y-100965000D03*
X106045000Y-100965000D03*
X108585000Y-100965000D03*
X111125000Y-100965000D03*
X113665000Y-100965000D03*
X116205000Y-100965000D03*
X118745000Y-100965000D03*
X121285000Y-100965000D03*
X123825000Y-100965000D03*
X126365000Y-100965000D03*
X128905000Y-100965000D03*
X131445000Y-100965000D03*
X133985000Y-100965000D03*
X136525000Y-100965000D03*
X139065000Y-100965000D03*
X141605000Y-100965000D03*
X144145000Y-100965000D03*
X146685000Y-100965000D03*
X149225000Y-100965000D03*
X151765000Y-100965000D03*
X154305000Y-100965000D03*
X156845000Y-100965000D03*
X159385000Y-100965000D03*
X161925000Y-100965000D03*
X164465000Y-100965000D03*
X167005000Y-100965000D03*
X169545000Y-100965000D03*
X172085000Y-100965000D03*
X174625000Y-100965000D03*
X177165000Y-100965000D03*
X179705000Y-100965000D03*
X182245000Y-100965000D03*
X184785000Y-100965000D03*
D11*
X90805000Y-98425000D03*
D10*
X93345000Y-98425000D03*
X95885000Y-98425000D03*
X98425000Y-98425000D03*
X100965000Y-98425000D03*
X103505000Y-98425000D03*
X106045000Y-98425000D03*
X108585000Y-98425000D03*
X111125000Y-98425000D03*
X113665000Y-98425000D03*
X116205000Y-98425000D03*
X118745000Y-98425000D03*
X121285000Y-98425000D03*
X123825000Y-98425000D03*
X126365000Y-98425000D03*
X128905000Y-98425000D03*
X131445000Y-98425000D03*
X133985000Y-98425000D03*
X136525000Y-98425000D03*
X139065000Y-98425000D03*
X141605000Y-98425000D03*
X144145000Y-98425000D03*
X146685000Y-98425000D03*
X149225000Y-98425000D03*
X151765000Y-98425000D03*
X154305000Y-98425000D03*
X156845000Y-98425000D03*
X159385000Y-98425000D03*
X161925000Y-98425000D03*
X164465000Y-98425000D03*
X167005000Y-98425000D03*
X169545000Y-98425000D03*
X172085000Y-98425000D03*
X174625000Y-98425000D03*
X177165000Y-98425000D03*
X179705000Y-98425000D03*
X182245000Y-98425000D03*
X184785000Y-98425000D03*
D11*
X90805000Y-95885000D03*
D10*
X93345000Y-95885000D03*
X95885000Y-95885000D03*
X98425000Y-95885000D03*
X100965000Y-95885000D03*
X103505000Y-95885000D03*
X106045000Y-95885000D03*
X108585000Y-95885000D03*
X111125000Y-95885000D03*
X113665000Y-95885000D03*
X116205000Y-95885000D03*
X118745000Y-95885000D03*
X121285000Y-95885000D03*
X123825000Y-95885000D03*
X126365000Y-95885000D03*
X128905000Y-95885000D03*
X131445000Y-95885000D03*
X133985000Y-95885000D03*
X136525000Y-95885000D03*
X139065000Y-95885000D03*
X141605000Y-95885000D03*
X144145000Y-95885000D03*
X146685000Y-95885000D03*
X149225000Y-95885000D03*
X151765000Y-95885000D03*
X154305000Y-95885000D03*
X156845000Y-95885000D03*
X159385000Y-95885000D03*
X161925000Y-95885000D03*
X164465000Y-95885000D03*
X167005000Y-95885000D03*
X169545000Y-95885000D03*
X172085000Y-95885000D03*
X174625000Y-95885000D03*
X177165000Y-95885000D03*
X179705000Y-95885000D03*
X182245000Y-95885000D03*
X184785000Y-95885000D03*
D11*
X90805000Y-93345000D03*
D10*
X93345000Y-93345000D03*
X95885000Y-93345000D03*
X98425000Y-93345000D03*
X100965000Y-93345000D03*
X103505000Y-93345000D03*
X106045000Y-93345000D03*
X108585000Y-93345000D03*
X111125000Y-93345000D03*
X113665000Y-93345000D03*
X116205000Y-93345000D03*
X118745000Y-93345000D03*
X121285000Y-93345000D03*
X123825000Y-93345000D03*
X126365000Y-93345000D03*
X128905000Y-93345000D03*
X131445000Y-93345000D03*
X133985000Y-93345000D03*
X136525000Y-93345000D03*
X139065000Y-93345000D03*
X141605000Y-93345000D03*
X144145000Y-93345000D03*
X146685000Y-93345000D03*
X149225000Y-93345000D03*
X151765000Y-93345000D03*
X154305000Y-93345000D03*
X156845000Y-93345000D03*
X159385000Y-93345000D03*
X161925000Y-93345000D03*
X164465000Y-93345000D03*
X167005000Y-93345000D03*
X169545000Y-93345000D03*
X172085000Y-93345000D03*
X174625000Y-93345000D03*
X177165000Y-93345000D03*
X179705000Y-93345000D03*
X182245000Y-93345000D03*
X184785000Y-93345000D03*
D11*
X90805000Y-90805000D03*
D10*
X93345000Y-90805000D03*
X95885000Y-90805000D03*
X98425000Y-90805000D03*
X100965000Y-90805000D03*
X103505000Y-90805000D03*
X106045000Y-90805000D03*
X108585000Y-90805000D03*
X111125000Y-90805000D03*
X113665000Y-90805000D03*
X116205000Y-90805000D03*
X118745000Y-90805000D03*
X121285000Y-90805000D03*
X123825000Y-90805000D03*
X126365000Y-90805000D03*
X128905000Y-90805000D03*
X131445000Y-90805000D03*
X133985000Y-90805000D03*
X136525000Y-90805000D03*
X139065000Y-90805000D03*
X141605000Y-90805000D03*
X144145000Y-90805000D03*
X146685000Y-90805000D03*
X149225000Y-90805000D03*
X151765000Y-90805000D03*
X154305000Y-90805000D03*
X156845000Y-90805000D03*
X159385000Y-90805000D03*
X161925000Y-90805000D03*
X164465000Y-90805000D03*
X167005000Y-90805000D03*
X169545000Y-90805000D03*
X172085000Y-90805000D03*
X174625000Y-90805000D03*
X177165000Y-90805000D03*
X179705000Y-90805000D03*
X182245000Y-90805000D03*
X184785000Y-90805000D03*
D11*
X90805000Y-88265000D03*
D10*
X93345000Y-88265000D03*
X95885000Y-88265000D03*
X98425000Y-88265000D03*
X100965000Y-88265000D03*
X103505000Y-88265000D03*
X106045000Y-88265000D03*
X108585000Y-88265000D03*
X111125000Y-88265000D03*
X113665000Y-88265000D03*
X116205000Y-88265000D03*
X118745000Y-88265000D03*
X121285000Y-88265000D03*
X123825000Y-88265000D03*
X126365000Y-88265000D03*
X128905000Y-88265000D03*
X131445000Y-88265000D03*
X133985000Y-88265000D03*
X136525000Y-88265000D03*
X139065000Y-88265000D03*
X141605000Y-88265000D03*
X144145000Y-88265000D03*
X146685000Y-88265000D03*
X149225000Y-88265000D03*
X151765000Y-88265000D03*
X154305000Y-88265000D03*
X156845000Y-88265000D03*
X159385000Y-88265000D03*
X161925000Y-88265000D03*
X164465000Y-88265000D03*
X167005000Y-88265000D03*
X169545000Y-88265000D03*
X172085000Y-88265000D03*
X174625000Y-88265000D03*
X177165000Y-88265000D03*
X179705000Y-88265000D03*
X182245000Y-88265000D03*
X184785000Y-88265000D03*
D11*
X90805000Y-81280000D03*
D10*
X93345000Y-81280000D03*
X95885000Y-81280000D03*
X98425000Y-81280000D03*
X100965000Y-81280000D03*
X103505000Y-81280000D03*
X106045000Y-81280000D03*
X108585000Y-81280000D03*
X111125000Y-81280000D03*
X113665000Y-81280000D03*
X116205000Y-81280000D03*
X118745000Y-81280000D03*
X121285000Y-81280000D03*
X123825000Y-81280000D03*
X126365000Y-81280000D03*
X128905000Y-81280000D03*
X131445000Y-81280000D03*
X133985000Y-81280000D03*
X136525000Y-81280000D03*
X139065000Y-81280000D03*
X141605000Y-81280000D03*
X144145000Y-81280000D03*
X146685000Y-81280000D03*
X149225000Y-81280000D03*
X151765000Y-81280000D03*
X154305000Y-81280000D03*
X156845000Y-81280000D03*
X159385000Y-81280000D03*
X161925000Y-81280000D03*
X164465000Y-81280000D03*
X167005000Y-81280000D03*
X169545000Y-81280000D03*
X172085000Y-81280000D03*
X174625000Y-81280000D03*
X177165000Y-81280000D03*
X179705000Y-81280000D03*
X182245000Y-81280000D03*
X184785000Y-81280000D03*
D13*
X149860000Y-71755000D03*
X116840000Y-64135000D03*
X147320000Y-71755000D03*
X119380000Y-64135000D03*
X144780000Y-71755000D03*
X121920000Y-64135000D03*
X142240000Y-71755000D03*
X124460000Y-64135000D03*
X139700000Y-71755000D03*
X127000000Y-64135000D03*
X137160000Y-71755000D03*
X129540000Y-64135000D03*
X134620000Y-71755000D03*
X132080000Y-64135000D03*
X132080000Y-71755000D03*
X134620000Y-64135000D03*
X129540000Y-71755000D03*
X137160000Y-64135000D03*
X127000000Y-71755000D03*
X139700000Y-64135000D03*
X124460000Y-71755000D03*
X142240000Y-64135000D03*
X121920000Y-71755000D03*
X144780000Y-64135000D03*
X119380000Y-71755000D03*
X147320000Y-64135000D03*
X116840000Y-71755000D03*
D14*
X149860000Y-64135000D03*
D15*
X125295000Y-56515000D03*
X130175000Y-56515000D03*
D16*
X110490000Y-50800000D03*
X107950000Y-50800000D03*
D17*
X105410000Y-50800000D03*
D18*
X175260000Y-71120000D03*
D19*
X162560000Y-71120000D03*
D18*
X175260000Y-67310000D03*
D19*
X162560000Y-67310000D03*
D18*
X175260000Y-63500000D03*
D19*
X162560000Y-63500000D03*
D18*
X175260000Y-59690000D03*
D19*
X162560000Y-59690000D03*
D18*
X175260000Y-50800000D03*
D19*
X162560000Y-50800000D03*
D18*
X162560000Y-74930000D03*
D19*
X175260000Y-74930000D03*
D20*
X162560000Y-55245000D03*
D21*
X175260000Y-55245000D03*
D10*
X184150000Y-69850000D03*
X181610000Y-69850000D03*
X184150000Y-67310000D03*
X181610000Y-67310000D03*
X184150000Y-64770000D03*
D11*
X181610000Y-64770000D03*
D22*
X95250000Y-72945000D03*
D23*
X95250000Y-67945000D03*
D24*
X156210000Y-52705000D03*
D25*
X156210000Y-50165000D03*
D19*
X111760000Y-62150000D03*
X111760000Y-57150000D03*
X112395000Y-71040000D03*
X112395000Y-66040000D03*
X138430000Y-55325000D03*
X138430000Y-60325000D03*
X142875000Y-60245000D03*
X142875000Y-55245000D03*
X120730000Y-50800000D03*
X125730000Y-50800000D03*
X133905000Y-50800000D03*
X128905000Y-50800000D03*
X107950000Y-62150000D03*
X107950000Y-57150000D03*
X104140000Y-62150000D03*
X104140000Y-57150000D03*
X95330000Y-59690000D03*
D26*
X100330000Y-59690000D03*
D27*
X115570000Y-66675000D03*
X116840000Y-65950000D03*
X134620000Y-55245000D03*
X130720000Y-79375000D03*
X132715000Y-78105000D03*
X130175000Y-78105000D03*
X133985000Y-67945000D03*
X128995000Y-74295000D03*
X130810000Y-68580000D03*
X137795000Y-67400000D03*
X125640000Y-76200000D03*
X127090000Y-76200000D03*
X129540000Y-76110000D03*
X133350000Y-74930000D03*
X140335000Y-67400000D03*
X125290858Y-75125858D03*
X127545000Y-75020000D03*
X129646284Y-75053836D03*
X149225000Y-59055000D03*
X146050000Y-59055000D03*
X123190000Y-60415000D03*
X121920000Y-59690000D03*
X147320000Y-57150000D03*
X118110000Y-60325000D03*
D28*
X134620000Y-71755000D02*
X134620000Y-74295000D01*
X139065000Y-78740000D02*
X139065000Y-81280000D01*
X134620000Y-74295000D02*
X139065000Y-78740000D01*
D29*
X145415000Y-69850000D02*
X136525000Y-69850000D01*
D30*
X146050000Y-73026410D02*
X146050000Y-70485000D01*
D29*
X146050000Y-70485000D02*
X145415000Y-69850000D01*
X136525000Y-69850000D02*
X134620000Y-71755000D01*
X164465000Y-81280000D02*
X164465000Y-83820000D01*
X164465000Y-83820000D02*
X151765000Y-83820000D01*
X151765000Y-83820000D02*
X151765000Y-81280000D01*
X146050000Y-73478251D02*
X146050000Y-73026410D01*
X147001259Y-74429510D02*
X146050000Y-73478251D01*
X156162760Y-74429510D02*
X147001259Y-74429510D01*
X161108250Y-79375000D02*
X156162760Y-74429510D01*
X163830000Y-79375000D02*
X161108250Y-79375000D01*
X164465000Y-80010000D02*
X163830000Y-79375000D01*
X164465000Y-81280000D02*
X164465000Y-80010000D01*
D28*
X95965000Y-72945000D02*
X99695000Y-69215000D01*
D31*
X95250000Y-72945000D02*
X95965000Y-72945000D01*
X103505000Y-57785000D02*
X104140000Y-57150000D01*
D28*
X104140000Y-52070000D02*
X105410000Y-50800000D01*
X104140000Y-57150000D02*
X104140000Y-52070000D01*
D29*
X99695000Y-60325000D02*
X100330000Y-59690000D01*
D28*
X101600000Y-59690000D02*
X104140000Y-57150000D01*
D29*
X100330000Y-59690000D02*
X101600000Y-59690000D01*
D28*
X104140000Y-66040000D02*
X99695000Y-66040000D01*
X99695000Y-66040000D02*
X99695000Y-60325000D01*
X99695000Y-69215000D02*
X99695000Y-66040000D01*
D31*
X184150000Y-64135000D02*
X184150000Y-64770000D01*
X175260000Y-55245000D02*
X184150000Y-64135000D01*
D28*
X111125000Y-66040000D02*
X112395000Y-66040000D01*
X95885000Y-81280000D02*
X111125000Y-66040000D01*
X110490000Y-54610000D02*
X107950000Y-57150000D01*
X110490000Y-50800000D02*
X110490000Y-54610000D01*
X107950000Y-57150000D02*
X111760000Y-57150000D01*
X112395000Y-66040000D02*
X114300000Y-64135000D01*
X114300000Y-59690000D02*
X111760000Y-57150000D01*
D29*
X132080000Y-61595000D02*
X114300000Y-61595000D01*
X134620000Y-64135000D02*
X132080000Y-61595000D01*
D28*
X114300000Y-61595000D02*
X114300000Y-59690000D01*
X114300000Y-64135000D02*
X114300000Y-61595000D01*
X95885000Y-81280000D02*
X95885000Y-83820000D01*
X95885000Y-83820000D02*
X144145000Y-83820000D01*
X144145000Y-83820000D02*
X144145000Y-81280000D01*
D29*
X179705000Y-83820000D02*
X179705000Y-81280000D01*
X178435000Y-85090000D02*
X179705000Y-83820000D01*
X145415000Y-85090000D02*
X178435000Y-85090000D01*
X144145000Y-83820000D02*
X145415000Y-85090000D01*
X179705000Y-79375000D02*
X175260000Y-74930000D01*
X179705000Y-81280000D02*
X179705000Y-79375000D01*
D31*
X130175000Y-52070000D02*
X128905000Y-50800000D01*
X130175000Y-56515000D02*
X130175000Y-52070000D01*
X115570000Y-66675000D02*
X128905000Y-66675000D01*
X129540000Y-66040000D02*
X129540000Y-64135000D01*
X128905000Y-66675000D02*
X129540000Y-66040000D01*
X125295000Y-51235000D02*
X125730000Y-50800000D01*
X125295000Y-56515000D02*
X125295000Y-51235000D01*
X127000000Y-65405000D02*
X127000000Y-64135000D01*
X126455000Y-65950000D02*
X127000000Y-65405000D01*
X116840000Y-65950000D02*
X126455000Y-65950000D01*
D30*
X162560000Y-55245000D02*
X142875000Y-55245000D01*
X142875000Y-55245000D02*
X140970000Y-53340000D01*
X136525000Y-53340000D02*
X134620000Y-55245000D01*
X136525000Y-53340000D02*
X140970000Y-53340000D01*
D31*
X156210000Y-52705000D02*
X158115000Y-52705000D01*
X158115000Y-52705000D02*
X161925000Y-48895000D01*
X161925000Y-48895000D02*
X173355000Y-48895000D01*
X173355000Y-48895000D02*
X175260000Y-50800000D01*
X180340000Y-71120000D02*
X181610000Y-69850000D01*
X175260000Y-71120000D02*
X180340000Y-71120000D01*
X172720000Y-66040000D02*
X175260000Y-63500000D01*
X173990000Y-73025000D02*
X172720000Y-71755000D01*
X172720000Y-71755000D02*
X172720000Y-66040000D01*
X184150000Y-73025000D02*
X173990000Y-73025000D01*
X186055000Y-71120000D02*
X184150000Y-73025000D01*
X186055000Y-69215000D02*
X186055000Y-71120000D01*
X184150000Y-67310000D02*
X186055000Y-69215000D01*
X175260000Y-67310000D02*
X181610000Y-67310000D01*
X176530000Y-59690000D02*
X181610000Y-64770000D01*
X175260000Y-59690000D02*
X176530000Y-59690000D01*
X162560000Y-74930000D02*
X162560000Y-71120000D01*
X156845000Y-71120000D02*
X149860000Y-64135000D01*
X162560000Y-71120000D02*
X156845000Y-71120000D01*
X177165000Y-81280000D02*
X177165000Y-80010000D01*
X177165000Y-80010000D02*
X173990000Y-76835000D01*
X164465000Y-76835000D02*
X162560000Y-74930000D01*
X173990000Y-76835000D02*
X164465000Y-76835000D01*
X174625000Y-81280000D02*
X174625000Y-80010000D01*
X174625000Y-80010000D02*
X172085000Y-77470000D01*
X172085000Y-77470000D02*
X162560000Y-77470000D01*
X156845000Y-71755000D02*
X149860000Y-71755000D01*
X162560000Y-77470000D02*
X156845000Y-71755000D01*
X172085000Y-81280000D02*
X172085000Y-80010000D01*
X172085000Y-80010000D02*
X170180000Y-78105000D01*
X170180000Y-78105000D02*
X161925000Y-78105000D01*
X161925000Y-78105000D02*
X157480000Y-73660000D01*
X157480000Y-73660000D02*
X147320000Y-73660000D01*
X147320000Y-73660000D02*
X147320000Y-71755000D01*
X161925000Y-81280000D02*
X156210000Y-75565000D01*
X156210000Y-75565000D02*
X146050000Y-75565000D01*
X144780000Y-74295000D02*
X144780000Y-71755000D01*
X146050000Y-75565000D02*
X144780000Y-74295000D01*
X159385000Y-81280000D02*
X154305000Y-76200000D01*
X154305000Y-76200000D02*
X144145000Y-76200000D01*
X142240000Y-74295000D02*
X142240000Y-71755000D01*
X144145000Y-76200000D02*
X142240000Y-74295000D01*
X156845000Y-81280000D02*
X152400000Y-76835000D01*
X152400000Y-76835000D02*
X142240000Y-76835000D01*
X139700000Y-74295000D02*
X139700000Y-71755000D01*
X142240000Y-76835000D02*
X139700000Y-74295000D01*
X154305000Y-81280000D02*
X150495000Y-77470000D01*
X150495000Y-77470000D02*
X140335000Y-77470000D01*
X137160000Y-74295000D02*
X137160000Y-71755000D01*
X140335000Y-77470000D02*
X137160000Y-74295000D01*
X119380000Y-65405000D02*
X119380000Y-64135000D01*
X136525000Y-80010000D02*
X135890000Y-79375000D01*
X130720000Y-79375000D02*
X135890000Y-79375000D01*
X136525000Y-81280000D02*
X136525000Y-80010000D01*
X132715000Y-78105000D02*
X130175000Y-78105000D01*
X128905000Y-78105000D02*
X128905000Y-81280000D01*
X130810000Y-76200000D02*
X128905000Y-78105000D01*
X133350000Y-67945000D02*
X130810000Y-70485000D01*
X133985000Y-67945000D02*
X133350000Y-67945000D01*
X130810000Y-70485000D02*
X130810000Y-76200000D01*
X126365000Y-81280000D02*
X126365000Y-74930000D01*
X126365000Y-74930000D02*
X127000000Y-74295000D01*
X127000000Y-74295000D02*
X128995000Y-74295000D01*
X130810000Y-68580000D02*
X132080000Y-67310000D01*
X133636999Y-67219999D02*
X137704999Y-67219999D01*
X133546998Y-67310000D02*
X133636999Y-67219999D01*
X132080000Y-67310000D02*
X133546998Y-67310000D01*
X137795000Y-67310000D02*
X137795000Y-67400000D01*
X137704999Y-67219999D02*
X137795000Y-67310000D01*
X123825000Y-81280000D02*
X123825000Y-78105000D01*
X125640000Y-76290000D02*
X125640000Y-76200000D01*
X123825000Y-78105000D02*
X125640000Y-76290000D01*
X129450000Y-76200000D02*
X129540000Y-76110000D01*
X127090000Y-76200000D02*
X129450000Y-76200000D01*
X133350000Y-74930000D02*
X133350000Y-69850000D01*
X135074999Y-68125001D02*
X139519999Y-68125001D01*
X133350000Y-69850000D02*
X135074999Y-68125001D01*
X140245000Y-67400000D02*
X140335000Y-67400000D01*
X139519999Y-68125001D02*
X140245000Y-67400000D01*
X121285000Y-81280000D02*
X121285000Y-78742820D01*
X121285000Y-78742820D02*
X122742106Y-77285714D01*
X122742106Y-77285714D02*
X125096410Y-74931410D01*
X125096410Y-74931410D02*
X125290858Y-75125858D01*
X127545000Y-75020000D02*
X129450000Y-75020000D01*
X129483836Y-75053836D02*
X129646284Y-75053836D01*
X129450000Y-75020000D02*
X129483836Y-75053836D01*
X118745000Y-81280000D02*
X118745000Y-77470000D01*
X118745000Y-77470000D02*
X119380000Y-76835000D01*
X119380705Y-76835705D02*
X122555705Y-76835705D01*
X119380000Y-76835000D02*
X119380705Y-76835705D01*
X125731410Y-73660000D02*
X122555705Y-76835705D01*
X127635000Y-73660000D02*
X128270000Y-73025000D01*
X127635000Y-73660000D02*
X125731410Y-73660000D01*
X128270000Y-73025000D02*
X128270000Y-69850000D01*
X128270000Y-69850000D02*
X128270000Y-68580000D01*
X128270000Y-68580000D02*
X128905000Y-67945000D01*
X128905000Y-67945000D02*
X130175000Y-67945000D01*
X130175000Y-67945000D02*
X131445000Y-66675000D01*
X131445000Y-66675000D02*
X134620000Y-66675000D01*
X134620000Y-66675000D02*
X134620000Y-66765000D01*
X134620000Y-66675000D02*
X146685000Y-66675000D01*
X147320000Y-66040000D02*
X147320000Y-64135000D01*
X146685000Y-66675000D02*
X147320000Y-66040000D01*
X111125000Y-81280000D02*
X111125000Y-77470000D01*
X111125000Y-77470000D02*
X112395000Y-76200000D01*
X122555000Y-76200000D02*
X127000000Y-71755000D01*
X112395000Y-76200000D02*
X122555000Y-76200000D01*
X128270000Y-67310000D02*
X127000000Y-68580000D01*
X162560000Y-67310000D02*
X163830000Y-67310000D01*
X163830000Y-67310000D02*
X166370000Y-64770000D01*
X144780000Y-61595000D02*
X137160000Y-61595000D01*
X130810000Y-66040000D02*
X129540000Y-67310000D01*
X166370000Y-64770000D02*
X166370000Y-59690000D01*
X166370000Y-59690000D02*
X164465000Y-57785000D01*
X164465000Y-57785000D02*
X148590000Y-57785000D01*
X135890000Y-65405000D02*
X135255000Y-66040000D01*
X129540000Y-67310000D02*
X128270000Y-67310000D01*
X148590000Y-57785000D02*
X144780000Y-61595000D01*
X137160000Y-61595000D02*
X135890000Y-62865000D01*
X127000000Y-68580000D02*
X127000000Y-71755000D01*
X135890000Y-62865000D02*
X135890000Y-65405000D01*
X135255000Y-66040000D02*
X130810000Y-66040000D01*
X108585000Y-81280000D02*
X108585000Y-78740000D01*
X108585000Y-78740000D02*
X111760000Y-75565000D01*
X120650000Y-75565000D02*
X124460000Y-71755000D01*
X111760000Y-75565000D02*
X120650000Y-75565000D01*
X146050000Y-59055000D02*
X145415000Y-59055000D01*
X145415000Y-59055000D02*
X138034998Y-59055000D01*
X138034998Y-59055000D02*
X135255000Y-59055000D01*
X133894999Y-60415001D02*
X123280001Y-60415001D01*
X135255000Y-59055000D02*
X133894999Y-60415001D01*
X123280000Y-60415000D02*
X123190000Y-60415000D01*
X123280001Y-60415001D02*
X123280000Y-60415000D01*
X164465000Y-59690000D02*
X162560000Y-59690000D01*
X165100000Y-64135000D02*
X165100000Y-60325000D01*
X163830000Y-65405000D02*
X165100000Y-64135000D01*
X165100000Y-60325000D02*
X164465000Y-59690000D01*
X161925000Y-65405000D02*
X163830000Y-65405000D01*
X155575000Y-59055000D02*
X161925000Y-65405000D01*
X149225000Y-59055000D02*
X155575000Y-59055000D01*
X106045000Y-81280000D02*
X106045000Y-80010000D01*
X106045000Y-80010000D02*
X111125000Y-74930000D01*
X118745000Y-74930000D02*
X121920000Y-71755000D01*
X111125000Y-74930000D02*
X118745000Y-74930000D01*
X121920000Y-59690000D02*
X133350000Y-59690000D01*
X133350000Y-59690000D02*
X135890000Y-57150000D01*
X135890000Y-57150000D02*
X147320000Y-57150000D01*
X103505000Y-81280000D02*
X110490000Y-74295000D01*
X116840000Y-74295000D02*
X119380000Y-71755000D01*
X110490000Y-74295000D02*
X116840000Y-74295000D01*
X118110000Y-50165000D02*
X118110000Y-60325000D01*
X119380000Y-48895000D02*
X118110000Y-50165000D01*
X147955000Y-48895000D02*
X119380000Y-48895000D01*
X153670000Y-54610000D02*
X147955000Y-48895000D01*
X158750000Y-54610000D02*
X153670000Y-54610000D01*
X162560000Y-50800000D02*
X158750000Y-54610000D01*
X100965000Y-81280000D02*
X108585000Y-73660000D01*
X114935000Y-73660000D02*
X116840000Y-71755000D01*
X108585000Y-73660000D02*
X114935000Y-73660000D01*
X113030000Y-67945000D02*
X116840000Y-64135000D01*
X98425000Y-81280000D02*
X111760000Y-67945000D01*
X111760000Y-67945000D02*
X113030000Y-67945000D01*
D29*
X184785000Y-93345000D02*
X184785000Y-88265000D01*
X182245000Y-93345000D02*
X182245000Y-88265000D01*
X179705000Y-93345000D02*
X179705000Y-88265000D01*
X177165000Y-93345000D02*
X177165000Y-88265000D01*
X174625000Y-93345000D02*
X174625000Y-88265000D01*
X172085000Y-93345000D02*
X172085000Y-88265000D01*
X169545000Y-93345000D02*
X169545000Y-88265000D01*
X167005000Y-93345000D02*
X167005000Y-88265000D01*
X164465000Y-93345000D02*
X164465000Y-88265000D01*
X161925000Y-93345000D02*
X161925000Y-88265000D01*
X159385000Y-93345000D02*
X159385000Y-88265000D01*
X156845000Y-93345000D02*
X156845000Y-88265000D01*
X154305000Y-93345000D02*
X154305000Y-88265000D01*
X151765000Y-93345000D02*
X151765000Y-88265000D01*
X149225000Y-93345000D02*
X149225000Y-88265000D01*
X146685000Y-93345000D02*
X146685000Y-88265000D01*
X144145000Y-93345000D02*
X144145000Y-88265000D01*
X141605000Y-93345000D02*
X141605000Y-88265000D01*
X139065000Y-93345000D02*
X139065000Y-88265000D01*
X136525000Y-93345000D02*
X136525000Y-88265000D01*
X133985000Y-93345000D02*
X133985000Y-88265000D01*
X131445000Y-93345000D02*
X131445000Y-88265000D01*
X128905000Y-93345000D02*
X128905000Y-88265000D01*
X126365000Y-93345000D02*
X126365000Y-88265000D01*
X123825000Y-93345000D02*
X123825000Y-88265000D01*
X121285000Y-93345000D02*
X121285000Y-88265000D01*
X118745000Y-93345000D02*
X118745000Y-88265000D01*
X116205000Y-93345000D02*
X116205000Y-88265000D01*
X113665000Y-93345000D02*
X113665000Y-88265000D01*
X111125000Y-93345000D02*
X111125000Y-88265000D01*
X108585000Y-93345000D02*
X108585000Y-88265000D01*
X106045000Y-93345000D02*
X106045000Y-88265000D01*
X103505000Y-93345000D02*
X103505000Y-88265000D01*
X100965000Y-93345000D02*
X100965000Y-88265000D01*
X98425000Y-93345000D02*
X98425000Y-88265000D01*
X95885000Y-93345000D02*
X95885000Y-88265000D01*
X93345000Y-93345000D02*
X93345000Y-88265000D01*
X90805000Y-93345000D02*
X90805000Y-88265000D01*
X184785000Y-95885000D02*
X90805000Y-95885000D01*
X90805000Y-98425000D02*
X184785000Y-98425000D01*
X184785000Y-106045000D02*
X184785000Y-100965000D01*
X182245000Y-106045000D02*
X182245000Y-100965000D01*
X179705000Y-106045000D02*
X179705000Y-100965000D01*
X177165000Y-106045000D02*
X177165000Y-100965000D01*
X174625000Y-106045000D02*
X174625000Y-100965000D01*
X172085000Y-106045000D02*
X172085000Y-100965000D01*
X169545000Y-106045000D02*
X169545000Y-100965000D01*
X167005000Y-106045000D02*
X167005000Y-100965000D01*
X164465000Y-106045000D02*
X164465000Y-100965000D01*
X161925000Y-106045000D02*
X161925000Y-100965000D01*
X159385000Y-106045000D02*
X159385000Y-100965000D01*
X156845000Y-106045000D02*
X156845000Y-100965000D01*
X154305000Y-106045000D02*
X154305000Y-100965000D01*
X151765000Y-106045000D02*
X151765000Y-100965000D01*
X149225000Y-106045000D02*
X149225000Y-100965000D01*
X146685000Y-106045000D02*
X146685000Y-100965000D01*
X144145000Y-106045000D02*
X144145000Y-100965000D01*
X141605000Y-106045000D02*
X141605000Y-100965000D01*
X139065000Y-106045000D02*
X139065000Y-100965000D01*
X136525000Y-106045000D02*
X136525000Y-100965000D01*
X133985000Y-106045000D02*
X133985000Y-100965000D01*
X131445000Y-106045000D02*
X131445000Y-100965000D01*
X128905000Y-106045000D02*
X128905000Y-100965000D01*
X126365000Y-106045000D02*
X126365000Y-100965000D01*
X123825000Y-106045000D02*
X123825000Y-100965000D01*
X121285000Y-106045000D02*
X121285000Y-100965000D01*
X118745000Y-106045000D02*
X118745000Y-100965000D01*
X116205000Y-106045000D02*
X116205000Y-100965000D01*
X113665000Y-106045000D02*
X113665000Y-100965000D01*
X111125000Y-106045000D02*
X111125000Y-100965000D01*
X108585000Y-106045000D02*
X108585000Y-100965000D01*
X106045000Y-106045000D02*
X106045000Y-100965000D01*
X103505000Y-106045000D02*
X103505000Y-100965000D01*
X100965000Y-106045000D02*
X100965000Y-100965000D01*
X98425000Y-106045000D02*
X98425000Y-100965000D01*
X95885000Y-106045000D02*
X95885000Y-100965000D01*
X93345000Y-106045000D02*
X93345000Y-100965000D01*
X90805000Y-106045000D02*
X90805000Y-100965000D01*
X184785000Y-113665000D02*
X184785000Y-108585000D01*
X182245000Y-113665000D02*
X182245000Y-108585000D01*
X179705000Y-113665000D02*
X179705000Y-108585000D01*
X177165000Y-113665000D02*
X177165000Y-108585000D01*
X174625000Y-113665000D02*
X174625000Y-108585000D01*
X172085000Y-113665000D02*
X172085000Y-108585000D01*
X169545000Y-113665000D02*
X169545000Y-108585000D01*
X167005000Y-113665000D02*
X167005000Y-108585000D01*
X164465000Y-113665000D02*
X164465000Y-108585000D01*
X161925000Y-113665000D02*
X161925000Y-108585000D01*
X159385000Y-113665000D02*
X159385000Y-108585000D01*
X156845000Y-113665000D02*
X156845000Y-108585000D01*
X154305000Y-113665000D02*
X154305000Y-108585000D01*
X151765000Y-113665000D02*
X151765000Y-108585000D01*
X149225000Y-113665000D02*
X149225000Y-108585000D01*
X146685000Y-113665000D02*
X146685000Y-108585000D01*
X144145000Y-113665000D02*
X144145000Y-108585000D01*
X141605000Y-113665000D02*
X141605000Y-108585000D01*
X139065000Y-113665000D02*
X139065000Y-108585000D01*
X136525000Y-113665000D02*
X136525000Y-108585000D01*
X133985000Y-113665000D02*
X133985000Y-108585000D01*
X131445000Y-113665000D02*
X131445000Y-108585000D01*
X128905000Y-113665000D02*
X128905000Y-108585000D01*
X126365000Y-113665000D02*
X126365000Y-108585000D01*
X123825000Y-113665000D02*
X123825000Y-108585000D01*
X121285000Y-113665000D02*
X121285000Y-108585000D01*
X118745000Y-113665000D02*
X118745000Y-108585000D01*
X116205000Y-113665000D02*
X116205000Y-108585000D01*
X113665000Y-113665000D02*
X113665000Y-108585000D01*
X111125000Y-113665000D02*
X111125000Y-108585000D01*
X108585000Y-113665000D02*
X108585000Y-108585000D01*
X106045000Y-113665000D02*
X106045000Y-108585000D01*
X103505000Y-113665000D02*
X103505000Y-108585000D01*
X100965000Y-113665000D02*
X100965000Y-108585000D01*
X98425000Y-113665000D02*
X98425000Y-108585000D01*
X95885000Y-113665000D02*
X95885000Y-108585000D01*
X93345000Y-113665000D02*
X93345000Y-108585000D01*
X90805000Y-113665000D02*
X90805000Y-108585000D01*
X184785000Y-116205000D02*
X90805000Y-116205000D01*
X90805000Y-118745000D02*
X184785000Y-118745000D01*
X184795000Y-121295000D02*
X184785000Y-121285000D01*
X184795000Y-126365000D02*
X184795000Y-121295000D01*
X182255000Y-121295000D02*
X182245000Y-121285000D01*
X182255000Y-126365000D02*
X182255000Y-121295000D01*
X179715000Y-121295000D02*
X179705000Y-121285000D01*
X179715000Y-126365000D02*
X179715000Y-121295000D01*
X177175000Y-121295000D02*
X177165000Y-121285000D01*
X177175000Y-126365000D02*
X177175000Y-121295000D01*
X174635000Y-121295000D02*
X174625000Y-121285000D01*
X174635000Y-126365000D02*
X174635000Y-121295000D01*
X172095000Y-121295000D02*
X172085000Y-121285000D01*
X172095000Y-126365000D02*
X172095000Y-121295000D01*
X169555000Y-121295000D02*
X169545000Y-121285000D01*
X169555000Y-126365000D02*
X169555000Y-121295000D01*
X167015000Y-121295000D02*
X167005000Y-121285000D01*
X167015000Y-126365000D02*
X167015000Y-121295000D01*
X164475000Y-121295000D02*
X164465000Y-121285000D01*
X164475000Y-126365000D02*
X164475000Y-121295000D01*
X161935000Y-121295000D02*
X161925000Y-121285000D01*
X161935000Y-126365000D02*
X161935000Y-121295000D01*
X159395000Y-121295000D02*
X159385000Y-121285000D01*
X159395000Y-126365000D02*
X159395000Y-121295000D01*
X156855000Y-121295000D02*
X156845000Y-121285000D01*
X156855000Y-126365000D02*
X156855000Y-121295000D01*
X154315000Y-121295000D02*
X154305000Y-121285000D01*
X154315000Y-126365000D02*
X154315000Y-121295000D01*
X151775000Y-121295000D02*
X151765000Y-121285000D01*
X151775000Y-126365000D02*
X151775000Y-121295000D01*
X149235000Y-121295000D02*
X149225000Y-121285000D01*
X149235000Y-126365000D02*
X149235000Y-121295000D01*
X146695000Y-121295000D02*
X146685000Y-121285000D01*
X146695000Y-126365000D02*
X146695000Y-121295000D01*
X144155000Y-121295000D02*
X144145000Y-121285000D01*
X144155000Y-126365000D02*
X144155000Y-121295000D01*
X141615000Y-121295000D02*
X141605000Y-121285000D01*
X141615000Y-126365000D02*
X141615000Y-121295000D01*
X139075000Y-121295000D02*
X139065000Y-121285000D01*
X139075000Y-126365000D02*
X139075000Y-121295000D01*
X136535000Y-121295000D02*
X136525000Y-121285000D01*
X136535000Y-126365000D02*
X136535000Y-121295000D01*
X133995000Y-121295000D02*
X133985000Y-121285000D01*
X133995000Y-126365000D02*
X133995000Y-121295000D01*
X131455000Y-121295000D02*
X131445000Y-121285000D01*
X131455000Y-126365000D02*
X131455000Y-121295000D01*
X128915000Y-121295000D02*
X128905000Y-121285000D01*
X128915000Y-126365000D02*
X128915000Y-121295000D01*
X126375000Y-121295000D02*
X126365000Y-121285000D01*
X126375000Y-126365000D02*
X126375000Y-121295000D01*
X123835000Y-121295000D02*
X123825000Y-121285000D01*
X123835000Y-126365000D02*
X123835000Y-121295000D01*
X121295000Y-121295000D02*
X121285000Y-121285000D01*
X121295000Y-126365000D02*
X121295000Y-121295000D01*
X118755000Y-121295000D02*
X118745000Y-121285000D01*
X118755000Y-126365000D02*
X118755000Y-121295000D01*
X116215000Y-121295000D02*
X116205000Y-121285000D01*
X116215000Y-126365000D02*
X116215000Y-121295000D01*
X113675000Y-121295000D02*
X113665000Y-121285000D01*
X113675000Y-126365000D02*
X113675000Y-121295000D01*
X111135000Y-121295000D02*
X111125000Y-121285000D01*
X111135000Y-126365000D02*
X111135000Y-121295000D01*
X108595000Y-121295000D02*
X108585000Y-121285000D01*
X108595000Y-126365000D02*
X108595000Y-121295000D01*
X106055000Y-121295000D02*
X106045000Y-121285000D01*
X106055000Y-126365000D02*
X106055000Y-121295000D01*
X103515000Y-121295000D02*
X103505000Y-121285000D01*
X103515000Y-126365000D02*
X103515000Y-121295000D01*
X100975000Y-121295000D02*
X100965000Y-121285000D01*
X100975000Y-126365000D02*
X100975000Y-121295000D01*
X98435000Y-121295000D02*
X98425000Y-121285000D01*
X98435000Y-126365000D02*
X98435000Y-121295000D01*
X95895000Y-121295000D02*
X95885000Y-121285000D01*
X95895000Y-126365000D02*
X95895000Y-121295000D01*
X93355000Y-121295000D02*
X93345000Y-121285000D01*
X93355000Y-126365000D02*
X93355000Y-121295000D01*
X90815000Y-121295000D02*
X90805000Y-121285000D01*
X90815000Y-126365000D02*
X90815000Y-121295000D01*
X184785000Y-133985000D02*
X184785000Y-128905000D01*
X182245000Y-133985000D02*
X182245000Y-128905000D01*
X179705000Y-133985000D02*
X179705000Y-128905000D01*
X177165000Y-133985000D02*
X177165000Y-128905000D01*
X174625000Y-133985000D02*
X174625000Y-128905000D01*
X172085000Y-133985000D02*
X172085000Y-128905000D01*
X169545000Y-133985000D02*
X169545000Y-128905000D01*
X167005000Y-133985000D02*
X167005000Y-128905000D01*
X164465000Y-133985000D02*
X164465000Y-128905000D01*
X161925000Y-133985000D02*
X161925000Y-128905000D01*
X159385000Y-133985000D02*
X159385000Y-128905000D01*
X156845000Y-133985000D02*
X156845000Y-128905000D01*
X154305000Y-133985000D02*
X154305000Y-128905000D01*
X151765000Y-133985000D02*
X151765000Y-128905000D01*
X149225000Y-133985000D02*
X149225000Y-128905000D01*
X146685000Y-133985000D02*
X146685000Y-130175000D01*
X146685000Y-131445000D02*
X146685000Y-128905000D01*
X144145000Y-133985000D02*
X144145000Y-128905000D01*
X141605000Y-133985000D02*
X141605000Y-128905000D01*
X139065000Y-133985000D02*
X139065000Y-128905000D01*
X136525000Y-133985000D02*
X136525000Y-128905000D01*
X133985000Y-133985000D02*
X133985000Y-128905000D01*
X131445000Y-133985000D02*
X131445000Y-128905000D01*
X128905000Y-133985000D02*
X128905000Y-128905000D01*
X126365000Y-133985000D02*
X126365000Y-128905000D01*
X123825000Y-133985000D02*
X123825000Y-128905000D01*
X121285000Y-133985000D02*
X121285000Y-128905000D01*
X118745000Y-133985000D02*
X118745000Y-128905000D01*
X116205000Y-133985000D02*
X116205000Y-128905000D01*
X113665000Y-133985000D02*
X113665000Y-128905000D01*
X111125000Y-133985000D02*
X111125000Y-128905000D01*
X108585000Y-133985000D02*
X108585000Y-128905000D01*
X106045000Y-133985000D02*
X106045000Y-128905000D01*
X103505000Y-133985000D02*
X103505000Y-128905000D01*
X100965000Y-133985000D02*
X100965000Y-129540000D01*
X100965000Y-129540000D02*
X100965000Y-128905000D01*
X98425000Y-133985000D02*
X98425000Y-128905000D01*
X95885000Y-133985000D02*
X95885000Y-128905000D01*
X93345000Y-133985000D02*
X93345000Y-128905000D01*
X90805000Y-133985000D02*
X90805000Y-128905000D01*
M02*
