%TF.GenerationSoftware,KiCad,Pcbnew,5.1.9+dfsg1-1*%
%TF.CreationDate,2022-08-07T17:24:21-05:00*%
%TF.ProjectId,aarghweeno_88,61617267-6877-4656-956e-6f5f38382e6b,rev?*%
%TF.SameCoordinates,Original*%
%TF.FileFunction,Copper,L1,Top*%
%TF.FilePolarity,Positive*%
%FSLAX46Y46*%
G04 Gerber Fmt 4.6, Leading zero omitted, Abs format (unit mm)*
G04 Created by KiCad (PCBNEW 5.1.9+dfsg1-1) date 2022-08-07 17:24:21*
%MOMM*%
%LPD*%
G01*
G04 APERTURE LIST*
%TA.AperFunction,ComponentPad*%
%ADD10O,1.700000X1.700000*%
%TD*%
%TA.AperFunction,ComponentPad*%
%ADD11R,1.700000X1.700000*%
%TD*%
%TA.AperFunction,ComponentPad*%
%ADD12C,7.000000*%
%TD*%
%TA.AperFunction,ComponentPad*%
%ADD13O,1.600000X2.400000*%
%TD*%
%TA.AperFunction,ComponentPad*%
%ADD14R,1.600000X2.400000*%
%TD*%
%TA.AperFunction,ComponentPad*%
%ADD15C,1.500000*%
%TD*%
%TA.AperFunction,ComponentPad*%
%ADD16O,1.905000X2.000000*%
%TD*%
%TA.AperFunction,ComponentPad*%
%ADD17R,1.905000X2.000000*%
%TD*%
%TA.AperFunction,ComponentPad*%
%ADD18O,1.600000X1.600000*%
%TD*%
%TA.AperFunction,ComponentPad*%
%ADD19C,1.600000*%
%TD*%
%TA.AperFunction,ComponentPad*%
%ADD20O,2.000000X2.000000*%
%TD*%
%TA.AperFunction,ComponentPad*%
%ADD21C,2.000000*%
%TD*%
%TA.AperFunction,ComponentPad*%
%ADD22O,3.960000X1.980000*%
%TD*%
%TA.AperFunction,ComponentPad*%
%ADD23R,3.960000X1.980000*%
%TD*%
%TA.AperFunction,ComponentPad*%
%ADD24C,1.800000*%
%TD*%
%TA.AperFunction,ComponentPad*%
%ADD25R,1.800000X1.800000*%
%TD*%
%TA.AperFunction,ComponentPad*%
%ADD26R,1.600000X1.600000*%
%TD*%
%TA.AperFunction,ViaPad*%
%ADD27C,0.800000*%
%TD*%
%TA.AperFunction,Conductor*%
%ADD28C,1.270000*%
%TD*%
%TA.AperFunction,Conductor*%
%ADD29C,0.889000*%
%TD*%
%TA.AperFunction,Conductor*%
%ADD30C,0.508000*%
%TD*%
%TA.AperFunction,Conductor*%
%ADD31C,0.250000*%
%TD*%
G04 APERTURE END LIST*
D10*
%TO.P,J23,2*%
%TO.N,GND*%
X106680000Y-66040000D03*
D11*
%TO.P,J23,1*%
%TO.N,Net-(C1-Pad1)*%
X104140000Y-66040000D03*
%TD*%
D12*
%TO.P,H4,1*%
%TO.N,GND*%
X182245000Y-140335000D03*
%TD*%
%TO.P,H3,1*%
%TO.N,GND*%
X181610000Y-51435000D03*
%TD*%
%TO.P,H2,1*%
%TO.N,GND*%
X92710000Y-140335000D03*
%TD*%
%TO.P,H1,1*%
%TO.N,GND*%
X92710000Y-51435000D03*
%TD*%
D11*
%TO.P,J22,1*%
%TO.N,Net-(J20-Pad1)*%
X90805000Y-133985000D03*
D10*
%TO.P,J22,2*%
%TO.N,Net-(J20-Pad2)*%
X93345000Y-133985000D03*
%TO.P,J22,3*%
%TO.N,Net-(J20-Pad3)*%
X95885000Y-133985000D03*
%TO.P,J22,4*%
%TO.N,Net-(J20-Pad4)*%
X98425000Y-133985000D03*
%TO.P,J22,5*%
%TO.N,Net-(J20-Pad5)*%
X100965000Y-133985000D03*
%TO.P,J22,6*%
%TO.N,Net-(J20-Pad6)*%
X103505000Y-133985000D03*
%TO.P,J22,7*%
%TO.N,Net-(J20-Pad7)*%
X106045000Y-133985000D03*
%TO.P,J22,8*%
%TO.N,Net-(J20-Pad8)*%
X108585000Y-133985000D03*
%TO.P,J22,9*%
%TO.N,Net-(J20-Pad9)*%
X111125000Y-133985000D03*
%TO.P,J22,10*%
%TO.N,Net-(J20-Pad10)*%
X113665000Y-133985000D03*
%TO.P,J22,11*%
%TO.N,Net-(J20-Pad11)*%
X116205000Y-133985000D03*
%TO.P,J22,12*%
%TO.N,Net-(J20-Pad12)*%
X118745000Y-133985000D03*
%TO.P,J22,13*%
%TO.N,Net-(J20-Pad13)*%
X121285000Y-133985000D03*
%TO.P,J22,14*%
%TO.N,Net-(J20-Pad14)*%
X123825000Y-133985000D03*
%TO.P,J22,15*%
%TO.N,Net-(J20-Pad15)*%
X126365000Y-133985000D03*
%TO.P,J22,16*%
%TO.N,Net-(J20-Pad16)*%
X128905000Y-133985000D03*
%TO.P,J22,17*%
%TO.N,Net-(J20-Pad17)*%
X131445000Y-133985000D03*
%TO.P,J22,18*%
%TO.N,Net-(J20-Pad18)*%
X133985000Y-133985000D03*
%TO.P,J22,19*%
%TO.N,Net-(J20-Pad19)*%
X136525000Y-133985000D03*
%TO.P,J22,20*%
%TO.N,Net-(J20-Pad20)*%
X139065000Y-133985000D03*
%TO.P,J22,21*%
%TO.N,Net-(J20-Pad21)*%
X141605000Y-133985000D03*
%TO.P,J22,22*%
%TO.N,Net-(J20-Pad22)*%
X144145000Y-133985000D03*
%TO.P,J22,23*%
%TO.N,Net-(J20-Pad23)*%
X146685000Y-133985000D03*
%TO.P,J22,24*%
%TO.N,Net-(J20-Pad24)*%
X149225000Y-133985000D03*
%TO.P,J22,25*%
%TO.N,Net-(J20-Pad25)*%
X151765000Y-133985000D03*
%TO.P,J22,26*%
%TO.N,Net-(J20-Pad26)*%
X154305000Y-133985000D03*
%TO.P,J22,27*%
%TO.N,Net-(J20-Pad27)*%
X156845000Y-133985000D03*
%TO.P,J22,28*%
%TO.N,Net-(J20-Pad28)*%
X159385000Y-133985000D03*
%TO.P,J22,29*%
%TO.N,Net-(J20-Pad29)*%
X161925000Y-133985000D03*
%TO.P,J22,30*%
%TO.N,Net-(J20-Pad30)*%
X164465000Y-133985000D03*
%TO.P,J22,31*%
%TO.N,Net-(J20-Pad31)*%
X167005000Y-133985000D03*
%TO.P,J22,32*%
%TO.N,Net-(J20-Pad32)*%
X169545000Y-133985000D03*
%TO.P,J22,33*%
%TO.N,Net-(J20-Pad33)*%
X172085000Y-133985000D03*
%TO.P,J22,34*%
%TO.N,Net-(J20-Pad34)*%
X174625000Y-133985000D03*
%TO.P,J22,35*%
%TO.N,Net-(J20-Pad35)*%
X177165000Y-133985000D03*
%TO.P,J22,36*%
%TO.N,Net-(J20-Pad36)*%
X179705000Y-133985000D03*
%TO.P,J22,37*%
%TO.N,Net-(J20-Pad37)*%
X182245000Y-133985000D03*
%TO.P,J22,38*%
%TO.N,Net-(J20-Pad38)*%
X184785000Y-133985000D03*
%TD*%
D11*
%TO.P,J21,1*%
%TO.N,Net-(J20-Pad1)*%
X90805000Y-131445000D03*
D10*
%TO.P,J21,2*%
%TO.N,Net-(J20-Pad2)*%
X93345000Y-131445000D03*
%TO.P,J21,3*%
%TO.N,Net-(J20-Pad3)*%
X95885000Y-131445000D03*
%TO.P,J21,4*%
%TO.N,Net-(J20-Pad4)*%
X98425000Y-131445000D03*
%TO.P,J21,5*%
%TO.N,Net-(J20-Pad5)*%
X100965000Y-131445000D03*
%TO.P,J21,6*%
%TO.N,Net-(J20-Pad6)*%
X103505000Y-131445000D03*
%TO.P,J21,7*%
%TO.N,Net-(J20-Pad7)*%
X106045000Y-131445000D03*
%TO.P,J21,8*%
%TO.N,Net-(J20-Pad8)*%
X108585000Y-131445000D03*
%TO.P,J21,9*%
%TO.N,Net-(J20-Pad9)*%
X111125000Y-131445000D03*
%TO.P,J21,10*%
%TO.N,Net-(J20-Pad10)*%
X113665000Y-131445000D03*
%TO.P,J21,11*%
%TO.N,Net-(J20-Pad11)*%
X116205000Y-131445000D03*
%TO.P,J21,12*%
%TO.N,Net-(J20-Pad12)*%
X118745000Y-131445000D03*
%TO.P,J21,13*%
%TO.N,Net-(J20-Pad13)*%
X121285000Y-131445000D03*
%TO.P,J21,14*%
%TO.N,Net-(J20-Pad14)*%
X123825000Y-131445000D03*
%TO.P,J21,15*%
%TO.N,Net-(J20-Pad15)*%
X126365000Y-131445000D03*
%TO.P,J21,16*%
%TO.N,Net-(J20-Pad16)*%
X128905000Y-131445000D03*
%TO.P,J21,17*%
%TO.N,Net-(J20-Pad17)*%
X131445000Y-131445000D03*
%TO.P,J21,18*%
%TO.N,Net-(J20-Pad18)*%
X133985000Y-131445000D03*
%TO.P,J21,19*%
%TO.N,Net-(J20-Pad19)*%
X136525000Y-131445000D03*
%TO.P,J21,20*%
%TO.N,Net-(J20-Pad20)*%
X139065000Y-131445000D03*
%TO.P,J21,21*%
%TO.N,Net-(J20-Pad21)*%
X141605000Y-131445000D03*
%TO.P,J21,22*%
%TO.N,Net-(J20-Pad22)*%
X144145000Y-131445000D03*
%TO.P,J21,23*%
%TO.N,Net-(J20-Pad23)*%
X146685000Y-131445000D03*
%TO.P,J21,24*%
%TO.N,Net-(J20-Pad24)*%
X149225000Y-131445000D03*
%TO.P,J21,25*%
%TO.N,Net-(J20-Pad25)*%
X151765000Y-131445000D03*
%TO.P,J21,26*%
%TO.N,Net-(J20-Pad26)*%
X154305000Y-131445000D03*
%TO.P,J21,27*%
%TO.N,Net-(J20-Pad27)*%
X156845000Y-131445000D03*
%TO.P,J21,28*%
%TO.N,Net-(J20-Pad28)*%
X159385000Y-131445000D03*
%TO.P,J21,29*%
%TO.N,Net-(J20-Pad29)*%
X161925000Y-131445000D03*
%TO.P,J21,30*%
%TO.N,Net-(J20-Pad30)*%
X164465000Y-131445000D03*
%TO.P,J21,31*%
%TO.N,Net-(J20-Pad31)*%
X167005000Y-131445000D03*
%TO.P,J21,32*%
%TO.N,Net-(J20-Pad32)*%
X169545000Y-131445000D03*
%TO.P,J21,33*%
%TO.N,Net-(J20-Pad33)*%
X172085000Y-131445000D03*
%TO.P,J21,34*%
%TO.N,Net-(J20-Pad34)*%
X174625000Y-131445000D03*
%TO.P,J21,35*%
%TO.N,Net-(J20-Pad35)*%
X177165000Y-131445000D03*
%TO.P,J21,36*%
%TO.N,Net-(J20-Pad36)*%
X179705000Y-131445000D03*
%TO.P,J21,37*%
%TO.N,Net-(J20-Pad37)*%
X182245000Y-131445000D03*
%TO.P,J21,38*%
%TO.N,Net-(J20-Pad38)*%
X184785000Y-131445000D03*
%TD*%
D11*
%TO.P,J20,1*%
%TO.N,Net-(J20-Pad1)*%
X90805000Y-128905000D03*
D10*
%TO.P,J20,2*%
%TO.N,Net-(J20-Pad2)*%
X93345000Y-128905000D03*
%TO.P,J20,3*%
%TO.N,Net-(J20-Pad3)*%
X95885000Y-128905000D03*
%TO.P,J20,4*%
%TO.N,Net-(J20-Pad4)*%
X98425000Y-128905000D03*
%TO.P,J20,5*%
%TO.N,Net-(J20-Pad5)*%
X100965000Y-128905000D03*
%TO.P,J20,6*%
%TO.N,Net-(J20-Pad6)*%
X103505000Y-128905000D03*
%TO.P,J20,7*%
%TO.N,Net-(J20-Pad7)*%
X106045000Y-128905000D03*
%TO.P,J20,8*%
%TO.N,Net-(J20-Pad8)*%
X108585000Y-128905000D03*
%TO.P,J20,9*%
%TO.N,Net-(J20-Pad9)*%
X111125000Y-128905000D03*
%TO.P,J20,10*%
%TO.N,Net-(J20-Pad10)*%
X113665000Y-128905000D03*
%TO.P,J20,11*%
%TO.N,Net-(J20-Pad11)*%
X116205000Y-128905000D03*
%TO.P,J20,12*%
%TO.N,Net-(J20-Pad12)*%
X118745000Y-128905000D03*
%TO.P,J20,13*%
%TO.N,Net-(J20-Pad13)*%
X121285000Y-128905000D03*
%TO.P,J20,14*%
%TO.N,Net-(J20-Pad14)*%
X123825000Y-128905000D03*
%TO.P,J20,15*%
%TO.N,Net-(J20-Pad15)*%
X126365000Y-128905000D03*
%TO.P,J20,16*%
%TO.N,Net-(J20-Pad16)*%
X128905000Y-128905000D03*
%TO.P,J20,17*%
%TO.N,Net-(J20-Pad17)*%
X131445000Y-128905000D03*
%TO.P,J20,18*%
%TO.N,Net-(J20-Pad18)*%
X133985000Y-128905000D03*
%TO.P,J20,19*%
%TO.N,Net-(J20-Pad19)*%
X136525000Y-128905000D03*
%TO.P,J20,20*%
%TO.N,Net-(J20-Pad20)*%
X139065000Y-128905000D03*
%TO.P,J20,21*%
%TO.N,Net-(J20-Pad21)*%
X141605000Y-128905000D03*
%TO.P,J20,22*%
%TO.N,Net-(J20-Pad22)*%
X144145000Y-128905000D03*
%TO.P,J20,23*%
%TO.N,Net-(J20-Pad23)*%
X146685000Y-128905000D03*
%TO.P,J20,24*%
%TO.N,Net-(J20-Pad24)*%
X149225000Y-128905000D03*
%TO.P,J20,25*%
%TO.N,Net-(J20-Pad25)*%
X151765000Y-128905000D03*
%TO.P,J20,26*%
%TO.N,Net-(J20-Pad26)*%
X154305000Y-128905000D03*
%TO.P,J20,27*%
%TO.N,Net-(J20-Pad27)*%
X156845000Y-128905000D03*
%TO.P,J20,28*%
%TO.N,Net-(J20-Pad28)*%
X159385000Y-128905000D03*
%TO.P,J20,29*%
%TO.N,Net-(J20-Pad29)*%
X161925000Y-128905000D03*
%TO.P,J20,30*%
%TO.N,Net-(J20-Pad30)*%
X164465000Y-128905000D03*
%TO.P,J20,31*%
%TO.N,Net-(J20-Pad31)*%
X167005000Y-128905000D03*
%TO.P,J20,32*%
%TO.N,Net-(J20-Pad32)*%
X169545000Y-128905000D03*
%TO.P,J20,33*%
%TO.N,Net-(J20-Pad33)*%
X172085000Y-128905000D03*
%TO.P,J20,34*%
%TO.N,Net-(J20-Pad34)*%
X174625000Y-128905000D03*
%TO.P,J20,35*%
%TO.N,Net-(J20-Pad35)*%
X177165000Y-128905000D03*
%TO.P,J20,36*%
%TO.N,Net-(J20-Pad36)*%
X179705000Y-128905000D03*
%TO.P,J20,37*%
%TO.N,Net-(J20-Pad37)*%
X182245000Y-128905000D03*
%TO.P,J20,38*%
%TO.N,Net-(J20-Pad38)*%
X184785000Y-128905000D03*
%TD*%
D11*
%TO.P,J19,1*%
%TO.N,Net-(J17-Pad1)*%
X90815000Y-126365000D03*
D10*
%TO.P,J19,2*%
%TO.N,Net-(J17-Pad2)*%
X93355000Y-126365000D03*
%TO.P,J19,3*%
%TO.N,Net-(J17-Pad3)*%
X95895000Y-126365000D03*
%TO.P,J19,4*%
%TO.N,Net-(J17-Pad4)*%
X98435000Y-126365000D03*
%TO.P,J19,5*%
%TO.N,Net-(J17-Pad5)*%
X100975000Y-126365000D03*
%TO.P,J19,6*%
%TO.N,Net-(J17-Pad6)*%
X103515000Y-126365000D03*
%TO.P,J19,7*%
%TO.N,Net-(J17-Pad7)*%
X106055000Y-126365000D03*
%TO.P,J19,8*%
%TO.N,Net-(J17-Pad8)*%
X108595000Y-126365000D03*
%TO.P,J19,9*%
%TO.N,Net-(J17-Pad9)*%
X111135000Y-126365000D03*
%TO.P,J19,10*%
%TO.N,Net-(J17-Pad10)*%
X113675000Y-126365000D03*
%TO.P,J19,11*%
%TO.N,Net-(J17-Pad11)*%
X116215000Y-126365000D03*
%TO.P,J19,12*%
%TO.N,Net-(J17-Pad12)*%
X118755000Y-126365000D03*
%TO.P,J19,13*%
%TO.N,Net-(J17-Pad13)*%
X121295000Y-126365000D03*
%TO.P,J19,14*%
%TO.N,Net-(J17-Pad14)*%
X123835000Y-126365000D03*
%TO.P,J19,15*%
%TO.N,Net-(J17-Pad15)*%
X126375000Y-126365000D03*
%TO.P,J19,16*%
%TO.N,Net-(J17-Pad16)*%
X128915000Y-126365000D03*
%TO.P,J19,17*%
%TO.N,Net-(J17-Pad17)*%
X131455000Y-126365000D03*
%TO.P,J19,18*%
%TO.N,Net-(J17-Pad18)*%
X133995000Y-126365000D03*
%TO.P,J19,19*%
%TO.N,Net-(J17-Pad19)*%
X136535000Y-126365000D03*
%TO.P,J19,20*%
%TO.N,Net-(J17-Pad20)*%
X139075000Y-126365000D03*
%TO.P,J19,21*%
%TO.N,Net-(J17-Pad21)*%
X141615000Y-126365000D03*
%TO.P,J19,22*%
%TO.N,Net-(J17-Pad22)*%
X144155000Y-126365000D03*
%TO.P,J19,23*%
%TO.N,Net-(J17-Pad23)*%
X146695000Y-126365000D03*
%TO.P,J19,24*%
%TO.N,Net-(J17-Pad24)*%
X149235000Y-126365000D03*
%TO.P,J19,25*%
%TO.N,Net-(J17-Pad25)*%
X151775000Y-126365000D03*
%TO.P,J19,26*%
%TO.N,Net-(J17-Pad26)*%
X154315000Y-126365000D03*
%TO.P,J19,27*%
%TO.N,Net-(J17-Pad27)*%
X156855000Y-126365000D03*
%TO.P,J19,28*%
%TO.N,Net-(J17-Pad28)*%
X159395000Y-126365000D03*
%TO.P,J19,29*%
%TO.N,Net-(J17-Pad29)*%
X161935000Y-126365000D03*
%TO.P,J19,30*%
%TO.N,Net-(J17-Pad30)*%
X164475000Y-126365000D03*
%TO.P,J19,31*%
%TO.N,Net-(J17-Pad31)*%
X167015000Y-126365000D03*
%TO.P,J19,32*%
%TO.N,Net-(J17-Pad32)*%
X169555000Y-126365000D03*
%TO.P,J19,33*%
%TO.N,Net-(J17-Pad33)*%
X172095000Y-126365000D03*
%TO.P,J19,34*%
%TO.N,Net-(J17-Pad34)*%
X174635000Y-126365000D03*
%TO.P,J19,35*%
%TO.N,Net-(J17-Pad35)*%
X177175000Y-126365000D03*
%TO.P,J19,36*%
%TO.N,Net-(J17-Pad36)*%
X179715000Y-126365000D03*
%TO.P,J19,37*%
%TO.N,Net-(J17-Pad37)*%
X182255000Y-126365000D03*
%TO.P,J19,38*%
%TO.N,Net-(J17-Pad38)*%
X184795000Y-126365000D03*
%TD*%
D11*
%TO.P,J18,1*%
%TO.N,Net-(J17-Pad1)*%
X90815000Y-123825000D03*
D10*
%TO.P,J18,2*%
%TO.N,Net-(J17-Pad2)*%
X93355000Y-123825000D03*
%TO.P,J18,3*%
%TO.N,Net-(J17-Pad3)*%
X95895000Y-123825000D03*
%TO.P,J18,4*%
%TO.N,Net-(J17-Pad4)*%
X98435000Y-123825000D03*
%TO.P,J18,5*%
%TO.N,Net-(J17-Pad5)*%
X100975000Y-123825000D03*
%TO.P,J18,6*%
%TO.N,Net-(J17-Pad6)*%
X103515000Y-123825000D03*
%TO.P,J18,7*%
%TO.N,Net-(J17-Pad7)*%
X106055000Y-123825000D03*
%TO.P,J18,8*%
%TO.N,Net-(J17-Pad8)*%
X108595000Y-123825000D03*
%TO.P,J18,9*%
%TO.N,Net-(J17-Pad9)*%
X111135000Y-123825000D03*
%TO.P,J18,10*%
%TO.N,Net-(J17-Pad10)*%
X113675000Y-123825000D03*
%TO.P,J18,11*%
%TO.N,Net-(J17-Pad11)*%
X116215000Y-123825000D03*
%TO.P,J18,12*%
%TO.N,Net-(J17-Pad12)*%
X118755000Y-123825000D03*
%TO.P,J18,13*%
%TO.N,Net-(J17-Pad13)*%
X121295000Y-123825000D03*
%TO.P,J18,14*%
%TO.N,Net-(J17-Pad14)*%
X123835000Y-123825000D03*
%TO.P,J18,15*%
%TO.N,Net-(J17-Pad15)*%
X126375000Y-123825000D03*
%TO.P,J18,16*%
%TO.N,Net-(J17-Pad16)*%
X128915000Y-123825000D03*
%TO.P,J18,17*%
%TO.N,Net-(J17-Pad17)*%
X131455000Y-123825000D03*
%TO.P,J18,18*%
%TO.N,Net-(J17-Pad18)*%
X133995000Y-123825000D03*
%TO.P,J18,19*%
%TO.N,Net-(J17-Pad19)*%
X136535000Y-123825000D03*
%TO.P,J18,20*%
%TO.N,Net-(J17-Pad20)*%
X139075000Y-123825000D03*
%TO.P,J18,21*%
%TO.N,Net-(J17-Pad21)*%
X141615000Y-123825000D03*
%TO.P,J18,22*%
%TO.N,Net-(J17-Pad22)*%
X144155000Y-123825000D03*
%TO.P,J18,23*%
%TO.N,Net-(J17-Pad23)*%
X146695000Y-123825000D03*
%TO.P,J18,24*%
%TO.N,Net-(J17-Pad24)*%
X149235000Y-123825000D03*
%TO.P,J18,25*%
%TO.N,Net-(J17-Pad25)*%
X151775000Y-123825000D03*
%TO.P,J18,26*%
%TO.N,Net-(J17-Pad26)*%
X154315000Y-123825000D03*
%TO.P,J18,27*%
%TO.N,Net-(J17-Pad27)*%
X156855000Y-123825000D03*
%TO.P,J18,28*%
%TO.N,Net-(J17-Pad28)*%
X159395000Y-123825000D03*
%TO.P,J18,29*%
%TO.N,Net-(J17-Pad29)*%
X161935000Y-123825000D03*
%TO.P,J18,30*%
%TO.N,Net-(J17-Pad30)*%
X164475000Y-123825000D03*
%TO.P,J18,31*%
%TO.N,Net-(J17-Pad31)*%
X167015000Y-123825000D03*
%TO.P,J18,32*%
%TO.N,Net-(J17-Pad32)*%
X169555000Y-123825000D03*
%TO.P,J18,33*%
%TO.N,Net-(J17-Pad33)*%
X172095000Y-123825000D03*
%TO.P,J18,34*%
%TO.N,Net-(J17-Pad34)*%
X174635000Y-123825000D03*
%TO.P,J18,35*%
%TO.N,Net-(J17-Pad35)*%
X177175000Y-123825000D03*
%TO.P,J18,36*%
%TO.N,Net-(J17-Pad36)*%
X179715000Y-123825000D03*
%TO.P,J18,37*%
%TO.N,Net-(J17-Pad37)*%
X182255000Y-123825000D03*
%TO.P,J18,38*%
%TO.N,Net-(J17-Pad38)*%
X184795000Y-123825000D03*
%TD*%
D11*
%TO.P,J17,1*%
%TO.N,Net-(J17-Pad1)*%
X90805000Y-121285000D03*
D10*
%TO.P,J17,2*%
%TO.N,Net-(J17-Pad2)*%
X93345000Y-121285000D03*
%TO.P,J17,3*%
%TO.N,Net-(J17-Pad3)*%
X95885000Y-121285000D03*
%TO.P,J17,4*%
%TO.N,Net-(J17-Pad4)*%
X98425000Y-121285000D03*
%TO.P,J17,5*%
%TO.N,Net-(J17-Pad5)*%
X100965000Y-121285000D03*
%TO.P,J17,6*%
%TO.N,Net-(J17-Pad6)*%
X103505000Y-121285000D03*
%TO.P,J17,7*%
%TO.N,Net-(J17-Pad7)*%
X106045000Y-121285000D03*
%TO.P,J17,8*%
%TO.N,Net-(J17-Pad8)*%
X108585000Y-121285000D03*
%TO.P,J17,9*%
%TO.N,Net-(J17-Pad9)*%
X111125000Y-121285000D03*
%TO.P,J17,10*%
%TO.N,Net-(J17-Pad10)*%
X113665000Y-121285000D03*
%TO.P,J17,11*%
%TO.N,Net-(J17-Pad11)*%
X116205000Y-121285000D03*
%TO.P,J17,12*%
%TO.N,Net-(J17-Pad12)*%
X118745000Y-121285000D03*
%TO.P,J17,13*%
%TO.N,Net-(J17-Pad13)*%
X121285000Y-121285000D03*
%TO.P,J17,14*%
%TO.N,Net-(J17-Pad14)*%
X123825000Y-121285000D03*
%TO.P,J17,15*%
%TO.N,Net-(J17-Pad15)*%
X126365000Y-121285000D03*
%TO.P,J17,16*%
%TO.N,Net-(J17-Pad16)*%
X128905000Y-121285000D03*
%TO.P,J17,17*%
%TO.N,Net-(J17-Pad17)*%
X131445000Y-121285000D03*
%TO.P,J17,18*%
%TO.N,Net-(J17-Pad18)*%
X133985000Y-121285000D03*
%TO.P,J17,19*%
%TO.N,Net-(J17-Pad19)*%
X136525000Y-121285000D03*
%TO.P,J17,20*%
%TO.N,Net-(J17-Pad20)*%
X139065000Y-121285000D03*
%TO.P,J17,21*%
%TO.N,Net-(J17-Pad21)*%
X141605000Y-121285000D03*
%TO.P,J17,22*%
%TO.N,Net-(J17-Pad22)*%
X144145000Y-121285000D03*
%TO.P,J17,23*%
%TO.N,Net-(J17-Pad23)*%
X146685000Y-121285000D03*
%TO.P,J17,24*%
%TO.N,Net-(J17-Pad24)*%
X149225000Y-121285000D03*
%TO.P,J17,25*%
%TO.N,Net-(J17-Pad25)*%
X151765000Y-121285000D03*
%TO.P,J17,26*%
%TO.N,Net-(J17-Pad26)*%
X154305000Y-121285000D03*
%TO.P,J17,27*%
%TO.N,Net-(J17-Pad27)*%
X156845000Y-121285000D03*
%TO.P,J17,28*%
%TO.N,Net-(J17-Pad28)*%
X159385000Y-121285000D03*
%TO.P,J17,29*%
%TO.N,Net-(J17-Pad29)*%
X161925000Y-121285000D03*
%TO.P,J17,30*%
%TO.N,Net-(J17-Pad30)*%
X164465000Y-121285000D03*
%TO.P,J17,31*%
%TO.N,Net-(J17-Pad31)*%
X167005000Y-121285000D03*
%TO.P,J17,32*%
%TO.N,Net-(J17-Pad32)*%
X169545000Y-121285000D03*
%TO.P,J17,33*%
%TO.N,Net-(J17-Pad33)*%
X172085000Y-121285000D03*
%TO.P,J17,34*%
%TO.N,Net-(J17-Pad34)*%
X174625000Y-121285000D03*
%TO.P,J17,35*%
%TO.N,Net-(J17-Pad35)*%
X177165000Y-121285000D03*
%TO.P,J17,36*%
%TO.N,Net-(J17-Pad36)*%
X179705000Y-121285000D03*
%TO.P,J17,37*%
%TO.N,Net-(J17-Pad37)*%
X182245000Y-121285000D03*
%TO.P,J17,38*%
%TO.N,Net-(J17-Pad38)*%
X184785000Y-121285000D03*
%TD*%
D11*
%TO.P,J16,1*%
%TO.N,Net-(J16-Pad1)*%
X90805000Y-118745000D03*
D10*
%TO.P,J16,2*%
X93345000Y-118745000D03*
%TO.P,J16,3*%
X95885000Y-118745000D03*
%TO.P,J16,4*%
X98425000Y-118745000D03*
%TO.P,J16,5*%
X100965000Y-118745000D03*
%TO.P,J16,6*%
X103505000Y-118745000D03*
%TO.P,J16,7*%
X106045000Y-118745000D03*
%TO.P,J16,8*%
X108585000Y-118745000D03*
%TO.P,J16,9*%
X111125000Y-118745000D03*
%TO.P,J16,10*%
X113665000Y-118745000D03*
%TO.P,J16,11*%
X116205000Y-118745000D03*
%TO.P,J16,12*%
X118745000Y-118745000D03*
%TO.P,J16,13*%
X121285000Y-118745000D03*
%TO.P,J16,14*%
X123825000Y-118745000D03*
%TO.P,J16,15*%
X126365000Y-118745000D03*
%TO.P,J16,16*%
X128905000Y-118745000D03*
%TO.P,J16,17*%
X131445000Y-118745000D03*
%TO.P,J16,18*%
X133985000Y-118745000D03*
%TO.P,J16,19*%
X136525000Y-118745000D03*
%TO.P,J16,20*%
X139065000Y-118745000D03*
%TO.P,J16,21*%
X141605000Y-118745000D03*
%TO.P,J16,22*%
X144145000Y-118745000D03*
%TO.P,J16,23*%
X146685000Y-118745000D03*
%TO.P,J16,24*%
X149225000Y-118745000D03*
%TO.P,J16,25*%
X151765000Y-118745000D03*
%TO.P,J16,26*%
X154305000Y-118745000D03*
%TO.P,J16,27*%
X156845000Y-118745000D03*
%TO.P,J16,28*%
X159385000Y-118745000D03*
%TO.P,J16,29*%
X161925000Y-118745000D03*
%TO.P,J16,30*%
X164465000Y-118745000D03*
%TO.P,J16,31*%
X167005000Y-118745000D03*
%TO.P,J16,32*%
X169545000Y-118745000D03*
%TO.P,J16,33*%
X172085000Y-118745000D03*
%TO.P,J16,34*%
X174625000Y-118745000D03*
%TO.P,J16,35*%
X177165000Y-118745000D03*
%TO.P,J16,36*%
X179705000Y-118745000D03*
%TO.P,J16,37*%
X182245000Y-118745000D03*
%TO.P,J16,38*%
X184785000Y-118745000D03*
%TD*%
D11*
%TO.P,J15,1*%
%TO.N,Net-(J15-Pad1)*%
X90805000Y-116205000D03*
D10*
%TO.P,J15,2*%
X93345000Y-116205000D03*
%TO.P,J15,3*%
X95885000Y-116205000D03*
%TO.P,J15,4*%
X98425000Y-116205000D03*
%TO.P,J15,5*%
X100965000Y-116205000D03*
%TO.P,J15,6*%
X103505000Y-116205000D03*
%TO.P,J15,7*%
X106045000Y-116205000D03*
%TO.P,J15,8*%
X108585000Y-116205000D03*
%TO.P,J15,9*%
X111125000Y-116205000D03*
%TO.P,J15,10*%
X113665000Y-116205000D03*
%TO.P,J15,11*%
X116205000Y-116205000D03*
%TO.P,J15,12*%
X118745000Y-116205000D03*
%TO.P,J15,13*%
X121285000Y-116205000D03*
%TO.P,J15,14*%
X123825000Y-116205000D03*
%TO.P,J15,15*%
X126365000Y-116205000D03*
%TO.P,J15,16*%
X128905000Y-116205000D03*
%TO.P,J15,17*%
X131445000Y-116205000D03*
%TO.P,J15,18*%
X133985000Y-116205000D03*
%TO.P,J15,19*%
X136525000Y-116205000D03*
%TO.P,J15,20*%
X139065000Y-116205000D03*
%TO.P,J15,21*%
X141605000Y-116205000D03*
%TO.P,J15,22*%
X144145000Y-116205000D03*
%TO.P,J15,23*%
X146685000Y-116205000D03*
%TO.P,J15,24*%
X149225000Y-116205000D03*
%TO.P,J15,25*%
X151765000Y-116205000D03*
%TO.P,J15,26*%
X154305000Y-116205000D03*
%TO.P,J15,27*%
X156845000Y-116205000D03*
%TO.P,J15,28*%
X159385000Y-116205000D03*
%TO.P,J15,29*%
X161925000Y-116205000D03*
%TO.P,J15,30*%
X164465000Y-116205000D03*
%TO.P,J15,31*%
X167005000Y-116205000D03*
%TO.P,J15,32*%
X169545000Y-116205000D03*
%TO.P,J15,33*%
X172085000Y-116205000D03*
%TO.P,J15,34*%
X174625000Y-116205000D03*
%TO.P,J15,35*%
X177165000Y-116205000D03*
%TO.P,J15,36*%
X179705000Y-116205000D03*
%TO.P,J15,37*%
X182245000Y-116205000D03*
%TO.P,J15,38*%
X184785000Y-116205000D03*
%TD*%
D11*
%TO.P,J14,1*%
%TO.N,Net-(J12-Pad1)*%
X90805000Y-113665000D03*
D10*
%TO.P,J14,2*%
%TO.N,Net-(J12-Pad2)*%
X93345000Y-113665000D03*
%TO.P,J14,3*%
%TO.N,Net-(J12-Pad3)*%
X95885000Y-113665000D03*
%TO.P,J14,4*%
%TO.N,Net-(J12-Pad4)*%
X98425000Y-113665000D03*
%TO.P,J14,5*%
%TO.N,Net-(J12-Pad5)*%
X100965000Y-113665000D03*
%TO.P,J14,6*%
%TO.N,Net-(J12-Pad6)*%
X103505000Y-113665000D03*
%TO.P,J14,7*%
%TO.N,Net-(J12-Pad7)*%
X106045000Y-113665000D03*
%TO.P,J14,8*%
%TO.N,Net-(J12-Pad8)*%
X108585000Y-113665000D03*
%TO.P,J14,9*%
%TO.N,Net-(J12-Pad9)*%
X111125000Y-113665000D03*
%TO.P,J14,10*%
%TO.N,Net-(J12-Pad10)*%
X113665000Y-113665000D03*
%TO.P,J14,11*%
%TO.N,Net-(J12-Pad11)*%
X116205000Y-113665000D03*
%TO.P,J14,12*%
%TO.N,Net-(J12-Pad12)*%
X118745000Y-113665000D03*
%TO.P,J14,13*%
%TO.N,Net-(J12-Pad13)*%
X121285000Y-113665000D03*
%TO.P,J14,14*%
%TO.N,Net-(J12-Pad14)*%
X123825000Y-113665000D03*
%TO.P,J14,15*%
%TO.N,Net-(J12-Pad15)*%
X126365000Y-113665000D03*
%TO.P,J14,16*%
%TO.N,Net-(J12-Pad16)*%
X128905000Y-113665000D03*
%TO.P,J14,17*%
%TO.N,Net-(J12-Pad17)*%
X131445000Y-113665000D03*
%TO.P,J14,18*%
%TO.N,Net-(J12-Pad18)*%
X133985000Y-113665000D03*
%TO.P,J14,19*%
%TO.N,Net-(J12-Pad19)*%
X136525000Y-113665000D03*
%TO.P,J14,20*%
%TO.N,Net-(J12-Pad20)*%
X139065000Y-113665000D03*
%TO.P,J14,21*%
%TO.N,Net-(J12-Pad21)*%
X141605000Y-113665000D03*
%TO.P,J14,22*%
%TO.N,Net-(J12-Pad22)*%
X144145000Y-113665000D03*
%TO.P,J14,23*%
%TO.N,Net-(J12-Pad23)*%
X146685000Y-113665000D03*
%TO.P,J14,24*%
%TO.N,Net-(J12-Pad24)*%
X149225000Y-113665000D03*
%TO.P,J14,25*%
%TO.N,Net-(J12-Pad25)*%
X151765000Y-113665000D03*
%TO.P,J14,26*%
%TO.N,Net-(J12-Pad26)*%
X154305000Y-113665000D03*
%TO.P,J14,27*%
%TO.N,Net-(J12-Pad27)*%
X156845000Y-113665000D03*
%TO.P,J14,28*%
%TO.N,Net-(J12-Pad28)*%
X159385000Y-113665000D03*
%TO.P,J14,29*%
%TO.N,Net-(J12-Pad29)*%
X161925000Y-113665000D03*
%TO.P,J14,30*%
%TO.N,Net-(J12-Pad30)*%
X164465000Y-113665000D03*
%TO.P,J14,31*%
%TO.N,Net-(J12-Pad31)*%
X167005000Y-113665000D03*
%TO.P,J14,32*%
%TO.N,Net-(J12-Pad32)*%
X169545000Y-113665000D03*
%TO.P,J14,33*%
%TO.N,Net-(J12-Pad33)*%
X172085000Y-113665000D03*
%TO.P,J14,34*%
%TO.N,Net-(J12-Pad34)*%
X174625000Y-113665000D03*
%TO.P,J14,35*%
%TO.N,Net-(J12-Pad35)*%
X177165000Y-113665000D03*
%TO.P,J14,36*%
%TO.N,Net-(J12-Pad36)*%
X179705000Y-113665000D03*
%TO.P,J14,37*%
%TO.N,Net-(J12-Pad37)*%
X182245000Y-113665000D03*
%TO.P,J14,38*%
%TO.N,Net-(J12-Pad38)*%
X184785000Y-113665000D03*
%TD*%
D11*
%TO.P,J13,1*%
%TO.N,Net-(J12-Pad1)*%
X90805000Y-108585000D03*
D10*
%TO.P,J13,2*%
%TO.N,Net-(J12-Pad2)*%
X93345000Y-108585000D03*
%TO.P,J13,3*%
%TO.N,Net-(J12-Pad3)*%
X95885000Y-108585000D03*
%TO.P,J13,4*%
%TO.N,Net-(J12-Pad4)*%
X98425000Y-108585000D03*
%TO.P,J13,5*%
%TO.N,Net-(J12-Pad5)*%
X100965000Y-108585000D03*
%TO.P,J13,6*%
%TO.N,Net-(J12-Pad6)*%
X103505000Y-108585000D03*
%TO.P,J13,7*%
%TO.N,Net-(J12-Pad7)*%
X106045000Y-108585000D03*
%TO.P,J13,8*%
%TO.N,Net-(J12-Pad8)*%
X108585000Y-108585000D03*
%TO.P,J13,9*%
%TO.N,Net-(J12-Pad9)*%
X111125000Y-108585000D03*
%TO.P,J13,10*%
%TO.N,Net-(J12-Pad10)*%
X113665000Y-108585000D03*
%TO.P,J13,11*%
%TO.N,Net-(J12-Pad11)*%
X116205000Y-108585000D03*
%TO.P,J13,12*%
%TO.N,Net-(J12-Pad12)*%
X118745000Y-108585000D03*
%TO.P,J13,13*%
%TO.N,Net-(J12-Pad13)*%
X121285000Y-108585000D03*
%TO.P,J13,14*%
%TO.N,Net-(J12-Pad14)*%
X123825000Y-108585000D03*
%TO.P,J13,15*%
%TO.N,Net-(J12-Pad15)*%
X126365000Y-108585000D03*
%TO.P,J13,16*%
%TO.N,Net-(J12-Pad16)*%
X128905000Y-108585000D03*
%TO.P,J13,17*%
%TO.N,Net-(J12-Pad17)*%
X131445000Y-108585000D03*
%TO.P,J13,18*%
%TO.N,Net-(J12-Pad18)*%
X133985000Y-108585000D03*
%TO.P,J13,19*%
%TO.N,Net-(J12-Pad19)*%
X136525000Y-108585000D03*
%TO.P,J13,20*%
%TO.N,Net-(J12-Pad20)*%
X139065000Y-108585000D03*
%TO.P,J13,21*%
%TO.N,Net-(J12-Pad21)*%
X141605000Y-108585000D03*
%TO.P,J13,22*%
%TO.N,Net-(J12-Pad22)*%
X144145000Y-108585000D03*
%TO.P,J13,23*%
%TO.N,Net-(J12-Pad23)*%
X146685000Y-108585000D03*
%TO.P,J13,24*%
%TO.N,Net-(J12-Pad24)*%
X149225000Y-108585000D03*
%TO.P,J13,25*%
%TO.N,Net-(J12-Pad25)*%
X151765000Y-108585000D03*
%TO.P,J13,26*%
%TO.N,Net-(J12-Pad26)*%
X154305000Y-108585000D03*
%TO.P,J13,27*%
%TO.N,Net-(J12-Pad27)*%
X156845000Y-108585000D03*
%TO.P,J13,28*%
%TO.N,Net-(J12-Pad28)*%
X159385000Y-108585000D03*
%TO.P,J13,29*%
%TO.N,Net-(J12-Pad29)*%
X161925000Y-108585000D03*
%TO.P,J13,30*%
%TO.N,Net-(J12-Pad30)*%
X164465000Y-108585000D03*
%TO.P,J13,31*%
%TO.N,Net-(J12-Pad31)*%
X167005000Y-108585000D03*
%TO.P,J13,32*%
%TO.N,Net-(J12-Pad32)*%
X169545000Y-108585000D03*
%TO.P,J13,33*%
%TO.N,Net-(J12-Pad33)*%
X172085000Y-108585000D03*
%TO.P,J13,34*%
%TO.N,Net-(J12-Pad34)*%
X174625000Y-108585000D03*
%TO.P,J13,35*%
%TO.N,Net-(J12-Pad35)*%
X177165000Y-108585000D03*
%TO.P,J13,36*%
%TO.N,Net-(J12-Pad36)*%
X179705000Y-108585000D03*
%TO.P,J13,37*%
%TO.N,Net-(J12-Pad37)*%
X182245000Y-108585000D03*
%TO.P,J13,38*%
%TO.N,Net-(J12-Pad38)*%
X184785000Y-108585000D03*
%TD*%
D11*
%TO.P,J12,1*%
%TO.N,Net-(J12-Pad1)*%
X90805000Y-111125000D03*
D10*
%TO.P,J12,2*%
%TO.N,Net-(J12-Pad2)*%
X93345000Y-111125000D03*
%TO.P,J12,3*%
%TO.N,Net-(J12-Pad3)*%
X95885000Y-111125000D03*
%TO.P,J12,4*%
%TO.N,Net-(J12-Pad4)*%
X98425000Y-111125000D03*
%TO.P,J12,5*%
%TO.N,Net-(J12-Pad5)*%
X100965000Y-111125000D03*
%TO.P,J12,6*%
%TO.N,Net-(J12-Pad6)*%
X103505000Y-111125000D03*
%TO.P,J12,7*%
%TO.N,Net-(J12-Pad7)*%
X106045000Y-111125000D03*
%TO.P,J12,8*%
%TO.N,Net-(J12-Pad8)*%
X108585000Y-111125000D03*
%TO.P,J12,9*%
%TO.N,Net-(J12-Pad9)*%
X111125000Y-111125000D03*
%TO.P,J12,10*%
%TO.N,Net-(J12-Pad10)*%
X113665000Y-111125000D03*
%TO.P,J12,11*%
%TO.N,Net-(J12-Pad11)*%
X116205000Y-111125000D03*
%TO.P,J12,12*%
%TO.N,Net-(J12-Pad12)*%
X118745000Y-111125000D03*
%TO.P,J12,13*%
%TO.N,Net-(J12-Pad13)*%
X121285000Y-111125000D03*
%TO.P,J12,14*%
%TO.N,Net-(J12-Pad14)*%
X123825000Y-111125000D03*
%TO.P,J12,15*%
%TO.N,Net-(J12-Pad15)*%
X126365000Y-111125000D03*
%TO.P,J12,16*%
%TO.N,Net-(J12-Pad16)*%
X128905000Y-111125000D03*
%TO.P,J12,17*%
%TO.N,Net-(J12-Pad17)*%
X131445000Y-111125000D03*
%TO.P,J12,18*%
%TO.N,Net-(J12-Pad18)*%
X133985000Y-111125000D03*
%TO.P,J12,19*%
%TO.N,Net-(J12-Pad19)*%
X136525000Y-111125000D03*
%TO.P,J12,20*%
%TO.N,Net-(J12-Pad20)*%
X139065000Y-111125000D03*
%TO.P,J12,21*%
%TO.N,Net-(J12-Pad21)*%
X141605000Y-111125000D03*
%TO.P,J12,22*%
%TO.N,Net-(J12-Pad22)*%
X144145000Y-111125000D03*
%TO.P,J12,23*%
%TO.N,Net-(J12-Pad23)*%
X146685000Y-111125000D03*
%TO.P,J12,24*%
%TO.N,Net-(J12-Pad24)*%
X149225000Y-111125000D03*
%TO.P,J12,25*%
%TO.N,Net-(J12-Pad25)*%
X151765000Y-111125000D03*
%TO.P,J12,26*%
%TO.N,Net-(J12-Pad26)*%
X154305000Y-111125000D03*
%TO.P,J12,27*%
%TO.N,Net-(J12-Pad27)*%
X156845000Y-111125000D03*
%TO.P,J12,28*%
%TO.N,Net-(J12-Pad28)*%
X159385000Y-111125000D03*
%TO.P,J12,29*%
%TO.N,Net-(J12-Pad29)*%
X161925000Y-111125000D03*
%TO.P,J12,30*%
%TO.N,Net-(J12-Pad30)*%
X164465000Y-111125000D03*
%TO.P,J12,31*%
%TO.N,Net-(J12-Pad31)*%
X167005000Y-111125000D03*
%TO.P,J12,32*%
%TO.N,Net-(J12-Pad32)*%
X169545000Y-111125000D03*
%TO.P,J12,33*%
%TO.N,Net-(J12-Pad33)*%
X172085000Y-111125000D03*
%TO.P,J12,34*%
%TO.N,Net-(J12-Pad34)*%
X174625000Y-111125000D03*
%TO.P,J12,35*%
%TO.N,Net-(J12-Pad35)*%
X177165000Y-111125000D03*
%TO.P,J12,36*%
%TO.N,Net-(J12-Pad36)*%
X179705000Y-111125000D03*
%TO.P,J12,37*%
%TO.N,Net-(J12-Pad37)*%
X182245000Y-111125000D03*
%TO.P,J12,38*%
%TO.N,Net-(J12-Pad38)*%
X184785000Y-111125000D03*
%TD*%
D11*
%TO.P,J11,1*%
%TO.N,Net-(J10-Pad1)*%
X90805000Y-106045000D03*
D10*
%TO.P,J11,2*%
%TO.N,Net-(J10-Pad2)*%
X93345000Y-106045000D03*
%TO.P,J11,3*%
%TO.N,Net-(J10-Pad3)*%
X95885000Y-106045000D03*
%TO.P,J11,4*%
%TO.N,Net-(J10-Pad4)*%
X98425000Y-106045000D03*
%TO.P,J11,5*%
%TO.N,Net-(J10-Pad5)*%
X100965000Y-106045000D03*
%TO.P,J11,6*%
%TO.N,Net-(J10-Pad6)*%
X103505000Y-106045000D03*
%TO.P,J11,7*%
%TO.N,Net-(J10-Pad7)*%
X106045000Y-106045000D03*
%TO.P,J11,8*%
%TO.N,Net-(J10-Pad8)*%
X108585000Y-106045000D03*
%TO.P,J11,9*%
%TO.N,Net-(J10-Pad9)*%
X111125000Y-106045000D03*
%TO.P,J11,10*%
%TO.N,Net-(J10-Pad10)*%
X113665000Y-106045000D03*
%TO.P,J11,11*%
%TO.N,Net-(J10-Pad11)*%
X116205000Y-106045000D03*
%TO.P,J11,12*%
%TO.N,Net-(J10-Pad12)*%
X118745000Y-106045000D03*
%TO.P,J11,13*%
%TO.N,Net-(J10-Pad13)*%
X121285000Y-106045000D03*
%TO.P,J11,14*%
%TO.N,Net-(J10-Pad14)*%
X123825000Y-106045000D03*
%TO.P,J11,15*%
%TO.N,Net-(J10-Pad15)*%
X126365000Y-106045000D03*
%TO.P,J11,16*%
%TO.N,Net-(J10-Pad16)*%
X128905000Y-106045000D03*
%TO.P,J11,17*%
%TO.N,Net-(J10-Pad17)*%
X131445000Y-106045000D03*
%TO.P,J11,18*%
%TO.N,Net-(J10-Pad18)*%
X133985000Y-106045000D03*
%TO.P,J11,19*%
%TO.N,Net-(J10-Pad19)*%
X136525000Y-106045000D03*
%TO.P,J11,20*%
%TO.N,Net-(J10-Pad20)*%
X139065000Y-106045000D03*
%TO.P,J11,21*%
%TO.N,Net-(J10-Pad21)*%
X141605000Y-106045000D03*
%TO.P,J11,22*%
%TO.N,Net-(J10-Pad22)*%
X144145000Y-106045000D03*
%TO.P,J11,23*%
%TO.N,Net-(J10-Pad23)*%
X146685000Y-106045000D03*
%TO.P,J11,24*%
%TO.N,Net-(J10-Pad24)*%
X149225000Y-106045000D03*
%TO.P,J11,25*%
%TO.N,Net-(J10-Pad25)*%
X151765000Y-106045000D03*
%TO.P,J11,26*%
%TO.N,Net-(J10-Pad26)*%
X154305000Y-106045000D03*
%TO.P,J11,27*%
%TO.N,Net-(J10-Pad27)*%
X156845000Y-106045000D03*
%TO.P,J11,28*%
%TO.N,Net-(J10-Pad28)*%
X159385000Y-106045000D03*
%TO.P,J11,29*%
%TO.N,Net-(J10-Pad29)*%
X161925000Y-106045000D03*
%TO.P,J11,30*%
%TO.N,Net-(J10-Pad30)*%
X164465000Y-106045000D03*
%TO.P,J11,31*%
%TO.N,Net-(J10-Pad31)*%
X167005000Y-106045000D03*
%TO.P,J11,32*%
%TO.N,Net-(J10-Pad32)*%
X169545000Y-106045000D03*
%TO.P,J11,33*%
%TO.N,Net-(J10-Pad33)*%
X172085000Y-106045000D03*
%TO.P,J11,34*%
%TO.N,Net-(J10-Pad34)*%
X174625000Y-106045000D03*
%TO.P,J11,35*%
%TO.N,Net-(J10-Pad35)*%
X177165000Y-106045000D03*
%TO.P,J11,36*%
%TO.N,Net-(J10-Pad36)*%
X179705000Y-106045000D03*
%TO.P,J11,37*%
%TO.N,Net-(J10-Pad37)*%
X182245000Y-106045000D03*
%TO.P,J11,38*%
%TO.N,Net-(J10-Pad38)*%
X184785000Y-106045000D03*
%TD*%
D11*
%TO.P,J10,1*%
%TO.N,Net-(J10-Pad1)*%
X90805000Y-103505000D03*
D10*
%TO.P,J10,2*%
%TO.N,Net-(J10-Pad2)*%
X93345000Y-103505000D03*
%TO.P,J10,3*%
%TO.N,Net-(J10-Pad3)*%
X95885000Y-103505000D03*
%TO.P,J10,4*%
%TO.N,Net-(J10-Pad4)*%
X98425000Y-103505000D03*
%TO.P,J10,5*%
%TO.N,Net-(J10-Pad5)*%
X100965000Y-103505000D03*
%TO.P,J10,6*%
%TO.N,Net-(J10-Pad6)*%
X103505000Y-103505000D03*
%TO.P,J10,7*%
%TO.N,Net-(J10-Pad7)*%
X106045000Y-103505000D03*
%TO.P,J10,8*%
%TO.N,Net-(J10-Pad8)*%
X108585000Y-103505000D03*
%TO.P,J10,9*%
%TO.N,Net-(J10-Pad9)*%
X111125000Y-103505000D03*
%TO.P,J10,10*%
%TO.N,Net-(J10-Pad10)*%
X113665000Y-103505000D03*
%TO.P,J10,11*%
%TO.N,Net-(J10-Pad11)*%
X116205000Y-103505000D03*
%TO.P,J10,12*%
%TO.N,Net-(J10-Pad12)*%
X118745000Y-103505000D03*
%TO.P,J10,13*%
%TO.N,Net-(J10-Pad13)*%
X121285000Y-103505000D03*
%TO.P,J10,14*%
%TO.N,Net-(J10-Pad14)*%
X123825000Y-103505000D03*
%TO.P,J10,15*%
%TO.N,Net-(J10-Pad15)*%
X126365000Y-103505000D03*
%TO.P,J10,16*%
%TO.N,Net-(J10-Pad16)*%
X128905000Y-103505000D03*
%TO.P,J10,17*%
%TO.N,Net-(J10-Pad17)*%
X131445000Y-103505000D03*
%TO.P,J10,18*%
%TO.N,Net-(J10-Pad18)*%
X133985000Y-103505000D03*
%TO.P,J10,19*%
%TO.N,Net-(J10-Pad19)*%
X136525000Y-103505000D03*
%TO.P,J10,20*%
%TO.N,Net-(J10-Pad20)*%
X139065000Y-103505000D03*
%TO.P,J10,21*%
%TO.N,Net-(J10-Pad21)*%
X141605000Y-103505000D03*
%TO.P,J10,22*%
%TO.N,Net-(J10-Pad22)*%
X144145000Y-103505000D03*
%TO.P,J10,23*%
%TO.N,Net-(J10-Pad23)*%
X146685000Y-103505000D03*
%TO.P,J10,24*%
%TO.N,Net-(J10-Pad24)*%
X149225000Y-103505000D03*
%TO.P,J10,25*%
%TO.N,Net-(J10-Pad25)*%
X151765000Y-103505000D03*
%TO.P,J10,26*%
%TO.N,Net-(J10-Pad26)*%
X154305000Y-103505000D03*
%TO.P,J10,27*%
%TO.N,Net-(J10-Pad27)*%
X156845000Y-103505000D03*
%TO.P,J10,28*%
%TO.N,Net-(J10-Pad28)*%
X159385000Y-103505000D03*
%TO.P,J10,29*%
%TO.N,Net-(J10-Pad29)*%
X161925000Y-103505000D03*
%TO.P,J10,30*%
%TO.N,Net-(J10-Pad30)*%
X164465000Y-103505000D03*
%TO.P,J10,31*%
%TO.N,Net-(J10-Pad31)*%
X167005000Y-103505000D03*
%TO.P,J10,32*%
%TO.N,Net-(J10-Pad32)*%
X169545000Y-103505000D03*
%TO.P,J10,33*%
%TO.N,Net-(J10-Pad33)*%
X172085000Y-103505000D03*
%TO.P,J10,34*%
%TO.N,Net-(J10-Pad34)*%
X174625000Y-103505000D03*
%TO.P,J10,35*%
%TO.N,Net-(J10-Pad35)*%
X177165000Y-103505000D03*
%TO.P,J10,36*%
%TO.N,Net-(J10-Pad36)*%
X179705000Y-103505000D03*
%TO.P,J10,37*%
%TO.N,Net-(J10-Pad37)*%
X182245000Y-103505000D03*
%TO.P,J10,38*%
%TO.N,Net-(J10-Pad38)*%
X184785000Y-103505000D03*
%TD*%
D11*
%TO.P,J9,1*%
%TO.N,Net-(J10-Pad1)*%
X90805000Y-100965000D03*
D10*
%TO.P,J9,2*%
%TO.N,Net-(J10-Pad2)*%
X93345000Y-100965000D03*
%TO.P,J9,3*%
%TO.N,Net-(J10-Pad3)*%
X95885000Y-100965000D03*
%TO.P,J9,4*%
%TO.N,Net-(J10-Pad4)*%
X98425000Y-100965000D03*
%TO.P,J9,5*%
%TO.N,Net-(J10-Pad5)*%
X100965000Y-100965000D03*
%TO.P,J9,6*%
%TO.N,Net-(J10-Pad6)*%
X103505000Y-100965000D03*
%TO.P,J9,7*%
%TO.N,Net-(J10-Pad7)*%
X106045000Y-100965000D03*
%TO.P,J9,8*%
%TO.N,Net-(J10-Pad8)*%
X108585000Y-100965000D03*
%TO.P,J9,9*%
%TO.N,Net-(J10-Pad9)*%
X111125000Y-100965000D03*
%TO.P,J9,10*%
%TO.N,Net-(J10-Pad10)*%
X113665000Y-100965000D03*
%TO.P,J9,11*%
%TO.N,Net-(J10-Pad11)*%
X116205000Y-100965000D03*
%TO.P,J9,12*%
%TO.N,Net-(J10-Pad12)*%
X118745000Y-100965000D03*
%TO.P,J9,13*%
%TO.N,Net-(J10-Pad13)*%
X121285000Y-100965000D03*
%TO.P,J9,14*%
%TO.N,Net-(J10-Pad14)*%
X123825000Y-100965000D03*
%TO.P,J9,15*%
%TO.N,Net-(J10-Pad15)*%
X126365000Y-100965000D03*
%TO.P,J9,16*%
%TO.N,Net-(J10-Pad16)*%
X128905000Y-100965000D03*
%TO.P,J9,17*%
%TO.N,Net-(J10-Pad17)*%
X131445000Y-100965000D03*
%TO.P,J9,18*%
%TO.N,Net-(J10-Pad18)*%
X133985000Y-100965000D03*
%TO.P,J9,19*%
%TO.N,Net-(J10-Pad19)*%
X136525000Y-100965000D03*
%TO.P,J9,20*%
%TO.N,Net-(J10-Pad20)*%
X139065000Y-100965000D03*
%TO.P,J9,21*%
%TO.N,Net-(J10-Pad21)*%
X141605000Y-100965000D03*
%TO.P,J9,22*%
%TO.N,Net-(J10-Pad22)*%
X144145000Y-100965000D03*
%TO.P,J9,23*%
%TO.N,Net-(J10-Pad23)*%
X146685000Y-100965000D03*
%TO.P,J9,24*%
%TO.N,Net-(J10-Pad24)*%
X149225000Y-100965000D03*
%TO.P,J9,25*%
%TO.N,Net-(J10-Pad25)*%
X151765000Y-100965000D03*
%TO.P,J9,26*%
%TO.N,Net-(J10-Pad26)*%
X154305000Y-100965000D03*
%TO.P,J9,27*%
%TO.N,Net-(J10-Pad27)*%
X156845000Y-100965000D03*
%TO.P,J9,28*%
%TO.N,Net-(J10-Pad28)*%
X159385000Y-100965000D03*
%TO.P,J9,29*%
%TO.N,Net-(J10-Pad29)*%
X161925000Y-100965000D03*
%TO.P,J9,30*%
%TO.N,Net-(J10-Pad30)*%
X164465000Y-100965000D03*
%TO.P,J9,31*%
%TO.N,Net-(J10-Pad31)*%
X167005000Y-100965000D03*
%TO.P,J9,32*%
%TO.N,Net-(J10-Pad32)*%
X169545000Y-100965000D03*
%TO.P,J9,33*%
%TO.N,Net-(J10-Pad33)*%
X172085000Y-100965000D03*
%TO.P,J9,34*%
%TO.N,Net-(J10-Pad34)*%
X174625000Y-100965000D03*
%TO.P,J9,35*%
%TO.N,Net-(J10-Pad35)*%
X177165000Y-100965000D03*
%TO.P,J9,36*%
%TO.N,Net-(J10-Pad36)*%
X179705000Y-100965000D03*
%TO.P,J9,37*%
%TO.N,Net-(J10-Pad37)*%
X182245000Y-100965000D03*
%TO.P,J9,38*%
%TO.N,Net-(J10-Pad38)*%
X184785000Y-100965000D03*
%TD*%
D11*
%TO.P,J8,1*%
%TO.N,Net-(J8-Pad1)*%
X90805000Y-98425000D03*
D10*
%TO.P,J8,2*%
X93345000Y-98425000D03*
%TO.P,J8,3*%
X95885000Y-98425000D03*
%TO.P,J8,4*%
X98425000Y-98425000D03*
%TO.P,J8,5*%
X100965000Y-98425000D03*
%TO.P,J8,6*%
X103505000Y-98425000D03*
%TO.P,J8,7*%
X106045000Y-98425000D03*
%TO.P,J8,8*%
X108585000Y-98425000D03*
%TO.P,J8,9*%
X111125000Y-98425000D03*
%TO.P,J8,10*%
X113665000Y-98425000D03*
%TO.P,J8,11*%
X116205000Y-98425000D03*
%TO.P,J8,12*%
X118745000Y-98425000D03*
%TO.P,J8,13*%
X121285000Y-98425000D03*
%TO.P,J8,14*%
X123825000Y-98425000D03*
%TO.P,J8,15*%
X126365000Y-98425000D03*
%TO.P,J8,16*%
X128905000Y-98425000D03*
%TO.P,J8,17*%
X131445000Y-98425000D03*
%TO.P,J8,18*%
X133985000Y-98425000D03*
%TO.P,J8,19*%
X136525000Y-98425000D03*
%TO.P,J8,20*%
X139065000Y-98425000D03*
%TO.P,J8,21*%
X141605000Y-98425000D03*
%TO.P,J8,22*%
X144145000Y-98425000D03*
%TO.P,J8,23*%
X146685000Y-98425000D03*
%TO.P,J8,24*%
X149225000Y-98425000D03*
%TO.P,J8,25*%
X151765000Y-98425000D03*
%TO.P,J8,26*%
X154305000Y-98425000D03*
%TO.P,J8,27*%
X156845000Y-98425000D03*
%TO.P,J8,28*%
X159385000Y-98425000D03*
%TO.P,J8,29*%
X161925000Y-98425000D03*
%TO.P,J8,30*%
X164465000Y-98425000D03*
%TO.P,J8,31*%
X167005000Y-98425000D03*
%TO.P,J8,32*%
X169545000Y-98425000D03*
%TO.P,J8,33*%
X172085000Y-98425000D03*
%TO.P,J8,34*%
X174625000Y-98425000D03*
%TO.P,J8,35*%
X177165000Y-98425000D03*
%TO.P,J8,36*%
X179705000Y-98425000D03*
%TO.P,J8,37*%
X182245000Y-98425000D03*
%TO.P,J8,38*%
X184785000Y-98425000D03*
%TD*%
D11*
%TO.P,J7,1*%
%TO.N,Net-(J7-Pad1)*%
X90805000Y-95885000D03*
D10*
%TO.P,J7,2*%
X93345000Y-95885000D03*
%TO.P,J7,3*%
X95885000Y-95885000D03*
%TO.P,J7,4*%
X98425000Y-95885000D03*
%TO.P,J7,5*%
X100965000Y-95885000D03*
%TO.P,J7,6*%
X103505000Y-95885000D03*
%TO.P,J7,7*%
X106045000Y-95885000D03*
%TO.P,J7,8*%
X108585000Y-95885000D03*
%TO.P,J7,9*%
X111125000Y-95885000D03*
%TO.P,J7,10*%
X113665000Y-95885000D03*
%TO.P,J7,11*%
X116205000Y-95885000D03*
%TO.P,J7,12*%
X118745000Y-95885000D03*
%TO.P,J7,13*%
X121285000Y-95885000D03*
%TO.P,J7,14*%
X123825000Y-95885000D03*
%TO.P,J7,15*%
X126365000Y-95885000D03*
%TO.P,J7,16*%
X128905000Y-95885000D03*
%TO.P,J7,17*%
X131445000Y-95885000D03*
%TO.P,J7,18*%
X133985000Y-95885000D03*
%TO.P,J7,19*%
X136525000Y-95885000D03*
%TO.P,J7,20*%
X139065000Y-95885000D03*
%TO.P,J7,21*%
X141605000Y-95885000D03*
%TO.P,J7,22*%
X144145000Y-95885000D03*
%TO.P,J7,23*%
X146685000Y-95885000D03*
%TO.P,J7,24*%
X149225000Y-95885000D03*
%TO.P,J7,25*%
X151765000Y-95885000D03*
%TO.P,J7,26*%
X154305000Y-95885000D03*
%TO.P,J7,27*%
X156845000Y-95885000D03*
%TO.P,J7,28*%
X159385000Y-95885000D03*
%TO.P,J7,29*%
X161925000Y-95885000D03*
%TO.P,J7,30*%
X164465000Y-95885000D03*
%TO.P,J7,31*%
X167005000Y-95885000D03*
%TO.P,J7,32*%
X169545000Y-95885000D03*
%TO.P,J7,33*%
X172085000Y-95885000D03*
%TO.P,J7,34*%
X174625000Y-95885000D03*
%TO.P,J7,35*%
X177165000Y-95885000D03*
%TO.P,J7,36*%
X179705000Y-95885000D03*
%TO.P,J7,37*%
X182245000Y-95885000D03*
%TO.P,J7,38*%
X184785000Y-95885000D03*
%TD*%
D11*
%TO.P,J6,1*%
%TO.N,Net-(J4-Pad1)*%
X90805000Y-93345000D03*
D10*
%TO.P,J6,2*%
%TO.N,Net-(J4-Pad2)*%
X93345000Y-93345000D03*
%TO.P,J6,3*%
%TO.N,Net-(J4-Pad3)*%
X95885000Y-93345000D03*
%TO.P,J6,4*%
%TO.N,Net-(J4-Pad4)*%
X98425000Y-93345000D03*
%TO.P,J6,5*%
%TO.N,Net-(J4-Pad5)*%
X100965000Y-93345000D03*
%TO.P,J6,6*%
%TO.N,Net-(J4-Pad6)*%
X103505000Y-93345000D03*
%TO.P,J6,7*%
%TO.N,Net-(J4-Pad7)*%
X106045000Y-93345000D03*
%TO.P,J6,8*%
%TO.N,Net-(J4-Pad8)*%
X108585000Y-93345000D03*
%TO.P,J6,9*%
%TO.N,Net-(J4-Pad9)*%
X111125000Y-93345000D03*
%TO.P,J6,10*%
%TO.N,Net-(J4-Pad10)*%
X113665000Y-93345000D03*
%TO.P,J6,11*%
%TO.N,Net-(J4-Pad11)*%
X116205000Y-93345000D03*
%TO.P,J6,12*%
%TO.N,Net-(J4-Pad12)*%
X118745000Y-93345000D03*
%TO.P,J6,13*%
%TO.N,Net-(J4-Pad13)*%
X121285000Y-93345000D03*
%TO.P,J6,14*%
%TO.N,Net-(J4-Pad14)*%
X123825000Y-93345000D03*
%TO.P,J6,15*%
%TO.N,Net-(J4-Pad15)*%
X126365000Y-93345000D03*
%TO.P,J6,16*%
%TO.N,Net-(J4-Pad16)*%
X128905000Y-93345000D03*
%TO.P,J6,17*%
%TO.N,Net-(J4-Pad17)*%
X131445000Y-93345000D03*
%TO.P,J6,18*%
%TO.N,Net-(J4-Pad18)*%
X133985000Y-93345000D03*
%TO.P,J6,19*%
%TO.N,Net-(J4-Pad19)*%
X136525000Y-93345000D03*
%TO.P,J6,20*%
%TO.N,Net-(J4-Pad20)*%
X139065000Y-93345000D03*
%TO.P,J6,21*%
%TO.N,Net-(J4-Pad21)*%
X141605000Y-93345000D03*
%TO.P,J6,22*%
%TO.N,Net-(J4-Pad22)*%
X144145000Y-93345000D03*
%TO.P,J6,23*%
%TO.N,Net-(J4-Pad23)*%
X146685000Y-93345000D03*
%TO.P,J6,24*%
%TO.N,Net-(J4-Pad24)*%
X149225000Y-93345000D03*
%TO.P,J6,25*%
%TO.N,Net-(J4-Pad25)*%
X151765000Y-93345000D03*
%TO.P,J6,26*%
%TO.N,Net-(J4-Pad26)*%
X154305000Y-93345000D03*
%TO.P,J6,27*%
%TO.N,Net-(J4-Pad27)*%
X156845000Y-93345000D03*
%TO.P,J6,28*%
%TO.N,Net-(J4-Pad28)*%
X159385000Y-93345000D03*
%TO.P,J6,29*%
%TO.N,Net-(J4-Pad29)*%
X161925000Y-93345000D03*
%TO.P,J6,30*%
%TO.N,Net-(J4-Pad30)*%
X164465000Y-93345000D03*
%TO.P,J6,31*%
%TO.N,Net-(J4-Pad31)*%
X167005000Y-93345000D03*
%TO.P,J6,32*%
%TO.N,Net-(J4-Pad32)*%
X169545000Y-93345000D03*
%TO.P,J6,33*%
%TO.N,Net-(J4-Pad33)*%
X172085000Y-93345000D03*
%TO.P,J6,34*%
%TO.N,Net-(J4-Pad34)*%
X174625000Y-93345000D03*
%TO.P,J6,35*%
%TO.N,Net-(J4-Pad35)*%
X177165000Y-93345000D03*
%TO.P,J6,36*%
%TO.N,Net-(J4-Pad36)*%
X179705000Y-93345000D03*
%TO.P,J6,37*%
%TO.N,Net-(J4-Pad37)*%
X182245000Y-93345000D03*
%TO.P,J6,38*%
%TO.N,Net-(J4-Pad38)*%
X184785000Y-93345000D03*
%TD*%
D11*
%TO.P,J5,1*%
%TO.N,Net-(J4-Pad1)*%
X90805000Y-90805000D03*
D10*
%TO.P,J5,2*%
%TO.N,Net-(J4-Pad2)*%
X93345000Y-90805000D03*
%TO.P,J5,3*%
%TO.N,Net-(J4-Pad3)*%
X95885000Y-90805000D03*
%TO.P,J5,4*%
%TO.N,Net-(J4-Pad4)*%
X98425000Y-90805000D03*
%TO.P,J5,5*%
%TO.N,Net-(J4-Pad5)*%
X100965000Y-90805000D03*
%TO.P,J5,6*%
%TO.N,Net-(J4-Pad6)*%
X103505000Y-90805000D03*
%TO.P,J5,7*%
%TO.N,Net-(J4-Pad7)*%
X106045000Y-90805000D03*
%TO.P,J5,8*%
%TO.N,Net-(J4-Pad8)*%
X108585000Y-90805000D03*
%TO.P,J5,9*%
%TO.N,Net-(J4-Pad9)*%
X111125000Y-90805000D03*
%TO.P,J5,10*%
%TO.N,Net-(J4-Pad10)*%
X113665000Y-90805000D03*
%TO.P,J5,11*%
%TO.N,Net-(J4-Pad11)*%
X116205000Y-90805000D03*
%TO.P,J5,12*%
%TO.N,Net-(J4-Pad12)*%
X118745000Y-90805000D03*
%TO.P,J5,13*%
%TO.N,Net-(J4-Pad13)*%
X121285000Y-90805000D03*
%TO.P,J5,14*%
%TO.N,Net-(J4-Pad14)*%
X123825000Y-90805000D03*
%TO.P,J5,15*%
%TO.N,Net-(J4-Pad15)*%
X126365000Y-90805000D03*
%TO.P,J5,16*%
%TO.N,Net-(J4-Pad16)*%
X128905000Y-90805000D03*
%TO.P,J5,17*%
%TO.N,Net-(J4-Pad17)*%
X131445000Y-90805000D03*
%TO.P,J5,18*%
%TO.N,Net-(J4-Pad18)*%
X133985000Y-90805000D03*
%TO.P,J5,19*%
%TO.N,Net-(J4-Pad19)*%
X136525000Y-90805000D03*
%TO.P,J5,20*%
%TO.N,Net-(J4-Pad20)*%
X139065000Y-90805000D03*
%TO.P,J5,21*%
%TO.N,Net-(J4-Pad21)*%
X141605000Y-90805000D03*
%TO.P,J5,22*%
%TO.N,Net-(J4-Pad22)*%
X144145000Y-90805000D03*
%TO.P,J5,23*%
%TO.N,Net-(J4-Pad23)*%
X146685000Y-90805000D03*
%TO.P,J5,24*%
%TO.N,Net-(J4-Pad24)*%
X149225000Y-90805000D03*
%TO.P,J5,25*%
%TO.N,Net-(J4-Pad25)*%
X151765000Y-90805000D03*
%TO.P,J5,26*%
%TO.N,Net-(J4-Pad26)*%
X154305000Y-90805000D03*
%TO.P,J5,27*%
%TO.N,Net-(J4-Pad27)*%
X156845000Y-90805000D03*
%TO.P,J5,28*%
%TO.N,Net-(J4-Pad28)*%
X159385000Y-90805000D03*
%TO.P,J5,29*%
%TO.N,Net-(J4-Pad29)*%
X161925000Y-90805000D03*
%TO.P,J5,30*%
%TO.N,Net-(J4-Pad30)*%
X164465000Y-90805000D03*
%TO.P,J5,31*%
%TO.N,Net-(J4-Pad31)*%
X167005000Y-90805000D03*
%TO.P,J5,32*%
%TO.N,Net-(J4-Pad32)*%
X169545000Y-90805000D03*
%TO.P,J5,33*%
%TO.N,Net-(J4-Pad33)*%
X172085000Y-90805000D03*
%TO.P,J5,34*%
%TO.N,Net-(J4-Pad34)*%
X174625000Y-90805000D03*
%TO.P,J5,35*%
%TO.N,Net-(J4-Pad35)*%
X177165000Y-90805000D03*
%TO.P,J5,36*%
%TO.N,Net-(J4-Pad36)*%
X179705000Y-90805000D03*
%TO.P,J5,37*%
%TO.N,Net-(J4-Pad37)*%
X182245000Y-90805000D03*
%TO.P,J5,38*%
%TO.N,Net-(J4-Pad38)*%
X184785000Y-90805000D03*
%TD*%
D11*
%TO.P,J4,1*%
%TO.N,Net-(J4-Pad1)*%
X90805000Y-88265000D03*
D10*
%TO.P,J4,2*%
%TO.N,Net-(J4-Pad2)*%
X93345000Y-88265000D03*
%TO.P,J4,3*%
%TO.N,Net-(J4-Pad3)*%
X95885000Y-88265000D03*
%TO.P,J4,4*%
%TO.N,Net-(J4-Pad4)*%
X98425000Y-88265000D03*
%TO.P,J4,5*%
%TO.N,Net-(J4-Pad5)*%
X100965000Y-88265000D03*
%TO.P,J4,6*%
%TO.N,Net-(J4-Pad6)*%
X103505000Y-88265000D03*
%TO.P,J4,7*%
%TO.N,Net-(J4-Pad7)*%
X106045000Y-88265000D03*
%TO.P,J4,8*%
%TO.N,Net-(J4-Pad8)*%
X108585000Y-88265000D03*
%TO.P,J4,9*%
%TO.N,Net-(J4-Pad9)*%
X111125000Y-88265000D03*
%TO.P,J4,10*%
%TO.N,Net-(J4-Pad10)*%
X113665000Y-88265000D03*
%TO.P,J4,11*%
%TO.N,Net-(J4-Pad11)*%
X116205000Y-88265000D03*
%TO.P,J4,12*%
%TO.N,Net-(J4-Pad12)*%
X118745000Y-88265000D03*
%TO.P,J4,13*%
%TO.N,Net-(J4-Pad13)*%
X121285000Y-88265000D03*
%TO.P,J4,14*%
%TO.N,Net-(J4-Pad14)*%
X123825000Y-88265000D03*
%TO.P,J4,15*%
%TO.N,Net-(J4-Pad15)*%
X126365000Y-88265000D03*
%TO.P,J4,16*%
%TO.N,Net-(J4-Pad16)*%
X128905000Y-88265000D03*
%TO.P,J4,17*%
%TO.N,Net-(J4-Pad17)*%
X131445000Y-88265000D03*
%TO.P,J4,18*%
%TO.N,Net-(J4-Pad18)*%
X133985000Y-88265000D03*
%TO.P,J4,19*%
%TO.N,Net-(J4-Pad19)*%
X136525000Y-88265000D03*
%TO.P,J4,20*%
%TO.N,Net-(J4-Pad20)*%
X139065000Y-88265000D03*
%TO.P,J4,21*%
%TO.N,Net-(J4-Pad21)*%
X141605000Y-88265000D03*
%TO.P,J4,22*%
%TO.N,Net-(J4-Pad22)*%
X144145000Y-88265000D03*
%TO.P,J4,23*%
%TO.N,Net-(J4-Pad23)*%
X146685000Y-88265000D03*
%TO.P,J4,24*%
%TO.N,Net-(J4-Pad24)*%
X149225000Y-88265000D03*
%TO.P,J4,25*%
%TO.N,Net-(J4-Pad25)*%
X151765000Y-88265000D03*
%TO.P,J4,26*%
%TO.N,Net-(J4-Pad26)*%
X154305000Y-88265000D03*
%TO.P,J4,27*%
%TO.N,Net-(J4-Pad27)*%
X156845000Y-88265000D03*
%TO.P,J4,28*%
%TO.N,Net-(J4-Pad28)*%
X159385000Y-88265000D03*
%TO.P,J4,29*%
%TO.N,Net-(J4-Pad29)*%
X161925000Y-88265000D03*
%TO.P,J4,30*%
%TO.N,Net-(J4-Pad30)*%
X164465000Y-88265000D03*
%TO.P,J4,31*%
%TO.N,Net-(J4-Pad31)*%
X167005000Y-88265000D03*
%TO.P,J4,32*%
%TO.N,Net-(J4-Pad32)*%
X169545000Y-88265000D03*
%TO.P,J4,33*%
%TO.N,Net-(J4-Pad33)*%
X172085000Y-88265000D03*
%TO.P,J4,34*%
%TO.N,Net-(J4-Pad34)*%
X174625000Y-88265000D03*
%TO.P,J4,35*%
%TO.N,Net-(J4-Pad35)*%
X177165000Y-88265000D03*
%TO.P,J4,36*%
%TO.N,Net-(J4-Pad36)*%
X179705000Y-88265000D03*
%TO.P,J4,37*%
%TO.N,Net-(J4-Pad37)*%
X182245000Y-88265000D03*
%TO.P,J4,38*%
%TO.N,Net-(J4-Pad38)*%
X184785000Y-88265000D03*
%TD*%
D11*
%TO.P,J3,1*%
%TO.N,GND*%
X90805000Y-81280000D03*
D10*
%TO.P,J3,2*%
X93345000Y-81280000D03*
%TO.P,J3,3*%
%TO.N,+5V*%
X95885000Y-81280000D03*
%TO.P,J3,4*%
%TO.N,Net-(J3-Pad4)*%
X98425000Y-81280000D03*
%TO.P,J3,5*%
%TO.N,Net-(J3-Pad5)*%
X100965000Y-81280000D03*
%TO.P,J3,6*%
%TO.N,Net-(J3-Pad6)*%
X103505000Y-81280000D03*
%TO.P,J3,7*%
%TO.N,Net-(J3-Pad7)*%
X106045000Y-81280000D03*
%TO.P,J3,8*%
%TO.N,Net-(J3-Pad8)*%
X108585000Y-81280000D03*
%TO.P,J3,9*%
%TO.N,Net-(J3-Pad9)*%
X111125000Y-81280000D03*
%TO.P,J3,10*%
%TO.N,Net-(C4-Pad1)*%
X113665000Y-81280000D03*
%TO.P,J3,11*%
%TO.N,Net-(C5-Pad1)*%
X116205000Y-81280000D03*
%TO.P,J3,12*%
%TO.N,Net-(J3-Pad12)*%
X118745000Y-81280000D03*
%TO.P,J3,13*%
%TO.N,Net-(J3-Pad13)*%
X121285000Y-81280000D03*
%TO.P,J3,14*%
%TO.N,Net-(J3-Pad14)*%
X123825000Y-81280000D03*
%TO.P,J3,15*%
%TO.N,Net-(J3-Pad15)*%
X126365000Y-81280000D03*
%TO.P,J3,16*%
%TO.N,Net-(J3-Pad16)*%
X128905000Y-81280000D03*
%TO.P,J3,17*%
%TO.N,Net-(J3-Pad17)*%
X131445000Y-81280000D03*
%TO.P,J3,18*%
%TO.N,Net-(J3-Pad18)*%
X133985000Y-81280000D03*
%TO.P,J3,19*%
%TO.N,Net-(J3-Pad19)*%
X136525000Y-81280000D03*
%TO.P,J3,20*%
%TO.N,GND*%
X139065000Y-81280000D03*
%TO.P,J3,21*%
%TO.N,Net-(J3-Pad21)*%
X141605000Y-81280000D03*
%TO.P,J3,22*%
%TO.N,+5V*%
X144145000Y-81280000D03*
%TO.P,J3,23*%
%TO.N,Net-(J3-Pad23)*%
X146685000Y-81280000D03*
%TO.P,J3,24*%
%TO.N,Net-(J3-Pad24)*%
X149225000Y-81280000D03*
%TO.P,J3,25*%
%TO.N,GND*%
X151765000Y-81280000D03*
%TO.P,J3,26*%
%TO.N,Net-(J3-Pad26)*%
X154305000Y-81280000D03*
%TO.P,J3,27*%
%TO.N,Net-(J3-Pad27)*%
X156845000Y-81280000D03*
%TO.P,J3,28*%
%TO.N,Net-(J3-Pad28)*%
X159385000Y-81280000D03*
%TO.P,J3,29*%
%TO.N,Net-(J3-Pad29)*%
X161925000Y-81280000D03*
%TO.P,J3,30*%
%TO.N,GND*%
X164465000Y-81280000D03*
%TO.P,J3,31*%
%TO.N,Net-(C7-Pad1)*%
X167005000Y-81280000D03*
%TO.P,J3,32*%
%TO.N,GND*%
X169545000Y-81280000D03*
%TO.P,J3,33*%
%TO.N,Net-(J3-Pad33)*%
X172085000Y-81280000D03*
%TO.P,J3,34*%
%TO.N,Net-(J3-Pad34)*%
X174625000Y-81280000D03*
%TO.P,J3,35*%
%TO.N,Net-(J3-Pad35)*%
X177165000Y-81280000D03*
%TO.P,J3,36*%
%TO.N,+5V*%
X179705000Y-81280000D03*
%TO.P,J3,37*%
%TO.N,GND*%
X182245000Y-81280000D03*
%TO.P,J3,38*%
X184785000Y-81280000D03*
%TD*%
D13*
%TO.P,U2,28*%
%TO.N,Net-(J3-Pad34)*%
X149860000Y-71755000D03*
%TO.P,U2,14*%
%TO.N,Net-(J3-Pad4)*%
X116840000Y-64135000D03*
%TO.P,U2,27*%
%TO.N,Net-(J3-Pad33)*%
X147320000Y-71755000D03*
%TO.P,U2,13*%
%TO.N,Net-(J3-Pad19)*%
X119380000Y-64135000D03*
%TO.P,U2,26*%
%TO.N,Net-(J3-Pad29)*%
X144780000Y-71755000D03*
%TO.P,U2,12*%
%TO.N,Net-(J3-Pad18)*%
X121920000Y-64135000D03*
%TO.P,U2,25*%
%TO.N,Net-(J3-Pad28)*%
X142240000Y-71755000D03*
%TO.P,U2,11*%
%TO.N,Net-(J3-Pad17)*%
X124460000Y-64135000D03*
%TO.P,U2,24*%
%TO.N,Net-(J3-Pad27)*%
X139700000Y-71755000D03*
%TO.P,U2,10*%
%TO.N,Net-(C5-Pad1)*%
X127000000Y-64135000D03*
%TO.P,U2,23*%
%TO.N,Net-(J3-Pad26)*%
X137160000Y-71755000D03*
%TO.P,U2,9*%
%TO.N,Net-(C4-Pad1)*%
X129540000Y-64135000D03*
%TO.P,U2,22*%
%TO.N,GND*%
X134620000Y-71755000D03*
%TO.P,U2,8*%
X132080000Y-64135000D03*
%TO.P,U2,21*%
%TO.N,Net-(C7-Pad1)*%
X132080000Y-71755000D03*
%TO.P,U2,7*%
%TO.N,+5V*%
X134620000Y-64135000D03*
%TO.P,U2,20*%
%TO.N,Net-(C6-Pad1)*%
X129540000Y-71755000D03*
%TO.P,U2,6*%
%TO.N,Net-(J3-Pad16)*%
X137160000Y-64135000D03*
%TO.P,U2,19*%
%TO.N,Net-(J3-Pad9)*%
X127000000Y-71755000D03*
%TO.P,U2,5*%
%TO.N,Net-(J3-Pad15)*%
X139700000Y-64135000D03*
%TO.P,U2,18*%
%TO.N,Net-(J3-Pad8)*%
X124460000Y-71755000D03*
%TO.P,U2,4*%
%TO.N,Net-(J3-Pad14)*%
X142240000Y-64135000D03*
%TO.P,U2,17*%
%TO.N,Net-(J3-Pad7)*%
X121920000Y-71755000D03*
%TO.P,U2,3*%
%TO.N,Net-(J3-Pad13)*%
X144780000Y-64135000D03*
%TO.P,U2,16*%
%TO.N,Net-(J3-Pad6)*%
X119380000Y-71755000D03*
%TO.P,U2,2*%
%TO.N,Net-(J3-Pad12)*%
X147320000Y-64135000D03*
%TO.P,U2,15*%
%TO.N,Net-(J3-Pad5)*%
X116840000Y-71755000D03*
D14*
%TO.P,U2,1*%
%TO.N,Net-(J3-Pad35)*%
X149860000Y-64135000D03*
%TD*%
D15*
%TO.P,Y1,2*%
%TO.N,Net-(C5-Pad1)*%
X125295000Y-56515000D03*
%TO.P,Y1,1*%
%TO.N,Net-(C4-Pad1)*%
X130175000Y-56515000D03*
%TD*%
D16*
%TO.P,U1,3*%
%TO.N,+5V*%
X110490000Y-50800000D03*
%TO.P,U1,2*%
%TO.N,GND*%
X107950000Y-50800000D03*
D17*
%TO.P,U1,1*%
%TO.N,Net-(C1-Pad1)*%
X105410000Y-50800000D03*
%TD*%
D18*
%TO.P,R6,2*%
%TO.N,Net-(J2-Pad5)*%
X175260000Y-71120000D03*
D19*
%TO.P,R6,1*%
%TO.N,Net-(J3-Pad35)*%
X162560000Y-71120000D03*
%TD*%
D18*
%TO.P,R5,2*%
%TO.N,Net-(J2-Pad3)*%
X175260000Y-67310000D03*
D19*
%TO.P,R5,1*%
%TO.N,Net-(J3-Pad9)*%
X162560000Y-67310000D03*
%TD*%
D18*
%TO.P,R4,2*%
%TO.N,Net-(J2-Pad4)*%
X175260000Y-63500000D03*
D19*
%TO.P,R4,1*%
%TO.N,Net-(J3-Pad7)*%
X162560000Y-63500000D03*
%TD*%
D18*
%TO.P,R3,2*%
%TO.N,Net-(J2-Pad1)*%
X175260000Y-59690000D03*
D19*
%TO.P,R3,1*%
%TO.N,Net-(J3-Pad8)*%
X162560000Y-59690000D03*
%TD*%
D18*
%TO.P,R2,2*%
%TO.N,Net-(D1-Pad2)*%
X175260000Y-50800000D03*
D19*
%TO.P,R2,1*%
%TO.N,Net-(J3-Pad6)*%
X162560000Y-50800000D03*
%TD*%
D18*
%TO.P,R1,2*%
%TO.N,Net-(J3-Pad35)*%
X162560000Y-74930000D03*
D19*
%TO.P,R1,1*%
%TO.N,+5V*%
X175260000Y-74930000D03*
%TD*%
D20*
%TO.P,L1,2*%
%TO.N,Net-(C6-Pad1)*%
X162560000Y-55245000D03*
D21*
%TO.P,L1,1*%
%TO.N,+5V*%
X175260000Y-55245000D03*
%TD*%
D10*
%TO.P,J2,6*%
%TO.N,GND*%
X184150000Y-69850000D03*
%TO.P,J2,5*%
%TO.N,Net-(J2-Pad5)*%
X181610000Y-69850000D03*
%TO.P,J2,4*%
%TO.N,Net-(J2-Pad4)*%
X184150000Y-67310000D03*
%TO.P,J2,3*%
%TO.N,Net-(J2-Pad3)*%
X181610000Y-67310000D03*
%TO.P,J2,2*%
%TO.N,+5V*%
X184150000Y-64770000D03*
D11*
%TO.P,J2,1*%
%TO.N,Net-(J2-Pad1)*%
X181610000Y-64770000D03*
%TD*%
D22*
%TO.P,J1,2*%
%TO.N,Net-(C1-Pad1)*%
X95250000Y-72945000D03*
D23*
%TO.P,J1,1*%
%TO.N,GND*%
X95250000Y-67945000D03*
%TD*%
D24*
%TO.P,D1,2*%
%TO.N,Net-(D1-Pad2)*%
X156210000Y-52705000D03*
D25*
%TO.P,D1,1*%
%TO.N,GND*%
X156210000Y-50165000D03*
%TD*%
D19*
%TO.P,C9,2*%
%TO.N,GND*%
X111760000Y-62150000D03*
%TO.P,C9,1*%
%TO.N,+5V*%
X111760000Y-57150000D03*
%TD*%
%TO.P,C8,2*%
%TO.N,GND*%
X112395000Y-71040000D03*
%TO.P,C8,1*%
%TO.N,+5V*%
X112395000Y-66040000D03*
%TD*%
%TO.P,C7,2*%
%TO.N,GND*%
X138430000Y-55325000D03*
%TO.P,C7,1*%
%TO.N,Net-(C7-Pad1)*%
X138430000Y-60325000D03*
%TD*%
%TO.P,C6,2*%
%TO.N,GND*%
X142875000Y-60245000D03*
%TO.P,C6,1*%
%TO.N,Net-(C6-Pad1)*%
X142875000Y-55245000D03*
%TD*%
%TO.P,C5,2*%
%TO.N,GND*%
X120730000Y-50800000D03*
%TO.P,C5,1*%
%TO.N,Net-(C5-Pad1)*%
X125730000Y-50800000D03*
%TD*%
%TO.P,C4,2*%
%TO.N,GND*%
X133905000Y-50800000D03*
%TO.P,C4,1*%
%TO.N,Net-(C4-Pad1)*%
X128905000Y-50800000D03*
%TD*%
%TO.P,C3,2*%
%TO.N,GND*%
X107950000Y-62150000D03*
%TO.P,C3,1*%
%TO.N,+5V*%
X107950000Y-57150000D03*
%TD*%
%TO.P,C2,2*%
%TO.N,GND*%
X104140000Y-62150000D03*
%TO.P,C2,1*%
%TO.N,Net-(C1-Pad1)*%
X104140000Y-57150000D03*
%TD*%
%TO.P,C1,2*%
%TO.N,GND*%
X95330000Y-59690000D03*
D26*
%TO.P,C1,1*%
%TO.N,Net-(C1-Pad1)*%
X100330000Y-59690000D03*
%TD*%
D27*
%TO.N,Net-(C4-Pad1)*%
X115570000Y-66675000D03*
%TO.N,Net-(C5-Pad1)*%
X116840000Y-65950000D03*
%TO.N,Net-(C6-Pad1)*%
X134620000Y-55245000D03*
%TO.N,Net-(J3-Pad19)*%
X130720000Y-79375000D03*
%TO.N,Net-(J3-Pad18)*%
X132715000Y-78105000D03*
X130175000Y-78105000D03*
%TO.N,Net-(J3-Pad16)*%
X133985000Y-67945000D03*
%TO.N,Net-(J3-Pad15)*%
X128995000Y-74295000D03*
X130810000Y-68580000D03*
X137795000Y-67400000D03*
%TO.N,Net-(J3-Pad14)*%
X125640000Y-76200000D03*
X127090000Y-76200000D03*
X129540000Y-76110000D03*
X133350000Y-74930000D03*
X140335000Y-67400000D03*
%TO.N,Net-(J3-Pad13)*%
X125290858Y-75125858D03*
X127545000Y-75020000D03*
X129646284Y-75053836D03*
%TO.N,Net-(J3-Pad8)*%
X149225000Y-59055000D03*
X146050000Y-59055000D03*
X123190000Y-60415000D03*
%TO.N,Net-(J3-Pad7)*%
X121920000Y-59690000D03*
X147320000Y-57150000D03*
%TO.N,Net-(J3-Pad6)*%
X118110000Y-60325000D03*
%TD*%
D28*
%TO.N,GND*%
X134620000Y-71755000D02*
X134620000Y-74295000D01*
X139065000Y-78740000D02*
X139065000Y-81280000D01*
X134620000Y-74295000D02*
X139065000Y-78740000D01*
D29*
X145415000Y-69850000D02*
X136525000Y-69850000D01*
D30*
X146050000Y-73026410D02*
X146050000Y-70485000D01*
D29*
X146050000Y-70485000D02*
X145415000Y-69850000D01*
X136525000Y-69850000D02*
X134620000Y-71755000D01*
X164465000Y-81280000D02*
X164465000Y-83820000D01*
X164465000Y-83820000D02*
X151765000Y-83820000D01*
X151765000Y-83820000D02*
X151765000Y-81280000D01*
X146050000Y-73478251D02*
X146050000Y-73026410D01*
X147001259Y-74429510D02*
X146050000Y-73478251D01*
X156162760Y-74429510D02*
X147001259Y-74429510D01*
X161108250Y-79375000D02*
X156162760Y-74429510D01*
X163830000Y-79375000D02*
X161108250Y-79375000D01*
X164465000Y-80010000D02*
X163830000Y-79375000D01*
X164465000Y-81280000D02*
X164465000Y-80010000D01*
D28*
%TO.N,Net-(C1-Pad1)*%
X95965000Y-72945000D02*
X99695000Y-69215000D01*
D31*
X95250000Y-72945000D02*
X95965000Y-72945000D01*
X103505000Y-57785000D02*
X104140000Y-57150000D01*
D28*
X104140000Y-52070000D02*
X105410000Y-50800000D01*
X104140000Y-57150000D02*
X104140000Y-52070000D01*
D29*
X99695000Y-60325000D02*
X100330000Y-59690000D01*
D28*
X101600000Y-59690000D02*
X104140000Y-57150000D01*
D29*
X100330000Y-59690000D02*
X101600000Y-59690000D01*
D28*
X104140000Y-66040000D02*
X99695000Y-66040000D01*
X99695000Y-66040000D02*
X99695000Y-60325000D01*
X99695000Y-69215000D02*
X99695000Y-66040000D01*
D31*
%TO.N,+5V*%
X184150000Y-64135000D02*
X184150000Y-64770000D01*
X175260000Y-55245000D02*
X184150000Y-64135000D01*
D28*
X111125000Y-66040000D02*
X112395000Y-66040000D01*
X95885000Y-81280000D02*
X111125000Y-66040000D01*
X110490000Y-54610000D02*
X107950000Y-57150000D01*
X110490000Y-50800000D02*
X110490000Y-54610000D01*
X107950000Y-57150000D02*
X111760000Y-57150000D01*
X112395000Y-66040000D02*
X114300000Y-64135000D01*
X114300000Y-59690000D02*
X111760000Y-57150000D01*
D29*
X132080000Y-61595000D02*
X114300000Y-61595000D01*
X134620000Y-64135000D02*
X132080000Y-61595000D01*
D28*
X114300000Y-61595000D02*
X114300000Y-59690000D01*
X114300000Y-64135000D02*
X114300000Y-61595000D01*
X95885000Y-81280000D02*
X95885000Y-83820000D01*
X95885000Y-83820000D02*
X144145000Y-83820000D01*
X144145000Y-83820000D02*
X144145000Y-81280000D01*
D29*
X179705000Y-83820000D02*
X179705000Y-81280000D01*
X178435000Y-85090000D02*
X179705000Y-83820000D01*
X145415000Y-85090000D02*
X178435000Y-85090000D01*
X144145000Y-83820000D02*
X145415000Y-85090000D01*
X179705000Y-79375000D02*
X175260000Y-74930000D01*
X179705000Y-81280000D02*
X179705000Y-79375000D01*
D31*
%TO.N,Net-(C4-Pad1)*%
X130175000Y-52070000D02*
X128905000Y-50800000D01*
X130175000Y-56515000D02*
X130175000Y-52070000D01*
X115570000Y-66675000D02*
X128905000Y-66675000D01*
X129540000Y-66040000D02*
X129540000Y-64135000D01*
X128905000Y-66675000D02*
X129540000Y-66040000D01*
%TO.N,Net-(C5-Pad1)*%
X125295000Y-51235000D02*
X125730000Y-50800000D01*
X125295000Y-56515000D02*
X125295000Y-51235000D01*
X127000000Y-65405000D02*
X127000000Y-64135000D01*
X126455000Y-65950000D02*
X127000000Y-65405000D01*
X116840000Y-65950000D02*
X126455000Y-65950000D01*
D30*
%TO.N,Net-(C6-Pad1)*%
X162560000Y-55245000D02*
X142875000Y-55245000D01*
X142875000Y-55245000D02*
X140970000Y-53340000D01*
X136525000Y-53340000D02*
X134620000Y-55245000D01*
X136525000Y-53340000D02*
X140970000Y-53340000D01*
D31*
%TO.N,Net-(D1-Pad2)*%
X156210000Y-52705000D02*
X158115000Y-52705000D01*
X158115000Y-52705000D02*
X161925000Y-48895000D01*
X161925000Y-48895000D02*
X173355000Y-48895000D01*
X173355000Y-48895000D02*
X175260000Y-50800000D01*
%TO.N,Net-(J2-Pad5)*%
X180340000Y-71120000D02*
X181610000Y-69850000D01*
X175260000Y-71120000D02*
X180340000Y-71120000D01*
%TO.N,Net-(J2-Pad4)*%
X172720000Y-66040000D02*
X175260000Y-63500000D01*
X173990000Y-73025000D02*
X172720000Y-71755000D01*
X172720000Y-71755000D02*
X172720000Y-66040000D01*
X184150000Y-73025000D02*
X173990000Y-73025000D01*
X186055000Y-71120000D02*
X184150000Y-73025000D01*
X186055000Y-69215000D02*
X186055000Y-71120000D01*
X184150000Y-67310000D02*
X186055000Y-69215000D01*
%TO.N,Net-(J2-Pad3)*%
X175260000Y-67310000D02*
X181610000Y-67310000D01*
%TO.N,Net-(J2-Pad1)*%
X176530000Y-59690000D02*
X181610000Y-64770000D01*
X175260000Y-59690000D02*
X176530000Y-59690000D01*
%TO.N,Net-(J3-Pad35)*%
X162560000Y-74930000D02*
X162560000Y-71120000D01*
X156845000Y-71120000D02*
X149860000Y-64135000D01*
X162560000Y-71120000D02*
X156845000Y-71120000D01*
X177165000Y-81280000D02*
X177165000Y-80010000D01*
X177165000Y-80010000D02*
X173990000Y-76835000D01*
X164465000Y-76835000D02*
X162560000Y-74930000D01*
X173990000Y-76835000D02*
X164465000Y-76835000D01*
%TO.N,Net-(J3-Pad34)*%
X174625000Y-81280000D02*
X174625000Y-80010000D01*
X174625000Y-80010000D02*
X172085000Y-77470000D01*
X172085000Y-77470000D02*
X162560000Y-77470000D01*
X156845000Y-71755000D02*
X149860000Y-71755000D01*
X162560000Y-77470000D02*
X156845000Y-71755000D01*
%TO.N,Net-(J3-Pad33)*%
X172085000Y-81280000D02*
X172085000Y-80010000D01*
X172085000Y-80010000D02*
X170180000Y-78105000D01*
X170180000Y-78105000D02*
X161925000Y-78105000D01*
X161925000Y-78105000D02*
X157480000Y-73660000D01*
X157480000Y-73660000D02*
X147320000Y-73660000D01*
X147320000Y-73660000D02*
X147320000Y-71755000D01*
%TO.N,Net-(J3-Pad29)*%
X161925000Y-81280000D02*
X156210000Y-75565000D01*
X156210000Y-75565000D02*
X146050000Y-75565000D01*
X144780000Y-74295000D02*
X144780000Y-71755000D01*
X146050000Y-75565000D02*
X144780000Y-74295000D01*
%TO.N,Net-(J3-Pad28)*%
X159385000Y-81280000D02*
X154305000Y-76200000D01*
X154305000Y-76200000D02*
X144145000Y-76200000D01*
X142240000Y-74295000D02*
X142240000Y-71755000D01*
X144145000Y-76200000D02*
X142240000Y-74295000D01*
%TO.N,Net-(J3-Pad27)*%
X156845000Y-81280000D02*
X152400000Y-76835000D01*
X152400000Y-76835000D02*
X142240000Y-76835000D01*
X139700000Y-74295000D02*
X139700000Y-71755000D01*
X142240000Y-76835000D02*
X139700000Y-74295000D01*
%TO.N,Net-(J3-Pad26)*%
X154305000Y-81280000D02*
X150495000Y-77470000D01*
X150495000Y-77470000D02*
X140335000Y-77470000D01*
X137160000Y-74295000D02*
X137160000Y-71755000D01*
X140335000Y-77470000D02*
X137160000Y-74295000D01*
%TO.N,Net-(J3-Pad19)*%
X119380000Y-65405000D02*
X119380000Y-64135000D01*
X136525000Y-80010000D02*
X135890000Y-79375000D01*
X130720000Y-79375000D02*
X135890000Y-79375000D01*
X136525000Y-81280000D02*
X136525000Y-80010000D01*
%TO.N,Net-(J3-Pad18)*%
X132715000Y-78105000D02*
X130175000Y-78105000D01*
%TO.N,Net-(J3-Pad16)*%
X128905000Y-78105000D02*
X128905000Y-81280000D01*
X130810000Y-76200000D02*
X128905000Y-78105000D01*
X133350000Y-67945000D02*
X130810000Y-70485000D01*
X133985000Y-67945000D02*
X133350000Y-67945000D01*
X130810000Y-70485000D02*
X130810000Y-76200000D01*
%TO.N,Net-(J3-Pad15)*%
X126365000Y-81280000D02*
X126365000Y-74930000D01*
X126365000Y-74930000D02*
X127000000Y-74295000D01*
X127000000Y-74295000D02*
X128995000Y-74295000D01*
X130810000Y-68580000D02*
X132080000Y-67310000D01*
X133636999Y-67219999D02*
X137704999Y-67219999D01*
X133546998Y-67310000D02*
X133636999Y-67219999D01*
X132080000Y-67310000D02*
X133546998Y-67310000D01*
X137795000Y-67310000D02*
X137795000Y-67400000D01*
X137704999Y-67219999D02*
X137795000Y-67310000D01*
%TO.N,Net-(J3-Pad14)*%
X123825000Y-81280000D02*
X123825000Y-78105000D01*
X125640000Y-76290000D02*
X125640000Y-76200000D01*
X123825000Y-78105000D02*
X125640000Y-76290000D01*
X129450000Y-76200000D02*
X129540000Y-76110000D01*
X127090000Y-76200000D02*
X129450000Y-76200000D01*
X133350000Y-74930000D02*
X133350000Y-69850000D01*
X135074999Y-68125001D02*
X139519999Y-68125001D01*
X133350000Y-69850000D02*
X135074999Y-68125001D01*
X140245000Y-67400000D02*
X140335000Y-67400000D01*
X139519999Y-68125001D02*
X140245000Y-67400000D01*
%TO.N,Net-(J3-Pad13)*%
X121285000Y-81280000D02*
X121285000Y-78742820D01*
X121285000Y-78742820D02*
X122742106Y-77285714D01*
X122742106Y-77285714D02*
X125096410Y-74931410D01*
X125096410Y-74931410D02*
X125290858Y-75125858D01*
X127545000Y-75020000D02*
X129450000Y-75020000D01*
X129483836Y-75053836D02*
X129646284Y-75053836D01*
X129450000Y-75020000D02*
X129483836Y-75053836D01*
%TO.N,Net-(J3-Pad12)*%
X118745000Y-81280000D02*
X118745000Y-77470000D01*
X118745000Y-77470000D02*
X119380000Y-76835000D01*
X119380705Y-76835705D02*
X122555705Y-76835705D01*
X119380000Y-76835000D02*
X119380705Y-76835705D01*
X125731410Y-73660000D02*
X122555705Y-76835705D01*
X127635000Y-73660000D02*
X128270000Y-73025000D01*
X127635000Y-73660000D02*
X125731410Y-73660000D01*
X128270000Y-73025000D02*
X128270000Y-69850000D01*
X128270000Y-69850000D02*
X128270000Y-68580000D01*
X128270000Y-68580000D02*
X128905000Y-67945000D01*
X128905000Y-67945000D02*
X130175000Y-67945000D01*
X130175000Y-67945000D02*
X131445000Y-66675000D01*
X131445000Y-66675000D02*
X134620000Y-66675000D01*
X134620000Y-66675000D02*
X134620000Y-66765000D01*
X134620000Y-66675000D02*
X146685000Y-66675000D01*
X147320000Y-66040000D02*
X147320000Y-64135000D01*
X146685000Y-66675000D02*
X147320000Y-66040000D01*
%TO.N,Net-(J3-Pad9)*%
X111125000Y-81280000D02*
X111125000Y-77470000D01*
X111125000Y-77470000D02*
X112395000Y-76200000D01*
X122555000Y-76200000D02*
X127000000Y-71755000D01*
X112395000Y-76200000D02*
X122555000Y-76200000D01*
X128270000Y-67310000D02*
X127000000Y-68580000D01*
X162560000Y-67310000D02*
X163830000Y-67310000D01*
X163830000Y-67310000D02*
X166370000Y-64770000D01*
X144780000Y-61595000D02*
X137160000Y-61595000D01*
X130810000Y-66040000D02*
X129540000Y-67310000D01*
X166370000Y-64770000D02*
X166370000Y-59690000D01*
X166370000Y-59690000D02*
X164465000Y-57785000D01*
X164465000Y-57785000D02*
X148590000Y-57785000D01*
X135890000Y-65405000D02*
X135255000Y-66040000D01*
X129540000Y-67310000D02*
X128270000Y-67310000D01*
X148590000Y-57785000D02*
X144780000Y-61595000D01*
X137160000Y-61595000D02*
X135890000Y-62865000D01*
X127000000Y-68580000D02*
X127000000Y-71755000D01*
X135890000Y-62865000D02*
X135890000Y-65405000D01*
X135255000Y-66040000D02*
X130810000Y-66040000D01*
%TO.N,Net-(J3-Pad8)*%
X108585000Y-81280000D02*
X108585000Y-78740000D01*
X108585000Y-78740000D02*
X111760000Y-75565000D01*
X120650000Y-75565000D02*
X124460000Y-71755000D01*
X111760000Y-75565000D02*
X120650000Y-75565000D01*
X146050000Y-59055000D02*
X145415000Y-59055000D01*
X145415000Y-59055000D02*
X138034998Y-59055000D01*
X138034998Y-59055000D02*
X135255000Y-59055000D01*
X133894999Y-60415001D02*
X123280001Y-60415001D01*
X135255000Y-59055000D02*
X133894999Y-60415001D01*
X123280000Y-60415000D02*
X123190000Y-60415000D01*
X123280001Y-60415001D02*
X123280000Y-60415000D01*
X164465000Y-59690000D02*
X162560000Y-59690000D01*
X165100000Y-64135000D02*
X165100000Y-60325000D01*
X163830000Y-65405000D02*
X165100000Y-64135000D01*
X165100000Y-60325000D02*
X164465000Y-59690000D01*
X161925000Y-65405000D02*
X163830000Y-65405000D01*
X155575000Y-59055000D02*
X161925000Y-65405000D01*
X149225000Y-59055000D02*
X155575000Y-59055000D01*
%TO.N,Net-(J3-Pad7)*%
X106045000Y-81280000D02*
X106045000Y-80010000D01*
X106045000Y-80010000D02*
X111125000Y-74930000D01*
X118745000Y-74930000D02*
X121920000Y-71755000D01*
X111125000Y-74930000D02*
X118745000Y-74930000D01*
X121920000Y-59690000D02*
X133350000Y-59690000D01*
X133350000Y-59690000D02*
X135890000Y-57150000D01*
X135890000Y-57150000D02*
X147320000Y-57150000D01*
%TO.N,Net-(J3-Pad6)*%
X103505000Y-81280000D02*
X110490000Y-74295000D01*
X116840000Y-74295000D02*
X119380000Y-71755000D01*
X110490000Y-74295000D02*
X116840000Y-74295000D01*
X118110000Y-50165000D02*
X118110000Y-60325000D01*
X119380000Y-48895000D02*
X118110000Y-50165000D01*
X147955000Y-48895000D02*
X119380000Y-48895000D01*
X153670000Y-54610000D02*
X147955000Y-48895000D01*
X158750000Y-54610000D02*
X153670000Y-54610000D01*
X162560000Y-50800000D02*
X158750000Y-54610000D01*
%TO.N,Net-(J3-Pad5)*%
X100965000Y-81280000D02*
X108585000Y-73660000D01*
X114935000Y-73660000D02*
X116840000Y-71755000D01*
X108585000Y-73660000D02*
X114935000Y-73660000D01*
%TO.N,Net-(J3-Pad4)*%
X113030000Y-67945000D02*
X116840000Y-64135000D01*
X98425000Y-81280000D02*
X111760000Y-67945000D01*
X111760000Y-67945000D02*
X113030000Y-67945000D01*
D29*
%TO.N,Net-(J4-Pad38)*%
X184785000Y-93345000D02*
X184785000Y-88265000D01*
%TO.N,Net-(J4-Pad37)*%
X182245000Y-93345000D02*
X182245000Y-88265000D01*
%TO.N,Net-(J4-Pad36)*%
X179705000Y-93345000D02*
X179705000Y-88265000D01*
%TO.N,Net-(J4-Pad35)*%
X177165000Y-93345000D02*
X177165000Y-88265000D01*
%TO.N,Net-(J4-Pad34)*%
X174625000Y-93345000D02*
X174625000Y-88265000D01*
%TO.N,Net-(J4-Pad33)*%
X172085000Y-93345000D02*
X172085000Y-88265000D01*
%TO.N,Net-(J4-Pad32)*%
X169545000Y-93345000D02*
X169545000Y-88265000D01*
%TO.N,Net-(J4-Pad31)*%
X167005000Y-93345000D02*
X167005000Y-88265000D01*
%TO.N,Net-(J4-Pad30)*%
X164465000Y-93345000D02*
X164465000Y-88265000D01*
%TO.N,Net-(J4-Pad29)*%
X161925000Y-93345000D02*
X161925000Y-88265000D01*
%TO.N,Net-(J4-Pad28)*%
X159385000Y-93345000D02*
X159385000Y-88265000D01*
%TO.N,Net-(J4-Pad27)*%
X156845000Y-93345000D02*
X156845000Y-88265000D01*
%TO.N,Net-(J4-Pad26)*%
X154305000Y-93345000D02*
X154305000Y-88265000D01*
%TO.N,Net-(J4-Pad25)*%
X151765000Y-93345000D02*
X151765000Y-88265000D01*
%TO.N,Net-(J4-Pad24)*%
X149225000Y-93345000D02*
X149225000Y-88265000D01*
%TO.N,Net-(J4-Pad23)*%
X146685000Y-93345000D02*
X146685000Y-88265000D01*
%TO.N,Net-(J4-Pad22)*%
X144145000Y-93345000D02*
X144145000Y-88265000D01*
%TO.N,Net-(J4-Pad21)*%
X141605000Y-93345000D02*
X141605000Y-88265000D01*
%TO.N,Net-(J4-Pad20)*%
X139065000Y-93345000D02*
X139065000Y-88265000D01*
%TO.N,Net-(J4-Pad19)*%
X136525000Y-93345000D02*
X136525000Y-88265000D01*
%TO.N,Net-(J4-Pad18)*%
X133985000Y-93345000D02*
X133985000Y-88265000D01*
%TO.N,Net-(J4-Pad17)*%
X131445000Y-93345000D02*
X131445000Y-88265000D01*
%TO.N,Net-(J4-Pad16)*%
X128905000Y-93345000D02*
X128905000Y-88265000D01*
%TO.N,Net-(J4-Pad15)*%
X126365000Y-93345000D02*
X126365000Y-88265000D01*
%TO.N,Net-(J4-Pad14)*%
X123825000Y-93345000D02*
X123825000Y-88265000D01*
%TO.N,Net-(J4-Pad13)*%
X121285000Y-93345000D02*
X121285000Y-88265000D01*
%TO.N,Net-(J4-Pad12)*%
X118745000Y-93345000D02*
X118745000Y-88265000D01*
%TO.N,Net-(J4-Pad11)*%
X116205000Y-93345000D02*
X116205000Y-88265000D01*
%TO.N,Net-(J4-Pad10)*%
X113665000Y-93345000D02*
X113665000Y-88265000D01*
%TO.N,Net-(J4-Pad9)*%
X111125000Y-93345000D02*
X111125000Y-88265000D01*
%TO.N,Net-(J4-Pad8)*%
X108585000Y-93345000D02*
X108585000Y-88265000D01*
%TO.N,Net-(J4-Pad7)*%
X106045000Y-93345000D02*
X106045000Y-88265000D01*
%TO.N,Net-(J4-Pad6)*%
X103505000Y-93345000D02*
X103505000Y-88265000D01*
%TO.N,Net-(J4-Pad5)*%
X100965000Y-93345000D02*
X100965000Y-88265000D01*
%TO.N,Net-(J4-Pad4)*%
X98425000Y-93345000D02*
X98425000Y-88265000D01*
%TO.N,Net-(J4-Pad3)*%
X95885000Y-93345000D02*
X95885000Y-88265000D01*
%TO.N,Net-(J4-Pad2)*%
X93345000Y-93345000D02*
X93345000Y-88265000D01*
%TO.N,Net-(J4-Pad1)*%
X90805000Y-93345000D02*
X90805000Y-88265000D01*
%TO.N,Net-(J7-Pad1)*%
X184785000Y-95885000D02*
X90805000Y-95885000D01*
%TO.N,Net-(J8-Pad1)*%
X90805000Y-98425000D02*
X184785000Y-98425000D01*
%TO.N,Net-(J10-Pad38)*%
X184785000Y-106045000D02*
X184785000Y-100965000D01*
%TO.N,Net-(J10-Pad37)*%
X182245000Y-106045000D02*
X182245000Y-100965000D01*
%TO.N,Net-(J10-Pad36)*%
X179705000Y-106045000D02*
X179705000Y-100965000D01*
%TO.N,Net-(J10-Pad35)*%
X177165000Y-106045000D02*
X177165000Y-100965000D01*
%TO.N,Net-(J10-Pad34)*%
X174625000Y-106045000D02*
X174625000Y-100965000D01*
%TO.N,Net-(J10-Pad33)*%
X172085000Y-106045000D02*
X172085000Y-100965000D01*
%TO.N,Net-(J10-Pad32)*%
X169545000Y-106045000D02*
X169545000Y-100965000D01*
%TO.N,Net-(J10-Pad31)*%
X167005000Y-106045000D02*
X167005000Y-100965000D01*
%TO.N,Net-(J10-Pad30)*%
X164465000Y-106045000D02*
X164465000Y-100965000D01*
%TO.N,Net-(J10-Pad29)*%
X161925000Y-106045000D02*
X161925000Y-100965000D01*
%TO.N,Net-(J10-Pad28)*%
X159385000Y-106045000D02*
X159385000Y-100965000D01*
%TO.N,Net-(J10-Pad27)*%
X156845000Y-106045000D02*
X156845000Y-100965000D01*
%TO.N,Net-(J10-Pad26)*%
X154305000Y-106045000D02*
X154305000Y-100965000D01*
%TO.N,Net-(J10-Pad25)*%
X151765000Y-106045000D02*
X151765000Y-100965000D01*
%TO.N,Net-(J10-Pad24)*%
X149225000Y-106045000D02*
X149225000Y-100965000D01*
%TO.N,Net-(J10-Pad23)*%
X146685000Y-106045000D02*
X146685000Y-100965000D01*
%TO.N,Net-(J10-Pad22)*%
X144145000Y-106045000D02*
X144145000Y-100965000D01*
%TO.N,Net-(J10-Pad21)*%
X141605000Y-106045000D02*
X141605000Y-100965000D01*
%TO.N,Net-(J10-Pad20)*%
X139065000Y-106045000D02*
X139065000Y-100965000D01*
%TO.N,Net-(J10-Pad19)*%
X136525000Y-106045000D02*
X136525000Y-100965000D01*
%TO.N,Net-(J10-Pad18)*%
X133985000Y-106045000D02*
X133985000Y-100965000D01*
%TO.N,Net-(J10-Pad17)*%
X131445000Y-106045000D02*
X131445000Y-100965000D01*
%TO.N,Net-(J10-Pad16)*%
X128905000Y-106045000D02*
X128905000Y-100965000D01*
%TO.N,Net-(J10-Pad15)*%
X126365000Y-106045000D02*
X126365000Y-100965000D01*
%TO.N,Net-(J10-Pad14)*%
X123825000Y-106045000D02*
X123825000Y-100965000D01*
%TO.N,Net-(J10-Pad13)*%
X121285000Y-106045000D02*
X121285000Y-100965000D01*
%TO.N,Net-(J10-Pad12)*%
X118745000Y-106045000D02*
X118745000Y-100965000D01*
%TO.N,Net-(J10-Pad11)*%
X116205000Y-106045000D02*
X116205000Y-100965000D01*
%TO.N,Net-(J10-Pad10)*%
X113665000Y-106045000D02*
X113665000Y-100965000D01*
%TO.N,Net-(J10-Pad9)*%
X111125000Y-106045000D02*
X111125000Y-100965000D01*
%TO.N,Net-(J10-Pad8)*%
X108585000Y-106045000D02*
X108585000Y-100965000D01*
%TO.N,Net-(J10-Pad7)*%
X106045000Y-106045000D02*
X106045000Y-100965000D01*
%TO.N,Net-(J10-Pad6)*%
X103505000Y-106045000D02*
X103505000Y-100965000D01*
%TO.N,Net-(J10-Pad5)*%
X100965000Y-106045000D02*
X100965000Y-100965000D01*
%TO.N,Net-(J10-Pad4)*%
X98425000Y-106045000D02*
X98425000Y-100965000D01*
%TO.N,Net-(J10-Pad3)*%
X95885000Y-106045000D02*
X95885000Y-100965000D01*
%TO.N,Net-(J10-Pad2)*%
X93345000Y-106045000D02*
X93345000Y-100965000D01*
%TO.N,Net-(J10-Pad1)*%
X90805000Y-106045000D02*
X90805000Y-100965000D01*
%TO.N,Net-(J12-Pad38)*%
X184785000Y-113665000D02*
X184785000Y-108585000D01*
%TO.N,Net-(J12-Pad37)*%
X182245000Y-113665000D02*
X182245000Y-108585000D01*
%TO.N,Net-(J12-Pad36)*%
X179705000Y-113665000D02*
X179705000Y-108585000D01*
%TO.N,Net-(J12-Pad35)*%
X177165000Y-113665000D02*
X177165000Y-108585000D01*
%TO.N,Net-(J12-Pad34)*%
X174625000Y-113665000D02*
X174625000Y-108585000D01*
%TO.N,Net-(J12-Pad33)*%
X172085000Y-113665000D02*
X172085000Y-108585000D01*
%TO.N,Net-(J12-Pad32)*%
X169545000Y-113665000D02*
X169545000Y-108585000D01*
%TO.N,Net-(J12-Pad31)*%
X167005000Y-113665000D02*
X167005000Y-108585000D01*
%TO.N,Net-(J12-Pad30)*%
X164465000Y-113665000D02*
X164465000Y-108585000D01*
%TO.N,Net-(J12-Pad29)*%
X161925000Y-113665000D02*
X161925000Y-108585000D01*
%TO.N,Net-(J12-Pad28)*%
X159385000Y-113665000D02*
X159385000Y-108585000D01*
%TO.N,Net-(J12-Pad27)*%
X156845000Y-113665000D02*
X156845000Y-108585000D01*
%TO.N,Net-(J12-Pad26)*%
X154305000Y-113665000D02*
X154305000Y-108585000D01*
%TO.N,Net-(J12-Pad25)*%
X151765000Y-113665000D02*
X151765000Y-108585000D01*
%TO.N,Net-(J12-Pad24)*%
X149225000Y-113665000D02*
X149225000Y-108585000D01*
%TO.N,Net-(J12-Pad23)*%
X146685000Y-113665000D02*
X146685000Y-108585000D01*
%TO.N,Net-(J12-Pad22)*%
X144145000Y-113665000D02*
X144145000Y-108585000D01*
%TO.N,Net-(J12-Pad21)*%
X141605000Y-113665000D02*
X141605000Y-108585000D01*
%TO.N,Net-(J12-Pad20)*%
X139065000Y-113665000D02*
X139065000Y-108585000D01*
%TO.N,Net-(J12-Pad19)*%
X136525000Y-113665000D02*
X136525000Y-108585000D01*
%TO.N,Net-(J12-Pad18)*%
X133985000Y-113665000D02*
X133985000Y-108585000D01*
%TO.N,Net-(J12-Pad17)*%
X131445000Y-113665000D02*
X131445000Y-108585000D01*
%TO.N,Net-(J12-Pad16)*%
X128905000Y-113665000D02*
X128905000Y-108585000D01*
%TO.N,Net-(J12-Pad15)*%
X126365000Y-113665000D02*
X126365000Y-108585000D01*
%TO.N,Net-(J12-Pad14)*%
X123825000Y-113665000D02*
X123825000Y-108585000D01*
%TO.N,Net-(J12-Pad13)*%
X121285000Y-113665000D02*
X121285000Y-108585000D01*
%TO.N,Net-(J12-Pad12)*%
X118745000Y-113665000D02*
X118745000Y-108585000D01*
%TO.N,Net-(J12-Pad11)*%
X116205000Y-113665000D02*
X116205000Y-108585000D01*
%TO.N,Net-(J12-Pad10)*%
X113665000Y-113665000D02*
X113665000Y-108585000D01*
%TO.N,Net-(J12-Pad9)*%
X111125000Y-113665000D02*
X111125000Y-108585000D01*
%TO.N,Net-(J12-Pad8)*%
X108585000Y-113665000D02*
X108585000Y-108585000D01*
%TO.N,Net-(J12-Pad7)*%
X106045000Y-113665000D02*
X106045000Y-108585000D01*
%TO.N,Net-(J12-Pad6)*%
X103505000Y-113665000D02*
X103505000Y-108585000D01*
%TO.N,Net-(J12-Pad5)*%
X100965000Y-113665000D02*
X100965000Y-108585000D01*
%TO.N,Net-(J12-Pad4)*%
X98425000Y-113665000D02*
X98425000Y-108585000D01*
%TO.N,Net-(J12-Pad3)*%
X95885000Y-113665000D02*
X95885000Y-108585000D01*
%TO.N,Net-(J12-Pad2)*%
X93345000Y-113665000D02*
X93345000Y-108585000D01*
%TO.N,Net-(J12-Pad1)*%
X90805000Y-113665000D02*
X90805000Y-108585000D01*
%TO.N,Net-(J15-Pad1)*%
X184785000Y-116205000D02*
X90805000Y-116205000D01*
%TO.N,Net-(J16-Pad1)*%
X90805000Y-118745000D02*
X184785000Y-118745000D01*
%TO.N,Net-(J17-Pad38)*%
X184795000Y-121295000D02*
X184785000Y-121285000D01*
X184795000Y-126365000D02*
X184795000Y-121295000D01*
%TO.N,Net-(J17-Pad37)*%
X182255000Y-121295000D02*
X182245000Y-121285000D01*
X182255000Y-126365000D02*
X182255000Y-121295000D01*
%TO.N,Net-(J17-Pad36)*%
X179715000Y-121295000D02*
X179705000Y-121285000D01*
X179715000Y-126365000D02*
X179715000Y-121295000D01*
%TO.N,Net-(J17-Pad35)*%
X177175000Y-121295000D02*
X177165000Y-121285000D01*
X177175000Y-126365000D02*
X177175000Y-121295000D01*
%TO.N,Net-(J17-Pad34)*%
X174635000Y-121295000D02*
X174625000Y-121285000D01*
X174635000Y-126365000D02*
X174635000Y-121295000D01*
%TO.N,Net-(J17-Pad33)*%
X172095000Y-121295000D02*
X172085000Y-121285000D01*
X172095000Y-126365000D02*
X172095000Y-121295000D01*
%TO.N,Net-(J17-Pad32)*%
X169555000Y-121295000D02*
X169545000Y-121285000D01*
X169555000Y-126365000D02*
X169555000Y-121295000D01*
%TO.N,Net-(J17-Pad31)*%
X167015000Y-121295000D02*
X167005000Y-121285000D01*
X167015000Y-126365000D02*
X167015000Y-121295000D01*
%TO.N,Net-(J17-Pad30)*%
X164475000Y-121295000D02*
X164465000Y-121285000D01*
X164475000Y-126365000D02*
X164475000Y-121295000D01*
%TO.N,Net-(J17-Pad29)*%
X161935000Y-121295000D02*
X161925000Y-121285000D01*
X161935000Y-126365000D02*
X161935000Y-121295000D01*
%TO.N,Net-(J17-Pad28)*%
X159395000Y-121295000D02*
X159385000Y-121285000D01*
X159395000Y-126365000D02*
X159395000Y-121295000D01*
%TO.N,Net-(J17-Pad27)*%
X156855000Y-121295000D02*
X156845000Y-121285000D01*
X156855000Y-126365000D02*
X156855000Y-121295000D01*
%TO.N,Net-(J17-Pad26)*%
X154315000Y-121295000D02*
X154305000Y-121285000D01*
X154315000Y-126365000D02*
X154315000Y-121295000D01*
%TO.N,Net-(J17-Pad25)*%
X151775000Y-121295000D02*
X151765000Y-121285000D01*
X151775000Y-126365000D02*
X151775000Y-121295000D01*
%TO.N,Net-(J17-Pad24)*%
X149235000Y-121295000D02*
X149225000Y-121285000D01*
X149235000Y-126365000D02*
X149235000Y-121295000D01*
%TO.N,Net-(J17-Pad23)*%
X146695000Y-121295000D02*
X146685000Y-121285000D01*
X146695000Y-126365000D02*
X146695000Y-121295000D01*
%TO.N,Net-(J17-Pad22)*%
X144155000Y-121295000D02*
X144145000Y-121285000D01*
X144155000Y-126365000D02*
X144155000Y-121295000D01*
%TO.N,Net-(J17-Pad21)*%
X141615000Y-121295000D02*
X141605000Y-121285000D01*
X141615000Y-126365000D02*
X141615000Y-121295000D01*
%TO.N,Net-(J17-Pad20)*%
X139075000Y-121295000D02*
X139065000Y-121285000D01*
X139075000Y-126365000D02*
X139075000Y-121295000D01*
%TO.N,Net-(J17-Pad19)*%
X136535000Y-121295000D02*
X136525000Y-121285000D01*
X136535000Y-126365000D02*
X136535000Y-121295000D01*
%TO.N,Net-(J17-Pad18)*%
X133995000Y-121295000D02*
X133985000Y-121285000D01*
X133995000Y-126365000D02*
X133995000Y-121295000D01*
%TO.N,Net-(J17-Pad17)*%
X131455000Y-121295000D02*
X131445000Y-121285000D01*
X131455000Y-126365000D02*
X131455000Y-121295000D01*
%TO.N,Net-(J17-Pad16)*%
X128915000Y-121295000D02*
X128905000Y-121285000D01*
X128915000Y-126365000D02*
X128915000Y-121295000D01*
%TO.N,Net-(J17-Pad15)*%
X126375000Y-121295000D02*
X126365000Y-121285000D01*
X126375000Y-126365000D02*
X126375000Y-121295000D01*
%TO.N,Net-(J17-Pad14)*%
X123835000Y-121295000D02*
X123825000Y-121285000D01*
X123835000Y-126365000D02*
X123835000Y-121295000D01*
%TO.N,Net-(J17-Pad13)*%
X121295000Y-121295000D02*
X121285000Y-121285000D01*
X121295000Y-126365000D02*
X121295000Y-121295000D01*
%TO.N,Net-(J17-Pad12)*%
X118755000Y-121295000D02*
X118745000Y-121285000D01*
X118755000Y-126365000D02*
X118755000Y-121295000D01*
%TO.N,Net-(J17-Pad11)*%
X116215000Y-121295000D02*
X116205000Y-121285000D01*
X116215000Y-126365000D02*
X116215000Y-121295000D01*
%TO.N,Net-(J17-Pad10)*%
X113675000Y-121295000D02*
X113665000Y-121285000D01*
X113675000Y-126365000D02*
X113675000Y-121295000D01*
%TO.N,Net-(J17-Pad9)*%
X111135000Y-121295000D02*
X111125000Y-121285000D01*
X111135000Y-126365000D02*
X111135000Y-121295000D01*
%TO.N,Net-(J17-Pad8)*%
X108595000Y-121295000D02*
X108585000Y-121285000D01*
X108595000Y-126365000D02*
X108595000Y-121295000D01*
%TO.N,Net-(J17-Pad7)*%
X106055000Y-121295000D02*
X106045000Y-121285000D01*
X106055000Y-126365000D02*
X106055000Y-121295000D01*
%TO.N,Net-(J17-Pad6)*%
X103515000Y-121295000D02*
X103505000Y-121285000D01*
X103515000Y-126365000D02*
X103515000Y-121295000D01*
%TO.N,Net-(J17-Pad5)*%
X100975000Y-121295000D02*
X100965000Y-121285000D01*
X100975000Y-126365000D02*
X100975000Y-121295000D01*
%TO.N,Net-(J17-Pad4)*%
X98435000Y-121295000D02*
X98425000Y-121285000D01*
X98435000Y-126365000D02*
X98435000Y-121295000D01*
%TO.N,Net-(J17-Pad3)*%
X95895000Y-121295000D02*
X95885000Y-121285000D01*
X95895000Y-126365000D02*
X95895000Y-121295000D01*
%TO.N,Net-(J17-Pad2)*%
X93355000Y-121295000D02*
X93345000Y-121285000D01*
X93355000Y-126365000D02*
X93355000Y-121295000D01*
%TO.N,Net-(J17-Pad1)*%
X90815000Y-121295000D02*
X90805000Y-121285000D01*
X90815000Y-126365000D02*
X90815000Y-121295000D01*
%TO.N,Net-(J20-Pad38)*%
X184785000Y-133985000D02*
X184785000Y-128905000D01*
%TO.N,Net-(J20-Pad37)*%
X182245000Y-133985000D02*
X182245000Y-128905000D01*
%TO.N,Net-(J20-Pad36)*%
X179705000Y-133985000D02*
X179705000Y-128905000D01*
%TO.N,Net-(J20-Pad35)*%
X177165000Y-133985000D02*
X177165000Y-128905000D01*
%TO.N,Net-(J20-Pad34)*%
X174625000Y-133985000D02*
X174625000Y-128905000D01*
%TO.N,Net-(J20-Pad33)*%
X172085000Y-133985000D02*
X172085000Y-128905000D01*
%TO.N,Net-(J20-Pad32)*%
X169545000Y-133985000D02*
X169545000Y-128905000D01*
%TO.N,Net-(J20-Pad31)*%
X167005000Y-133985000D02*
X167005000Y-128905000D01*
%TO.N,Net-(J20-Pad30)*%
X164465000Y-133985000D02*
X164465000Y-128905000D01*
%TO.N,Net-(J20-Pad29)*%
X161925000Y-133985000D02*
X161925000Y-128905000D01*
%TO.N,Net-(J20-Pad28)*%
X159385000Y-133985000D02*
X159385000Y-128905000D01*
%TO.N,Net-(J20-Pad27)*%
X156845000Y-133985000D02*
X156845000Y-128905000D01*
%TO.N,Net-(J20-Pad26)*%
X154305000Y-133985000D02*
X154305000Y-128905000D01*
%TO.N,Net-(J20-Pad25)*%
X151765000Y-133985000D02*
X151765000Y-128905000D01*
%TO.N,Net-(J20-Pad24)*%
X149225000Y-133985000D02*
X149225000Y-128905000D01*
%TO.N,Net-(J20-Pad23)*%
X146685000Y-133985000D02*
X146685000Y-130175000D01*
X146685000Y-131445000D02*
X146685000Y-128905000D01*
%TO.N,Net-(J20-Pad22)*%
X144145000Y-133985000D02*
X144145000Y-128905000D01*
%TO.N,Net-(J20-Pad21)*%
X141605000Y-133985000D02*
X141605000Y-128905000D01*
%TO.N,Net-(J20-Pad20)*%
X139065000Y-133985000D02*
X139065000Y-128905000D01*
%TO.N,Net-(J20-Pad19)*%
X136525000Y-133985000D02*
X136525000Y-128905000D01*
%TO.N,Net-(J20-Pad18)*%
X133985000Y-133985000D02*
X133985000Y-128905000D01*
%TO.N,Net-(J20-Pad17)*%
X131445000Y-133985000D02*
X131445000Y-128905000D01*
%TO.N,Net-(J20-Pad16)*%
X128905000Y-133985000D02*
X128905000Y-128905000D01*
%TO.N,Net-(J20-Pad15)*%
X126365000Y-133985000D02*
X126365000Y-128905000D01*
%TO.N,Net-(J20-Pad14)*%
X123825000Y-133985000D02*
X123825000Y-128905000D01*
%TO.N,Net-(J20-Pad13)*%
X121285000Y-133985000D02*
X121285000Y-128905000D01*
%TO.N,Net-(J20-Pad12)*%
X118745000Y-133985000D02*
X118745000Y-128905000D01*
%TO.N,Net-(J20-Pad11)*%
X116205000Y-133985000D02*
X116205000Y-128905000D01*
%TO.N,Net-(J20-Pad10)*%
X113665000Y-133985000D02*
X113665000Y-128905000D01*
%TO.N,Net-(J20-Pad9)*%
X111125000Y-133985000D02*
X111125000Y-128905000D01*
%TO.N,Net-(J20-Pad8)*%
X108585000Y-133985000D02*
X108585000Y-128905000D01*
%TO.N,Net-(J20-Pad7)*%
X106045000Y-133985000D02*
X106045000Y-128905000D01*
%TO.N,Net-(J20-Pad6)*%
X103505000Y-133985000D02*
X103505000Y-128905000D01*
%TO.N,Net-(J20-Pad5)*%
X100965000Y-133985000D02*
X100965000Y-129540000D01*
X100965000Y-129540000D02*
X100965000Y-128905000D01*
%TO.N,Net-(J20-Pad4)*%
X98425000Y-133985000D02*
X98425000Y-128905000D01*
%TO.N,Net-(J20-Pad3)*%
X95885000Y-133985000D02*
X95885000Y-128905000D01*
%TO.N,Net-(J20-Pad2)*%
X93345000Y-133985000D02*
X93345000Y-128905000D01*
%TO.N,Net-(J20-Pad1)*%
X90805000Y-133985000D02*
X90805000Y-128905000D01*
%TD*%
M02*
