%FSLAX45Y45*%
G04 Gerber Fmt 4.5, Leading zero omitted, Abs format (unit mm)*
G04 Created by KiCad (PCBNEW 5.1.9+dfsg1-1) date 2022-08-07 17:26:07*
%MOMM*%
%LPD*%
G01*
G04 APERTURE LIST*
%TA.AperFunction,Profile*%
%ADD10C,0.100000*%
%TD*%
%ADD11C,0.200000*%
%ADD12C,0.300000*%
G04 APERTURE END LIST*
D10*
X18669000Y-4635500D02*
X18669000Y-14541500D01*
X8763000Y-4635500D02*
X18669000Y-4635500D01*
X8763000Y-14541500D02*
X8763000Y-4635500D01*
X18669000Y-14541500D02*
X8763000Y-14541500D01*
D11*
X11537000Y-6647500D02*
X11577000Y-6687500D01*
X11577000Y-6647500D02*
X11537000Y-6687500D01*
X11664000Y-6575000D02*
X11704000Y-6615000D01*
X11704000Y-6575000D02*
X11664000Y-6615000D01*
X11791000Y-6012500D02*
X11831000Y-6052500D01*
X11831000Y-6012500D02*
X11791000Y-6052500D01*
X12172000Y-5949000D02*
X12212000Y-5989000D01*
X12212000Y-5949000D02*
X12172000Y-5989000D01*
X12299000Y-6021500D02*
X12339000Y-6061500D01*
X12339000Y-6021500D02*
X12299000Y-6061500D01*
X12509086Y-7492586D02*
X12549086Y-7532586D01*
X12549086Y-7492586D02*
X12509086Y-7532586D01*
X12544000Y-7600000D02*
X12584000Y-7640000D01*
X12584000Y-7600000D02*
X12544000Y-7640000D01*
X12689000Y-7600000D02*
X12729000Y-7640000D01*
X12729000Y-7600000D02*
X12689000Y-7640000D01*
X12734500Y-7482000D02*
X12774500Y-7522000D01*
X12774500Y-7482000D02*
X12734500Y-7522000D01*
X12879500Y-7409500D02*
X12919500Y-7449500D01*
X12919500Y-7409500D02*
X12879500Y-7449500D01*
X12934000Y-7591000D02*
X12974000Y-7631000D01*
X12974000Y-7591000D02*
X12934000Y-7631000D01*
X12944628Y-7485384D02*
X12984628Y-7525384D01*
X12984628Y-7485384D02*
X12944628Y-7525384D01*
X12997500Y-7790500D02*
X13037500Y-7830500D01*
X13037500Y-7790500D02*
X12997500Y-7830500D01*
X13052000Y-7917500D02*
X13092000Y-7957500D01*
X13092000Y-7917500D02*
X13052000Y-7957500D01*
X13061000Y-6838000D02*
X13101000Y-6878000D01*
X13101000Y-6838000D02*
X13061000Y-6878000D01*
X13251500Y-7790500D02*
X13291500Y-7830500D01*
X13291500Y-7790500D02*
X13251500Y-7830500D01*
X13315000Y-7473000D02*
X13355000Y-7513000D01*
X13355000Y-7473000D02*
X13315000Y-7513000D01*
X13378500Y-6774500D02*
X13418500Y-6814500D01*
X13418500Y-6774500D02*
X13378500Y-6814500D01*
X13442000Y-5504500D02*
X13482000Y-5544500D01*
X13482000Y-5504500D02*
X13442000Y-5544500D01*
X13759500Y-6720000D02*
X13799500Y-6760000D01*
X13799500Y-6720000D02*
X13759500Y-6760000D01*
X14013500Y-6720000D02*
X14053500Y-6760000D01*
X14053500Y-6720000D02*
X14013500Y-6760000D01*
X14585000Y-5885500D02*
X14625000Y-5925500D01*
X14625000Y-5885500D02*
X14585000Y-5925500D01*
X14712000Y-5695000D02*
X14752000Y-5735000D01*
X14752000Y-5695000D02*
X14712000Y-5735000D01*
X14902500Y-5885500D02*
X14942500Y-5925500D01*
X14942500Y-5885500D02*
X14902500Y-5925500D01*
X9573000Y-5969000D02*
G75*
G03*
X9573000Y-5969000I-40000J0D01*
G01*
X10073000Y-5969000D02*
G75*
G03*
X10073000Y-5969000I-40000J0D01*
G01*
X10454000Y-5715000D02*
G75*
G03*
X10454000Y-5715000I-40000J0D01*
G01*
X10454000Y-6215000D02*
G75*
G03*
X10454000Y-6215000I-40000J0D01*
G01*
X10835000Y-5715000D02*
G75*
G03*
X10835000Y-5715000I-40000J0D01*
G01*
X10835000Y-6215000D02*
G75*
G03*
X10835000Y-6215000I-40000J0D01*
G01*
X11216000Y-5715000D02*
G75*
G03*
X11216000Y-5715000I-40000J0D01*
G01*
X11216000Y-6215000D02*
G75*
G03*
X11216000Y-6215000I-40000J0D01*
G01*
X11279500Y-6604000D02*
G75*
G03*
X11279500Y-6604000I-40000J0D01*
G01*
X11279500Y-7104000D02*
G75*
G03*
X11279500Y-7104000I-40000J0D01*
G01*
X11724000Y-6413500D02*
G75*
G03*
X11724000Y-6413500I-40000J0D01*
G01*
X11724000Y-7175500D02*
G75*
G03*
X11724000Y-7175500I-40000J0D01*
G01*
X11978000Y-6413500D02*
G75*
G03*
X11978000Y-6413500I-40000J0D01*
G01*
X11978000Y-7175500D02*
G75*
G03*
X11978000Y-7175500I-40000J0D01*
G01*
X12113000Y-5080000D02*
G75*
G03*
X12113000Y-5080000I-40000J0D01*
G01*
X12232000Y-6413500D02*
G75*
G03*
X12232000Y-6413500I-40000J0D01*
G01*
X12232000Y-7175500D02*
G75*
G03*
X12232000Y-7175500I-40000J0D01*
G01*
X12486000Y-6413500D02*
G75*
G03*
X12486000Y-6413500I-40000J0D01*
G01*
X12486000Y-7175500D02*
G75*
G03*
X12486000Y-7175500I-40000J0D01*
G01*
X12569500Y-5651500D02*
G75*
G03*
X12569500Y-5651500I-40000J0D01*
G01*
X12613000Y-5080000D02*
G75*
G03*
X12613000Y-5080000I-40000J0D01*
G01*
X12740000Y-6413500D02*
G75*
G03*
X12740000Y-6413500I-40000J0D01*
G01*
X12740000Y-7175500D02*
G75*
G03*
X12740000Y-7175500I-40000J0D01*
G01*
X12930500Y-5080000D02*
G75*
G03*
X12930500Y-5080000I-40000J0D01*
G01*
X12994000Y-6413500D02*
G75*
G03*
X12994000Y-6413500I-40000J0D01*
G01*
X12994000Y-7175500D02*
G75*
G03*
X12994000Y-7175500I-40000J0D01*
G01*
X13057500Y-5651500D02*
G75*
G03*
X13057500Y-5651500I-40000J0D01*
G01*
X13248000Y-6413500D02*
G75*
G03*
X13248000Y-6413500I-40000J0D01*
G01*
X13248000Y-7175500D02*
G75*
G03*
X13248000Y-7175500I-40000J0D01*
G01*
X13430500Y-5080000D02*
G75*
G03*
X13430500Y-5080000I-40000J0D01*
G01*
X13502000Y-6413500D02*
G75*
G03*
X13502000Y-6413500I-40000J0D01*
G01*
X13502000Y-7175500D02*
G75*
G03*
X13502000Y-7175500I-40000J0D01*
G01*
X13756000Y-6413500D02*
G75*
G03*
X13756000Y-6413500I-40000J0D01*
G01*
X13756000Y-7175500D02*
G75*
G03*
X13756000Y-7175500I-40000J0D01*
G01*
X13883000Y-5532500D02*
G75*
G03*
X13883000Y-5532500I-40000J0D01*
G01*
X13883000Y-6032500D02*
G75*
G03*
X13883000Y-6032500I-40000J0D01*
G01*
X14010000Y-6413500D02*
G75*
G03*
X14010000Y-6413500I-40000J0D01*
G01*
X14010000Y-7175500D02*
G75*
G03*
X14010000Y-7175500I-40000J0D01*
G01*
X14264000Y-6413500D02*
G75*
G03*
X14264000Y-6413500I-40000J0D01*
G01*
X14264000Y-7175500D02*
G75*
G03*
X14264000Y-7175500I-40000J0D01*
G01*
X14327500Y-5524500D02*
G75*
G03*
X14327500Y-5524500I-40000J0D01*
G01*
X14327500Y-6024500D02*
G75*
G03*
X14327500Y-6024500I-40000J0D01*
G01*
X14518000Y-6413500D02*
G75*
G03*
X14518000Y-6413500I-40000J0D01*
G01*
X14518000Y-7175500D02*
G75*
G03*
X14518000Y-7175500I-40000J0D01*
G01*
X14772000Y-6413500D02*
G75*
G03*
X14772000Y-6413500I-40000J0D01*
G01*
X14772000Y-7175500D02*
G75*
G03*
X14772000Y-7175500I-40000J0D01*
G01*
X15026000Y-6413500D02*
G75*
G03*
X15026000Y-6413500I-40000J0D01*
G01*
X15026000Y-7175500D02*
G75*
G03*
X15026000Y-7175500I-40000J0D01*
G01*
X16296000Y-5080000D02*
G75*
G03*
X16296000Y-5080000I-40000J0D01*
G01*
X16296000Y-5969000D02*
G75*
G03*
X16296000Y-5969000I-40000J0D01*
G01*
X16296000Y-6350000D02*
G75*
G03*
X16296000Y-6350000I-40000J0D01*
G01*
X16296000Y-6731000D02*
G75*
G03*
X16296000Y-6731000I-40000J0D01*
G01*
X16296000Y-7112000D02*
G75*
G03*
X16296000Y-7112000I-40000J0D01*
G01*
X16296000Y-7493000D02*
G75*
G03*
X16296000Y-7493000I-40000J0D01*
G01*
X17566000Y-5080000D02*
G75*
G03*
X17566000Y-5080000I-40000J0D01*
G01*
X17566000Y-5969000D02*
G75*
G03*
X17566000Y-5969000I-40000J0D01*
G01*
X17566000Y-6350000D02*
G75*
G03*
X17566000Y-6350000I-40000J0D01*
G01*
X17566000Y-6731000D02*
G75*
G03*
X17566000Y-6731000I-40000J0D01*
G01*
X17566000Y-7112000D02*
G75*
G03*
X17566000Y-7112000I-40000J0D01*
G01*
X17566000Y-7493000D02*
G75*
G03*
X17566000Y-7493000I-40000J0D01*
G01*
X15621000Y-4971500D02*
X15621000Y-5061500D01*
X15576000Y-5016500D02*
X15666000Y-5016500D01*
X15621000Y-5225500D02*
X15621000Y-5315500D01*
X15576000Y-5270500D02*
X15666000Y-5270500D01*
X9115856Y-8163356D02*
X9115856Y-8092644D01*
X9045144Y-8092644D01*
X9045144Y-8163356D01*
X9115856Y-8163356D01*
X9115856Y-8861856D02*
X9115856Y-8791144D01*
X9045144Y-8791144D01*
X9045144Y-8861856D01*
X9115856Y-8861856D01*
X9115856Y-9115856D02*
X9115856Y-9045144D01*
X9045144Y-9045144D01*
X9045144Y-9115856D01*
X9115856Y-9115856D01*
X9115856Y-9369856D02*
X9115856Y-9299144D01*
X9045144Y-9299144D01*
X9045144Y-9369856D01*
X9115856Y-9369856D01*
X9115856Y-9623856D02*
X9115856Y-9553144D01*
X9045144Y-9553144D01*
X9045144Y-9623856D01*
X9115856Y-9623856D01*
X9115856Y-9877856D02*
X9115856Y-9807144D01*
X9045144Y-9807144D01*
X9045144Y-9877856D01*
X9115856Y-9877856D01*
X9115856Y-10131856D02*
X9115856Y-10061144D01*
X9045144Y-10061144D01*
X9045144Y-10131856D01*
X9115856Y-10131856D01*
X9115856Y-10385856D02*
X9115856Y-10315144D01*
X9045144Y-10315144D01*
X9045144Y-10385856D01*
X9115856Y-10385856D01*
X9115856Y-10639856D02*
X9115856Y-10569144D01*
X9045144Y-10569144D01*
X9045144Y-10639856D01*
X9115856Y-10639856D01*
X9115856Y-10893856D02*
X9115856Y-10823144D01*
X9045144Y-10823144D01*
X9045144Y-10893856D01*
X9115856Y-10893856D01*
X9115856Y-11147856D02*
X9115856Y-11077144D01*
X9045144Y-11077144D01*
X9045144Y-11147856D01*
X9115856Y-11147856D01*
X9115856Y-11401856D02*
X9115856Y-11331144D01*
X9045144Y-11331144D01*
X9045144Y-11401856D01*
X9115856Y-11401856D01*
X9115856Y-11655856D02*
X9115856Y-11585144D01*
X9045144Y-11585144D01*
X9045144Y-11655856D01*
X9115856Y-11655856D01*
X9115856Y-11909856D02*
X9115856Y-11839144D01*
X9045144Y-11839144D01*
X9045144Y-11909856D01*
X9115856Y-11909856D01*
X9115856Y-12163856D02*
X9115856Y-12093144D01*
X9045144Y-12093144D01*
X9045144Y-12163856D01*
X9115856Y-12163856D01*
X9115856Y-12925856D02*
X9115856Y-12855144D01*
X9045144Y-12855144D01*
X9045144Y-12925856D01*
X9115856Y-12925856D01*
X9115856Y-13179856D02*
X9115856Y-13109144D01*
X9045144Y-13109144D01*
X9045144Y-13179856D01*
X9115856Y-13179856D01*
X9115856Y-13433856D02*
X9115856Y-13363144D01*
X9045144Y-13363144D01*
X9045144Y-13433856D01*
X9115856Y-13433856D01*
X9116856Y-12417856D02*
X9116856Y-12347144D01*
X9046144Y-12347144D01*
X9046144Y-12417856D01*
X9116856Y-12417856D01*
X9116856Y-12671856D02*
X9116856Y-12601144D01*
X9046144Y-12601144D01*
X9046144Y-12671856D01*
X9116856Y-12671856D01*
X9369856Y-8163356D02*
X9369856Y-8092644D01*
X9299144Y-8092644D01*
X9299144Y-8163356D01*
X9369856Y-8163356D01*
X9369856Y-8861856D02*
X9369856Y-8791144D01*
X9299144Y-8791144D01*
X9299144Y-8861856D01*
X9369856Y-8861856D01*
X9369856Y-9115856D02*
X9369856Y-9045144D01*
X9299144Y-9045144D01*
X9299144Y-9115856D01*
X9369856Y-9115856D01*
X9369856Y-9369856D02*
X9369856Y-9299144D01*
X9299144Y-9299144D01*
X9299144Y-9369856D01*
X9369856Y-9369856D01*
X9369856Y-9623856D02*
X9369856Y-9553144D01*
X9299144Y-9553144D01*
X9299144Y-9623856D01*
X9369856Y-9623856D01*
X9369856Y-9877856D02*
X9369856Y-9807144D01*
X9299144Y-9807144D01*
X9299144Y-9877856D01*
X9369856Y-9877856D01*
X9369856Y-10131856D02*
X9369856Y-10061144D01*
X9299144Y-10061144D01*
X9299144Y-10131856D01*
X9369856Y-10131856D01*
X9369856Y-10385856D02*
X9369856Y-10315144D01*
X9299144Y-10315144D01*
X9299144Y-10385856D01*
X9369856Y-10385856D01*
X9369856Y-10639856D02*
X9369856Y-10569144D01*
X9299144Y-10569144D01*
X9299144Y-10639856D01*
X9369856Y-10639856D01*
X9369856Y-10893856D02*
X9369856Y-10823144D01*
X9299144Y-10823144D01*
X9299144Y-10893856D01*
X9369856Y-10893856D01*
X9369856Y-11147856D02*
X9369856Y-11077144D01*
X9299144Y-11077144D01*
X9299144Y-11147856D01*
X9369856Y-11147856D01*
X9369856Y-11401856D02*
X9369856Y-11331144D01*
X9299144Y-11331144D01*
X9299144Y-11401856D01*
X9369856Y-11401856D01*
X9369856Y-11655856D02*
X9369856Y-11585144D01*
X9299144Y-11585144D01*
X9299144Y-11655856D01*
X9369856Y-11655856D01*
X9369856Y-11909856D02*
X9369856Y-11839144D01*
X9299144Y-11839144D01*
X9299144Y-11909856D01*
X9369856Y-11909856D01*
X9369856Y-12163856D02*
X9369856Y-12093144D01*
X9299144Y-12093144D01*
X9299144Y-12163856D01*
X9369856Y-12163856D01*
X9369856Y-12925856D02*
X9369856Y-12855144D01*
X9299144Y-12855144D01*
X9299144Y-12925856D01*
X9369856Y-12925856D01*
X9369856Y-13179856D02*
X9369856Y-13109144D01*
X9299144Y-13109144D01*
X9299144Y-13179856D01*
X9369856Y-13179856D01*
X9369856Y-13433856D02*
X9369856Y-13363144D01*
X9299144Y-13363144D01*
X9299144Y-13433856D01*
X9369856Y-13433856D01*
X9370856Y-12417856D02*
X9370856Y-12347144D01*
X9300144Y-12347144D01*
X9300144Y-12417856D01*
X9370856Y-12417856D01*
X9370856Y-12671856D02*
X9370856Y-12601144D01*
X9300144Y-12601144D01*
X9300144Y-12671856D01*
X9370856Y-12671856D01*
X9623856Y-8163356D02*
X9623856Y-8092644D01*
X9553144Y-8092644D01*
X9553144Y-8163356D01*
X9623856Y-8163356D01*
X9623856Y-8861856D02*
X9623856Y-8791144D01*
X9553144Y-8791144D01*
X9553144Y-8861856D01*
X9623856Y-8861856D01*
X9623856Y-9115856D02*
X9623856Y-9045144D01*
X9553144Y-9045144D01*
X9553144Y-9115856D01*
X9623856Y-9115856D01*
X9623856Y-9369856D02*
X9623856Y-9299144D01*
X9553144Y-9299144D01*
X9553144Y-9369856D01*
X9623856Y-9369856D01*
X9623856Y-9623856D02*
X9623856Y-9553144D01*
X9553144Y-9553144D01*
X9553144Y-9623856D01*
X9623856Y-9623856D01*
X9623856Y-9877856D02*
X9623856Y-9807144D01*
X9553144Y-9807144D01*
X9553144Y-9877856D01*
X9623856Y-9877856D01*
X9623856Y-10131856D02*
X9623856Y-10061144D01*
X9553144Y-10061144D01*
X9553144Y-10131856D01*
X9623856Y-10131856D01*
X9623856Y-10385856D02*
X9623856Y-10315144D01*
X9553144Y-10315144D01*
X9553144Y-10385856D01*
X9623856Y-10385856D01*
X9623856Y-10639856D02*
X9623856Y-10569144D01*
X9553144Y-10569144D01*
X9553144Y-10639856D01*
X9623856Y-10639856D01*
X9623856Y-10893856D02*
X9623856Y-10823144D01*
X9553144Y-10823144D01*
X9553144Y-10893856D01*
X9623856Y-10893856D01*
X9623856Y-11147856D02*
X9623856Y-11077144D01*
X9553144Y-11077144D01*
X9553144Y-11147856D01*
X9623856Y-11147856D01*
X9623856Y-11401856D02*
X9623856Y-11331144D01*
X9553144Y-11331144D01*
X9553144Y-11401856D01*
X9623856Y-11401856D01*
X9623856Y-11655856D02*
X9623856Y-11585144D01*
X9553144Y-11585144D01*
X9553144Y-11655856D01*
X9623856Y-11655856D01*
X9623856Y-11909856D02*
X9623856Y-11839144D01*
X9553144Y-11839144D01*
X9553144Y-11909856D01*
X9623856Y-11909856D01*
X9623856Y-12163856D02*
X9623856Y-12093144D01*
X9553144Y-12093144D01*
X9553144Y-12163856D01*
X9623856Y-12163856D01*
X9623856Y-12925856D02*
X9623856Y-12855144D01*
X9553144Y-12855144D01*
X9553144Y-12925856D01*
X9623856Y-12925856D01*
X9623856Y-13179856D02*
X9623856Y-13109144D01*
X9553144Y-13109144D01*
X9553144Y-13179856D01*
X9623856Y-13179856D01*
X9623856Y-13433856D02*
X9623856Y-13363144D01*
X9553144Y-13363144D01*
X9553144Y-13433856D01*
X9623856Y-13433856D01*
X9624856Y-12417856D02*
X9624856Y-12347144D01*
X9554144Y-12347144D01*
X9554144Y-12417856D01*
X9624856Y-12417856D01*
X9624856Y-12671856D02*
X9624856Y-12601144D01*
X9554144Y-12601144D01*
X9554144Y-12671856D01*
X9624856Y-12671856D01*
X9877856Y-8163356D02*
X9877856Y-8092644D01*
X9807144Y-8092644D01*
X9807144Y-8163356D01*
X9877856Y-8163356D01*
X9877856Y-8861856D02*
X9877856Y-8791144D01*
X9807144Y-8791144D01*
X9807144Y-8861856D01*
X9877856Y-8861856D01*
X9877856Y-9115856D02*
X9877856Y-9045144D01*
X9807144Y-9045144D01*
X9807144Y-9115856D01*
X9877856Y-9115856D01*
X9877856Y-9369856D02*
X9877856Y-9299144D01*
X9807144Y-9299144D01*
X9807144Y-9369856D01*
X9877856Y-9369856D01*
X9877856Y-9623856D02*
X9877856Y-9553144D01*
X9807144Y-9553144D01*
X9807144Y-9623856D01*
X9877856Y-9623856D01*
X9877856Y-9877856D02*
X9877856Y-9807144D01*
X9807144Y-9807144D01*
X9807144Y-9877856D01*
X9877856Y-9877856D01*
X9877856Y-10131856D02*
X9877856Y-10061144D01*
X9807144Y-10061144D01*
X9807144Y-10131856D01*
X9877856Y-10131856D01*
X9877856Y-10385856D02*
X9877856Y-10315144D01*
X9807144Y-10315144D01*
X9807144Y-10385856D01*
X9877856Y-10385856D01*
X9877856Y-10639856D02*
X9877856Y-10569144D01*
X9807144Y-10569144D01*
X9807144Y-10639856D01*
X9877856Y-10639856D01*
X9877856Y-10893856D02*
X9877856Y-10823144D01*
X9807144Y-10823144D01*
X9807144Y-10893856D01*
X9877856Y-10893856D01*
X9877856Y-11147856D02*
X9877856Y-11077144D01*
X9807144Y-11077144D01*
X9807144Y-11147856D01*
X9877856Y-11147856D01*
X9877856Y-11401856D02*
X9877856Y-11331144D01*
X9807144Y-11331144D01*
X9807144Y-11401856D01*
X9877856Y-11401856D01*
X9877856Y-11655856D02*
X9877856Y-11585144D01*
X9807144Y-11585144D01*
X9807144Y-11655856D01*
X9877856Y-11655856D01*
X9877856Y-11909856D02*
X9877856Y-11839144D01*
X9807144Y-11839144D01*
X9807144Y-11909856D01*
X9877856Y-11909856D01*
X9877856Y-12163856D02*
X9877856Y-12093144D01*
X9807144Y-12093144D01*
X9807144Y-12163856D01*
X9877856Y-12163856D01*
X9877856Y-12925856D02*
X9877856Y-12855144D01*
X9807144Y-12855144D01*
X9807144Y-12925856D01*
X9877856Y-12925856D01*
X9877856Y-13179856D02*
X9877856Y-13109144D01*
X9807144Y-13109144D01*
X9807144Y-13179856D01*
X9877856Y-13179856D01*
X9877856Y-13433856D02*
X9877856Y-13363144D01*
X9807144Y-13363144D01*
X9807144Y-13433856D01*
X9877856Y-13433856D01*
X9878856Y-12417856D02*
X9878856Y-12347144D01*
X9808144Y-12347144D01*
X9808144Y-12417856D01*
X9878856Y-12417856D01*
X9878856Y-12671856D02*
X9878856Y-12601144D01*
X9808144Y-12601144D01*
X9808144Y-12671856D01*
X9878856Y-12671856D01*
X10131856Y-8163356D02*
X10131856Y-8092644D01*
X10061144Y-8092644D01*
X10061144Y-8163356D01*
X10131856Y-8163356D01*
X10131856Y-8861856D02*
X10131856Y-8791144D01*
X10061144Y-8791144D01*
X10061144Y-8861856D01*
X10131856Y-8861856D01*
X10131856Y-9115856D02*
X10131856Y-9045144D01*
X10061144Y-9045144D01*
X10061144Y-9115856D01*
X10131856Y-9115856D01*
X10131856Y-9369856D02*
X10131856Y-9299144D01*
X10061144Y-9299144D01*
X10061144Y-9369856D01*
X10131856Y-9369856D01*
X10131856Y-9623856D02*
X10131856Y-9553144D01*
X10061144Y-9553144D01*
X10061144Y-9623856D01*
X10131856Y-9623856D01*
X10131856Y-9877856D02*
X10131856Y-9807144D01*
X10061144Y-9807144D01*
X10061144Y-9877856D01*
X10131856Y-9877856D01*
X10131856Y-10131856D02*
X10131856Y-10061144D01*
X10061144Y-10061144D01*
X10061144Y-10131856D01*
X10131856Y-10131856D01*
X10131856Y-10385856D02*
X10131856Y-10315144D01*
X10061144Y-10315144D01*
X10061144Y-10385856D01*
X10131856Y-10385856D01*
X10131856Y-10639856D02*
X10131856Y-10569144D01*
X10061144Y-10569144D01*
X10061144Y-10639856D01*
X10131856Y-10639856D01*
X10131856Y-10893856D02*
X10131856Y-10823144D01*
X10061144Y-10823144D01*
X10061144Y-10893856D01*
X10131856Y-10893856D01*
X10131856Y-11147856D02*
X10131856Y-11077144D01*
X10061144Y-11077144D01*
X10061144Y-11147856D01*
X10131856Y-11147856D01*
X10131856Y-11401856D02*
X10131856Y-11331144D01*
X10061144Y-11331144D01*
X10061144Y-11401856D01*
X10131856Y-11401856D01*
X10131856Y-11655856D02*
X10131856Y-11585144D01*
X10061144Y-11585144D01*
X10061144Y-11655856D01*
X10131856Y-11655856D01*
X10131856Y-11909856D02*
X10131856Y-11839144D01*
X10061144Y-11839144D01*
X10061144Y-11909856D01*
X10131856Y-11909856D01*
X10131856Y-12163856D02*
X10131856Y-12093144D01*
X10061144Y-12093144D01*
X10061144Y-12163856D01*
X10131856Y-12163856D01*
X10131856Y-12925856D02*
X10131856Y-12855144D01*
X10061144Y-12855144D01*
X10061144Y-12925856D01*
X10131856Y-12925856D01*
X10131856Y-13179856D02*
X10131856Y-13109144D01*
X10061144Y-13109144D01*
X10061144Y-13179856D01*
X10131856Y-13179856D01*
X10131856Y-13433856D02*
X10131856Y-13363144D01*
X10061144Y-13363144D01*
X10061144Y-13433856D01*
X10131856Y-13433856D01*
X10132856Y-12417856D02*
X10132856Y-12347144D01*
X10062144Y-12347144D01*
X10062144Y-12417856D01*
X10132856Y-12417856D01*
X10132856Y-12671856D02*
X10132856Y-12601144D01*
X10062144Y-12601144D01*
X10062144Y-12671856D01*
X10132856Y-12671856D01*
X10385856Y-8163356D02*
X10385856Y-8092644D01*
X10315144Y-8092644D01*
X10315144Y-8163356D01*
X10385856Y-8163356D01*
X10385856Y-8861856D02*
X10385856Y-8791144D01*
X10315144Y-8791144D01*
X10315144Y-8861856D01*
X10385856Y-8861856D01*
X10385856Y-9115856D02*
X10385856Y-9045144D01*
X10315144Y-9045144D01*
X10315144Y-9115856D01*
X10385856Y-9115856D01*
X10385856Y-9369856D02*
X10385856Y-9299144D01*
X10315144Y-9299144D01*
X10315144Y-9369856D01*
X10385856Y-9369856D01*
X10385856Y-9623856D02*
X10385856Y-9553144D01*
X10315144Y-9553144D01*
X10315144Y-9623856D01*
X10385856Y-9623856D01*
X10385856Y-9877856D02*
X10385856Y-9807144D01*
X10315144Y-9807144D01*
X10315144Y-9877856D01*
X10385856Y-9877856D01*
X10385856Y-10131856D02*
X10385856Y-10061144D01*
X10315144Y-10061144D01*
X10315144Y-10131856D01*
X10385856Y-10131856D01*
X10385856Y-10385856D02*
X10385856Y-10315144D01*
X10315144Y-10315144D01*
X10315144Y-10385856D01*
X10385856Y-10385856D01*
X10385856Y-10639856D02*
X10385856Y-10569144D01*
X10315144Y-10569144D01*
X10315144Y-10639856D01*
X10385856Y-10639856D01*
X10385856Y-10893856D02*
X10385856Y-10823144D01*
X10315144Y-10823144D01*
X10315144Y-10893856D01*
X10385856Y-10893856D01*
X10385856Y-11147856D02*
X10385856Y-11077144D01*
X10315144Y-11077144D01*
X10315144Y-11147856D01*
X10385856Y-11147856D01*
X10385856Y-11401856D02*
X10385856Y-11331144D01*
X10315144Y-11331144D01*
X10315144Y-11401856D01*
X10385856Y-11401856D01*
X10385856Y-11655856D02*
X10385856Y-11585144D01*
X10315144Y-11585144D01*
X10315144Y-11655856D01*
X10385856Y-11655856D01*
X10385856Y-11909856D02*
X10385856Y-11839144D01*
X10315144Y-11839144D01*
X10315144Y-11909856D01*
X10385856Y-11909856D01*
X10385856Y-12163856D02*
X10385856Y-12093144D01*
X10315144Y-12093144D01*
X10315144Y-12163856D01*
X10385856Y-12163856D01*
X10385856Y-12925856D02*
X10385856Y-12855144D01*
X10315144Y-12855144D01*
X10315144Y-12925856D01*
X10385856Y-12925856D01*
X10385856Y-13179856D02*
X10385856Y-13109144D01*
X10315144Y-13109144D01*
X10315144Y-13179856D01*
X10385856Y-13179856D01*
X10385856Y-13433856D02*
X10385856Y-13363144D01*
X10315144Y-13363144D01*
X10315144Y-13433856D01*
X10385856Y-13433856D01*
X10386856Y-12417856D02*
X10386856Y-12347144D01*
X10316144Y-12347144D01*
X10316144Y-12417856D01*
X10386856Y-12417856D01*
X10386856Y-12671856D02*
X10386856Y-12601144D01*
X10316144Y-12601144D01*
X10316144Y-12671856D01*
X10386856Y-12671856D01*
X10449356Y-6639356D02*
X10449356Y-6568644D01*
X10378644Y-6568644D01*
X10378644Y-6639356D01*
X10449356Y-6639356D01*
X10639856Y-8163356D02*
X10639856Y-8092644D01*
X10569144Y-8092644D01*
X10569144Y-8163356D01*
X10639856Y-8163356D01*
X10639856Y-8861856D02*
X10639856Y-8791144D01*
X10569144Y-8791144D01*
X10569144Y-8861856D01*
X10639856Y-8861856D01*
X10639856Y-9115856D02*
X10639856Y-9045144D01*
X10569144Y-9045144D01*
X10569144Y-9115856D01*
X10639856Y-9115856D01*
X10639856Y-9369856D02*
X10639856Y-9299144D01*
X10569144Y-9299144D01*
X10569144Y-9369856D01*
X10639856Y-9369856D01*
X10639856Y-9623856D02*
X10639856Y-9553144D01*
X10569144Y-9553144D01*
X10569144Y-9623856D01*
X10639856Y-9623856D01*
X10639856Y-9877856D02*
X10639856Y-9807144D01*
X10569144Y-9807144D01*
X10569144Y-9877856D01*
X10639856Y-9877856D01*
X10639856Y-10131856D02*
X10639856Y-10061144D01*
X10569144Y-10061144D01*
X10569144Y-10131856D01*
X10639856Y-10131856D01*
X10639856Y-10385856D02*
X10639856Y-10315144D01*
X10569144Y-10315144D01*
X10569144Y-10385856D01*
X10639856Y-10385856D01*
X10639856Y-10639856D02*
X10639856Y-10569144D01*
X10569144Y-10569144D01*
X10569144Y-10639856D01*
X10639856Y-10639856D01*
X10639856Y-10893856D02*
X10639856Y-10823144D01*
X10569144Y-10823144D01*
X10569144Y-10893856D01*
X10639856Y-10893856D01*
X10639856Y-11147856D02*
X10639856Y-11077144D01*
X10569144Y-11077144D01*
X10569144Y-11147856D01*
X10639856Y-11147856D01*
X10639856Y-11401856D02*
X10639856Y-11331144D01*
X10569144Y-11331144D01*
X10569144Y-11401856D01*
X10639856Y-11401856D01*
X10639856Y-11655856D02*
X10639856Y-11585144D01*
X10569144Y-11585144D01*
X10569144Y-11655856D01*
X10639856Y-11655856D01*
X10639856Y-11909856D02*
X10639856Y-11839144D01*
X10569144Y-11839144D01*
X10569144Y-11909856D01*
X10639856Y-11909856D01*
X10639856Y-12163856D02*
X10639856Y-12093144D01*
X10569144Y-12093144D01*
X10569144Y-12163856D01*
X10639856Y-12163856D01*
X10639856Y-12925856D02*
X10639856Y-12855144D01*
X10569144Y-12855144D01*
X10569144Y-12925856D01*
X10639856Y-12925856D01*
X10639856Y-13179856D02*
X10639856Y-13109144D01*
X10569144Y-13109144D01*
X10569144Y-13179856D01*
X10639856Y-13179856D01*
X10639856Y-13433856D02*
X10639856Y-13363144D01*
X10569144Y-13363144D01*
X10569144Y-13433856D01*
X10639856Y-13433856D01*
X10640856Y-12417856D02*
X10640856Y-12347144D01*
X10570144Y-12347144D01*
X10570144Y-12417856D01*
X10640856Y-12417856D01*
X10640856Y-12671856D02*
X10640856Y-12601144D01*
X10570144Y-12601144D01*
X10570144Y-12671856D01*
X10640856Y-12671856D01*
X10703356Y-6639356D02*
X10703356Y-6568644D01*
X10632644Y-6568644D01*
X10632644Y-6639356D01*
X10703356Y-6639356D01*
X10893856Y-8163356D02*
X10893856Y-8092644D01*
X10823144Y-8092644D01*
X10823144Y-8163356D01*
X10893856Y-8163356D01*
X10893856Y-8861856D02*
X10893856Y-8791144D01*
X10823144Y-8791144D01*
X10823144Y-8861856D01*
X10893856Y-8861856D01*
X10893856Y-9115856D02*
X10893856Y-9045144D01*
X10823144Y-9045144D01*
X10823144Y-9115856D01*
X10893856Y-9115856D01*
X10893856Y-9369856D02*
X10893856Y-9299144D01*
X10823144Y-9299144D01*
X10823144Y-9369856D01*
X10893856Y-9369856D01*
X10893856Y-9623856D02*
X10893856Y-9553144D01*
X10823144Y-9553144D01*
X10823144Y-9623856D01*
X10893856Y-9623856D01*
X10893856Y-9877856D02*
X10893856Y-9807144D01*
X10823144Y-9807144D01*
X10823144Y-9877856D01*
X10893856Y-9877856D01*
X10893856Y-10131856D02*
X10893856Y-10061144D01*
X10823144Y-10061144D01*
X10823144Y-10131856D01*
X10893856Y-10131856D01*
X10893856Y-10385856D02*
X10893856Y-10315144D01*
X10823144Y-10315144D01*
X10823144Y-10385856D01*
X10893856Y-10385856D01*
X10893856Y-10639856D02*
X10893856Y-10569144D01*
X10823144Y-10569144D01*
X10823144Y-10639856D01*
X10893856Y-10639856D01*
X10893856Y-10893856D02*
X10893856Y-10823144D01*
X10823144Y-10823144D01*
X10823144Y-10893856D01*
X10893856Y-10893856D01*
X10893856Y-11147856D02*
X10893856Y-11077144D01*
X10823144Y-11077144D01*
X10823144Y-11147856D01*
X10893856Y-11147856D01*
X10893856Y-11401856D02*
X10893856Y-11331144D01*
X10823144Y-11331144D01*
X10823144Y-11401856D01*
X10893856Y-11401856D01*
X10893856Y-11655856D02*
X10893856Y-11585144D01*
X10823144Y-11585144D01*
X10823144Y-11655856D01*
X10893856Y-11655856D01*
X10893856Y-11909856D02*
X10893856Y-11839144D01*
X10823144Y-11839144D01*
X10823144Y-11909856D01*
X10893856Y-11909856D01*
X10893856Y-12163856D02*
X10893856Y-12093144D01*
X10823144Y-12093144D01*
X10823144Y-12163856D01*
X10893856Y-12163856D01*
X10893856Y-12925856D02*
X10893856Y-12855144D01*
X10823144Y-12855144D01*
X10823144Y-12925856D01*
X10893856Y-12925856D01*
X10893856Y-13179856D02*
X10893856Y-13109144D01*
X10823144Y-13109144D01*
X10823144Y-13179856D01*
X10893856Y-13179856D01*
X10893856Y-13433856D02*
X10893856Y-13363144D01*
X10823144Y-13363144D01*
X10823144Y-13433856D01*
X10893856Y-13433856D01*
X10894856Y-12417856D02*
X10894856Y-12347144D01*
X10824144Y-12347144D01*
X10824144Y-12417856D01*
X10894856Y-12417856D01*
X10894856Y-12671856D02*
X10894856Y-12601144D01*
X10824144Y-12601144D01*
X10824144Y-12671856D01*
X10894856Y-12671856D01*
X11147856Y-8163356D02*
X11147856Y-8092644D01*
X11077144Y-8092644D01*
X11077144Y-8163356D01*
X11147856Y-8163356D01*
X11147856Y-8861856D02*
X11147856Y-8791144D01*
X11077144Y-8791144D01*
X11077144Y-8861856D01*
X11147856Y-8861856D01*
X11147856Y-9115856D02*
X11147856Y-9045144D01*
X11077144Y-9045144D01*
X11077144Y-9115856D01*
X11147856Y-9115856D01*
X11147856Y-9369856D02*
X11147856Y-9299144D01*
X11077144Y-9299144D01*
X11077144Y-9369856D01*
X11147856Y-9369856D01*
X11147856Y-9623856D02*
X11147856Y-9553144D01*
X11077144Y-9553144D01*
X11077144Y-9623856D01*
X11147856Y-9623856D01*
X11147856Y-9877856D02*
X11147856Y-9807144D01*
X11077144Y-9807144D01*
X11077144Y-9877856D01*
X11147856Y-9877856D01*
X11147856Y-10131856D02*
X11147856Y-10061144D01*
X11077144Y-10061144D01*
X11077144Y-10131856D01*
X11147856Y-10131856D01*
X11147856Y-10385856D02*
X11147856Y-10315144D01*
X11077144Y-10315144D01*
X11077144Y-10385856D01*
X11147856Y-10385856D01*
X11147856Y-10639856D02*
X11147856Y-10569144D01*
X11077144Y-10569144D01*
X11077144Y-10639856D01*
X11147856Y-10639856D01*
X11147856Y-10893856D02*
X11147856Y-10823144D01*
X11077144Y-10823144D01*
X11077144Y-10893856D01*
X11147856Y-10893856D01*
X11147856Y-11147856D02*
X11147856Y-11077144D01*
X11077144Y-11077144D01*
X11077144Y-11147856D01*
X11147856Y-11147856D01*
X11147856Y-11401856D02*
X11147856Y-11331144D01*
X11077144Y-11331144D01*
X11077144Y-11401856D01*
X11147856Y-11401856D01*
X11147856Y-11655856D02*
X11147856Y-11585144D01*
X11077144Y-11585144D01*
X11077144Y-11655856D01*
X11147856Y-11655856D01*
X11147856Y-11909856D02*
X11147856Y-11839144D01*
X11077144Y-11839144D01*
X11077144Y-11909856D01*
X11147856Y-11909856D01*
X11147856Y-12163856D02*
X11147856Y-12093144D01*
X11077144Y-12093144D01*
X11077144Y-12163856D01*
X11147856Y-12163856D01*
X11147856Y-12925856D02*
X11147856Y-12855144D01*
X11077144Y-12855144D01*
X11077144Y-12925856D01*
X11147856Y-12925856D01*
X11147856Y-13179856D02*
X11147856Y-13109144D01*
X11077144Y-13109144D01*
X11077144Y-13179856D01*
X11147856Y-13179856D01*
X11147856Y-13433856D02*
X11147856Y-13363144D01*
X11077144Y-13363144D01*
X11077144Y-13433856D01*
X11147856Y-13433856D01*
X11148856Y-12417856D02*
X11148856Y-12347144D01*
X11078144Y-12347144D01*
X11078144Y-12417856D01*
X11148856Y-12417856D01*
X11148856Y-12671856D02*
X11148856Y-12601144D01*
X11078144Y-12601144D01*
X11078144Y-12671856D01*
X11148856Y-12671856D01*
X11401856Y-8163356D02*
X11401856Y-8092644D01*
X11331144Y-8092644D01*
X11331144Y-8163356D01*
X11401856Y-8163356D01*
X11401856Y-8861856D02*
X11401856Y-8791144D01*
X11331144Y-8791144D01*
X11331144Y-8861856D01*
X11401856Y-8861856D01*
X11401856Y-9115856D02*
X11401856Y-9045144D01*
X11331144Y-9045144D01*
X11331144Y-9115856D01*
X11401856Y-9115856D01*
X11401856Y-9369856D02*
X11401856Y-9299144D01*
X11331144Y-9299144D01*
X11331144Y-9369856D01*
X11401856Y-9369856D01*
X11401856Y-9623856D02*
X11401856Y-9553144D01*
X11331144Y-9553144D01*
X11331144Y-9623856D01*
X11401856Y-9623856D01*
X11401856Y-9877856D02*
X11401856Y-9807144D01*
X11331144Y-9807144D01*
X11331144Y-9877856D01*
X11401856Y-9877856D01*
X11401856Y-10131856D02*
X11401856Y-10061144D01*
X11331144Y-10061144D01*
X11331144Y-10131856D01*
X11401856Y-10131856D01*
X11401856Y-10385856D02*
X11401856Y-10315144D01*
X11331144Y-10315144D01*
X11331144Y-10385856D01*
X11401856Y-10385856D01*
X11401856Y-10639856D02*
X11401856Y-10569144D01*
X11331144Y-10569144D01*
X11331144Y-10639856D01*
X11401856Y-10639856D01*
X11401856Y-10893856D02*
X11401856Y-10823144D01*
X11331144Y-10823144D01*
X11331144Y-10893856D01*
X11401856Y-10893856D01*
X11401856Y-11147856D02*
X11401856Y-11077144D01*
X11331144Y-11077144D01*
X11331144Y-11147856D01*
X11401856Y-11147856D01*
X11401856Y-11401856D02*
X11401856Y-11331144D01*
X11331144Y-11331144D01*
X11331144Y-11401856D01*
X11401856Y-11401856D01*
X11401856Y-11655856D02*
X11401856Y-11585144D01*
X11331144Y-11585144D01*
X11331144Y-11655856D01*
X11401856Y-11655856D01*
X11401856Y-11909856D02*
X11401856Y-11839144D01*
X11331144Y-11839144D01*
X11331144Y-11909856D01*
X11401856Y-11909856D01*
X11401856Y-12163856D02*
X11401856Y-12093144D01*
X11331144Y-12093144D01*
X11331144Y-12163856D01*
X11401856Y-12163856D01*
X11401856Y-12925856D02*
X11401856Y-12855144D01*
X11331144Y-12855144D01*
X11331144Y-12925856D01*
X11401856Y-12925856D01*
X11401856Y-13179856D02*
X11401856Y-13109144D01*
X11331144Y-13109144D01*
X11331144Y-13179856D01*
X11401856Y-13179856D01*
X11401856Y-13433856D02*
X11401856Y-13363144D01*
X11331144Y-13363144D01*
X11331144Y-13433856D01*
X11401856Y-13433856D01*
X11402856Y-12417856D02*
X11402856Y-12347144D01*
X11332144Y-12347144D01*
X11332144Y-12417856D01*
X11402856Y-12417856D01*
X11402856Y-12671856D02*
X11402856Y-12601144D01*
X11332144Y-12601144D01*
X11332144Y-12671856D01*
X11402856Y-12671856D01*
X11655856Y-8163356D02*
X11655856Y-8092644D01*
X11585144Y-8092644D01*
X11585144Y-8163356D01*
X11655856Y-8163356D01*
X11655856Y-8861856D02*
X11655856Y-8791144D01*
X11585144Y-8791144D01*
X11585144Y-8861856D01*
X11655856Y-8861856D01*
X11655856Y-9115856D02*
X11655856Y-9045144D01*
X11585144Y-9045144D01*
X11585144Y-9115856D01*
X11655856Y-9115856D01*
X11655856Y-9369856D02*
X11655856Y-9299144D01*
X11585144Y-9299144D01*
X11585144Y-9369856D01*
X11655856Y-9369856D01*
X11655856Y-9623856D02*
X11655856Y-9553144D01*
X11585144Y-9553144D01*
X11585144Y-9623856D01*
X11655856Y-9623856D01*
X11655856Y-9877856D02*
X11655856Y-9807144D01*
X11585144Y-9807144D01*
X11585144Y-9877856D01*
X11655856Y-9877856D01*
X11655856Y-10131856D02*
X11655856Y-10061144D01*
X11585144Y-10061144D01*
X11585144Y-10131856D01*
X11655856Y-10131856D01*
X11655856Y-10385856D02*
X11655856Y-10315144D01*
X11585144Y-10315144D01*
X11585144Y-10385856D01*
X11655856Y-10385856D01*
X11655856Y-10639856D02*
X11655856Y-10569144D01*
X11585144Y-10569144D01*
X11585144Y-10639856D01*
X11655856Y-10639856D01*
X11655856Y-10893856D02*
X11655856Y-10823144D01*
X11585144Y-10823144D01*
X11585144Y-10893856D01*
X11655856Y-10893856D01*
X11655856Y-11147856D02*
X11655856Y-11077144D01*
X11585144Y-11077144D01*
X11585144Y-11147856D01*
X11655856Y-11147856D01*
X11655856Y-11401856D02*
X11655856Y-11331144D01*
X11585144Y-11331144D01*
X11585144Y-11401856D01*
X11655856Y-11401856D01*
X11655856Y-11655856D02*
X11655856Y-11585144D01*
X11585144Y-11585144D01*
X11585144Y-11655856D01*
X11655856Y-11655856D01*
X11655856Y-11909856D02*
X11655856Y-11839144D01*
X11585144Y-11839144D01*
X11585144Y-11909856D01*
X11655856Y-11909856D01*
X11655856Y-12163856D02*
X11655856Y-12093144D01*
X11585144Y-12093144D01*
X11585144Y-12163856D01*
X11655856Y-12163856D01*
X11655856Y-12925856D02*
X11655856Y-12855144D01*
X11585144Y-12855144D01*
X11585144Y-12925856D01*
X11655856Y-12925856D01*
X11655856Y-13179856D02*
X11655856Y-13109144D01*
X11585144Y-13109144D01*
X11585144Y-13179856D01*
X11655856Y-13179856D01*
X11655856Y-13433856D02*
X11655856Y-13363144D01*
X11585144Y-13363144D01*
X11585144Y-13433856D01*
X11655856Y-13433856D01*
X11656856Y-12417856D02*
X11656856Y-12347144D01*
X11586144Y-12347144D01*
X11586144Y-12417856D01*
X11656856Y-12417856D01*
X11656856Y-12671856D02*
X11656856Y-12601144D01*
X11586144Y-12601144D01*
X11586144Y-12671856D01*
X11656856Y-12671856D01*
X11909856Y-8163356D02*
X11909856Y-8092644D01*
X11839144Y-8092644D01*
X11839144Y-8163356D01*
X11909856Y-8163356D01*
X11909856Y-8861856D02*
X11909856Y-8791144D01*
X11839144Y-8791144D01*
X11839144Y-8861856D01*
X11909856Y-8861856D01*
X11909856Y-9115856D02*
X11909856Y-9045144D01*
X11839144Y-9045144D01*
X11839144Y-9115856D01*
X11909856Y-9115856D01*
X11909856Y-9369856D02*
X11909856Y-9299144D01*
X11839144Y-9299144D01*
X11839144Y-9369856D01*
X11909856Y-9369856D01*
X11909856Y-9623856D02*
X11909856Y-9553144D01*
X11839144Y-9553144D01*
X11839144Y-9623856D01*
X11909856Y-9623856D01*
X11909856Y-9877856D02*
X11909856Y-9807144D01*
X11839144Y-9807144D01*
X11839144Y-9877856D01*
X11909856Y-9877856D01*
X11909856Y-10131856D02*
X11909856Y-10061144D01*
X11839144Y-10061144D01*
X11839144Y-10131856D01*
X11909856Y-10131856D01*
X11909856Y-10385856D02*
X11909856Y-10315144D01*
X11839144Y-10315144D01*
X11839144Y-10385856D01*
X11909856Y-10385856D01*
X11909856Y-10639856D02*
X11909856Y-10569144D01*
X11839144Y-10569144D01*
X11839144Y-10639856D01*
X11909856Y-10639856D01*
X11909856Y-10893856D02*
X11909856Y-10823144D01*
X11839144Y-10823144D01*
X11839144Y-10893856D01*
X11909856Y-10893856D01*
X11909856Y-11147856D02*
X11909856Y-11077144D01*
X11839144Y-11077144D01*
X11839144Y-11147856D01*
X11909856Y-11147856D01*
X11909856Y-11401856D02*
X11909856Y-11331144D01*
X11839144Y-11331144D01*
X11839144Y-11401856D01*
X11909856Y-11401856D01*
X11909856Y-11655856D02*
X11909856Y-11585144D01*
X11839144Y-11585144D01*
X11839144Y-11655856D01*
X11909856Y-11655856D01*
X11909856Y-11909856D02*
X11909856Y-11839144D01*
X11839144Y-11839144D01*
X11839144Y-11909856D01*
X11909856Y-11909856D01*
X11909856Y-12163856D02*
X11909856Y-12093144D01*
X11839144Y-12093144D01*
X11839144Y-12163856D01*
X11909856Y-12163856D01*
X11909856Y-12925856D02*
X11909856Y-12855144D01*
X11839144Y-12855144D01*
X11839144Y-12925856D01*
X11909856Y-12925856D01*
X11909856Y-13179856D02*
X11909856Y-13109144D01*
X11839144Y-13109144D01*
X11839144Y-13179856D01*
X11909856Y-13179856D01*
X11909856Y-13433856D02*
X11909856Y-13363144D01*
X11839144Y-13363144D01*
X11839144Y-13433856D01*
X11909856Y-13433856D01*
X11910856Y-12417856D02*
X11910856Y-12347144D01*
X11840144Y-12347144D01*
X11840144Y-12417856D01*
X11910856Y-12417856D01*
X11910856Y-12671856D02*
X11910856Y-12601144D01*
X11840144Y-12601144D01*
X11840144Y-12671856D01*
X11910856Y-12671856D01*
X12163856Y-8163356D02*
X12163856Y-8092644D01*
X12093144Y-8092644D01*
X12093144Y-8163356D01*
X12163856Y-8163356D01*
X12163856Y-8861856D02*
X12163856Y-8791144D01*
X12093144Y-8791144D01*
X12093144Y-8861856D01*
X12163856Y-8861856D01*
X12163856Y-9115856D02*
X12163856Y-9045144D01*
X12093144Y-9045144D01*
X12093144Y-9115856D01*
X12163856Y-9115856D01*
X12163856Y-9369856D02*
X12163856Y-9299144D01*
X12093144Y-9299144D01*
X12093144Y-9369856D01*
X12163856Y-9369856D01*
X12163856Y-9623856D02*
X12163856Y-9553144D01*
X12093144Y-9553144D01*
X12093144Y-9623856D01*
X12163856Y-9623856D01*
X12163856Y-9877856D02*
X12163856Y-9807144D01*
X12093144Y-9807144D01*
X12093144Y-9877856D01*
X12163856Y-9877856D01*
X12163856Y-10131856D02*
X12163856Y-10061144D01*
X12093144Y-10061144D01*
X12093144Y-10131856D01*
X12163856Y-10131856D01*
X12163856Y-10385856D02*
X12163856Y-10315144D01*
X12093144Y-10315144D01*
X12093144Y-10385856D01*
X12163856Y-10385856D01*
X12163856Y-10639856D02*
X12163856Y-10569144D01*
X12093144Y-10569144D01*
X12093144Y-10639856D01*
X12163856Y-10639856D01*
X12163856Y-10893856D02*
X12163856Y-10823144D01*
X12093144Y-10823144D01*
X12093144Y-10893856D01*
X12163856Y-10893856D01*
X12163856Y-11147856D02*
X12163856Y-11077144D01*
X12093144Y-11077144D01*
X12093144Y-11147856D01*
X12163856Y-11147856D01*
X12163856Y-11401856D02*
X12163856Y-11331144D01*
X12093144Y-11331144D01*
X12093144Y-11401856D01*
X12163856Y-11401856D01*
X12163856Y-11655856D02*
X12163856Y-11585144D01*
X12093144Y-11585144D01*
X12093144Y-11655856D01*
X12163856Y-11655856D01*
X12163856Y-11909856D02*
X12163856Y-11839144D01*
X12093144Y-11839144D01*
X12093144Y-11909856D01*
X12163856Y-11909856D01*
X12163856Y-12163856D02*
X12163856Y-12093144D01*
X12093144Y-12093144D01*
X12093144Y-12163856D01*
X12163856Y-12163856D01*
X12163856Y-12925856D02*
X12163856Y-12855144D01*
X12093144Y-12855144D01*
X12093144Y-12925856D01*
X12163856Y-12925856D01*
X12163856Y-13179856D02*
X12163856Y-13109144D01*
X12093144Y-13109144D01*
X12093144Y-13179856D01*
X12163856Y-13179856D01*
X12163856Y-13433856D02*
X12163856Y-13363144D01*
X12093144Y-13363144D01*
X12093144Y-13433856D01*
X12163856Y-13433856D01*
X12164856Y-12417856D02*
X12164856Y-12347144D01*
X12094144Y-12347144D01*
X12094144Y-12417856D01*
X12164856Y-12417856D01*
X12164856Y-12671856D02*
X12164856Y-12601144D01*
X12094144Y-12601144D01*
X12094144Y-12671856D01*
X12164856Y-12671856D01*
X12417856Y-8163356D02*
X12417856Y-8092644D01*
X12347144Y-8092644D01*
X12347144Y-8163356D01*
X12417856Y-8163356D01*
X12417856Y-8861856D02*
X12417856Y-8791144D01*
X12347144Y-8791144D01*
X12347144Y-8861856D01*
X12417856Y-8861856D01*
X12417856Y-9115856D02*
X12417856Y-9045144D01*
X12347144Y-9045144D01*
X12347144Y-9115856D01*
X12417856Y-9115856D01*
X12417856Y-9369856D02*
X12417856Y-9299144D01*
X12347144Y-9299144D01*
X12347144Y-9369856D01*
X12417856Y-9369856D01*
X12417856Y-9623856D02*
X12417856Y-9553144D01*
X12347144Y-9553144D01*
X12347144Y-9623856D01*
X12417856Y-9623856D01*
X12417856Y-9877856D02*
X12417856Y-9807144D01*
X12347144Y-9807144D01*
X12347144Y-9877856D01*
X12417856Y-9877856D01*
X12417856Y-10131856D02*
X12417856Y-10061144D01*
X12347144Y-10061144D01*
X12347144Y-10131856D01*
X12417856Y-10131856D01*
X12417856Y-10385856D02*
X12417856Y-10315144D01*
X12347144Y-10315144D01*
X12347144Y-10385856D01*
X12417856Y-10385856D01*
X12417856Y-10639856D02*
X12417856Y-10569144D01*
X12347144Y-10569144D01*
X12347144Y-10639856D01*
X12417856Y-10639856D01*
X12417856Y-10893856D02*
X12417856Y-10823144D01*
X12347144Y-10823144D01*
X12347144Y-10893856D01*
X12417856Y-10893856D01*
X12417856Y-11147856D02*
X12417856Y-11077144D01*
X12347144Y-11077144D01*
X12347144Y-11147856D01*
X12417856Y-11147856D01*
X12417856Y-11401856D02*
X12417856Y-11331144D01*
X12347144Y-11331144D01*
X12347144Y-11401856D01*
X12417856Y-11401856D01*
X12417856Y-11655856D02*
X12417856Y-11585144D01*
X12347144Y-11585144D01*
X12347144Y-11655856D01*
X12417856Y-11655856D01*
X12417856Y-11909856D02*
X12417856Y-11839144D01*
X12347144Y-11839144D01*
X12347144Y-11909856D01*
X12417856Y-11909856D01*
X12417856Y-12163856D02*
X12417856Y-12093144D01*
X12347144Y-12093144D01*
X12347144Y-12163856D01*
X12417856Y-12163856D01*
X12417856Y-12925856D02*
X12417856Y-12855144D01*
X12347144Y-12855144D01*
X12347144Y-12925856D01*
X12417856Y-12925856D01*
X12417856Y-13179856D02*
X12417856Y-13109144D01*
X12347144Y-13109144D01*
X12347144Y-13179856D01*
X12417856Y-13179856D01*
X12417856Y-13433856D02*
X12417856Y-13363144D01*
X12347144Y-13363144D01*
X12347144Y-13433856D01*
X12417856Y-13433856D01*
X12418856Y-12417856D02*
X12418856Y-12347144D01*
X12348144Y-12347144D01*
X12348144Y-12417856D01*
X12418856Y-12417856D01*
X12418856Y-12671856D02*
X12418856Y-12601144D01*
X12348144Y-12601144D01*
X12348144Y-12671856D01*
X12418856Y-12671856D01*
X12671856Y-8163356D02*
X12671856Y-8092644D01*
X12601144Y-8092644D01*
X12601144Y-8163356D01*
X12671856Y-8163356D01*
X12671856Y-8861856D02*
X12671856Y-8791144D01*
X12601144Y-8791144D01*
X12601144Y-8861856D01*
X12671856Y-8861856D01*
X12671856Y-9115856D02*
X12671856Y-9045144D01*
X12601144Y-9045144D01*
X12601144Y-9115856D01*
X12671856Y-9115856D01*
X12671856Y-9369856D02*
X12671856Y-9299144D01*
X12601144Y-9299144D01*
X12601144Y-9369856D01*
X12671856Y-9369856D01*
X12671856Y-9623856D02*
X12671856Y-9553144D01*
X12601144Y-9553144D01*
X12601144Y-9623856D01*
X12671856Y-9623856D01*
X12671856Y-9877856D02*
X12671856Y-9807144D01*
X12601144Y-9807144D01*
X12601144Y-9877856D01*
X12671856Y-9877856D01*
X12671856Y-10131856D02*
X12671856Y-10061144D01*
X12601144Y-10061144D01*
X12601144Y-10131856D01*
X12671856Y-10131856D01*
X12671856Y-10385856D02*
X12671856Y-10315144D01*
X12601144Y-10315144D01*
X12601144Y-10385856D01*
X12671856Y-10385856D01*
X12671856Y-10639856D02*
X12671856Y-10569144D01*
X12601144Y-10569144D01*
X12601144Y-10639856D01*
X12671856Y-10639856D01*
X12671856Y-10893856D02*
X12671856Y-10823144D01*
X12601144Y-10823144D01*
X12601144Y-10893856D01*
X12671856Y-10893856D01*
X12671856Y-11147856D02*
X12671856Y-11077144D01*
X12601144Y-11077144D01*
X12601144Y-11147856D01*
X12671856Y-11147856D01*
X12671856Y-11401856D02*
X12671856Y-11331144D01*
X12601144Y-11331144D01*
X12601144Y-11401856D01*
X12671856Y-11401856D01*
X12671856Y-11655856D02*
X12671856Y-11585144D01*
X12601144Y-11585144D01*
X12601144Y-11655856D01*
X12671856Y-11655856D01*
X12671856Y-11909856D02*
X12671856Y-11839144D01*
X12601144Y-11839144D01*
X12601144Y-11909856D01*
X12671856Y-11909856D01*
X12671856Y-12163856D02*
X12671856Y-12093144D01*
X12601144Y-12093144D01*
X12601144Y-12163856D01*
X12671856Y-12163856D01*
X12671856Y-12925856D02*
X12671856Y-12855144D01*
X12601144Y-12855144D01*
X12601144Y-12925856D01*
X12671856Y-12925856D01*
X12671856Y-13179856D02*
X12671856Y-13109144D01*
X12601144Y-13109144D01*
X12601144Y-13179856D01*
X12671856Y-13179856D01*
X12671856Y-13433856D02*
X12671856Y-13363144D01*
X12601144Y-13363144D01*
X12601144Y-13433856D01*
X12671856Y-13433856D01*
X12672856Y-12417856D02*
X12672856Y-12347144D01*
X12602144Y-12347144D01*
X12602144Y-12417856D01*
X12672856Y-12417856D01*
X12672856Y-12671856D02*
X12672856Y-12601144D01*
X12602144Y-12601144D01*
X12602144Y-12671856D01*
X12672856Y-12671856D01*
X12925856Y-8163356D02*
X12925856Y-8092644D01*
X12855144Y-8092644D01*
X12855144Y-8163356D01*
X12925856Y-8163356D01*
X12925856Y-8861856D02*
X12925856Y-8791144D01*
X12855144Y-8791144D01*
X12855144Y-8861856D01*
X12925856Y-8861856D01*
X12925856Y-9115856D02*
X12925856Y-9045144D01*
X12855144Y-9045144D01*
X12855144Y-9115856D01*
X12925856Y-9115856D01*
X12925856Y-9369856D02*
X12925856Y-9299144D01*
X12855144Y-9299144D01*
X12855144Y-9369856D01*
X12925856Y-9369856D01*
X12925856Y-9623856D02*
X12925856Y-9553144D01*
X12855144Y-9553144D01*
X12855144Y-9623856D01*
X12925856Y-9623856D01*
X12925856Y-9877856D02*
X12925856Y-9807144D01*
X12855144Y-9807144D01*
X12855144Y-9877856D01*
X12925856Y-9877856D01*
X12925856Y-10131856D02*
X12925856Y-10061144D01*
X12855144Y-10061144D01*
X12855144Y-10131856D01*
X12925856Y-10131856D01*
X12925856Y-10385856D02*
X12925856Y-10315144D01*
X12855144Y-10315144D01*
X12855144Y-10385856D01*
X12925856Y-10385856D01*
X12925856Y-10639856D02*
X12925856Y-10569144D01*
X12855144Y-10569144D01*
X12855144Y-10639856D01*
X12925856Y-10639856D01*
X12925856Y-10893856D02*
X12925856Y-10823144D01*
X12855144Y-10823144D01*
X12855144Y-10893856D01*
X12925856Y-10893856D01*
X12925856Y-11147856D02*
X12925856Y-11077144D01*
X12855144Y-11077144D01*
X12855144Y-11147856D01*
X12925856Y-11147856D01*
X12925856Y-11401856D02*
X12925856Y-11331144D01*
X12855144Y-11331144D01*
X12855144Y-11401856D01*
X12925856Y-11401856D01*
X12925856Y-11655856D02*
X12925856Y-11585144D01*
X12855144Y-11585144D01*
X12855144Y-11655856D01*
X12925856Y-11655856D01*
X12925856Y-11909856D02*
X12925856Y-11839144D01*
X12855144Y-11839144D01*
X12855144Y-11909856D01*
X12925856Y-11909856D01*
X12925856Y-12163856D02*
X12925856Y-12093144D01*
X12855144Y-12093144D01*
X12855144Y-12163856D01*
X12925856Y-12163856D01*
X12925856Y-12925856D02*
X12925856Y-12855144D01*
X12855144Y-12855144D01*
X12855144Y-12925856D01*
X12925856Y-12925856D01*
X12925856Y-13179856D02*
X12925856Y-13109144D01*
X12855144Y-13109144D01*
X12855144Y-13179856D01*
X12925856Y-13179856D01*
X12925856Y-13433856D02*
X12925856Y-13363144D01*
X12855144Y-13363144D01*
X12855144Y-13433856D01*
X12925856Y-13433856D01*
X12926856Y-12417856D02*
X12926856Y-12347144D01*
X12856144Y-12347144D01*
X12856144Y-12417856D01*
X12926856Y-12417856D01*
X12926856Y-12671856D02*
X12926856Y-12601144D01*
X12856144Y-12601144D01*
X12856144Y-12671856D01*
X12926856Y-12671856D01*
X13179856Y-8163356D02*
X13179856Y-8092644D01*
X13109144Y-8092644D01*
X13109144Y-8163356D01*
X13179856Y-8163356D01*
X13179856Y-8861856D02*
X13179856Y-8791144D01*
X13109144Y-8791144D01*
X13109144Y-8861856D01*
X13179856Y-8861856D01*
X13179856Y-9115856D02*
X13179856Y-9045144D01*
X13109144Y-9045144D01*
X13109144Y-9115856D01*
X13179856Y-9115856D01*
X13179856Y-9369856D02*
X13179856Y-9299144D01*
X13109144Y-9299144D01*
X13109144Y-9369856D01*
X13179856Y-9369856D01*
X13179856Y-9623856D02*
X13179856Y-9553144D01*
X13109144Y-9553144D01*
X13109144Y-9623856D01*
X13179856Y-9623856D01*
X13179856Y-9877856D02*
X13179856Y-9807144D01*
X13109144Y-9807144D01*
X13109144Y-9877856D01*
X13179856Y-9877856D01*
X13179856Y-10131856D02*
X13179856Y-10061144D01*
X13109144Y-10061144D01*
X13109144Y-10131856D01*
X13179856Y-10131856D01*
X13179856Y-10385856D02*
X13179856Y-10315144D01*
X13109144Y-10315144D01*
X13109144Y-10385856D01*
X13179856Y-10385856D01*
X13179856Y-10639856D02*
X13179856Y-10569144D01*
X13109144Y-10569144D01*
X13109144Y-10639856D01*
X13179856Y-10639856D01*
X13179856Y-10893856D02*
X13179856Y-10823144D01*
X13109144Y-10823144D01*
X13109144Y-10893856D01*
X13179856Y-10893856D01*
X13179856Y-11147856D02*
X13179856Y-11077144D01*
X13109144Y-11077144D01*
X13109144Y-11147856D01*
X13179856Y-11147856D01*
X13179856Y-11401856D02*
X13179856Y-11331144D01*
X13109144Y-11331144D01*
X13109144Y-11401856D01*
X13179856Y-11401856D01*
X13179856Y-11655856D02*
X13179856Y-11585144D01*
X13109144Y-11585144D01*
X13109144Y-11655856D01*
X13179856Y-11655856D01*
X13179856Y-11909856D02*
X13179856Y-11839144D01*
X13109144Y-11839144D01*
X13109144Y-11909856D01*
X13179856Y-11909856D01*
X13179856Y-12163856D02*
X13179856Y-12093144D01*
X13109144Y-12093144D01*
X13109144Y-12163856D01*
X13179856Y-12163856D01*
X13179856Y-12925856D02*
X13179856Y-12855144D01*
X13109144Y-12855144D01*
X13109144Y-12925856D01*
X13179856Y-12925856D01*
X13179856Y-13179856D02*
X13179856Y-13109144D01*
X13109144Y-13109144D01*
X13109144Y-13179856D01*
X13179856Y-13179856D01*
X13179856Y-13433856D02*
X13179856Y-13363144D01*
X13109144Y-13363144D01*
X13109144Y-13433856D01*
X13179856Y-13433856D01*
X13180856Y-12417856D02*
X13180856Y-12347144D01*
X13110144Y-12347144D01*
X13110144Y-12417856D01*
X13180856Y-12417856D01*
X13180856Y-12671856D02*
X13180856Y-12601144D01*
X13110144Y-12601144D01*
X13110144Y-12671856D01*
X13180856Y-12671856D01*
X13433856Y-8163356D02*
X13433856Y-8092644D01*
X13363144Y-8092644D01*
X13363144Y-8163356D01*
X13433856Y-8163356D01*
X13433856Y-8861856D02*
X13433856Y-8791144D01*
X13363144Y-8791144D01*
X13363144Y-8861856D01*
X13433856Y-8861856D01*
X13433856Y-9115856D02*
X13433856Y-9045144D01*
X13363144Y-9045144D01*
X13363144Y-9115856D01*
X13433856Y-9115856D01*
X13433856Y-9369856D02*
X13433856Y-9299144D01*
X13363144Y-9299144D01*
X13363144Y-9369856D01*
X13433856Y-9369856D01*
X13433856Y-9623856D02*
X13433856Y-9553144D01*
X13363144Y-9553144D01*
X13363144Y-9623856D01*
X13433856Y-9623856D01*
X13433856Y-9877856D02*
X13433856Y-9807144D01*
X13363144Y-9807144D01*
X13363144Y-9877856D01*
X13433856Y-9877856D01*
X13433856Y-10131856D02*
X13433856Y-10061144D01*
X13363144Y-10061144D01*
X13363144Y-10131856D01*
X13433856Y-10131856D01*
X13433856Y-10385856D02*
X13433856Y-10315144D01*
X13363144Y-10315144D01*
X13363144Y-10385856D01*
X13433856Y-10385856D01*
X13433856Y-10639856D02*
X13433856Y-10569144D01*
X13363144Y-10569144D01*
X13363144Y-10639856D01*
X13433856Y-10639856D01*
X13433856Y-10893856D02*
X13433856Y-10823144D01*
X13363144Y-10823144D01*
X13363144Y-10893856D01*
X13433856Y-10893856D01*
X13433856Y-11147856D02*
X13433856Y-11077144D01*
X13363144Y-11077144D01*
X13363144Y-11147856D01*
X13433856Y-11147856D01*
X13433856Y-11401856D02*
X13433856Y-11331144D01*
X13363144Y-11331144D01*
X13363144Y-11401856D01*
X13433856Y-11401856D01*
X13433856Y-11655856D02*
X13433856Y-11585144D01*
X13363144Y-11585144D01*
X13363144Y-11655856D01*
X13433856Y-11655856D01*
X13433856Y-11909856D02*
X13433856Y-11839144D01*
X13363144Y-11839144D01*
X13363144Y-11909856D01*
X13433856Y-11909856D01*
X13433856Y-12163856D02*
X13433856Y-12093144D01*
X13363144Y-12093144D01*
X13363144Y-12163856D01*
X13433856Y-12163856D01*
X13433856Y-12925856D02*
X13433856Y-12855144D01*
X13363144Y-12855144D01*
X13363144Y-12925856D01*
X13433856Y-12925856D01*
X13433856Y-13179856D02*
X13433856Y-13109144D01*
X13363144Y-13109144D01*
X13363144Y-13179856D01*
X13433856Y-13179856D01*
X13433856Y-13433856D02*
X13433856Y-13363144D01*
X13363144Y-13363144D01*
X13363144Y-13433856D01*
X13433856Y-13433856D01*
X13434856Y-12417856D02*
X13434856Y-12347144D01*
X13364144Y-12347144D01*
X13364144Y-12417856D01*
X13434856Y-12417856D01*
X13434856Y-12671856D02*
X13434856Y-12601144D01*
X13364144Y-12601144D01*
X13364144Y-12671856D01*
X13434856Y-12671856D01*
X13687856Y-8163356D02*
X13687856Y-8092644D01*
X13617144Y-8092644D01*
X13617144Y-8163356D01*
X13687856Y-8163356D01*
X13687856Y-8861856D02*
X13687856Y-8791144D01*
X13617144Y-8791144D01*
X13617144Y-8861856D01*
X13687856Y-8861856D01*
X13687856Y-9115856D02*
X13687856Y-9045144D01*
X13617144Y-9045144D01*
X13617144Y-9115856D01*
X13687856Y-9115856D01*
X13687856Y-9369856D02*
X13687856Y-9299144D01*
X13617144Y-9299144D01*
X13617144Y-9369856D01*
X13687856Y-9369856D01*
X13687856Y-9623856D02*
X13687856Y-9553144D01*
X13617144Y-9553144D01*
X13617144Y-9623856D01*
X13687856Y-9623856D01*
X13687856Y-9877856D02*
X13687856Y-9807144D01*
X13617144Y-9807144D01*
X13617144Y-9877856D01*
X13687856Y-9877856D01*
X13687856Y-10131856D02*
X13687856Y-10061144D01*
X13617144Y-10061144D01*
X13617144Y-10131856D01*
X13687856Y-10131856D01*
X13687856Y-10385856D02*
X13687856Y-10315144D01*
X13617144Y-10315144D01*
X13617144Y-10385856D01*
X13687856Y-10385856D01*
X13687856Y-10639856D02*
X13687856Y-10569144D01*
X13617144Y-10569144D01*
X13617144Y-10639856D01*
X13687856Y-10639856D01*
X13687856Y-10893856D02*
X13687856Y-10823144D01*
X13617144Y-10823144D01*
X13617144Y-10893856D01*
X13687856Y-10893856D01*
X13687856Y-11147856D02*
X13687856Y-11077144D01*
X13617144Y-11077144D01*
X13617144Y-11147856D01*
X13687856Y-11147856D01*
X13687856Y-11401856D02*
X13687856Y-11331144D01*
X13617144Y-11331144D01*
X13617144Y-11401856D01*
X13687856Y-11401856D01*
X13687856Y-11655856D02*
X13687856Y-11585144D01*
X13617144Y-11585144D01*
X13617144Y-11655856D01*
X13687856Y-11655856D01*
X13687856Y-11909856D02*
X13687856Y-11839144D01*
X13617144Y-11839144D01*
X13617144Y-11909856D01*
X13687856Y-11909856D01*
X13687856Y-12163856D02*
X13687856Y-12093144D01*
X13617144Y-12093144D01*
X13617144Y-12163856D01*
X13687856Y-12163856D01*
X13687856Y-12925856D02*
X13687856Y-12855144D01*
X13617144Y-12855144D01*
X13617144Y-12925856D01*
X13687856Y-12925856D01*
X13687856Y-13179856D02*
X13687856Y-13109144D01*
X13617144Y-13109144D01*
X13617144Y-13179856D01*
X13687856Y-13179856D01*
X13687856Y-13433856D02*
X13687856Y-13363144D01*
X13617144Y-13363144D01*
X13617144Y-13433856D01*
X13687856Y-13433856D01*
X13688856Y-12417856D02*
X13688856Y-12347144D01*
X13618144Y-12347144D01*
X13618144Y-12417856D01*
X13688856Y-12417856D01*
X13688856Y-12671856D02*
X13688856Y-12601144D01*
X13618144Y-12601144D01*
X13618144Y-12671856D01*
X13688856Y-12671856D01*
X13941856Y-8163356D02*
X13941856Y-8092644D01*
X13871144Y-8092644D01*
X13871144Y-8163356D01*
X13941856Y-8163356D01*
X13941856Y-8861856D02*
X13941856Y-8791144D01*
X13871144Y-8791144D01*
X13871144Y-8861856D01*
X13941856Y-8861856D01*
X13941856Y-9115856D02*
X13941856Y-9045144D01*
X13871144Y-9045144D01*
X13871144Y-9115856D01*
X13941856Y-9115856D01*
X13941856Y-9369856D02*
X13941856Y-9299144D01*
X13871144Y-9299144D01*
X13871144Y-9369856D01*
X13941856Y-9369856D01*
X13941856Y-9623856D02*
X13941856Y-9553144D01*
X13871144Y-9553144D01*
X13871144Y-9623856D01*
X13941856Y-9623856D01*
X13941856Y-9877856D02*
X13941856Y-9807144D01*
X13871144Y-9807144D01*
X13871144Y-9877856D01*
X13941856Y-9877856D01*
X13941856Y-10131856D02*
X13941856Y-10061144D01*
X13871144Y-10061144D01*
X13871144Y-10131856D01*
X13941856Y-10131856D01*
X13941856Y-10385856D02*
X13941856Y-10315144D01*
X13871144Y-10315144D01*
X13871144Y-10385856D01*
X13941856Y-10385856D01*
X13941856Y-10639856D02*
X13941856Y-10569144D01*
X13871144Y-10569144D01*
X13871144Y-10639856D01*
X13941856Y-10639856D01*
X13941856Y-10893856D02*
X13941856Y-10823144D01*
X13871144Y-10823144D01*
X13871144Y-10893856D01*
X13941856Y-10893856D01*
X13941856Y-11147856D02*
X13941856Y-11077144D01*
X13871144Y-11077144D01*
X13871144Y-11147856D01*
X13941856Y-11147856D01*
X13941856Y-11401856D02*
X13941856Y-11331144D01*
X13871144Y-11331144D01*
X13871144Y-11401856D01*
X13941856Y-11401856D01*
X13941856Y-11655856D02*
X13941856Y-11585144D01*
X13871144Y-11585144D01*
X13871144Y-11655856D01*
X13941856Y-11655856D01*
X13941856Y-11909856D02*
X13941856Y-11839144D01*
X13871144Y-11839144D01*
X13871144Y-11909856D01*
X13941856Y-11909856D01*
X13941856Y-12163856D02*
X13941856Y-12093144D01*
X13871144Y-12093144D01*
X13871144Y-12163856D01*
X13941856Y-12163856D01*
X13941856Y-12925856D02*
X13941856Y-12855144D01*
X13871144Y-12855144D01*
X13871144Y-12925856D01*
X13941856Y-12925856D01*
X13941856Y-13179856D02*
X13941856Y-13109144D01*
X13871144Y-13109144D01*
X13871144Y-13179856D01*
X13941856Y-13179856D01*
X13941856Y-13433856D02*
X13941856Y-13363144D01*
X13871144Y-13363144D01*
X13871144Y-13433856D01*
X13941856Y-13433856D01*
X13942856Y-12417856D02*
X13942856Y-12347144D01*
X13872144Y-12347144D01*
X13872144Y-12417856D01*
X13942856Y-12417856D01*
X13942856Y-12671856D02*
X13942856Y-12601144D01*
X13872144Y-12601144D01*
X13872144Y-12671856D01*
X13942856Y-12671856D01*
X14195856Y-8163356D02*
X14195856Y-8092644D01*
X14125144Y-8092644D01*
X14125144Y-8163356D01*
X14195856Y-8163356D01*
X14195856Y-8861856D02*
X14195856Y-8791144D01*
X14125144Y-8791144D01*
X14125144Y-8861856D01*
X14195856Y-8861856D01*
X14195856Y-9115856D02*
X14195856Y-9045144D01*
X14125144Y-9045144D01*
X14125144Y-9115856D01*
X14195856Y-9115856D01*
X14195856Y-9369856D02*
X14195856Y-9299144D01*
X14125144Y-9299144D01*
X14125144Y-9369856D01*
X14195856Y-9369856D01*
X14195856Y-9623856D02*
X14195856Y-9553144D01*
X14125144Y-9553144D01*
X14125144Y-9623856D01*
X14195856Y-9623856D01*
X14195856Y-9877856D02*
X14195856Y-9807144D01*
X14125144Y-9807144D01*
X14125144Y-9877856D01*
X14195856Y-9877856D01*
X14195856Y-10131856D02*
X14195856Y-10061144D01*
X14125144Y-10061144D01*
X14125144Y-10131856D01*
X14195856Y-10131856D01*
X14195856Y-10385856D02*
X14195856Y-10315144D01*
X14125144Y-10315144D01*
X14125144Y-10385856D01*
X14195856Y-10385856D01*
X14195856Y-10639856D02*
X14195856Y-10569144D01*
X14125144Y-10569144D01*
X14125144Y-10639856D01*
X14195856Y-10639856D01*
X14195856Y-10893856D02*
X14195856Y-10823144D01*
X14125144Y-10823144D01*
X14125144Y-10893856D01*
X14195856Y-10893856D01*
X14195856Y-11147856D02*
X14195856Y-11077144D01*
X14125144Y-11077144D01*
X14125144Y-11147856D01*
X14195856Y-11147856D01*
X14195856Y-11401856D02*
X14195856Y-11331144D01*
X14125144Y-11331144D01*
X14125144Y-11401856D01*
X14195856Y-11401856D01*
X14195856Y-11655856D02*
X14195856Y-11585144D01*
X14125144Y-11585144D01*
X14125144Y-11655856D01*
X14195856Y-11655856D01*
X14195856Y-11909856D02*
X14195856Y-11839144D01*
X14125144Y-11839144D01*
X14125144Y-11909856D01*
X14195856Y-11909856D01*
X14195856Y-12163856D02*
X14195856Y-12093144D01*
X14125144Y-12093144D01*
X14125144Y-12163856D01*
X14195856Y-12163856D01*
X14195856Y-12925856D02*
X14195856Y-12855144D01*
X14125144Y-12855144D01*
X14125144Y-12925856D01*
X14195856Y-12925856D01*
X14195856Y-13179856D02*
X14195856Y-13109144D01*
X14125144Y-13109144D01*
X14125144Y-13179856D01*
X14195856Y-13179856D01*
X14195856Y-13433856D02*
X14195856Y-13363144D01*
X14125144Y-13363144D01*
X14125144Y-13433856D01*
X14195856Y-13433856D01*
X14196856Y-12417856D02*
X14196856Y-12347144D01*
X14126144Y-12347144D01*
X14126144Y-12417856D01*
X14196856Y-12417856D01*
X14196856Y-12671856D02*
X14196856Y-12601144D01*
X14126144Y-12601144D01*
X14126144Y-12671856D01*
X14196856Y-12671856D01*
X14449856Y-8163356D02*
X14449856Y-8092644D01*
X14379144Y-8092644D01*
X14379144Y-8163356D01*
X14449856Y-8163356D01*
X14449856Y-8861856D02*
X14449856Y-8791144D01*
X14379144Y-8791144D01*
X14379144Y-8861856D01*
X14449856Y-8861856D01*
X14449856Y-9115856D02*
X14449856Y-9045144D01*
X14379144Y-9045144D01*
X14379144Y-9115856D01*
X14449856Y-9115856D01*
X14449856Y-9369856D02*
X14449856Y-9299144D01*
X14379144Y-9299144D01*
X14379144Y-9369856D01*
X14449856Y-9369856D01*
X14449856Y-9623856D02*
X14449856Y-9553144D01*
X14379144Y-9553144D01*
X14379144Y-9623856D01*
X14449856Y-9623856D01*
X14449856Y-9877856D02*
X14449856Y-9807144D01*
X14379144Y-9807144D01*
X14379144Y-9877856D01*
X14449856Y-9877856D01*
X14449856Y-10131856D02*
X14449856Y-10061144D01*
X14379144Y-10061144D01*
X14379144Y-10131856D01*
X14449856Y-10131856D01*
X14449856Y-10385856D02*
X14449856Y-10315144D01*
X14379144Y-10315144D01*
X14379144Y-10385856D01*
X14449856Y-10385856D01*
X14449856Y-10639856D02*
X14449856Y-10569144D01*
X14379144Y-10569144D01*
X14379144Y-10639856D01*
X14449856Y-10639856D01*
X14449856Y-10893856D02*
X14449856Y-10823144D01*
X14379144Y-10823144D01*
X14379144Y-10893856D01*
X14449856Y-10893856D01*
X14449856Y-11147856D02*
X14449856Y-11077144D01*
X14379144Y-11077144D01*
X14379144Y-11147856D01*
X14449856Y-11147856D01*
X14449856Y-11401856D02*
X14449856Y-11331144D01*
X14379144Y-11331144D01*
X14379144Y-11401856D01*
X14449856Y-11401856D01*
X14449856Y-11655856D02*
X14449856Y-11585144D01*
X14379144Y-11585144D01*
X14379144Y-11655856D01*
X14449856Y-11655856D01*
X14449856Y-11909856D02*
X14449856Y-11839144D01*
X14379144Y-11839144D01*
X14379144Y-11909856D01*
X14449856Y-11909856D01*
X14449856Y-12163856D02*
X14449856Y-12093144D01*
X14379144Y-12093144D01*
X14379144Y-12163856D01*
X14449856Y-12163856D01*
X14449856Y-12925856D02*
X14449856Y-12855144D01*
X14379144Y-12855144D01*
X14379144Y-12925856D01*
X14449856Y-12925856D01*
X14449856Y-13179856D02*
X14449856Y-13109144D01*
X14379144Y-13109144D01*
X14379144Y-13179856D01*
X14449856Y-13179856D01*
X14449856Y-13433856D02*
X14449856Y-13363144D01*
X14379144Y-13363144D01*
X14379144Y-13433856D01*
X14449856Y-13433856D01*
X14450856Y-12417856D02*
X14450856Y-12347144D01*
X14380144Y-12347144D01*
X14380144Y-12417856D01*
X14450856Y-12417856D01*
X14450856Y-12671856D02*
X14450856Y-12601144D01*
X14380144Y-12601144D01*
X14380144Y-12671856D01*
X14450856Y-12671856D01*
X14703856Y-8163356D02*
X14703856Y-8092644D01*
X14633144Y-8092644D01*
X14633144Y-8163356D01*
X14703856Y-8163356D01*
X14703856Y-8861856D02*
X14703856Y-8791144D01*
X14633144Y-8791144D01*
X14633144Y-8861856D01*
X14703856Y-8861856D01*
X14703856Y-9115856D02*
X14703856Y-9045144D01*
X14633144Y-9045144D01*
X14633144Y-9115856D01*
X14703856Y-9115856D01*
X14703856Y-9369856D02*
X14703856Y-9299144D01*
X14633144Y-9299144D01*
X14633144Y-9369856D01*
X14703856Y-9369856D01*
X14703856Y-9623856D02*
X14703856Y-9553144D01*
X14633144Y-9553144D01*
X14633144Y-9623856D01*
X14703856Y-9623856D01*
X14703856Y-9877856D02*
X14703856Y-9807144D01*
X14633144Y-9807144D01*
X14633144Y-9877856D01*
X14703856Y-9877856D01*
X14703856Y-10131856D02*
X14703856Y-10061144D01*
X14633144Y-10061144D01*
X14633144Y-10131856D01*
X14703856Y-10131856D01*
X14703856Y-10385856D02*
X14703856Y-10315144D01*
X14633144Y-10315144D01*
X14633144Y-10385856D01*
X14703856Y-10385856D01*
X14703856Y-10639856D02*
X14703856Y-10569144D01*
X14633144Y-10569144D01*
X14633144Y-10639856D01*
X14703856Y-10639856D01*
X14703856Y-10893856D02*
X14703856Y-10823144D01*
X14633144Y-10823144D01*
X14633144Y-10893856D01*
X14703856Y-10893856D01*
X14703856Y-11147856D02*
X14703856Y-11077144D01*
X14633144Y-11077144D01*
X14633144Y-11147856D01*
X14703856Y-11147856D01*
X14703856Y-11401856D02*
X14703856Y-11331144D01*
X14633144Y-11331144D01*
X14633144Y-11401856D01*
X14703856Y-11401856D01*
X14703856Y-11655856D02*
X14703856Y-11585144D01*
X14633144Y-11585144D01*
X14633144Y-11655856D01*
X14703856Y-11655856D01*
X14703856Y-11909856D02*
X14703856Y-11839144D01*
X14633144Y-11839144D01*
X14633144Y-11909856D01*
X14703856Y-11909856D01*
X14703856Y-12163856D02*
X14703856Y-12093144D01*
X14633144Y-12093144D01*
X14633144Y-12163856D01*
X14703856Y-12163856D01*
X14703856Y-12925856D02*
X14703856Y-12855144D01*
X14633144Y-12855144D01*
X14633144Y-12925856D01*
X14703856Y-12925856D01*
X14703856Y-13179856D02*
X14703856Y-13109144D01*
X14633144Y-13109144D01*
X14633144Y-13179856D01*
X14703856Y-13179856D01*
X14703856Y-13433856D02*
X14703856Y-13363144D01*
X14633144Y-13363144D01*
X14633144Y-13433856D01*
X14703856Y-13433856D01*
X14704856Y-12417856D02*
X14704856Y-12347144D01*
X14634144Y-12347144D01*
X14634144Y-12417856D01*
X14704856Y-12417856D01*
X14704856Y-12671856D02*
X14704856Y-12601144D01*
X14634144Y-12601144D01*
X14634144Y-12671856D01*
X14704856Y-12671856D01*
X14957856Y-8163356D02*
X14957856Y-8092644D01*
X14887144Y-8092644D01*
X14887144Y-8163356D01*
X14957856Y-8163356D01*
X14957856Y-8861856D02*
X14957856Y-8791144D01*
X14887144Y-8791144D01*
X14887144Y-8861856D01*
X14957856Y-8861856D01*
X14957856Y-9115856D02*
X14957856Y-9045144D01*
X14887144Y-9045144D01*
X14887144Y-9115856D01*
X14957856Y-9115856D01*
X14957856Y-9369856D02*
X14957856Y-9299144D01*
X14887144Y-9299144D01*
X14887144Y-9369856D01*
X14957856Y-9369856D01*
X14957856Y-9623856D02*
X14957856Y-9553144D01*
X14887144Y-9553144D01*
X14887144Y-9623856D01*
X14957856Y-9623856D01*
X14957856Y-9877856D02*
X14957856Y-9807144D01*
X14887144Y-9807144D01*
X14887144Y-9877856D01*
X14957856Y-9877856D01*
X14957856Y-10131856D02*
X14957856Y-10061144D01*
X14887144Y-10061144D01*
X14887144Y-10131856D01*
X14957856Y-10131856D01*
X14957856Y-10385856D02*
X14957856Y-10315144D01*
X14887144Y-10315144D01*
X14887144Y-10385856D01*
X14957856Y-10385856D01*
X14957856Y-10639856D02*
X14957856Y-10569144D01*
X14887144Y-10569144D01*
X14887144Y-10639856D01*
X14957856Y-10639856D01*
X14957856Y-10893856D02*
X14957856Y-10823144D01*
X14887144Y-10823144D01*
X14887144Y-10893856D01*
X14957856Y-10893856D01*
X14957856Y-11147856D02*
X14957856Y-11077144D01*
X14887144Y-11077144D01*
X14887144Y-11147856D01*
X14957856Y-11147856D01*
X14957856Y-11401856D02*
X14957856Y-11331144D01*
X14887144Y-11331144D01*
X14887144Y-11401856D01*
X14957856Y-11401856D01*
X14957856Y-11655856D02*
X14957856Y-11585144D01*
X14887144Y-11585144D01*
X14887144Y-11655856D01*
X14957856Y-11655856D01*
X14957856Y-11909856D02*
X14957856Y-11839144D01*
X14887144Y-11839144D01*
X14887144Y-11909856D01*
X14957856Y-11909856D01*
X14957856Y-12163856D02*
X14957856Y-12093144D01*
X14887144Y-12093144D01*
X14887144Y-12163856D01*
X14957856Y-12163856D01*
X14957856Y-12925856D02*
X14957856Y-12855144D01*
X14887144Y-12855144D01*
X14887144Y-12925856D01*
X14957856Y-12925856D01*
X14957856Y-13179856D02*
X14957856Y-13109144D01*
X14887144Y-13109144D01*
X14887144Y-13179856D01*
X14957856Y-13179856D01*
X14957856Y-13433856D02*
X14957856Y-13363144D01*
X14887144Y-13363144D01*
X14887144Y-13433856D01*
X14957856Y-13433856D01*
X14958856Y-12417856D02*
X14958856Y-12347144D01*
X14888144Y-12347144D01*
X14888144Y-12417856D01*
X14958856Y-12417856D01*
X14958856Y-12671856D02*
X14958856Y-12601144D01*
X14888144Y-12601144D01*
X14888144Y-12671856D01*
X14958856Y-12671856D01*
X15211856Y-8163356D02*
X15211856Y-8092644D01*
X15141144Y-8092644D01*
X15141144Y-8163356D01*
X15211856Y-8163356D01*
X15211856Y-8861856D02*
X15211856Y-8791144D01*
X15141144Y-8791144D01*
X15141144Y-8861856D01*
X15211856Y-8861856D01*
X15211856Y-9115856D02*
X15211856Y-9045144D01*
X15141144Y-9045144D01*
X15141144Y-9115856D01*
X15211856Y-9115856D01*
X15211856Y-9369856D02*
X15211856Y-9299144D01*
X15141144Y-9299144D01*
X15141144Y-9369856D01*
X15211856Y-9369856D01*
X15211856Y-9623856D02*
X15211856Y-9553144D01*
X15141144Y-9553144D01*
X15141144Y-9623856D01*
X15211856Y-9623856D01*
X15211856Y-9877856D02*
X15211856Y-9807144D01*
X15141144Y-9807144D01*
X15141144Y-9877856D01*
X15211856Y-9877856D01*
X15211856Y-10131856D02*
X15211856Y-10061144D01*
X15141144Y-10061144D01*
X15141144Y-10131856D01*
X15211856Y-10131856D01*
X15211856Y-10385856D02*
X15211856Y-10315144D01*
X15141144Y-10315144D01*
X15141144Y-10385856D01*
X15211856Y-10385856D01*
X15211856Y-10639856D02*
X15211856Y-10569144D01*
X15141144Y-10569144D01*
X15141144Y-10639856D01*
X15211856Y-10639856D01*
X15211856Y-10893856D02*
X15211856Y-10823144D01*
X15141144Y-10823144D01*
X15141144Y-10893856D01*
X15211856Y-10893856D01*
X15211856Y-11147856D02*
X15211856Y-11077144D01*
X15141144Y-11077144D01*
X15141144Y-11147856D01*
X15211856Y-11147856D01*
X15211856Y-11401856D02*
X15211856Y-11331144D01*
X15141144Y-11331144D01*
X15141144Y-11401856D01*
X15211856Y-11401856D01*
X15211856Y-11655856D02*
X15211856Y-11585144D01*
X15141144Y-11585144D01*
X15141144Y-11655856D01*
X15211856Y-11655856D01*
X15211856Y-11909856D02*
X15211856Y-11839144D01*
X15141144Y-11839144D01*
X15141144Y-11909856D01*
X15211856Y-11909856D01*
X15211856Y-12163856D02*
X15211856Y-12093144D01*
X15141144Y-12093144D01*
X15141144Y-12163856D01*
X15211856Y-12163856D01*
X15211856Y-12925856D02*
X15211856Y-12855144D01*
X15141144Y-12855144D01*
X15141144Y-12925856D01*
X15211856Y-12925856D01*
X15211856Y-13179856D02*
X15211856Y-13109144D01*
X15141144Y-13109144D01*
X15141144Y-13179856D01*
X15211856Y-13179856D01*
X15211856Y-13433856D02*
X15211856Y-13363144D01*
X15141144Y-13363144D01*
X15141144Y-13433856D01*
X15211856Y-13433856D01*
X15212856Y-12417856D02*
X15212856Y-12347144D01*
X15142144Y-12347144D01*
X15142144Y-12417856D01*
X15212856Y-12417856D01*
X15212856Y-12671856D02*
X15212856Y-12601144D01*
X15142144Y-12601144D01*
X15142144Y-12671856D01*
X15212856Y-12671856D01*
X15465856Y-8163356D02*
X15465856Y-8092644D01*
X15395144Y-8092644D01*
X15395144Y-8163356D01*
X15465856Y-8163356D01*
X15465856Y-8861856D02*
X15465856Y-8791144D01*
X15395144Y-8791144D01*
X15395144Y-8861856D01*
X15465856Y-8861856D01*
X15465856Y-9115856D02*
X15465856Y-9045144D01*
X15395144Y-9045144D01*
X15395144Y-9115856D01*
X15465856Y-9115856D01*
X15465856Y-9369856D02*
X15465856Y-9299144D01*
X15395144Y-9299144D01*
X15395144Y-9369856D01*
X15465856Y-9369856D01*
X15465856Y-9623856D02*
X15465856Y-9553144D01*
X15395144Y-9553144D01*
X15395144Y-9623856D01*
X15465856Y-9623856D01*
X15465856Y-9877856D02*
X15465856Y-9807144D01*
X15395144Y-9807144D01*
X15395144Y-9877856D01*
X15465856Y-9877856D01*
X15465856Y-10131856D02*
X15465856Y-10061144D01*
X15395144Y-10061144D01*
X15395144Y-10131856D01*
X15465856Y-10131856D01*
X15465856Y-10385856D02*
X15465856Y-10315144D01*
X15395144Y-10315144D01*
X15395144Y-10385856D01*
X15465856Y-10385856D01*
X15465856Y-10639856D02*
X15465856Y-10569144D01*
X15395144Y-10569144D01*
X15395144Y-10639856D01*
X15465856Y-10639856D01*
X15465856Y-10893856D02*
X15465856Y-10823144D01*
X15395144Y-10823144D01*
X15395144Y-10893856D01*
X15465856Y-10893856D01*
X15465856Y-11147856D02*
X15465856Y-11077144D01*
X15395144Y-11077144D01*
X15395144Y-11147856D01*
X15465856Y-11147856D01*
X15465856Y-11401856D02*
X15465856Y-11331144D01*
X15395144Y-11331144D01*
X15395144Y-11401856D01*
X15465856Y-11401856D01*
X15465856Y-11655856D02*
X15465856Y-11585144D01*
X15395144Y-11585144D01*
X15395144Y-11655856D01*
X15465856Y-11655856D01*
X15465856Y-11909856D02*
X15465856Y-11839144D01*
X15395144Y-11839144D01*
X15395144Y-11909856D01*
X15465856Y-11909856D01*
X15465856Y-12163856D02*
X15465856Y-12093144D01*
X15395144Y-12093144D01*
X15395144Y-12163856D01*
X15465856Y-12163856D01*
X15465856Y-12925856D02*
X15465856Y-12855144D01*
X15395144Y-12855144D01*
X15395144Y-12925856D01*
X15465856Y-12925856D01*
X15465856Y-13179856D02*
X15465856Y-13109144D01*
X15395144Y-13109144D01*
X15395144Y-13179856D01*
X15465856Y-13179856D01*
X15465856Y-13433856D02*
X15465856Y-13363144D01*
X15395144Y-13363144D01*
X15395144Y-13433856D01*
X15465856Y-13433856D01*
X15466856Y-12417856D02*
X15466856Y-12347144D01*
X15396144Y-12347144D01*
X15396144Y-12417856D01*
X15466856Y-12417856D01*
X15466856Y-12671856D02*
X15466856Y-12601144D01*
X15396144Y-12601144D01*
X15396144Y-12671856D01*
X15466856Y-12671856D01*
X15719856Y-8163356D02*
X15719856Y-8092644D01*
X15649144Y-8092644D01*
X15649144Y-8163356D01*
X15719856Y-8163356D01*
X15719856Y-8861856D02*
X15719856Y-8791144D01*
X15649144Y-8791144D01*
X15649144Y-8861856D01*
X15719856Y-8861856D01*
X15719856Y-9115856D02*
X15719856Y-9045144D01*
X15649144Y-9045144D01*
X15649144Y-9115856D01*
X15719856Y-9115856D01*
X15719856Y-9369856D02*
X15719856Y-9299144D01*
X15649144Y-9299144D01*
X15649144Y-9369856D01*
X15719856Y-9369856D01*
X15719856Y-9623856D02*
X15719856Y-9553144D01*
X15649144Y-9553144D01*
X15649144Y-9623856D01*
X15719856Y-9623856D01*
X15719856Y-9877856D02*
X15719856Y-9807144D01*
X15649144Y-9807144D01*
X15649144Y-9877856D01*
X15719856Y-9877856D01*
X15719856Y-10131856D02*
X15719856Y-10061144D01*
X15649144Y-10061144D01*
X15649144Y-10131856D01*
X15719856Y-10131856D01*
X15719856Y-10385856D02*
X15719856Y-10315144D01*
X15649144Y-10315144D01*
X15649144Y-10385856D01*
X15719856Y-10385856D01*
X15719856Y-10639856D02*
X15719856Y-10569144D01*
X15649144Y-10569144D01*
X15649144Y-10639856D01*
X15719856Y-10639856D01*
X15719856Y-10893856D02*
X15719856Y-10823144D01*
X15649144Y-10823144D01*
X15649144Y-10893856D01*
X15719856Y-10893856D01*
X15719856Y-11147856D02*
X15719856Y-11077144D01*
X15649144Y-11077144D01*
X15649144Y-11147856D01*
X15719856Y-11147856D01*
X15719856Y-11401856D02*
X15719856Y-11331144D01*
X15649144Y-11331144D01*
X15649144Y-11401856D01*
X15719856Y-11401856D01*
X15719856Y-11655856D02*
X15719856Y-11585144D01*
X15649144Y-11585144D01*
X15649144Y-11655856D01*
X15719856Y-11655856D01*
X15719856Y-11909856D02*
X15719856Y-11839144D01*
X15649144Y-11839144D01*
X15649144Y-11909856D01*
X15719856Y-11909856D01*
X15719856Y-12163856D02*
X15719856Y-12093144D01*
X15649144Y-12093144D01*
X15649144Y-12163856D01*
X15719856Y-12163856D01*
X15719856Y-12925856D02*
X15719856Y-12855144D01*
X15649144Y-12855144D01*
X15649144Y-12925856D01*
X15719856Y-12925856D01*
X15719856Y-13179856D02*
X15719856Y-13109144D01*
X15649144Y-13109144D01*
X15649144Y-13179856D01*
X15719856Y-13179856D01*
X15719856Y-13433856D02*
X15719856Y-13363144D01*
X15649144Y-13363144D01*
X15649144Y-13433856D01*
X15719856Y-13433856D01*
X15720856Y-12417856D02*
X15720856Y-12347144D01*
X15650144Y-12347144D01*
X15650144Y-12417856D01*
X15720856Y-12417856D01*
X15720856Y-12671856D02*
X15720856Y-12601144D01*
X15650144Y-12601144D01*
X15650144Y-12671856D01*
X15720856Y-12671856D01*
X15973856Y-8163356D02*
X15973856Y-8092644D01*
X15903144Y-8092644D01*
X15903144Y-8163356D01*
X15973856Y-8163356D01*
X15973856Y-8861856D02*
X15973856Y-8791144D01*
X15903144Y-8791144D01*
X15903144Y-8861856D01*
X15973856Y-8861856D01*
X15973856Y-9115856D02*
X15973856Y-9045144D01*
X15903144Y-9045144D01*
X15903144Y-9115856D01*
X15973856Y-9115856D01*
X15973856Y-9369856D02*
X15973856Y-9299144D01*
X15903144Y-9299144D01*
X15903144Y-9369856D01*
X15973856Y-9369856D01*
X15973856Y-9623856D02*
X15973856Y-9553144D01*
X15903144Y-9553144D01*
X15903144Y-9623856D01*
X15973856Y-9623856D01*
X15973856Y-9877856D02*
X15973856Y-9807144D01*
X15903144Y-9807144D01*
X15903144Y-9877856D01*
X15973856Y-9877856D01*
X15973856Y-10131856D02*
X15973856Y-10061144D01*
X15903144Y-10061144D01*
X15903144Y-10131856D01*
X15973856Y-10131856D01*
X15973856Y-10385856D02*
X15973856Y-10315144D01*
X15903144Y-10315144D01*
X15903144Y-10385856D01*
X15973856Y-10385856D01*
X15973856Y-10639856D02*
X15973856Y-10569144D01*
X15903144Y-10569144D01*
X15903144Y-10639856D01*
X15973856Y-10639856D01*
X15973856Y-10893856D02*
X15973856Y-10823144D01*
X15903144Y-10823144D01*
X15903144Y-10893856D01*
X15973856Y-10893856D01*
X15973856Y-11147856D02*
X15973856Y-11077144D01*
X15903144Y-11077144D01*
X15903144Y-11147856D01*
X15973856Y-11147856D01*
X15973856Y-11401856D02*
X15973856Y-11331144D01*
X15903144Y-11331144D01*
X15903144Y-11401856D01*
X15973856Y-11401856D01*
X15973856Y-11655856D02*
X15973856Y-11585144D01*
X15903144Y-11585144D01*
X15903144Y-11655856D01*
X15973856Y-11655856D01*
X15973856Y-11909856D02*
X15973856Y-11839144D01*
X15903144Y-11839144D01*
X15903144Y-11909856D01*
X15973856Y-11909856D01*
X15973856Y-12163856D02*
X15973856Y-12093144D01*
X15903144Y-12093144D01*
X15903144Y-12163856D01*
X15973856Y-12163856D01*
X15973856Y-12925856D02*
X15973856Y-12855144D01*
X15903144Y-12855144D01*
X15903144Y-12925856D01*
X15973856Y-12925856D01*
X15973856Y-13179856D02*
X15973856Y-13109144D01*
X15903144Y-13109144D01*
X15903144Y-13179856D01*
X15973856Y-13179856D01*
X15973856Y-13433856D02*
X15973856Y-13363144D01*
X15903144Y-13363144D01*
X15903144Y-13433856D01*
X15973856Y-13433856D01*
X15974856Y-12417856D02*
X15974856Y-12347144D01*
X15904144Y-12347144D01*
X15904144Y-12417856D01*
X15974856Y-12417856D01*
X15974856Y-12671856D02*
X15974856Y-12601144D01*
X15904144Y-12601144D01*
X15904144Y-12671856D01*
X15974856Y-12671856D01*
X16227856Y-8163356D02*
X16227856Y-8092644D01*
X16157144Y-8092644D01*
X16157144Y-8163356D01*
X16227856Y-8163356D01*
X16227856Y-8861856D02*
X16227856Y-8791144D01*
X16157144Y-8791144D01*
X16157144Y-8861856D01*
X16227856Y-8861856D01*
X16227856Y-9115856D02*
X16227856Y-9045144D01*
X16157144Y-9045144D01*
X16157144Y-9115856D01*
X16227856Y-9115856D01*
X16227856Y-9369856D02*
X16227856Y-9299144D01*
X16157144Y-9299144D01*
X16157144Y-9369856D01*
X16227856Y-9369856D01*
X16227856Y-9623856D02*
X16227856Y-9553144D01*
X16157144Y-9553144D01*
X16157144Y-9623856D01*
X16227856Y-9623856D01*
X16227856Y-9877856D02*
X16227856Y-9807144D01*
X16157144Y-9807144D01*
X16157144Y-9877856D01*
X16227856Y-9877856D01*
X16227856Y-10131856D02*
X16227856Y-10061144D01*
X16157144Y-10061144D01*
X16157144Y-10131856D01*
X16227856Y-10131856D01*
X16227856Y-10385856D02*
X16227856Y-10315144D01*
X16157144Y-10315144D01*
X16157144Y-10385856D01*
X16227856Y-10385856D01*
X16227856Y-10639856D02*
X16227856Y-10569144D01*
X16157144Y-10569144D01*
X16157144Y-10639856D01*
X16227856Y-10639856D01*
X16227856Y-10893856D02*
X16227856Y-10823144D01*
X16157144Y-10823144D01*
X16157144Y-10893856D01*
X16227856Y-10893856D01*
X16227856Y-11147856D02*
X16227856Y-11077144D01*
X16157144Y-11077144D01*
X16157144Y-11147856D01*
X16227856Y-11147856D01*
X16227856Y-11401856D02*
X16227856Y-11331144D01*
X16157144Y-11331144D01*
X16157144Y-11401856D01*
X16227856Y-11401856D01*
X16227856Y-11655856D02*
X16227856Y-11585144D01*
X16157144Y-11585144D01*
X16157144Y-11655856D01*
X16227856Y-11655856D01*
X16227856Y-11909856D02*
X16227856Y-11839144D01*
X16157144Y-11839144D01*
X16157144Y-11909856D01*
X16227856Y-11909856D01*
X16227856Y-12163856D02*
X16227856Y-12093144D01*
X16157144Y-12093144D01*
X16157144Y-12163856D01*
X16227856Y-12163856D01*
X16227856Y-12925856D02*
X16227856Y-12855144D01*
X16157144Y-12855144D01*
X16157144Y-12925856D01*
X16227856Y-12925856D01*
X16227856Y-13179856D02*
X16227856Y-13109144D01*
X16157144Y-13109144D01*
X16157144Y-13179856D01*
X16227856Y-13179856D01*
X16227856Y-13433856D02*
X16227856Y-13363144D01*
X16157144Y-13363144D01*
X16157144Y-13433856D01*
X16227856Y-13433856D01*
X16228856Y-12417856D02*
X16228856Y-12347144D01*
X16158144Y-12347144D01*
X16158144Y-12417856D01*
X16228856Y-12417856D01*
X16228856Y-12671856D02*
X16228856Y-12601144D01*
X16158144Y-12601144D01*
X16158144Y-12671856D01*
X16228856Y-12671856D01*
X16291356Y-5559856D02*
X16291356Y-5489144D01*
X16220644Y-5489144D01*
X16220644Y-5559856D01*
X16291356Y-5559856D01*
X16481856Y-8163356D02*
X16481856Y-8092644D01*
X16411144Y-8092644D01*
X16411144Y-8163356D01*
X16481856Y-8163356D01*
X16481856Y-8861856D02*
X16481856Y-8791144D01*
X16411144Y-8791144D01*
X16411144Y-8861856D01*
X16481856Y-8861856D01*
X16481856Y-9115856D02*
X16481856Y-9045144D01*
X16411144Y-9045144D01*
X16411144Y-9115856D01*
X16481856Y-9115856D01*
X16481856Y-9369856D02*
X16481856Y-9299144D01*
X16411144Y-9299144D01*
X16411144Y-9369856D01*
X16481856Y-9369856D01*
X16481856Y-9623856D02*
X16481856Y-9553144D01*
X16411144Y-9553144D01*
X16411144Y-9623856D01*
X16481856Y-9623856D01*
X16481856Y-9877856D02*
X16481856Y-9807144D01*
X16411144Y-9807144D01*
X16411144Y-9877856D01*
X16481856Y-9877856D01*
X16481856Y-10131856D02*
X16481856Y-10061144D01*
X16411144Y-10061144D01*
X16411144Y-10131856D01*
X16481856Y-10131856D01*
X16481856Y-10385856D02*
X16481856Y-10315144D01*
X16411144Y-10315144D01*
X16411144Y-10385856D01*
X16481856Y-10385856D01*
X16481856Y-10639856D02*
X16481856Y-10569144D01*
X16411144Y-10569144D01*
X16411144Y-10639856D01*
X16481856Y-10639856D01*
X16481856Y-10893856D02*
X16481856Y-10823144D01*
X16411144Y-10823144D01*
X16411144Y-10893856D01*
X16481856Y-10893856D01*
X16481856Y-11147856D02*
X16481856Y-11077144D01*
X16411144Y-11077144D01*
X16411144Y-11147856D01*
X16481856Y-11147856D01*
X16481856Y-11401856D02*
X16481856Y-11331144D01*
X16411144Y-11331144D01*
X16411144Y-11401856D01*
X16481856Y-11401856D01*
X16481856Y-11655856D02*
X16481856Y-11585144D01*
X16411144Y-11585144D01*
X16411144Y-11655856D01*
X16481856Y-11655856D01*
X16481856Y-11909856D02*
X16481856Y-11839144D01*
X16411144Y-11839144D01*
X16411144Y-11909856D01*
X16481856Y-11909856D01*
X16481856Y-12163856D02*
X16481856Y-12093144D01*
X16411144Y-12093144D01*
X16411144Y-12163856D01*
X16481856Y-12163856D01*
X16481856Y-12925856D02*
X16481856Y-12855144D01*
X16411144Y-12855144D01*
X16411144Y-12925856D01*
X16481856Y-12925856D01*
X16481856Y-13179856D02*
X16481856Y-13109144D01*
X16411144Y-13109144D01*
X16411144Y-13179856D01*
X16481856Y-13179856D01*
X16481856Y-13433856D02*
X16481856Y-13363144D01*
X16411144Y-13363144D01*
X16411144Y-13433856D01*
X16481856Y-13433856D01*
X16482856Y-12417856D02*
X16482856Y-12347144D01*
X16412144Y-12347144D01*
X16412144Y-12417856D01*
X16482856Y-12417856D01*
X16482856Y-12671856D02*
X16482856Y-12601144D01*
X16412144Y-12601144D01*
X16412144Y-12671856D01*
X16482856Y-12671856D01*
X16735856Y-8163356D02*
X16735856Y-8092644D01*
X16665144Y-8092644D01*
X16665144Y-8163356D01*
X16735856Y-8163356D01*
X16735856Y-8861856D02*
X16735856Y-8791144D01*
X16665144Y-8791144D01*
X16665144Y-8861856D01*
X16735856Y-8861856D01*
X16735856Y-9115856D02*
X16735856Y-9045144D01*
X16665144Y-9045144D01*
X16665144Y-9115856D01*
X16735856Y-9115856D01*
X16735856Y-9369856D02*
X16735856Y-9299144D01*
X16665144Y-9299144D01*
X16665144Y-9369856D01*
X16735856Y-9369856D01*
X16735856Y-9623856D02*
X16735856Y-9553144D01*
X16665144Y-9553144D01*
X16665144Y-9623856D01*
X16735856Y-9623856D01*
X16735856Y-9877856D02*
X16735856Y-9807144D01*
X16665144Y-9807144D01*
X16665144Y-9877856D01*
X16735856Y-9877856D01*
X16735856Y-10131856D02*
X16735856Y-10061144D01*
X16665144Y-10061144D01*
X16665144Y-10131856D01*
X16735856Y-10131856D01*
X16735856Y-10385856D02*
X16735856Y-10315144D01*
X16665144Y-10315144D01*
X16665144Y-10385856D01*
X16735856Y-10385856D01*
X16735856Y-10639856D02*
X16735856Y-10569144D01*
X16665144Y-10569144D01*
X16665144Y-10639856D01*
X16735856Y-10639856D01*
X16735856Y-10893856D02*
X16735856Y-10823144D01*
X16665144Y-10823144D01*
X16665144Y-10893856D01*
X16735856Y-10893856D01*
X16735856Y-11147856D02*
X16735856Y-11077144D01*
X16665144Y-11077144D01*
X16665144Y-11147856D01*
X16735856Y-11147856D01*
X16735856Y-11401856D02*
X16735856Y-11331144D01*
X16665144Y-11331144D01*
X16665144Y-11401856D01*
X16735856Y-11401856D01*
X16735856Y-11655856D02*
X16735856Y-11585144D01*
X16665144Y-11585144D01*
X16665144Y-11655856D01*
X16735856Y-11655856D01*
X16735856Y-11909856D02*
X16735856Y-11839144D01*
X16665144Y-11839144D01*
X16665144Y-11909856D01*
X16735856Y-11909856D01*
X16735856Y-12163856D02*
X16735856Y-12093144D01*
X16665144Y-12093144D01*
X16665144Y-12163856D01*
X16735856Y-12163856D01*
X16735856Y-12925856D02*
X16735856Y-12855144D01*
X16665144Y-12855144D01*
X16665144Y-12925856D01*
X16735856Y-12925856D01*
X16735856Y-13179856D02*
X16735856Y-13109144D01*
X16665144Y-13109144D01*
X16665144Y-13179856D01*
X16735856Y-13179856D01*
X16735856Y-13433856D02*
X16735856Y-13363144D01*
X16665144Y-13363144D01*
X16665144Y-13433856D01*
X16735856Y-13433856D01*
X16736856Y-12417856D02*
X16736856Y-12347144D01*
X16666144Y-12347144D01*
X16666144Y-12417856D01*
X16736856Y-12417856D01*
X16736856Y-12671856D02*
X16736856Y-12601144D01*
X16666144Y-12601144D01*
X16666144Y-12671856D01*
X16736856Y-12671856D01*
X16989856Y-8163356D02*
X16989856Y-8092644D01*
X16919144Y-8092644D01*
X16919144Y-8163356D01*
X16989856Y-8163356D01*
X16989856Y-8861856D02*
X16989856Y-8791144D01*
X16919144Y-8791144D01*
X16919144Y-8861856D01*
X16989856Y-8861856D01*
X16989856Y-9115856D02*
X16989856Y-9045144D01*
X16919144Y-9045144D01*
X16919144Y-9115856D01*
X16989856Y-9115856D01*
X16989856Y-9369856D02*
X16989856Y-9299144D01*
X16919144Y-9299144D01*
X16919144Y-9369856D01*
X16989856Y-9369856D01*
X16989856Y-9623856D02*
X16989856Y-9553144D01*
X16919144Y-9553144D01*
X16919144Y-9623856D01*
X16989856Y-9623856D01*
X16989856Y-9877856D02*
X16989856Y-9807144D01*
X16919144Y-9807144D01*
X16919144Y-9877856D01*
X16989856Y-9877856D01*
X16989856Y-10131856D02*
X16989856Y-10061144D01*
X16919144Y-10061144D01*
X16919144Y-10131856D01*
X16989856Y-10131856D01*
X16989856Y-10385856D02*
X16989856Y-10315144D01*
X16919144Y-10315144D01*
X16919144Y-10385856D01*
X16989856Y-10385856D01*
X16989856Y-10639856D02*
X16989856Y-10569144D01*
X16919144Y-10569144D01*
X16919144Y-10639856D01*
X16989856Y-10639856D01*
X16989856Y-10893856D02*
X16989856Y-10823144D01*
X16919144Y-10823144D01*
X16919144Y-10893856D01*
X16989856Y-10893856D01*
X16989856Y-11147856D02*
X16989856Y-11077144D01*
X16919144Y-11077144D01*
X16919144Y-11147856D01*
X16989856Y-11147856D01*
X16989856Y-11401856D02*
X16989856Y-11331144D01*
X16919144Y-11331144D01*
X16919144Y-11401856D01*
X16989856Y-11401856D01*
X16989856Y-11655856D02*
X16989856Y-11585144D01*
X16919144Y-11585144D01*
X16919144Y-11655856D01*
X16989856Y-11655856D01*
X16989856Y-11909856D02*
X16989856Y-11839144D01*
X16919144Y-11839144D01*
X16919144Y-11909856D01*
X16989856Y-11909856D01*
X16989856Y-12163856D02*
X16989856Y-12093144D01*
X16919144Y-12093144D01*
X16919144Y-12163856D01*
X16989856Y-12163856D01*
X16989856Y-12925856D02*
X16989856Y-12855144D01*
X16919144Y-12855144D01*
X16919144Y-12925856D01*
X16989856Y-12925856D01*
X16989856Y-13179856D02*
X16989856Y-13109144D01*
X16919144Y-13109144D01*
X16919144Y-13179856D01*
X16989856Y-13179856D01*
X16989856Y-13433856D02*
X16989856Y-13363144D01*
X16919144Y-13363144D01*
X16919144Y-13433856D01*
X16989856Y-13433856D01*
X16990856Y-12417856D02*
X16990856Y-12347144D01*
X16920144Y-12347144D01*
X16920144Y-12417856D01*
X16990856Y-12417856D01*
X16990856Y-12671856D02*
X16990856Y-12601144D01*
X16920144Y-12601144D01*
X16920144Y-12671856D01*
X16990856Y-12671856D01*
X17243856Y-8163356D02*
X17243856Y-8092644D01*
X17173144Y-8092644D01*
X17173144Y-8163356D01*
X17243856Y-8163356D01*
X17243856Y-8861856D02*
X17243856Y-8791144D01*
X17173144Y-8791144D01*
X17173144Y-8861856D01*
X17243856Y-8861856D01*
X17243856Y-9115856D02*
X17243856Y-9045144D01*
X17173144Y-9045144D01*
X17173144Y-9115856D01*
X17243856Y-9115856D01*
X17243856Y-9369856D02*
X17243856Y-9299144D01*
X17173144Y-9299144D01*
X17173144Y-9369856D01*
X17243856Y-9369856D01*
X17243856Y-9623856D02*
X17243856Y-9553144D01*
X17173144Y-9553144D01*
X17173144Y-9623856D01*
X17243856Y-9623856D01*
X17243856Y-9877856D02*
X17243856Y-9807144D01*
X17173144Y-9807144D01*
X17173144Y-9877856D01*
X17243856Y-9877856D01*
X17243856Y-10131856D02*
X17243856Y-10061144D01*
X17173144Y-10061144D01*
X17173144Y-10131856D01*
X17243856Y-10131856D01*
X17243856Y-10385856D02*
X17243856Y-10315144D01*
X17173144Y-10315144D01*
X17173144Y-10385856D01*
X17243856Y-10385856D01*
X17243856Y-10639856D02*
X17243856Y-10569144D01*
X17173144Y-10569144D01*
X17173144Y-10639856D01*
X17243856Y-10639856D01*
X17243856Y-10893856D02*
X17243856Y-10823144D01*
X17173144Y-10823144D01*
X17173144Y-10893856D01*
X17243856Y-10893856D01*
X17243856Y-11147856D02*
X17243856Y-11077144D01*
X17173144Y-11077144D01*
X17173144Y-11147856D01*
X17243856Y-11147856D01*
X17243856Y-11401856D02*
X17243856Y-11331144D01*
X17173144Y-11331144D01*
X17173144Y-11401856D01*
X17243856Y-11401856D01*
X17243856Y-11655856D02*
X17243856Y-11585144D01*
X17173144Y-11585144D01*
X17173144Y-11655856D01*
X17243856Y-11655856D01*
X17243856Y-11909856D02*
X17243856Y-11839144D01*
X17173144Y-11839144D01*
X17173144Y-11909856D01*
X17243856Y-11909856D01*
X17243856Y-12163856D02*
X17243856Y-12093144D01*
X17173144Y-12093144D01*
X17173144Y-12163856D01*
X17243856Y-12163856D01*
X17243856Y-12925856D02*
X17243856Y-12855144D01*
X17173144Y-12855144D01*
X17173144Y-12925856D01*
X17243856Y-12925856D01*
X17243856Y-13179856D02*
X17243856Y-13109144D01*
X17173144Y-13109144D01*
X17173144Y-13179856D01*
X17243856Y-13179856D01*
X17243856Y-13433856D02*
X17243856Y-13363144D01*
X17173144Y-13363144D01*
X17173144Y-13433856D01*
X17243856Y-13433856D01*
X17244856Y-12417856D02*
X17244856Y-12347144D01*
X17174144Y-12347144D01*
X17174144Y-12417856D01*
X17244856Y-12417856D01*
X17244856Y-12671856D02*
X17244856Y-12601144D01*
X17174144Y-12601144D01*
X17174144Y-12671856D01*
X17244856Y-12671856D01*
X17497856Y-8163356D02*
X17497856Y-8092644D01*
X17427144Y-8092644D01*
X17427144Y-8163356D01*
X17497856Y-8163356D01*
X17497856Y-8861856D02*
X17497856Y-8791144D01*
X17427144Y-8791144D01*
X17427144Y-8861856D01*
X17497856Y-8861856D01*
X17497856Y-9115856D02*
X17497856Y-9045144D01*
X17427144Y-9045144D01*
X17427144Y-9115856D01*
X17497856Y-9115856D01*
X17497856Y-9369856D02*
X17497856Y-9299144D01*
X17427144Y-9299144D01*
X17427144Y-9369856D01*
X17497856Y-9369856D01*
X17497856Y-9623856D02*
X17497856Y-9553144D01*
X17427144Y-9553144D01*
X17427144Y-9623856D01*
X17497856Y-9623856D01*
X17497856Y-9877856D02*
X17497856Y-9807144D01*
X17427144Y-9807144D01*
X17427144Y-9877856D01*
X17497856Y-9877856D01*
X17497856Y-10131856D02*
X17497856Y-10061144D01*
X17427144Y-10061144D01*
X17427144Y-10131856D01*
X17497856Y-10131856D01*
X17497856Y-10385856D02*
X17497856Y-10315144D01*
X17427144Y-10315144D01*
X17427144Y-10385856D01*
X17497856Y-10385856D01*
X17497856Y-10639856D02*
X17497856Y-10569144D01*
X17427144Y-10569144D01*
X17427144Y-10639856D01*
X17497856Y-10639856D01*
X17497856Y-10893856D02*
X17497856Y-10823144D01*
X17427144Y-10823144D01*
X17427144Y-10893856D01*
X17497856Y-10893856D01*
X17497856Y-11147856D02*
X17497856Y-11077144D01*
X17427144Y-11077144D01*
X17427144Y-11147856D01*
X17497856Y-11147856D01*
X17497856Y-11401856D02*
X17497856Y-11331144D01*
X17427144Y-11331144D01*
X17427144Y-11401856D01*
X17497856Y-11401856D01*
X17497856Y-11655856D02*
X17497856Y-11585144D01*
X17427144Y-11585144D01*
X17427144Y-11655856D01*
X17497856Y-11655856D01*
X17497856Y-11909856D02*
X17497856Y-11839144D01*
X17427144Y-11839144D01*
X17427144Y-11909856D01*
X17497856Y-11909856D01*
X17497856Y-12163856D02*
X17497856Y-12093144D01*
X17427144Y-12093144D01*
X17427144Y-12163856D01*
X17497856Y-12163856D01*
X17497856Y-12925856D02*
X17497856Y-12855144D01*
X17427144Y-12855144D01*
X17427144Y-12925856D01*
X17497856Y-12925856D01*
X17497856Y-13179856D02*
X17497856Y-13109144D01*
X17427144Y-13109144D01*
X17427144Y-13179856D01*
X17497856Y-13179856D01*
X17497856Y-13433856D02*
X17497856Y-13363144D01*
X17427144Y-13363144D01*
X17427144Y-13433856D01*
X17497856Y-13433856D01*
X17498856Y-12417856D02*
X17498856Y-12347144D01*
X17428144Y-12347144D01*
X17428144Y-12417856D01*
X17498856Y-12417856D01*
X17498856Y-12671856D02*
X17498856Y-12601144D01*
X17428144Y-12601144D01*
X17428144Y-12671856D01*
X17498856Y-12671856D01*
X17561356Y-5559856D02*
X17561356Y-5489144D01*
X17490644Y-5489144D01*
X17490644Y-5559856D01*
X17561356Y-5559856D01*
X17751856Y-8163356D02*
X17751856Y-8092644D01*
X17681144Y-8092644D01*
X17681144Y-8163356D01*
X17751856Y-8163356D01*
X17751856Y-8861856D02*
X17751856Y-8791144D01*
X17681144Y-8791144D01*
X17681144Y-8861856D01*
X17751856Y-8861856D01*
X17751856Y-9115856D02*
X17751856Y-9045144D01*
X17681144Y-9045144D01*
X17681144Y-9115856D01*
X17751856Y-9115856D01*
X17751856Y-9369856D02*
X17751856Y-9299144D01*
X17681144Y-9299144D01*
X17681144Y-9369856D01*
X17751856Y-9369856D01*
X17751856Y-9623856D02*
X17751856Y-9553144D01*
X17681144Y-9553144D01*
X17681144Y-9623856D01*
X17751856Y-9623856D01*
X17751856Y-9877856D02*
X17751856Y-9807144D01*
X17681144Y-9807144D01*
X17681144Y-9877856D01*
X17751856Y-9877856D01*
X17751856Y-10131856D02*
X17751856Y-10061144D01*
X17681144Y-10061144D01*
X17681144Y-10131856D01*
X17751856Y-10131856D01*
X17751856Y-10385856D02*
X17751856Y-10315144D01*
X17681144Y-10315144D01*
X17681144Y-10385856D01*
X17751856Y-10385856D01*
X17751856Y-10639856D02*
X17751856Y-10569144D01*
X17681144Y-10569144D01*
X17681144Y-10639856D01*
X17751856Y-10639856D01*
X17751856Y-10893856D02*
X17751856Y-10823144D01*
X17681144Y-10823144D01*
X17681144Y-10893856D01*
X17751856Y-10893856D01*
X17751856Y-11147856D02*
X17751856Y-11077144D01*
X17681144Y-11077144D01*
X17681144Y-11147856D01*
X17751856Y-11147856D01*
X17751856Y-11401856D02*
X17751856Y-11331144D01*
X17681144Y-11331144D01*
X17681144Y-11401856D01*
X17751856Y-11401856D01*
X17751856Y-11655856D02*
X17751856Y-11585144D01*
X17681144Y-11585144D01*
X17681144Y-11655856D01*
X17751856Y-11655856D01*
X17751856Y-11909856D02*
X17751856Y-11839144D01*
X17681144Y-11839144D01*
X17681144Y-11909856D01*
X17751856Y-11909856D01*
X17751856Y-12163856D02*
X17751856Y-12093144D01*
X17681144Y-12093144D01*
X17681144Y-12163856D01*
X17751856Y-12163856D01*
X17751856Y-12925856D02*
X17751856Y-12855144D01*
X17681144Y-12855144D01*
X17681144Y-12925856D01*
X17751856Y-12925856D01*
X17751856Y-13179856D02*
X17751856Y-13109144D01*
X17681144Y-13109144D01*
X17681144Y-13179856D01*
X17751856Y-13179856D01*
X17751856Y-13433856D02*
X17751856Y-13363144D01*
X17681144Y-13363144D01*
X17681144Y-13433856D01*
X17751856Y-13433856D01*
X17752856Y-12417856D02*
X17752856Y-12347144D01*
X17682144Y-12347144D01*
X17682144Y-12417856D01*
X17752856Y-12417856D01*
X17752856Y-12671856D02*
X17752856Y-12601144D01*
X17682144Y-12601144D01*
X17682144Y-12671856D01*
X17752856Y-12671856D01*
X18005856Y-8163356D02*
X18005856Y-8092644D01*
X17935144Y-8092644D01*
X17935144Y-8163356D01*
X18005856Y-8163356D01*
X18005856Y-8861856D02*
X18005856Y-8791144D01*
X17935144Y-8791144D01*
X17935144Y-8861856D01*
X18005856Y-8861856D01*
X18005856Y-9115856D02*
X18005856Y-9045144D01*
X17935144Y-9045144D01*
X17935144Y-9115856D01*
X18005856Y-9115856D01*
X18005856Y-9369856D02*
X18005856Y-9299144D01*
X17935144Y-9299144D01*
X17935144Y-9369856D01*
X18005856Y-9369856D01*
X18005856Y-9623856D02*
X18005856Y-9553144D01*
X17935144Y-9553144D01*
X17935144Y-9623856D01*
X18005856Y-9623856D01*
X18005856Y-9877856D02*
X18005856Y-9807144D01*
X17935144Y-9807144D01*
X17935144Y-9877856D01*
X18005856Y-9877856D01*
X18005856Y-10131856D02*
X18005856Y-10061144D01*
X17935144Y-10061144D01*
X17935144Y-10131856D01*
X18005856Y-10131856D01*
X18005856Y-10385856D02*
X18005856Y-10315144D01*
X17935144Y-10315144D01*
X17935144Y-10385856D01*
X18005856Y-10385856D01*
X18005856Y-10639856D02*
X18005856Y-10569144D01*
X17935144Y-10569144D01*
X17935144Y-10639856D01*
X18005856Y-10639856D01*
X18005856Y-10893856D02*
X18005856Y-10823144D01*
X17935144Y-10823144D01*
X17935144Y-10893856D01*
X18005856Y-10893856D01*
X18005856Y-11147856D02*
X18005856Y-11077144D01*
X17935144Y-11077144D01*
X17935144Y-11147856D01*
X18005856Y-11147856D01*
X18005856Y-11401856D02*
X18005856Y-11331144D01*
X17935144Y-11331144D01*
X17935144Y-11401856D01*
X18005856Y-11401856D01*
X18005856Y-11655856D02*
X18005856Y-11585144D01*
X17935144Y-11585144D01*
X17935144Y-11655856D01*
X18005856Y-11655856D01*
X18005856Y-11909856D02*
X18005856Y-11839144D01*
X17935144Y-11839144D01*
X17935144Y-11909856D01*
X18005856Y-11909856D01*
X18005856Y-12163856D02*
X18005856Y-12093144D01*
X17935144Y-12093144D01*
X17935144Y-12163856D01*
X18005856Y-12163856D01*
X18005856Y-12925856D02*
X18005856Y-12855144D01*
X17935144Y-12855144D01*
X17935144Y-12925856D01*
X18005856Y-12925856D01*
X18005856Y-13179856D02*
X18005856Y-13109144D01*
X17935144Y-13109144D01*
X17935144Y-13179856D01*
X18005856Y-13179856D01*
X18005856Y-13433856D02*
X18005856Y-13363144D01*
X17935144Y-13363144D01*
X17935144Y-13433856D01*
X18005856Y-13433856D01*
X18006856Y-12417856D02*
X18006856Y-12347144D01*
X17936144Y-12347144D01*
X17936144Y-12417856D01*
X18006856Y-12417856D01*
X18006856Y-12671856D02*
X18006856Y-12601144D01*
X17936144Y-12601144D01*
X17936144Y-12671856D01*
X18006856Y-12671856D01*
X18196356Y-6512356D02*
X18196356Y-6441644D01*
X18125644Y-6441644D01*
X18125644Y-6512356D01*
X18196356Y-6512356D01*
X18196356Y-6766356D02*
X18196356Y-6695644D01*
X18125644Y-6695644D01*
X18125644Y-6766356D01*
X18196356Y-6766356D01*
X18196356Y-7020356D02*
X18196356Y-6949644D01*
X18125644Y-6949644D01*
X18125644Y-7020356D01*
X18196356Y-7020356D01*
X18259856Y-8163356D02*
X18259856Y-8092644D01*
X18189144Y-8092644D01*
X18189144Y-8163356D01*
X18259856Y-8163356D01*
X18259856Y-8861856D02*
X18259856Y-8791144D01*
X18189144Y-8791144D01*
X18189144Y-8861856D01*
X18259856Y-8861856D01*
X18259856Y-9115856D02*
X18259856Y-9045144D01*
X18189144Y-9045144D01*
X18189144Y-9115856D01*
X18259856Y-9115856D01*
X18259856Y-9369856D02*
X18259856Y-9299144D01*
X18189144Y-9299144D01*
X18189144Y-9369856D01*
X18259856Y-9369856D01*
X18259856Y-9623856D02*
X18259856Y-9553144D01*
X18189144Y-9553144D01*
X18189144Y-9623856D01*
X18259856Y-9623856D01*
X18259856Y-9877856D02*
X18259856Y-9807144D01*
X18189144Y-9807144D01*
X18189144Y-9877856D01*
X18259856Y-9877856D01*
X18259856Y-10131856D02*
X18259856Y-10061144D01*
X18189144Y-10061144D01*
X18189144Y-10131856D01*
X18259856Y-10131856D01*
X18259856Y-10385856D02*
X18259856Y-10315144D01*
X18189144Y-10315144D01*
X18189144Y-10385856D01*
X18259856Y-10385856D01*
X18259856Y-10639856D02*
X18259856Y-10569144D01*
X18189144Y-10569144D01*
X18189144Y-10639856D01*
X18259856Y-10639856D01*
X18259856Y-10893856D02*
X18259856Y-10823144D01*
X18189144Y-10823144D01*
X18189144Y-10893856D01*
X18259856Y-10893856D01*
X18259856Y-11147856D02*
X18259856Y-11077144D01*
X18189144Y-11077144D01*
X18189144Y-11147856D01*
X18259856Y-11147856D01*
X18259856Y-11401856D02*
X18259856Y-11331144D01*
X18189144Y-11331144D01*
X18189144Y-11401856D01*
X18259856Y-11401856D01*
X18259856Y-11655856D02*
X18259856Y-11585144D01*
X18189144Y-11585144D01*
X18189144Y-11655856D01*
X18259856Y-11655856D01*
X18259856Y-11909856D02*
X18259856Y-11839144D01*
X18189144Y-11839144D01*
X18189144Y-11909856D01*
X18259856Y-11909856D01*
X18259856Y-12163856D02*
X18259856Y-12093144D01*
X18189144Y-12093144D01*
X18189144Y-12163856D01*
X18259856Y-12163856D01*
X18259856Y-12925856D02*
X18259856Y-12855144D01*
X18189144Y-12855144D01*
X18189144Y-12925856D01*
X18259856Y-12925856D01*
X18259856Y-13179856D02*
X18259856Y-13109144D01*
X18189144Y-13109144D01*
X18189144Y-13179856D01*
X18259856Y-13179856D01*
X18259856Y-13433856D02*
X18259856Y-13363144D01*
X18189144Y-13363144D01*
X18189144Y-13433856D01*
X18259856Y-13433856D01*
X18260856Y-12417856D02*
X18260856Y-12347144D01*
X18190144Y-12347144D01*
X18190144Y-12417856D01*
X18260856Y-12417856D01*
X18260856Y-12671856D02*
X18260856Y-12601144D01*
X18190144Y-12601144D01*
X18190144Y-12671856D01*
X18260856Y-12671856D01*
X18450356Y-6512356D02*
X18450356Y-6441644D01*
X18379644Y-6441644D01*
X18379644Y-6512356D01*
X18450356Y-6512356D01*
X18450356Y-6766356D02*
X18450356Y-6695644D01*
X18379644Y-6695644D01*
X18379644Y-6766356D01*
X18450356Y-6766356D01*
X18450356Y-7020356D02*
X18450356Y-6949644D01*
X18379644Y-6949644D01*
X18379644Y-7020356D01*
X18450356Y-7020356D01*
X18513856Y-8163356D02*
X18513856Y-8092644D01*
X18443144Y-8092644D01*
X18443144Y-8163356D01*
X18513856Y-8163356D01*
X18513856Y-8861856D02*
X18513856Y-8791144D01*
X18443144Y-8791144D01*
X18443144Y-8861856D01*
X18513856Y-8861856D01*
X18513856Y-9115856D02*
X18513856Y-9045144D01*
X18443144Y-9045144D01*
X18443144Y-9115856D01*
X18513856Y-9115856D01*
X18513856Y-9369856D02*
X18513856Y-9299144D01*
X18443144Y-9299144D01*
X18443144Y-9369856D01*
X18513856Y-9369856D01*
X18513856Y-9623856D02*
X18513856Y-9553144D01*
X18443144Y-9553144D01*
X18443144Y-9623856D01*
X18513856Y-9623856D01*
X18513856Y-9877856D02*
X18513856Y-9807144D01*
X18443144Y-9807144D01*
X18443144Y-9877856D01*
X18513856Y-9877856D01*
X18513856Y-10131856D02*
X18513856Y-10061144D01*
X18443144Y-10061144D01*
X18443144Y-10131856D01*
X18513856Y-10131856D01*
X18513856Y-10385856D02*
X18513856Y-10315144D01*
X18443144Y-10315144D01*
X18443144Y-10385856D01*
X18513856Y-10385856D01*
X18513856Y-10639856D02*
X18513856Y-10569144D01*
X18443144Y-10569144D01*
X18443144Y-10639856D01*
X18513856Y-10639856D01*
X18513856Y-10893856D02*
X18513856Y-10823144D01*
X18443144Y-10823144D01*
X18443144Y-10893856D01*
X18513856Y-10893856D01*
X18513856Y-11147856D02*
X18513856Y-11077144D01*
X18443144Y-11077144D01*
X18443144Y-11147856D01*
X18513856Y-11147856D01*
X18513856Y-11401856D02*
X18513856Y-11331144D01*
X18443144Y-11331144D01*
X18443144Y-11401856D01*
X18513856Y-11401856D01*
X18513856Y-11655856D02*
X18513856Y-11585144D01*
X18443144Y-11585144D01*
X18443144Y-11655856D01*
X18513856Y-11655856D01*
X18513856Y-11909856D02*
X18513856Y-11839144D01*
X18443144Y-11839144D01*
X18443144Y-11909856D01*
X18513856Y-11909856D01*
X18513856Y-12163856D02*
X18513856Y-12093144D01*
X18443144Y-12093144D01*
X18443144Y-12163856D01*
X18513856Y-12163856D01*
X18513856Y-12925856D02*
X18513856Y-12855144D01*
X18443144Y-12855144D01*
X18443144Y-12925856D01*
X18513856Y-12925856D01*
X18513856Y-13179856D02*
X18513856Y-13109144D01*
X18443144Y-13109144D01*
X18443144Y-13179856D01*
X18513856Y-13179856D01*
X18513856Y-13433856D02*
X18513856Y-13363144D01*
X18443144Y-13363144D01*
X18443144Y-13433856D01*
X18513856Y-13433856D01*
X18514856Y-12417856D02*
X18514856Y-12347144D01*
X18444144Y-12347144D01*
X18444144Y-12417856D01*
X18514856Y-12417856D01*
X18514856Y-12671856D02*
X18514856Y-12601144D01*
X18444144Y-12601144D01*
X18444144Y-12671856D01*
X18514856Y-12671856D01*
X10541000Y-5135000D02*
X10596000Y-5080000D01*
X10541000Y-5025000D01*
X10486000Y-5080000D01*
X10541000Y-5135000D01*
X10795000Y-5135000D02*
X10850000Y-5080000D01*
X10795000Y-5025000D01*
X10740000Y-5080000D01*
X10795000Y-5135000D01*
X11049000Y-5135000D02*
X11104000Y-5080000D01*
X11049000Y-5025000D01*
X10994000Y-5080000D01*
X11049000Y-5135000D01*
X9459000Y-6728500D02*
X9591000Y-6860500D01*
X9591000Y-6728500D02*
X9459000Y-6860500D01*
X9591000Y-6794500D02*
G75*
G03*
X9591000Y-6794500I-66000J0D01*
G01*
X9459000Y-7228500D02*
X9591000Y-7360500D01*
X9591000Y-7228500D02*
X9459000Y-7360500D01*
X9591000Y-7294500D02*
G75*
G03*
X9591000Y-7294500I-66000J0D01*
G01*
X9096000Y-4968500D02*
X9446000Y-5318500D01*
X9446000Y-4968500D02*
X9096000Y-5318500D01*
X9271000Y-4968500D02*
X9271000Y-5318500D01*
X9096000Y-5143500D02*
X9446000Y-5143500D01*
X9096000Y-13858500D02*
X9446000Y-14208500D01*
X9446000Y-13858500D02*
X9096000Y-14208500D01*
X9271000Y-13858500D02*
X9271000Y-14208500D01*
X9096000Y-14033500D02*
X9446000Y-14033500D01*
X17986000Y-4968500D02*
X18336000Y-5318500D01*
X18336000Y-4968500D02*
X17986000Y-5318500D01*
X18161000Y-4968500D02*
X18161000Y-5318500D01*
X17986000Y-5143500D02*
X18336000Y-5143500D01*
X18049500Y-13858500D02*
X18399500Y-14208500D01*
X18399500Y-13858500D02*
X18049500Y-14208500D01*
X18224500Y-13858500D02*
X18224500Y-14208500D01*
X18049500Y-14033500D02*
X18399500Y-14033500D01*
D12*
X9044428Y-15012214D02*
X9044428Y-14712214D01*
X9115857Y-14712214D01*
X9158714Y-14726500D01*
X9187286Y-14755071D01*
X9201571Y-14783643D01*
X9215857Y-14840786D01*
X9215857Y-14883643D01*
X9201571Y-14940786D01*
X9187286Y-14969357D01*
X9158714Y-14997929D01*
X9115857Y-15012214D01*
X9044428Y-15012214D01*
X9344428Y-15012214D02*
X9344428Y-14812214D01*
X9344428Y-14869357D02*
X9358714Y-14840786D01*
X9373000Y-14826500D01*
X9401571Y-14812214D01*
X9430143Y-14812214D01*
X9530143Y-15012214D02*
X9530143Y-14812214D01*
X9530143Y-14712214D02*
X9515857Y-14726500D01*
X9530143Y-14740786D01*
X9544428Y-14726500D01*
X9530143Y-14712214D01*
X9530143Y-14740786D01*
X9715857Y-15012214D02*
X9687286Y-14997929D01*
X9673000Y-14969357D01*
X9673000Y-14712214D01*
X9873000Y-15012214D02*
X9844428Y-14997929D01*
X9830143Y-14969357D01*
X9830143Y-14712214D01*
X10215857Y-15012214D02*
X10215857Y-14712214D01*
X10315857Y-14926500D01*
X10415857Y-14712214D01*
X10415857Y-15012214D01*
X10687286Y-15012214D02*
X10687286Y-14855071D01*
X10673000Y-14826500D01*
X10644428Y-14812214D01*
X10587286Y-14812214D01*
X10558714Y-14826500D01*
X10687286Y-14997929D02*
X10658714Y-15012214D01*
X10587286Y-15012214D01*
X10558714Y-14997929D01*
X10544428Y-14969357D01*
X10544428Y-14940786D01*
X10558714Y-14912214D01*
X10587286Y-14897929D01*
X10658714Y-14897929D01*
X10687286Y-14883643D01*
X10830143Y-14812214D02*
X10830143Y-15112214D01*
X10830143Y-14826500D02*
X10858714Y-14812214D01*
X10915857Y-14812214D01*
X10944428Y-14826500D01*
X10958714Y-14840786D01*
X10973000Y-14869357D01*
X10973000Y-14955071D01*
X10958714Y-14983643D01*
X10944428Y-14997929D01*
X10915857Y-15012214D01*
X10858714Y-15012214D01*
X10830143Y-14997929D01*
X11101571Y-14983643D02*
X11115857Y-14997929D01*
X11101571Y-15012214D01*
X11087286Y-14997929D01*
X11101571Y-14983643D01*
X11101571Y-15012214D01*
X11101571Y-14826500D02*
X11115857Y-14840786D01*
X11101571Y-14855071D01*
X11087286Y-14840786D01*
X11101571Y-14826500D01*
X11101571Y-14855071D01*
X8718000Y-15486500D02*
X8758000Y-15526500D01*
X8758000Y-15486500D02*
X8718000Y-15526500D01*
X9101571Y-15342214D02*
X9130143Y-15342214D01*
X9158714Y-15356500D01*
X9173000Y-15370786D01*
X9187286Y-15399357D01*
X9201571Y-15456500D01*
X9201571Y-15527929D01*
X9187286Y-15585071D01*
X9173000Y-15613643D01*
X9158714Y-15627929D01*
X9130143Y-15642214D01*
X9101571Y-15642214D01*
X9073000Y-15627929D01*
X9058714Y-15613643D01*
X9044428Y-15585071D01*
X9030143Y-15527929D01*
X9030143Y-15456500D01*
X9044428Y-15399357D01*
X9058714Y-15370786D01*
X9073000Y-15356500D01*
X9101571Y-15342214D01*
X9330143Y-15613643D02*
X9344428Y-15627929D01*
X9330143Y-15642214D01*
X9315857Y-15627929D01*
X9330143Y-15613643D01*
X9330143Y-15642214D01*
X9601571Y-15442214D02*
X9601571Y-15642214D01*
X9530143Y-15327929D02*
X9458714Y-15542214D01*
X9644428Y-15542214D01*
X9815857Y-15342214D02*
X9844428Y-15342214D01*
X9873000Y-15356500D01*
X9887286Y-15370786D01*
X9901571Y-15399357D01*
X9915857Y-15456500D01*
X9915857Y-15527929D01*
X9901571Y-15585071D01*
X9887286Y-15613643D01*
X9873000Y-15627929D01*
X9844428Y-15642214D01*
X9815857Y-15642214D01*
X9787286Y-15627929D01*
X9773000Y-15613643D01*
X9758714Y-15585071D01*
X9744428Y-15527929D01*
X9744428Y-15456500D01*
X9758714Y-15399357D01*
X9773000Y-15370786D01*
X9787286Y-15356500D01*
X9815857Y-15342214D01*
X10044428Y-15642214D02*
X10044428Y-15442214D01*
X10044428Y-15470786D02*
X10058714Y-15456500D01*
X10087286Y-15442214D01*
X10130143Y-15442214D01*
X10158714Y-15456500D01*
X10173000Y-15485071D01*
X10173000Y-15642214D01*
X10173000Y-15485071D02*
X10187286Y-15456500D01*
X10215857Y-15442214D01*
X10258714Y-15442214D01*
X10287286Y-15456500D01*
X10301571Y-15485071D01*
X10301571Y-15642214D01*
X10444428Y-15642214D02*
X10444428Y-15442214D01*
X10444428Y-15470786D02*
X10458714Y-15456500D01*
X10487286Y-15442214D01*
X10530143Y-15442214D01*
X10558714Y-15456500D01*
X10573000Y-15485071D01*
X10573000Y-15642214D01*
X10573000Y-15485071D02*
X10587286Y-15456500D01*
X10615857Y-15442214D01*
X10658714Y-15442214D01*
X10687286Y-15456500D01*
X10701571Y-15485071D01*
X10701571Y-15642214D01*
X11287286Y-15327929D02*
X11030143Y-15713643D01*
X11673000Y-15342214D02*
X11701571Y-15342214D01*
X11730143Y-15356500D01*
X11744428Y-15370786D01*
X11758714Y-15399357D01*
X11773000Y-15456500D01*
X11773000Y-15527929D01*
X11758714Y-15585071D01*
X11744428Y-15613643D01*
X11730143Y-15627929D01*
X11701571Y-15642214D01*
X11673000Y-15642214D01*
X11644428Y-15627929D01*
X11630143Y-15613643D01*
X11615857Y-15585071D01*
X11601571Y-15527929D01*
X11601571Y-15456500D01*
X11615857Y-15399357D01*
X11630143Y-15370786D01*
X11644428Y-15356500D01*
X11673000Y-15342214D01*
X11901571Y-15613643D02*
X11915857Y-15627929D01*
X11901571Y-15642214D01*
X11887286Y-15627929D01*
X11901571Y-15613643D01*
X11901571Y-15642214D01*
X12101571Y-15342214D02*
X12130143Y-15342214D01*
X12158714Y-15356500D01*
X12173000Y-15370786D01*
X12187286Y-15399357D01*
X12201571Y-15456500D01*
X12201571Y-15527929D01*
X12187286Y-15585071D01*
X12173000Y-15613643D01*
X12158714Y-15627929D01*
X12130143Y-15642214D01*
X12101571Y-15642214D01*
X12073000Y-15627929D01*
X12058714Y-15613643D01*
X12044428Y-15585071D01*
X12030143Y-15527929D01*
X12030143Y-15456500D01*
X12044428Y-15399357D01*
X12058714Y-15370786D01*
X12073000Y-15356500D01*
X12101571Y-15342214D01*
X12487286Y-15642214D02*
X12315857Y-15642214D01*
X12401571Y-15642214D02*
X12401571Y-15342214D01*
X12373000Y-15385071D01*
X12344428Y-15413643D01*
X12315857Y-15427929D01*
X12744428Y-15342214D02*
X12687286Y-15342214D01*
X12658714Y-15356500D01*
X12644428Y-15370786D01*
X12615857Y-15413643D01*
X12601571Y-15470786D01*
X12601571Y-15585071D01*
X12615857Y-15613643D01*
X12630143Y-15627929D01*
X12658714Y-15642214D01*
X12715857Y-15642214D01*
X12744428Y-15627929D01*
X12758714Y-15613643D01*
X12773000Y-15585071D01*
X12773000Y-15513643D01*
X12758714Y-15485071D01*
X12744428Y-15470786D01*
X12715857Y-15456500D01*
X12658714Y-15456500D01*
X12630143Y-15470786D01*
X12615857Y-15485071D01*
X12601571Y-15513643D01*
X12887286Y-15342214D02*
X12887286Y-15399357D01*
X13001571Y-15342214D02*
X13001571Y-15399357D01*
X13444428Y-15756500D02*
X13430143Y-15742214D01*
X13401571Y-15699357D01*
X13387286Y-15670786D01*
X13373000Y-15627929D01*
X13358714Y-15556500D01*
X13358714Y-15499357D01*
X13373000Y-15427929D01*
X13387286Y-15385071D01*
X13401571Y-15356500D01*
X13430143Y-15313643D01*
X13444428Y-15299357D01*
X13544428Y-15370786D02*
X13558714Y-15356500D01*
X13587286Y-15342214D01*
X13658714Y-15342214D01*
X13687286Y-15356500D01*
X13701571Y-15370786D01*
X13715857Y-15399357D01*
X13715857Y-15427929D01*
X13701571Y-15470786D01*
X13530143Y-15642214D01*
X13715857Y-15642214D01*
X13973000Y-15442214D02*
X13973000Y-15642214D01*
X13901571Y-15327929D02*
X13830143Y-15542214D01*
X14015857Y-15542214D01*
X14358714Y-15642214D02*
X14358714Y-15342214D01*
X14487286Y-15642214D02*
X14487286Y-15485071D01*
X14473000Y-15456500D01*
X14444428Y-15442214D01*
X14401571Y-15442214D01*
X14373000Y-15456500D01*
X14358714Y-15470786D01*
X14673000Y-15642214D02*
X14644428Y-15627929D01*
X14630143Y-15613643D01*
X14615857Y-15585071D01*
X14615857Y-15499357D01*
X14630143Y-15470786D01*
X14644428Y-15456500D01*
X14673000Y-15442214D01*
X14715857Y-15442214D01*
X14744428Y-15456500D01*
X14758714Y-15470786D01*
X14773000Y-15499357D01*
X14773000Y-15585071D01*
X14758714Y-15613643D01*
X14744428Y-15627929D01*
X14715857Y-15642214D01*
X14673000Y-15642214D01*
X14944428Y-15642214D02*
X14915857Y-15627929D01*
X14901571Y-15599357D01*
X14901571Y-15342214D01*
X15173000Y-15627929D02*
X15144428Y-15642214D01*
X15087286Y-15642214D01*
X15058714Y-15627929D01*
X15044428Y-15599357D01*
X15044428Y-15485071D01*
X15058714Y-15456500D01*
X15087286Y-15442214D01*
X15144428Y-15442214D01*
X15173000Y-15456500D01*
X15187286Y-15485071D01*
X15187286Y-15513643D01*
X15044428Y-15542214D01*
X15301571Y-15627929D02*
X15330143Y-15642214D01*
X15387286Y-15642214D01*
X15415857Y-15627929D01*
X15430143Y-15599357D01*
X15430143Y-15585071D01*
X15415857Y-15556500D01*
X15387286Y-15542214D01*
X15344428Y-15542214D01*
X15315857Y-15527929D01*
X15301571Y-15499357D01*
X15301571Y-15485071D01*
X15315857Y-15456500D01*
X15344428Y-15442214D01*
X15387286Y-15442214D01*
X15415857Y-15456500D01*
X15530143Y-15756500D02*
X15544428Y-15742214D01*
X15573000Y-15699357D01*
X15587286Y-15670786D01*
X15601571Y-15627929D01*
X15615857Y-15556500D01*
X15615857Y-15499357D01*
X15601571Y-15427929D01*
X15587286Y-15385071D01*
X15573000Y-15356500D01*
X15544428Y-15313643D01*
X15530143Y-15299357D01*
X8758000Y-15902500D02*
G75*
G03*
X8758000Y-15902500I-40000J0D01*
G01*
X9101571Y-15738214D02*
X9130143Y-15738214D01*
X9158714Y-15752500D01*
X9173000Y-15766786D01*
X9187286Y-15795357D01*
X9201571Y-15852500D01*
X9201571Y-15923929D01*
X9187286Y-15981071D01*
X9173000Y-16009643D01*
X9158714Y-16023929D01*
X9130143Y-16038214D01*
X9101571Y-16038214D01*
X9073000Y-16023929D01*
X9058714Y-16009643D01*
X9044428Y-15981071D01*
X9030143Y-15923929D01*
X9030143Y-15852500D01*
X9044428Y-15795357D01*
X9058714Y-15766786D01*
X9073000Y-15752500D01*
X9101571Y-15738214D01*
X9330143Y-16009643D02*
X9344428Y-16023929D01*
X9330143Y-16038214D01*
X9315857Y-16023929D01*
X9330143Y-16009643D01*
X9330143Y-16038214D01*
X9515857Y-15866786D02*
X9487286Y-15852500D01*
X9473000Y-15838214D01*
X9458714Y-15809643D01*
X9458714Y-15795357D01*
X9473000Y-15766786D01*
X9487286Y-15752500D01*
X9515857Y-15738214D01*
X9573000Y-15738214D01*
X9601571Y-15752500D01*
X9615857Y-15766786D01*
X9630143Y-15795357D01*
X9630143Y-15809643D01*
X9615857Y-15838214D01*
X9601571Y-15852500D01*
X9573000Y-15866786D01*
X9515857Y-15866786D01*
X9487286Y-15881071D01*
X9473000Y-15895357D01*
X9458714Y-15923929D01*
X9458714Y-15981071D01*
X9473000Y-16009643D01*
X9487286Y-16023929D01*
X9515857Y-16038214D01*
X9573000Y-16038214D01*
X9601571Y-16023929D01*
X9615857Y-16009643D01*
X9630143Y-15981071D01*
X9630143Y-15923929D01*
X9615857Y-15895357D01*
X9601571Y-15881071D01*
X9573000Y-15866786D01*
X9815857Y-15738214D02*
X9844428Y-15738214D01*
X9873000Y-15752500D01*
X9887286Y-15766786D01*
X9901571Y-15795357D01*
X9915857Y-15852500D01*
X9915857Y-15923929D01*
X9901571Y-15981071D01*
X9887286Y-16009643D01*
X9873000Y-16023929D01*
X9844428Y-16038214D01*
X9815857Y-16038214D01*
X9787286Y-16023929D01*
X9773000Y-16009643D01*
X9758714Y-15981071D01*
X9744428Y-15923929D01*
X9744428Y-15852500D01*
X9758714Y-15795357D01*
X9773000Y-15766786D01*
X9787286Y-15752500D01*
X9815857Y-15738214D01*
X10044428Y-16038214D02*
X10044428Y-15838214D01*
X10044428Y-15866786D02*
X10058714Y-15852500D01*
X10087286Y-15838214D01*
X10130143Y-15838214D01*
X10158714Y-15852500D01*
X10173000Y-15881071D01*
X10173000Y-16038214D01*
X10173000Y-15881071D02*
X10187286Y-15852500D01*
X10215857Y-15838214D01*
X10258714Y-15838214D01*
X10287286Y-15852500D01*
X10301571Y-15881071D01*
X10301571Y-16038214D01*
X10444428Y-16038214D02*
X10444428Y-15838214D01*
X10444428Y-15866786D02*
X10458714Y-15852500D01*
X10487286Y-15838214D01*
X10530143Y-15838214D01*
X10558714Y-15852500D01*
X10573000Y-15881071D01*
X10573000Y-16038214D01*
X10573000Y-15881071D02*
X10587286Y-15852500D01*
X10615857Y-15838214D01*
X10658714Y-15838214D01*
X10687286Y-15852500D01*
X10701571Y-15881071D01*
X10701571Y-16038214D01*
X11287286Y-15723929D02*
X11030143Y-16109643D01*
X11673000Y-15738214D02*
X11701571Y-15738214D01*
X11730143Y-15752500D01*
X11744428Y-15766786D01*
X11758714Y-15795357D01*
X11773000Y-15852500D01*
X11773000Y-15923929D01*
X11758714Y-15981071D01*
X11744428Y-16009643D01*
X11730143Y-16023929D01*
X11701571Y-16038214D01*
X11673000Y-16038214D01*
X11644428Y-16023929D01*
X11630143Y-16009643D01*
X11615857Y-15981071D01*
X11601571Y-15923929D01*
X11601571Y-15852500D01*
X11615857Y-15795357D01*
X11630143Y-15766786D01*
X11644428Y-15752500D01*
X11673000Y-15738214D01*
X11901571Y-16009643D02*
X11915857Y-16023929D01*
X11901571Y-16038214D01*
X11887286Y-16023929D01*
X11901571Y-16009643D01*
X11901571Y-16038214D01*
X12101571Y-15738214D02*
X12130143Y-15738214D01*
X12158714Y-15752500D01*
X12173000Y-15766786D01*
X12187286Y-15795357D01*
X12201571Y-15852500D01*
X12201571Y-15923929D01*
X12187286Y-15981071D01*
X12173000Y-16009643D01*
X12158714Y-16023929D01*
X12130143Y-16038214D01*
X12101571Y-16038214D01*
X12073000Y-16023929D01*
X12058714Y-16009643D01*
X12044428Y-15981071D01*
X12030143Y-15923929D01*
X12030143Y-15852500D01*
X12044428Y-15795357D01*
X12058714Y-15766786D01*
X12073000Y-15752500D01*
X12101571Y-15738214D01*
X12301571Y-15738214D02*
X12487286Y-15738214D01*
X12387286Y-15852500D01*
X12430143Y-15852500D01*
X12458714Y-15866786D01*
X12473000Y-15881071D01*
X12487286Y-15909643D01*
X12487286Y-15981071D01*
X12473000Y-16009643D01*
X12458714Y-16023929D01*
X12430143Y-16038214D01*
X12344428Y-16038214D01*
X12315857Y-16023929D01*
X12301571Y-16009643D01*
X12773000Y-16038214D02*
X12601571Y-16038214D01*
X12687286Y-16038214D02*
X12687286Y-15738214D01*
X12658714Y-15781071D01*
X12630143Y-15809643D01*
X12601571Y-15823929D01*
X12887286Y-15738214D02*
X12887286Y-15795357D01*
X13001571Y-15738214D02*
X13001571Y-15795357D01*
X13444428Y-16152500D02*
X13430143Y-16138214D01*
X13401571Y-16095357D01*
X13387286Y-16066786D01*
X13373000Y-16023929D01*
X13358714Y-15952500D01*
X13358714Y-15895357D01*
X13373000Y-15823929D01*
X13387286Y-15781071D01*
X13401571Y-15752500D01*
X13430143Y-15709643D01*
X13444428Y-15695357D01*
X13687286Y-15738214D02*
X13630143Y-15738214D01*
X13601571Y-15752500D01*
X13587286Y-15766786D01*
X13558714Y-15809643D01*
X13544428Y-15866786D01*
X13544428Y-15981071D01*
X13558714Y-16009643D01*
X13573000Y-16023929D01*
X13601571Y-16038214D01*
X13658714Y-16038214D01*
X13687286Y-16023929D01*
X13701571Y-16009643D01*
X13715857Y-15981071D01*
X13715857Y-15909643D01*
X13701571Y-15881071D01*
X13687286Y-15866786D01*
X13658714Y-15852500D01*
X13601571Y-15852500D01*
X13573000Y-15866786D01*
X13558714Y-15881071D01*
X13544428Y-15909643D01*
X13901571Y-15738214D02*
X13930143Y-15738214D01*
X13958714Y-15752500D01*
X13973000Y-15766786D01*
X13987286Y-15795357D01*
X14001571Y-15852500D01*
X14001571Y-15923929D01*
X13987286Y-15981071D01*
X13973000Y-16009643D01*
X13958714Y-16023929D01*
X13930143Y-16038214D01*
X13901571Y-16038214D01*
X13873000Y-16023929D01*
X13858714Y-16009643D01*
X13844428Y-15981071D01*
X13830143Y-15923929D01*
X13830143Y-15852500D01*
X13844428Y-15795357D01*
X13858714Y-15766786D01*
X13873000Y-15752500D01*
X13901571Y-15738214D01*
X14358714Y-16038214D02*
X14358714Y-15738214D01*
X14487286Y-16038214D02*
X14487286Y-15881071D01*
X14473000Y-15852500D01*
X14444428Y-15838214D01*
X14401571Y-15838214D01*
X14373000Y-15852500D01*
X14358714Y-15866786D01*
X14673000Y-16038214D02*
X14644428Y-16023929D01*
X14630143Y-16009643D01*
X14615857Y-15981071D01*
X14615857Y-15895357D01*
X14630143Y-15866786D01*
X14644428Y-15852500D01*
X14673000Y-15838214D01*
X14715857Y-15838214D01*
X14744428Y-15852500D01*
X14758714Y-15866786D01*
X14773000Y-15895357D01*
X14773000Y-15981071D01*
X14758714Y-16009643D01*
X14744428Y-16023929D01*
X14715857Y-16038214D01*
X14673000Y-16038214D01*
X14944428Y-16038214D02*
X14915857Y-16023929D01*
X14901571Y-15995357D01*
X14901571Y-15738214D01*
X15173000Y-16023929D02*
X15144428Y-16038214D01*
X15087286Y-16038214D01*
X15058714Y-16023929D01*
X15044428Y-15995357D01*
X15044428Y-15881071D01*
X15058714Y-15852500D01*
X15087286Y-15838214D01*
X15144428Y-15838214D01*
X15173000Y-15852500D01*
X15187286Y-15881071D01*
X15187286Y-15909643D01*
X15044428Y-15938214D01*
X15301571Y-16023929D02*
X15330143Y-16038214D01*
X15387286Y-16038214D01*
X15415857Y-16023929D01*
X15430143Y-15995357D01*
X15430143Y-15981071D01*
X15415857Y-15952500D01*
X15387286Y-15938214D01*
X15344428Y-15938214D01*
X15315857Y-15923929D01*
X15301571Y-15895357D01*
X15301571Y-15881071D01*
X15315857Y-15852500D01*
X15344428Y-15838214D01*
X15387286Y-15838214D01*
X15415857Y-15852500D01*
X15530143Y-16152500D02*
X15544428Y-16138214D01*
X15573000Y-16095357D01*
X15587286Y-16066786D01*
X15601571Y-16023929D01*
X15615857Y-15952500D01*
X15615857Y-15895357D01*
X15601571Y-15823929D01*
X15587286Y-15781071D01*
X15573000Y-15752500D01*
X15544428Y-15709643D01*
X15530143Y-15695357D01*
X8713000Y-16253500D02*
X8713000Y-16343500D01*
X8668000Y-16298500D02*
X8758000Y-16298500D01*
X9101571Y-16134214D02*
X9130143Y-16134214D01*
X9158714Y-16148500D01*
X9173000Y-16162786D01*
X9187286Y-16191357D01*
X9201571Y-16248500D01*
X9201571Y-16319929D01*
X9187286Y-16377071D01*
X9173000Y-16405643D01*
X9158714Y-16419929D01*
X9130143Y-16434214D01*
X9101571Y-16434214D01*
X9073000Y-16419929D01*
X9058714Y-16405643D01*
X9044428Y-16377071D01*
X9030143Y-16319929D01*
X9030143Y-16248500D01*
X9044428Y-16191357D01*
X9058714Y-16162786D01*
X9073000Y-16148500D01*
X9101571Y-16134214D01*
X9330143Y-16405643D02*
X9344428Y-16419929D01*
X9330143Y-16434214D01*
X9315857Y-16419929D01*
X9330143Y-16405643D01*
X9330143Y-16434214D01*
X9487286Y-16434214D02*
X9544428Y-16434214D01*
X9573000Y-16419929D01*
X9587286Y-16405643D01*
X9615857Y-16362786D01*
X9630143Y-16305643D01*
X9630143Y-16191357D01*
X9615857Y-16162786D01*
X9601571Y-16148500D01*
X9573000Y-16134214D01*
X9515857Y-16134214D01*
X9487286Y-16148500D01*
X9473000Y-16162786D01*
X9458714Y-16191357D01*
X9458714Y-16262786D01*
X9473000Y-16291357D01*
X9487286Y-16305643D01*
X9515857Y-16319929D01*
X9573000Y-16319929D01*
X9601571Y-16305643D01*
X9615857Y-16291357D01*
X9630143Y-16262786D01*
X9815857Y-16134214D02*
X9844428Y-16134214D01*
X9873000Y-16148500D01*
X9887286Y-16162786D01*
X9901571Y-16191357D01*
X9915857Y-16248500D01*
X9915857Y-16319929D01*
X9901571Y-16377071D01*
X9887286Y-16405643D01*
X9873000Y-16419929D01*
X9844428Y-16434214D01*
X9815857Y-16434214D01*
X9787286Y-16419929D01*
X9773000Y-16405643D01*
X9758714Y-16377071D01*
X9744428Y-16319929D01*
X9744428Y-16248500D01*
X9758714Y-16191357D01*
X9773000Y-16162786D01*
X9787286Y-16148500D01*
X9815857Y-16134214D01*
X10044428Y-16434214D02*
X10044428Y-16234214D01*
X10044428Y-16262786D02*
X10058714Y-16248500D01*
X10087286Y-16234214D01*
X10130143Y-16234214D01*
X10158714Y-16248500D01*
X10173000Y-16277071D01*
X10173000Y-16434214D01*
X10173000Y-16277071D02*
X10187286Y-16248500D01*
X10215857Y-16234214D01*
X10258714Y-16234214D01*
X10287286Y-16248500D01*
X10301571Y-16277071D01*
X10301571Y-16434214D01*
X10444428Y-16434214D02*
X10444428Y-16234214D01*
X10444428Y-16262786D02*
X10458714Y-16248500D01*
X10487286Y-16234214D01*
X10530143Y-16234214D01*
X10558714Y-16248500D01*
X10573000Y-16277071D01*
X10573000Y-16434214D01*
X10573000Y-16277071D02*
X10587286Y-16248500D01*
X10615857Y-16234214D01*
X10658714Y-16234214D01*
X10687286Y-16248500D01*
X10701571Y-16277071D01*
X10701571Y-16434214D01*
X11287286Y-16119929D02*
X11030143Y-16505643D01*
X11673000Y-16134214D02*
X11701571Y-16134214D01*
X11730143Y-16148500D01*
X11744428Y-16162786D01*
X11758714Y-16191357D01*
X11773000Y-16248500D01*
X11773000Y-16319929D01*
X11758714Y-16377071D01*
X11744428Y-16405643D01*
X11730143Y-16419929D01*
X11701571Y-16434214D01*
X11673000Y-16434214D01*
X11644428Y-16419929D01*
X11630143Y-16405643D01*
X11615857Y-16377071D01*
X11601571Y-16319929D01*
X11601571Y-16248500D01*
X11615857Y-16191357D01*
X11630143Y-16162786D01*
X11644428Y-16148500D01*
X11673000Y-16134214D01*
X11901571Y-16405643D02*
X11915857Y-16419929D01*
X11901571Y-16434214D01*
X11887286Y-16419929D01*
X11901571Y-16405643D01*
X11901571Y-16434214D01*
X12101571Y-16134214D02*
X12130143Y-16134214D01*
X12158714Y-16148500D01*
X12173000Y-16162786D01*
X12187286Y-16191357D01*
X12201571Y-16248500D01*
X12201571Y-16319929D01*
X12187286Y-16377071D01*
X12173000Y-16405643D01*
X12158714Y-16419929D01*
X12130143Y-16434214D01*
X12101571Y-16434214D01*
X12073000Y-16419929D01*
X12058714Y-16405643D01*
X12044428Y-16377071D01*
X12030143Y-16319929D01*
X12030143Y-16248500D01*
X12044428Y-16191357D01*
X12058714Y-16162786D01*
X12073000Y-16148500D01*
X12101571Y-16134214D01*
X12301571Y-16134214D02*
X12487286Y-16134214D01*
X12387286Y-16248500D01*
X12430143Y-16248500D01*
X12458714Y-16262786D01*
X12473000Y-16277071D01*
X12487286Y-16305643D01*
X12487286Y-16377071D01*
X12473000Y-16405643D01*
X12458714Y-16419929D01*
X12430143Y-16434214D01*
X12344428Y-16434214D01*
X12315857Y-16419929D01*
X12301571Y-16405643D01*
X12758714Y-16134214D02*
X12615857Y-16134214D01*
X12601571Y-16277071D01*
X12615857Y-16262786D01*
X12644428Y-16248500D01*
X12715857Y-16248500D01*
X12744428Y-16262786D01*
X12758714Y-16277071D01*
X12773000Y-16305643D01*
X12773000Y-16377071D01*
X12758714Y-16405643D01*
X12744428Y-16419929D01*
X12715857Y-16434214D01*
X12644428Y-16434214D01*
X12615857Y-16419929D01*
X12601571Y-16405643D01*
X12887286Y-16134214D02*
X12887286Y-16191357D01*
X13001571Y-16134214D02*
X13001571Y-16191357D01*
X13444428Y-16548500D02*
X13430143Y-16534214D01*
X13401571Y-16491357D01*
X13387286Y-16462786D01*
X13373000Y-16419929D01*
X13358714Y-16348500D01*
X13358714Y-16291357D01*
X13373000Y-16219929D01*
X13387286Y-16177071D01*
X13401571Y-16148500D01*
X13430143Y-16105643D01*
X13444428Y-16091357D01*
X13544428Y-16162786D02*
X13558714Y-16148500D01*
X13587286Y-16134214D01*
X13658714Y-16134214D01*
X13687286Y-16148500D01*
X13701571Y-16162786D01*
X13715857Y-16191357D01*
X13715857Y-16219929D01*
X13701571Y-16262786D01*
X13530143Y-16434214D01*
X13715857Y-16434214D01*
X14073000Y-16434214D02*
X14073000Y-16134214D01*
X14201571Y-16434214D02*
X14201571Y-16277071D01*
X14187286Y-16248500D01*
X14158714Y-16234214D01*
X14115857Y-16234214D01*
X14087286Y-16248500D01*
X14073000Y-16262786D01*
X14387286Y-16434214D02*
X14358714Y-16419929D01*
X14344428Y-16405643D01*
X14330143Y-16377071D01*
X14330143Y-16291357D01*
X14344428Y-16262786D01*
X14358714Y-16248500D01*
X14387286Y-16234214D01*
X14430143Y-16234214D01*
X14458714Y-16248500D01*
X14473000Y-16262786D01*
X14487286Y-16291357D01*
X14487286Y-16377071D01*
X14473000Y-16405643D01*
X14458714Y-16419929D01*
X14430143Y-16434214D01*
X14387286Y-16434214D01*
X14658714Y-16434214D02*
X14630143Y-16419929D01*
X14615857Y-16391357D01*
X14615857Y-16134214D01*
X14887286Y-16419929D02*
X14858714Y-16434214D01*
X14801571Y-16434214D01*
X14773000Y-16419929D01*
X14758714Y-16391357D01*
X14758714Y-16277071D01*
X14773000Y-16248500D01*
X14801571Y-16234214D01*
X14858714Y-16234214D01*
X14887286Y-16248500D01*
X14901571Y-16277071D01*
X14901571Y-16305643D01*
X14758714Y-16334214D01*
X15015857Y-16419929D02*
X15044428Y-16434214D01*
X15101571Y-16434214D01*
X15130143Y-16419929D01*
X15144428Y-16391357D01*
X15144428Y-16377071D01*
X15130143Y-16348500D01*
X15101571Y-16334214D01*
X15058714Y-16334214D01*
X15030143Y-16319929D01*
X15015857Y-16291357D01*
X15015857Y-16277071D01*
X15030143Y-16248500D01*
X15058714Y-16234214D01*
X15101571Y-16234214D01*
X15130143Y-16248500D01*
X15244428Y-16548500D02*
X15258714Y-16534214D01*
X15287286Y-16491357D01*
X15301571Y-16462786D01*
X15315857Y-16419929D01*
X15330143Y-16348500D01*
X15330143Y-16291357D01*
X15315857Y-16219929D01*
X15301571Y-16177071D01*
X15287286Y-16148500D01*
X15258714Y-16105643D01*
X15244428Y-16091357D01*
X8743356Y-16729856D02*
X8743356Y-16659144D01*
X8672644Y-16659144D01*
X8672644Y-16729856D01*
X8743356Y-16729856D01*
X9201571Y-16830214D02*
X9030143Y-16830214D01*
X9115857Y-16830214D02*
X9115857Y-16530214D01*
X9087286Y-16573071D01*
X9058714Y-16601643D01*
X9030143Y-16615929D01*
X9330143Y-16801643D02*
X9344428Y-16815929D01*
X9330143Y-16830214D01*
X9315857Y-16815929D01*
X9330143Y-16801643D01*
X9330143Y-16830214D01*
X9530143Y-16530214D02*
X9558714Y-16530214D01*
X9587286Y-16544500D01*
X9601571Y-16558786D01*
X9615857Y-16587357D01*
X9630143Y-16644500D01*
X9630143Y-16715929D01*
X9615857Y-16773071D01*
X9601571Y-16801643D01*
X9587286Y-16815929D01*
X9558714Y-16830214D01*
X9530143Y-16830214D01*
X9501571Y-16815929D01*
X9487286Y-16801643D01*
X9473000Y-16773071D01*
X9458714Y-16715929D01*
X9458714Y-16644500D01*
X9473000Y-16587357D01*
X9487286Y-16558786D01*
X9501571Y-16544500D01*
X9530143Y-16530214D01*
X9815857Y-16530214D02*
X9844428Y-16530214D01*
X9873000Y-16544500D01*
X9887286Y-16558786D01*
X9901571Y-16587357D01*
X9915857Y-16644500D01*
X9915857Y-16715929D01*
X9901571Y-16773071D01*
X9887286Y-16801643D01*
X9873000Y-16815929D01*
X9844428Y-16830214D01*
X9815857Y-16830214D01*
X9787286Y-16815929D01*
X9773000Y-16801643D01*
X9758714Y-16773071D01*
X9744428Y-16715929D01*
X9744428Y-16644500D01*
X9758714Y-16587357D01*
X9773000Y-16558786D01*
X9787286Y-16544500D01*
X9815857Y-16530214D01*
X10044428Y-16830214D02*
X10044428Y-16630214D01*
X10044428Y-16658786D02*
X10058714Y-16644500D01*
X10087286Y-16630214D01*
X10130143Y-16630214D01*
X10158714Y-16644500D01*
X10173000Y-16673071D01*
X10173000Y-16830214D01*
X10173000Y-16673071D02*
X10187286Y-16644500D01*
X10215857Y-16630214D01*
X10258714Y-16630214D01*
X10287286Y-16644500D01*
X10301571Y-16673071D01*
X10301571Y-16830214D01*
X10444428Y-16830214D02*
X10444428Y-16630214D01*
X10444428Y-16658786D02*
X10458714Y-16644500D01*
X10487286Y-16630214D01*
X10530143Y-16630214D01*
X10558714Y-16644500D01*
X10573000Y-16673071D01*
X10573000Y-16830214D01*
X10573000Y-16673071D02*
X10587286Y-16644500D01*
X10615857Y-16630214D01*
X10658714Y-16630214D01*
X10687286Y-16644500D01*
X10701571Y-16673071D01*
X10701571Y-16830214D01*
X11287286Y-16515929D02*
X11030143Y-16901643D01*
X11673000Y-16530214D02*
X11701571Y-16530214D01*
X11730143Y-16544500D01*
X11744428Y-16558786D01*
X11758714Y-16587357D01*
X11773000Y-16644500D01*
X11773000Y-16715929D01*
X11758714Y-16773071D01*
X11744428Y-16801643D01*
X11730143Y-16815929D01*
X11701571Y-16830214D01*
X11673000Y-16830214D01*
X11644428Y-16815929D01*
X11630143Y-16801643D01*
X11615857Y-16773071D01*
X11601571Y-16715929D01*
X11601571Y-16644500D01*
X11615857Y-16587357D01*
X11630143Y-16558786D01*
X11644428Y-16544500D01*
X11673000Y-16530214D01*
X11901571Y-16801643D02*
X11915857Y-16815929D01*
X11901571Y-16830214D01*
X11887286Y-16815929D01*
X11901571Y-16801643D01*
X11901571Y-16830214D01*
X12101571Y-16530214D02*
X12130143Y-16530214D01*
X12158714Y-16544500D01*
X12173000Y-16558786D01*
X12187286Y-16587357D01*
X12201571Y-16644500D01*
X12201571Y-16715929D01*
X12187286Y-16773071D01*
X12173000Y-16801643D01*
X12158714Y-16815929D01*
X12130143Y-16830214D01*
X12101571Y-16830214D01*
X12073000Y-16815929D01*
X12058714Y-16801643D01*
X12044428Y-16773071D01*
X12030143Y-16715929D01*
X12030143Y-16644500D01*
X12044428Y-16587357D01*
X12058714Y-16558786D01*
X12073000Y-16544500D01*
X12101571Y-16530214D01*
X12301571Y-16530214D02*
X12487286Y-16530214D01*
X12387286Y-16644500D01*
X12430143Y-16644500D01*
X12458714Y-16658786D01*
X12473000Y-16673071D01*
X12487286Y-16701643D01*
X12487286Y-16773071D01*
X12473000Y-16801643D01*
X12458714Y-16815929D01*
X12430143Y-16830214D01*
X12344428Y-16830214D01*
X12315857Y-16815929D01*
X12301571Y-16801643D01*
X12630143Y-16830214D02*
X12687286Y-16830214D01*
X12715857Y-16815929D01*
X12730143Y-16801643D01*
X12758714Y-16758786D01*
X12773000Y-16701643D01*
X12773000Y-16587357D01*
X12758714Y-16558786D01*
X12744428Y-16544500D01*
X12715857Y-16530214D01*
X12658714Y-16530214D01*
X12630143Y-16544500D01*
X12615857Y-16558786D01*
X12601571Y-16587357D01*
X12601571Y-16658786D01*
X12615857Y-16687357D01*
X12630143Y-16701643D01*
X12658714Y-16715929D01*
X12715857Y-16715929D01*
X12744428Y-16701643D01*
X12758714Y-16687357D01*
X12773000Y-16658786D01*
X12887286Y-16530214D02*
X12887286Y-16587357D01*
X13001571Y-16530214D02*
X13001571Y-16587357D01*
X13444428Y-16944500D02*
X13430143Y-16930214D01*
X13401571Y-16887357D01*
X13387286Y-16858786D01*
X13373000Y-16815929D01*
X13358714Y-16744500D01*
X13358714Y-16687357D01*
X13373000Y-16615929D01*
X13387286Y-16573071D01*
X13401571Y-16544500D01*
X13430143Y-16501643D01*
X13444428Y-16487357D01*
X13530143Y-16530214D02*
X13730143Y-16530214D01*
X13601571Y-16830214D01*
X13815857Y-16530214D02*
X14015857Y-16530214D01*
X13887286Y-16830214D01*
X14187286Y-16530214D02*
X14215857Y-16530214D01*
X14244428Y-16544500D01*
X14258714Y-16558786D01*
X14273000Y-16587357D01*
X14287286Y-16644500D01*
X14287286Y-16715929D01*
X14273000Y-16773071D01*
X14258714Y-16801643D01*
X14244428Y-16815929D01*
X14215857Y-16830214D01*
X14187286Y-16830214D01*
X14158714Y-16815929D01*
X14144428Y-16801643D01*
X14130143Y-16773071D01*
X14115857Y-16715929D01*
X14115857Y-16644500D01*
X14130143Y-16587357D01*
X14144428Y-16558786D01*
X14158714Y-16544500D01*
X14187286Y-16530214D01*
X14644428Y-16830214D02*
X14644428Y-16530214D01*
X14773000Y-16830214D02*
X14773000Y-16673071D01*
X14758714Y-16644500D01*
X14730143Y-16630214D01*
X14687286Y-16630214D01*
X14658714Y-16644500D01*
X14644428Y-16658786D01*
X14958714Y-16830214D02*
X14930143Y-16815929D01*
X14915857Y-16801643D01*
X14901571Y-16773071D01*
X14901571Y-16687357D01*
X14915857Y-16658786D01*
X14930143Y-16644500D01*
X14958714Y-16630214D01*
X15001571Y-16630214D01*
X15030143Y-16644500D01*
X15044428Y-16658786D01*
X15058714Y-16687357D01*
X15058714Y-16773071D01*
X15044428Y-16801643D01*
X15030143Y-16815929D01*
X15001571Y-16830214D01*
X14958714Y-16830214D01*
X15230143Y-16830214D02*
X15201571Y-16815929D01*
X15187286Y-16787357D01*
X15187286Y-16530214D01*
X15458714Y-16815929D02*
X15430143Y-16830214D01*
X15373000Y-16830214D01*
X15344428Y-16815929D01*
X15330143Y-16787357D01*
X15330143Y-16673071D01*
X15344428Y-16644500D01*
X15373000Y-16630214D01*
X15430143Y-16630214D01*
X15458714Y-16644500D01*
X15473000Y-16673071D01*
X15473000Y-16701643D01*
X15330143Y-16730214D01*
X15587286Y-16815929D02*
X15615857Y-16830214D01*
X15673000Y-16830214D01*
X15701571Y-16815929D01*
X15715857Y-16787357D01*
X15715857Y-16773071D01*
X15701571Y-16744500D01*
X15673000Y-16730214D01*
X15630143Y-16730214D01*
X15601571Y-16715929D01*
X15587286Y-16687357D01*
X15587286Y-16673071D01*
X15601571Y-16644500D01*
X15630143Y-16630214D01*
X15673000Y-16630214D01*
X15701571Y-16644500D01*
X15815857Y-16944500D02*
X15830143Y-16930214D01*
X15858714Y-16887357D01*
X15873000Y-16858786D01*
X15887286Y-16815929D01*
X15901571Y-16744500D01*
X15901571Y-16687357D01*
X15887286Y-16615929D01*
X15873000Y-16573071D01*
X15858714Y-16544500D01*
X15830143Y-16501643D01*
X15815857Y-16487357D01*
X8703000Y-17145500D02*
X8758000Y-17090500D01*
X8703000Y-17035500D01*
X8648000Y-17090500D01*
X8703000Y-17145500D01*
X9201571Y-17226214D02*
X9030143Y-17226214D01*
X9115857Y-17226214D02*
X9115857Y-16926214D01*
X9087286Y-16969072D01*
X9058714Y-16997643D01*
X9030143Y-17011929D01*
X9330143Y-17197643D02*
X9344428Y-17211929D01*
X9330143Y-17226214D01*
X9315857Y-17211929D01*
X9330143Y-17197643D01*
X9330143Y-17226214D01*
X9630143Y-17226214D02*
X9458714Y-17226214D01*
X9544428Y-17226214D02*
X9544428Y-16926214D01*
X9515857Y-16969072D01*
X9487286Y-16997643D01*
X9458714Y-17011929D01*
X9815857Y-16926214D02*
X9844428Y-16926214D01*
X9873000Y-16940500D01*
X9887286Y-16954786D01*
X9901571Y-16983357D01*
X9915857Y-17040500D01*
X9915857Y-17111929D01*
X9901571Y-17169072D01*
X9887286Y-17197643D01*
X9873000Y-17211929D01*
X9844428Y-17226214D01*
X9815857Y-17226214D01*
X9787286Y-17211929D01*
X9773000Y-17197643D01*
X9758714Y-17169072D01*
X9744428Y-17111929D01*
X9744428Y-17040500D01*
X9758714Y-16983357D01*
X9773000Y-16954786D01*
X9787286Y-16940500D01*
X9815857Y-16926214D01*
X10044428Y-17226214D02*
X10044428Y-17026214D01*
X10044428Y-17054786D02*
X10058714Y-17040500D01*
X10087286Y-17026214D01*
X10130143Y-17026214D01*
X10158714Y-17040500D01*
X10173000Y-17069072D01*
X10173000Y-17226214D01*
X10173000Y-17069072D02*
X10187286Y-17040500D01*
X10215857Y-17026214D01*
X10258714Y-17026214D01*
X10287286Y-17040500D01*
X10301571Y-17069072D01*
X10301571Y-17226214D01*
X10444428Y-17226214D02*
X10444428Y-17026214D01*
X10444428Y-17054786D02*
X10458714Y-17040500D01*
X10487286Y-17026214D01*
X10530143Y-17026214D01*
X10558714Y-17040500D01*
X10573000Y-17069072D01*
X10573000Y-17226214D01*
X10573000Y-17069072D02*
X10587286Y-17040500D01*
X10615857Y-17026214D01*
X10658714Y-17026214D01*
X10687286Y-17040500D01*
X10701571Y-17069072D01*
X10701571Y-17226214D01*
X11287286Y-16911929D02*
X11030143Y-17297643D01*
X11673000Y-16926214D02*
X11701571Y-16926214D01*
X11730143Y-16940500D01*
X11744428Y-16954786D01*
X11758714Y-16983357D01*
X11773000Y-17040500D01*
X11773000Y-17111929D01*
X11758714Y-17169072D01*
X11744428Y-17197643D01*
X11730143Y-17211929D01*
X11701571Y-17226214D01*
X11673000Y-17226214D01*
X11644428Y-17211929D01*
X11630143Y-17197643D01*
X11615857Y-17169072D01*
X11601571Y-17111929D01*
X11601571Y-17040500D01*
X11615857Y-16983357D01*
X11630143Y-16954786D01*
X11644428Y-16940500D01*
X11673000Y-16926214D01*
X11901571Y-17197643D02*
X11915857Y-17211929D01*
X11901571Y-17226214D01*
X11887286Y-17211929D01*
X11901571Y-17197643D01*
X11901571Y-17226214D01*
X12101571Y-16926214D02*
X12130143Y-16926214D01*
X12158714Y-16940500D01*
X12173000Y-16954786D01*
X12187286Y-16983357D01*
X12201571Y-17040500D01*
X12201571Y-17111929D01*
X12187286Y-17169072D01*
X12173000Y-17197643D01*
X12158714Y-17211929D01*
X12130143Y-17226214D01*
X12101571Y-17226214D01*
X12073000Y-17211929D01*
X12058714Y-17197643D01*
X12044428Y-17169072D01*
X12030143Y-17111929D01*
X12030143Y-17040500D01*
X12044428Y-16983357D01*
X12058714Y-16954786D01*
X12073000Y-16940500D01*
X12101571Y-16926214D01*
X12458714Y-17026214D02*
X12458714Y-17226214D01*
X12387286Y-16911929D02*
X12315857Y-17126214D01*
X12501571Y-17126214D01*
X12587286Y-16926214D02*
X12773000Y-16926214D01*
X12673000Y-17040500D01*
X12715857Y-17040500D01*
X12744428Y-17054786D01*
X12758714Y-17069072D01*
X12773000Y-17097643D01*
X12773000Y-17169072D01*
X12758714Y-17197643D01*
X12744428Y-17211929D01*
X12715857Y-17226214D01*
X12630143Y-17226214D01*
X12601571Y-17211929D01*
X12587286Y-17197643D01*
X12887286Y-16926214D02*
X12887286Y-16983357D01*
X13001571Y-16926214D02*
X13001571Y-16983357D01*
X13444428Y-17340500D02*
X13430143Y-17326214D01*
X13401571Y-17283357D01*
X13387286Y-17254786D01*
X13373000Y-17211929D01*
X13358714Y-17140500D01*
X13358714Y-17083357D01*
X13373000Y-17011929D01*
X13387286Y-16969072D01*
X13401571Y-16940500D01*
X13430143Y-16897643D01*
X13444428Y-16883357D01*
X13530143Y-16926214D02*
X13715857Y-16926214D01*
X13615857Y-17040500D01*
X13658714Y-17040500D01*
X13687286Y-17054786D01*
X13701571Y-17069072D01*
X13715857Y-17097643D01*
X13715857Y-17169072D01*
X13701571Y-17197643D01*
X13687286Y-17211929D01*
X13658714Y-17226214D01*
X13573000Y-17226214D01*
X13544428Y-17211929D01*
X13530143Y-17197643D01*
X14073000Y-17226214D02*
X14073000Y-16926214D01*
X14201571Y-17226214D02*
X14201571Y-17069072D01*
X14187286Y-17040500D01*
X14158714Y-17026214D01*
X14115857Y-17026214D01*
X14087286Y-17040500D01*
X14073000Y-17054786D01*
X14387286Y-17226214D02*
X14358714Y-17211929D01*
X14344428Y-17197643D01*
X14330143Y-17169072D01*
X14330143Y-17083357D01*
X14344428Y-17054786D01*
X14358714Y-17040500D01*
X14387286Y-17026214D01*
X14430143Y-17026214D01*
X14458714Y-17040500D01*
X14473000Y-17054786D01*
X14487286Y-17083357D01*
X14487286Y-17169072D01*
X14473000Y-17197643D01*
X14458714Y-17211929D01*
X14430143Y-17226214D01*
X14387286Y-17226214D01*
X14658714Y-17226214D02*
X14630143Y-17211929D01*
X14615857Y-17183357D01*
X14615857Y-16926214D01*
X14887286Y-17211929D02*
X14858714Y-17226214D01*
X14801571Y-17226214D01*
X14773000Y-17211929D01*
X14758714Y-17183357D01*
X14758714Y-17069072D01*
X14773000Y-17040500D01*
X14801571Y-17026214D01*
X14858714Y-17026214D01*
X14887286Y-17040500D01*
X14901571Y-17069072D01*
X14901571Y-17097643D01*
X14758714Y-17126214D01*
X15015857Y-17211929D02*
X15044428Y-17226214D01*
X15101571Y-17226214D01*
X15130143Y-17211929D01*
X15144428Y-17183357D01*
X15144428Y-17169072D01*
X15130143Y-17140500D01*
X15101571Y-17126214D01*
X15058714Y-17126214D01*
X15030143Y-17111929D01*
X15015857Y-17083357D01*
X15015857Y-17069072D01*
X15030143Y-17040500D01*
X15058714Y-17026214D01*
X15101571Y-17026214D01*
X15130143Y-17040500D01*
X15244428Y-17340500D02*
X15258714Y-17326214D01*
X15287286Y-17283357D01*
X15301571Y-17254786D01*
X15315857Y-17211929D01*
X15330143Y-17140500D01*
X15330143Y-17083357D01*
X15315857Y-17011929D01*
X15301571Y-16969072D01*
X15287286Y-16940500D01*
X15258714Y-16897643D01*
X15244428Y-16883357D01*
X8626000Y-17420500D02*
X8758000Y-17552500D01*
X8758000Y-17420500D02*
X8626000Y-17552500D01*
X8758000Y-17486500D02*
G75*
G03*
X8758000Y-17486500I-66000J0D01*
G01*
X9201571Y-17622214D02*
X9030143Y-17622214D01*
X9115857Y-17622214D02*
X9115857Y-17322214D01*
X9087286Y-17365072D01*
X9058714Y-17393643D01*
X9030143Y-17407929D01*
X9330143Y-17593643D02*
X9344428Y-17607929D01*
X9330143Y-17622214D01*
X9315857Y-17607929D01*
X9330143Y-17593643D01*
X9330143Y-17622214D01*
X9444428Y-17322214D02*
X9630143Y-17322214D01*
X9530143Y-17436500D01*
X9573000Y-17436500D01*
X9601571Y-17450786D01*
X9615857Y-17465072D01*
X9630143Y-17493643D01*
X9630143Y-17565072D01*
X9615857Y-17593643D01*
X9601571Y-17607929D01*
X9573000Y-17622214D01*
X9487286Y-17622214D01*
X9458714Y-17607929D01*
X9444428Y-17593643D01*
X9744428Y-17350786D02*
X9758714Y-17336500D01*
X9787286Y-17322214D01*
X9858714Y-17322214D01*
X9887286Y-17336500D01*
X9901571Y-17350786D01*
X9915857Y-17379357D01*
X9915857Y-17407929D01*
X9901571Y-17450786D01*
X9730143Y-17622214D01*
X9915857Y-17622214D01*
X10044428Y-17622214D02*
X10044428Y-17422214D01*
X10044428Y-17450786D02*
X10058714Y-17436500D01*
X10087286Y-17422214D01*
X10130143Y-17422214D01*
X10158714Y-17436500D01*
X10173000Y-17465072D01*
X10173000Y-17622214D01*
X10173000Y-17465072D02*
X10187286Y-17436500D01*
X10215857Y-17422214D01*
X10258714Y-17422214D01*
X10287286Y-17436500D01*
X10301571Y-17465072D01*
X10301571Y-17622214D01*
X10444428Y-17622214D02*
X10444428Y-17422214D01*
X10444428Y-17450786D02*
X10458714Y-17436500D01*
X10487286Y-17422214D01*
X10530143Y-17422214D01*
X10558714Y-17436500D01*
X10573000Y-17465072D01*
X10573000Y-17622214D01*
X10573000Y-17465072D02*
X10587286Y-17436500D01*
X10615857Y-17422214D01*
X10658714Y-17422214D01*
X10687286Y-17436500D01*
X10701571Y-17465072D01*
X10701571Y-17622214D01*
X11287286Y-17307929D02*
X11030143Y-17693643D01*
X11673000Y-17322214D02*
X11701571Y-17322214D01*
X11730143Y-17336500D01*
X11744428Y-17350786D01*
X11758714Y-17379357D01*
X11773000Y-17436500D01*
X11773000Y-17507929D01*
X11758714Y-17565072D01*
X11744428Y-17593643D01*
X11730143Y-17607929D01*
X11701571Y-17622214D01*
X11673000Y-17622214D01*
X11644428Y-17607929D01*
X11630143Y-17593643D01*
X11615857Y-17565072D01*
X11601571Y-17507929D01*
X11601571Y-17436500D01*
X11615857Y-17379357D01*
X11630143Y-17350786D01*
X11644428Y-17336500D01*
X11673000Y-17322214D01*
X11901571Y-17593643D02*
X11915857Y-17607929D01*
X11901571Y-17622214D01*
X11887286Y-17607929D01*
X11901571Y-17593643D01*
X11901571Y-17622214D01*
X12101571Y-17322214D02*
X12130143Y-17322214D01*
X12158714Y-17336500D01*
X12173000Y-17350786D01*
X12187286Y-17379357D01*
X12201571Y-17436500D01*
X12201571Y-17507929D01*
X12187286Y-17565072D01*
X12173000Y-17593643D01*
X12158714Y-17607929D01*
X12130143Y-17622214D01*
X12101571Y-17622214D01*
X12073000Y-17607929D01*
X12058714Y-17593643D01*
X12044428Y-17565072D01*
X12030143Y-17507929D01*
X12030143Y-17436500D01*
X12044428Y-17379357D01*
X12058714Y-17350786D01*
X12073000Y-17336500D01*
X12101571Y-17322214D01*
X12473000Y-17322214D02*
X12330143Y-17322214D01*
X12315857Y-17465072D01*
X12330143Y-17450786D01*
X12358714Y-17436500D01*
X12430143Y-17436500D01*
X12458714Y-17450786D01*
X12473000Y-17465072D01*
X12487286Y-17493643D01*
X12487286Y-17565072D01*
X12473000Y-17593643D01*
X12458714Y-17607929D01*
X12430143Y-17622214D01*
X12358714Y-17622214D01*
X12330143Y-17607929D01*
X12315857Y-17593643D01*
X12601571Y-17350786D02*
X12615857Y-17336500D01*
X12644428Y-17322214D01*
X12715857Y-17322214D01*
X12744428Y-17336500D01*
X12758714Y-17350786D01*
X12773000Y-17379357D01*
X12773000Y-17407929D01*
X12758714Y-17450786D01*
X12587286Y-17622214D01*
X12773000Y-17622214D01*
X12887286Y-17322214D02*
X12887286Y-17379357D01*
X13001571Y-17322214D02*
X13001571Y-17379357D01*
X13444428Y-17736500D02*
X13430143Y-17722214D01*
X13401571Y-17679357D01*
X13387286Y-17650786D01*
X13373000Y-17607929D01*
X13358714Y-17536500D01*
X13358714Y-17479357D01*
X13373000Y-17407929D01*
X13387286Y-17365072D01*
X13401571Y-17336500D01*
X13430143Y-17293643D01*
X13444428Y-17279357D01*
X13544428Y-17350786D02*
X13558714Y-17336500D01*
X13587286Y-17322214D01*
X13658714Y-17322214D01*
X13687286Y-17336500D01*
X13701571Y-17350786D01*
X13715857Y-17379357D01*
X13715857Y-17407929D01*
X13701571Y-17450786D01*
X13530143Y-17622214D01*
X13715857Y-17622214D01*
X14073000Y-17622214D02*
X14073000Y-17322214D01*
X14201571Y-17622214D02*
X14201571Y-17465072D01*
X14187286Y-17436500D01*
X14158714Y-17422214D01*
X14115857Y-17422214D01*
X14087286Y-17436500D01*
X14073000Y-17450786D01*
X14387286Y-17622214D02*
X14358714Y-17607929D01*
X14344428Y-17593643D01*
X14330143Y-17565072D01*
X14330143Y-17479357D01*
X14344428Y-17450786D01*
X14358714Y-17436500D01*
X14387286Y-17422214D01*
X14430143Y-17422214D01*
X14458714Y-17436500D01*
X14473000Y-17450786D01*
X14487286Y-17479357D01*
X14487286Y-17565072D01*
X14473000Y-17593643D01*
X14458714Y-17607929D01*
X14430143Y-17622214D01*
X14387286Y-17622214D01*
X14658714Y-17622214D02*
X14630143Y-17607929D01*
X14615857Y-17579357D01*
X14615857Y-17322214D01*
X14887286Y-17607929D02*
X14858714Y-17622214D01*
X14801571Y-17622214D01*
X14773000Y-17607929D01*
X14758714Y-17579357D01*
X14758714Y-17465072D01*
X14773000Y-17436500D01*
X14801571Y-17422214D01*
X14858714Y-17422214D01*
X14887286Y-17436500D01*
X14901571Y-17465072D01*
X14901571Y-17493643D01*
X14758714Y-17522214D01*
X15015857Y-17607929D02*
X15044428Y-17622214D01*
X15101571Y-17622214D01*
X15130143Y-17607929D01*
X15144428Y-17579357D01*
X15144428Y-17565072D01*
X15130143Y-17536500D01*
X15101571Y-17522214D01*
X15058714Y-17522214D01*
X15030143Y-17507929D01*
X15015857Y-17479357D01*
X15015857Y-17465072D01*
X15030143Y-17436500D01*
X15058714Y-17422214D01*
X15101571Y-17422214D01*
X15130143Y-17436500D01*
X15244428Y-17736500D02*
X15258714Y-17722214D01*
X15287286Y-17679357D01*
X15301571Y-17650786D01*
X15315857Y-17607929D01*
X15330143Y-17536500D01*
X15330143Y-17479357D01*
X15315857Y-17407929D01*
X15301571Y-17365072D01*
X15287286Y-17336500D01*
X15258714Y-17293643D01*
X15244428Y-17279357D01*
X8408000Y-17707500D02*
X8758000Y-18057500D01*
X8758000Y-17707500D02*
X8408000Y-18057500D01*
X8583000Y-17707500D02*
X8583000Y-18057500D01*
X8408000Y-17882500D02*
X8758000Y-17882500D01*
X9015857Y-17718214D02*
X9201571Y-17718214D01*
X9101571Y-17832500D01*
X9144428Y-17832500D01*
X9173000Y-17846786D01*
X9187286Y-17861072D01*
X9201571Y-17889643D01*
X9201571Y-17961072D01*
X9187286Y-17989643D01*
X9173000Y-18003929D01*
X9144428Y-18018214D01*
X9058714Y-18018214D01*
X9030143Y-18003929D01*
X9015857Y-17989643D01*
X9330143Y-17989643D02*
X9344428Y-18003929D01*
X9330143Y-18018214D01*
X9315857Y-18003929D01*
X9330143Y-17989643D01*
X9330143Y-18018214D01*
X9615857Y-17718214D02*
X9473000Y-17718214D01*
X9458714Y-17861072D01*
X9473000Y-17846786D01*
X9501571Y-17832500D01*
X9573000Y-17832500D01*
X9601571Y-17846786D01*
X9615857Y-17861072D01*
X9630143Y-17889643D01*
X9630143Y-17961072D01*
X9615857Y-17989643D01*
X9601571Y-18003929D01*
X9573000Y-18018214D01*
X9501571Y-18018214D01*
X9473000Y-18003929D01*
X9458714Y-17989643D01*
X9815857Y-17718214D02*
X9844428Y-17718214D01*
X9873000Y-17732500D01*
X9887286Y-17746786D01*
X9901571Y-17775357D01*
X9915857Y-17832500D01*
X9915857Y-17903929D01*
X9901571Y-17961072D01*
X9887286Y-17989643D01*
X9873000Y-18003929D01*
X9844428Y-18018214D01*
X9815857Y-18018214D01*
X9787286Y-18003929D01*
X9773000Y-17989643D01*
X9758714Y-17961072D01*
X9744428Y-17903929D01*
X9744428Y-17832500D01*
X9758714Y-17775357D01*
X9773000Y-17746786D01*
X9787286Y-17732500D01*
X9815857Y-17718214D01*
X10044428Y-18018214D02*
X10044428Y-17818214D01*
X10044428Y-17846786D02*
X10058714Y-17832500D01*
X10087286Y-17818214D01*
X10130143Y-17818214D01*
X10158714Y-17832500D01*
X10173000Y-17861072D01*
X10173000Y-18018214D01*
X10173000Y-17861072D02*
X10187286Y-17832500D01*
X10215857Y-17818214D01*
X10258714Y-17818214D01*
X10287286Y-17832500D01*
X10301571Y-17861072D01*
X10301571Y-18018214D01*
X10444428Y-18018214D02*
X10444428Y-17818214D01*
X10444428Y-17846786D02*
X10458714Y-17832500D01*
X10487286Y-17818214D01*
X10530143Y-17818214D01*
X10558714Y-17832500D01*
X10573000Y-17861072D01*
X10573000Y-18018214D01*
X10573000Y-17861072D02*
X10587286Y-17832500D01*
X10615857Y-17818214D01*
X10658714Y-17818214D01*
X10687286Y-17832500D01*
X10701571Y-17861072D01*
X10701571Y-18018214D01*
X11287286Y-17703929D02*
X11030143Y-18089643D01*
X11673000Y-17718214D02*
X11701571Y-17718214D01*
X11730143Y-17732500D01*
X11744428Y-17746786D01*
X11758714Y-17775357D01*
X11773000Y-17832500D01*
X11773000Y-17903929D01*
X11758714Y-17961072D01*
X11744428Y-17989643D01*
X11730143Y-18003929D01*
X11701571Y-18018214D01*
X11673000Y-18018214D01*
X11644428Y-18003929D01*
X11630143Y-17989643D01*
X11615857Y-17961072D01*
X11601571Y-17903929D01*
X11601571Y-17832500D01*
X11615857Y-17775357D01*
X11630143Y-17746786D01*
X11644428Y-17732500D01*
X11673000Y-17718214D01*
X11901571Y-17989643D02*
X11915857Y-18003929D01*
X11901571Y-18018214D01*
X11887286Y-18003929D01*
X11901571Y-17989643D01*
X11901571Y-18018214D01*
X12201571Y-18018214D02*
X12030143Y-18018214D01*
X12115857Y-18018214D02*
X12115857Y-17718214D01*
X12087286Y-17761072D01*
X12058714Y-17789643D01*
X12030143Y-17803929D01*
X12301571Y-17718214D02*
X12487286Y-17718214D01*
X12387286Y-17832500D01*
X12430143Y-17832500D01*
X12458714Y-17846786D01*
X12473000Y-17861072D01*
X12487286Y-17889643D01*
X12487286Y-17961072D01*
X12473000Y-17989643D01*
X12458714Y-18003929D01*
X12430143Y-18018214D01*
X12344428Y-18018214D01*
X12315857Y-18003929D01*
X12301571Y-17989643D01*
X12658714Y-17846786D02*
X12630143Y-17832500D01*
X12615857Y-17818214D01*
X12601571Y-17789643D01*
X12601571Y-17775357D01*
X12615857Y-17746786D01*
X12630143Y-17732500D01*
X12658714Y-17718214D01*
X12715857Y-17718214D01*
X12744428Y-17732500D01*
X12758714Y-17746786D01*
X12773000Y-17775357D01*
X12773000Y-17789643D01*
X12758714Y-17818214D01*
X12744428Y-17832500D01*
X12715857Y-17846786D01*
X12658714Y-17846786D01*
X12630143Y-17861072D01*
X12615857Y-17875357D01*
X12601571Y-17903929D01*
X12601571Y-17961072D01*
X12615857Y-17989643D01*
X12630143Y-18003929D01*
X12658714Y-18018214D01*
X12715857Y-18018214D01*
X12744428Y-18003929D01*
X12758714Y-17989643D01*
X12773000Y-17961072D01*
X12773000Y-17903929D01*
X12758714Y-17875357D01*
X12744428Y-17861072D01*
X12715857Y-17846786D01*
X12887286Y-17718214D02*
X12887286Y-17775357D01*
X13001571Y-17718214D02*
X13001571Y-17775357D01*
X13444428Y-18132500D02*
X13430143Y-18118214D01*
X13401571Y-18075357D01*
X13387286Y-18046786D01*
X13373000Y-18003929D01*
X13358714Y-17932500D01*
X13358714Y-17875357D01*
X13373000Y-17803929D01*
X13387286Y-17761072D01*
X13401571Y-17732500D01*
X13430143Y-17689643D01*
X13444428Y-17675357D01*
X13687286Y-17818214D02*
X13687286Y-18018214D01*
X13615857Y-17703929D02*
X13544428Y-17918214D01*
X13730143Y-17918214D01*
X14073000Y-18018214D02*
X14073000Y-17718214D01*
X14201571Y-18018214D02*
X14201571Y-17861072D01*
X14187286Y-17832500D01*
X14158714Y-17818214D01*
X14115857Y-17818214D01*
X14087286Y-17832500D01*
X14073000Y-17846786D01*
X14387286Y-18018214D02*
X14358714Y-18003929D01*
X14344428Y-17989643D01*
X14330143Y-17961072D01*
X14330143Y-17875357D01*
X14344428Y-17846786D01*
X14358714Y-17832500D01*
X14387286Y-17818214D01*
X14430143Y-17818214D01*
X14458714Y-17832500D01*
X14473000Y-17846786D01*
X14487286Y-17875357D01*
X14487286Y-17961072D01*
X14473000Y-17989643D01*
X14458714Y-18003929D01*
X14430143Y-18018214D01*
X14387286Y-18018214D01*
X14658714Y-18018214D02*
X14630143Y-18003929D01*
X14615857Y-17975357D01*
X14615857Y-17718214D01*
X14887286Y-18003929D02*
X14858714Y-18018214D01*
X14801571Y-18018214D01*
X14773000Y-18003929D01*
X14758714Y-17975357D01*
X14758714Y-17861072D01*
X14773000Y-17832500D01*
X14801571Y-17818214D01*
X14858714Y-17818214D01*
X14887286Y-17832500D01*
X14901571Y-17861072D01*
X14901571Y-17889643D01*
X14758714Y-17918214D01*
X15015857Y-18003929D02*
X15044428Y-18018214D01*
X15101571Y-18018214D01*
X15130143Y-18003929D01*
X15144428Y-17975357D01*
X15144428Y-17961072D01*
X15130143Y-17932500D01*
X15101571Y-17918214D01*
X15058714Y-17918214D01*
X15030143Y-17903929D01*
X15015857Y-17875357D01*
X15015857Y-17861072D01*
X15030143Y-17832500D01*
X15058714Y-17818214D01*
X15101571Y-17818214D01*
X15130143Y-17832500D01*
X15244428Y-18132500D02*
X15258714Y-18118214D01*
X15287286Y-18075357D01*
X15301571Y-18046786D01*
X15315857Y-18003929D01*
X15330143Y-17932500D01*
X15330143Y-17875357D01*
X15315857Y-17803929D01*
X15301571Y-17761072D01*
X15287286Y-17732500D01*
X15258714Y-17689643D01*
X15244428Y-17675357D01*
M02*
