G04 #@! TF.GenerationSoftware,KiCad,Pcbnew,5.1.9+dfsg1-1*
G04 #@! TF.CreationDate,2022-07-21T18:14:53-05:00*
G04 #@! TF.ProjectId,aarghweeno_88,61617267-6877-4656-956e-6f5f38382e6b,rev?*
G04 #@! TF.SameCoordinates,Original*
G04 #@! TF.FileFunction,Legend,Bot*
G04 #@! TF.FilePolarity,Positive*
%FSLAX46Y46*%
G04 Gerber Fmt 4.6, Leading zero omitted, Abs format (unit mm)*
G04 Created by KiCad (PCBNEW 5.1.9+dfsg1-1) date 2022-07-21 18:14:53*
%MOMM*%
%LPD*%
G01*
G04 APERTURE LIST*
%ADD10C,0.381000*%
%ADD11C,0.508000*%
%ADD12C,0.120000*%
%ADD13C,0.203200*%
%ADD14O,1.700000X1.700000*%
%ADD15R,1.700000X1.700000*%
%ADD16C,7.000000*%
%ADD17O,1.600000X2.400000*%
%ADD18R,1.600000X2.400000*%
%ADD19C,1.500000*%
%ADD20O,1.905000X2.000000*%
%ADD21R,1.905000X2.000000*%
%ADD22O,1.600000X1.600000*%
%ADD23C,1.600000*%
%ADD24O,2.000000X2.000000*%
%ADD25C,2.000000*%
%ADD26O,3.960000X1.980000*%
%ADD27R,3.960000X1.980000*%
%ADD28C,1.800000*%
%ADD29R,1.800000X1.800000*%
%ADD30R,1.600000X1.600000*%
G04 APERTURE END LIST*
D10*
X88265000Y-135255000D02*
X89535000Y-135255000D01*
D11*
X88265000Y-127635000D02*
X88265000Y-135255000D01*
D10*
X88265000Y-127635000D02*
X89535000Y-127635000D01*
D11*
X88265000Y-120015000D02*
X88265000Y-127635000D01*
D10*
X89535000Y-120015000D02*
X88265000Y-120015000D01*
D11*
X88265000Y-99695000D02*
X88265000Y-107315000D01*
D10*
X89535000Y-99695000D02*
X88265000Y-99695000D01*
X88265000Y-94615000D02*
X89535000Y-94615000D01*
D11*
X88265000Y-86995000D02*
X88265000Y-94615000D01*
D10*
X89535000Y-86995000D02*
X88265000Y-86995000D01*
D12*
X186055000Y-114935000D02*
X89535000Y-114935000D01*
X186055000Y-107315000D02*
X186055000Y-114935000D01*
D10*
X88265000Y-107315000D02*
X186055000Y-107315000D01*
X88265000Y-114935000D02*
X89535000Y-114935000D01*
D11*
X88265000Y-107315000D02*
X88265000Y-114935000D01*
D10*
X89535000Y-94615000D02*
X186055000Y-94615000D01*
D13*
X89535000Y-86995000D02*
X89535000Y-94615000D01*
D10*
X186055000Y-86995000D02*
X89535000Y-86995000D01*
D11*
X186055000Y-94615000D02*
X186055000Y-86995000D01*
X186055000Y-99695000D02*
X186055000Y-107315000D01*
D10*
X89535000Y-99695000D02*
X186055000Y-99695000D01*
D13*
X89535000Y-107315000D02*
X89535000Y-99695000D01*
D10*
X186055000Y-107315000D02*
X89535000Y-107315000D01*
D11*
X186055000Y-114935000D02*
X186055000Y-107315000D01*
D10*
X89535000Y-114935000D02*
X186055000Y-114935000D01*
D13*
X89535000Y-107315000D02*
X89535000Y-114935000D01*
X89535000Y-120015000D02*
X89535000Y-127635000D01*
D11*
X186055000Y-120015000D02*
X186055000Y-127635000D01*
D10*
X89535000Y-120015000D02*
X186055000Y-120015000D01*
X186055000Y-127635000D02*
X89535000Y-127635000D01*
D11*
X186055000Y-135255000D02*
X186055000Y-127635000D01*
X89535000Y-135255000D02*
X186055000Y-135255000D01*
D13*
X89535000Y-127635000D02*
X89535000Y-135255000D01*
%LPC*%
D14*
X106680000Y-66040000D03*
D15*
X104140000Y-66040000D03*
D16*
X182245000Y-140335000D03*
X181610000Y-51435000D03*
X92710000Y-140335000D03*
X92710000Y-51435000D03*
D15*
X90805000Y-133985000D03*
D14*
X93345000Y-133985000D03*
X95885000Y-133985000D03*
X98425000Y-133985000D03*
X100965000Y-133985000D03*
X103505000Y-133985000D03*
X106045000Y-133985000D03*
X108585000Y-133985000D03*
X111125000Y-133985000D03*
X113665000Y-133985000D03*
X116205000Y-133985000D03*
X118745000Y-133985000D03*
X121285000Y-133985000D03*
X123825000Y-133985000D03*
X126365000Y-133985000D03*
X128905000Y-133985000D03*
X131445000Y-133985000D03*
X133985000Y-133985000D03*
X136525000Y-133985000D03*
X139065000Y-133985000D03*
X141605000Y-133985000D03*
X144145000Y-133985000D03*
X146685000Y-133985000D03*
X149225000Y-133985000D03*
X151765000Y-133985000D03*
X154305000Y-133985000D03*
X156845000Y-133985000D03*
X159385000Y-133985000D03*
X161925000Y-133985000D03*
X164465000Y-133985000D03*
X167005000Y-133985000D03*
X169545000Y-133985000D03*
X172085000Y-133985000D03*
X174625000Y-133985000D03*
X177165000Y-133985000D03*
X179705000Y-133985000D03*
X182245000Y-133985000D03*
X184785000Y-133985000D03*
D15*
X90805000Y-131445000D03*
D14*
X93345000Y-131445000D03*
X95885000Y-131445000D03*
X98425000Y-131445000D03*
X100965000Y-131445000D03*
X103505000Y-131445000D03*
X106045000Y-131445000D03*
X108585000Y-131445000D03*
X111125000Y-131445000D03*
X113665000Y-131445000D03*
X116205000Y-131445000D03*
X118745000Y-131445000D03*
X121285000Y-131445000D03*
X123825000Y-131445000D03*
X126365000Y-131445000D03*
X128905000Y-131445000D03*
X131445000Y-131445000D03*
X133985000Y-131445000D03*
X136525000Y-131445000D03*
X139065000Y-131445000D03*
X141605000Y-131445000D03*
X144145000Y-131445000D03*
X146685000Y-131445000D03*
X149225000Y-131445000D03*
X151765000Y-131445000D03*
X154305000Y-131445000D03*
X156845000Y-131445000D03*
X159385000Y-131445000D03*
X161925000Y-131445000D03*
X164465000Y-131445000D03*
X167005000Y-131445000D03*
X169545000Y-131445000D03*
X172085000Y-131445000D03*
X174625000Y-131445000D03*
X177165000Y-131445000D03*
X179705000Y-131445000D03*
X182245000Y-131445000D03*
X184785000Y-131445000D03*
D15*
X90805000Y-128905000D03*
D14*
X93345000Y-128905000D03*
X95885000Y-128905000D03*
X98425000Y-128905000D03*
X100965000Y-128905000D03*
X103505000Y-128905000D03*
X106045000Y-128905000D03*
X108585000Y-128905000D03*
X111125000Y-128905000D03*
X113665000Y-128905000D03*
X116205000Y-128905000D03*
X118745000Y-128905000D03*
X121285000Y-128905000D03*
X123825000Y-128905000D03*
X126365000Y-128905000D03*
X128905000Y-128905000D03*
X131445000Y-128905000D03*
X133985000Y-128905000D03*
X136525000Y-128905000D03*
X139065000Y-128905000D03*
X141605000Y-128905000D03*
X144145000Y-128905000D03*
X146685000Y-128905000D03*
X149225000Y-128905000D03*
X151765000Y-128905000D03*
X154305000Y-128905000D03*
X156845000Y-128905000D03*
X159385000Y-128905000D03*
X161925000Y-128905000D03*
X164465000Y-128905000D03*
X167005000Y-128905000D03*
X169545000Y-128905000D03*
X172085000Y-128905000D03*
X174625000Y-128905000D03*
X177165000Y-128905000D03*
X179705000Y-128905000D03*
X182245000Y-128905000D03*
X184785000Y-128905000D03*
D15*
X90815000Y-126365000D03*
D14*
X93355000Y-126365000D03*
X95895000Y-126365000D03*
X98435000Y-126365000D03*
X100975000Y-126365000D03*
X103515000Y-126365000D03*
X106055000Y-126365000D03*
X108595000Y-126365000D03*
X111135000Y-126365000D03*
X113675000Y-126365000D03*
X116215000Y-126365000D03*
X118755000Y-126365000D03*
X121295000Y-126365000D03*
X123835000Y-126365000D03*
X126375000Y-126365000D03*
X128915000Y-126365000D03*
X131455000Y-126365000D03*
X133995000Y-126365000D03*
X136535000Y-126365000D03*
X139075000Y-126365000D03*
X141615000Y-126365000D03*
X144155000Y-126365000D03*
X146695000Y-126365000D03*
X149235000Y-126365000D03*
X151775000Y-126365000D03*
X154315000Y-126365000D03*
X156855000Y-126365000D03*
X159395000Y-126365000D03*
X161935000Y-126365000D03*
X164475000Y-126365000D03*
X167015000Y-126365000D03*
X169555000Y-126365000D03*
X172095000Y-126365000D03*
X174635000Y-126365000D03*
X177175000Y-126365000D03*
X179715000Y-126365000D03*
X182255000Y-126365000D03*
X184795000Y-126365000D03*
D15*
X90815000Y-123825000D03*
D14*
X93355000Y-123825000D03*
X95895000Y-123825000D03*
X98435000Y-123825000D03*
X100975000Y-123825000D03*
X103515000Y-123825000D03*
X106055000Y-123825000D03*
X108595000Y-123825000D03*
X111135000Y-123825000D03*
X113675000Y-123825000D03*
X116215000Y-123825000D03*
X118755000Y-123825000D03*
X121295000Y-123825000D03*
X123835000Y-123825000D03*
X126375000Y-123825000D03*
X128915000Y-123825000D03*
X131455000Y-123825000D03*
X133995000Y-123825000D03*
X136535000Y-123825000D03*
X139075000Y-123825000D03*
X141615000Y-123825000D03*
X144155000Y-123825000D03*
X146695000Y-123825000D03*
X149235000Y-123825000D03*
X151775000Y-123825000D03*
X154315000Y-123825000D03*
X156855000Y-123825000D03*
X159395000Y-123825000D03*
X161935000Y-123825000D03*
X164475000Y-123825000D03*
X167015000Y-123825000D03*
X169555000Y-123825000D03*
X172095000Y-123825000D03*
X174635000Y-123825000D03*
X177175000Y-123825000D03*
X179715000Y-123825000D03*
X182255000Y-123825000D03*
X184795000Y-123825000D03*
D15*
X90805000Y-121285000D03*
D14*
X93345000Y-121285000D03*
X95885000Y-121285000D03*
X98425000Y-121285000D03*
X100965000Y-121285000D03*
X103505000Y-121285000D03*
X106045000Y-121285000D03*
X108585000Y-121285000D03*
X111125000Y-121285000D03*
X113665000Y-121285000D03*
X116205000Y-121285000D03*
X118745000Y-121285000D03*
X121285000Y-121285000D03*
X123825000Y-121285000D03*
X126365000Y-121285000D03*
X128905000Y-121285000D03*
X131445000Y-121285000D03*
X133985000Y-121285000D03*
X136525000Y-121285000D03*
X139065000Y-121285000D03*
X141605000Y-121285000D03*
X144145000Y-121285000D03*
X146685000Y-121285000D03*
X149225000Y-121285000D03*
X151765000Y-121285000D03*
X154305000Y-121285000D03*
X156845000Y-121285000D03*
X159385000Y-121285000D03*
X161925000Y-121285000D03*
X164465000Y-121285000D03*
X167005000Y-121285000D03*
X169545000Y-121285000D03*
X172085000Y-121285000D03*
X174625000Y-121285000D03*
X177165000Y-121285000D03*
X179705000Y-121285000D03*
X182245000Y-121285000D03*
X184785000Y-121285000D03*
D15*
X90805000Y-118745000D03*
D14*
X93345000Y-118745000D03*
X95885000Y-118745000D03*
X98425000Y-118745000D03*
X100965000Y-118745000D03*
X103505000Y-118745000D03*
X106045000Y-118745000D03*
X108585000Y-118745000D03*
X111125000Y-118745000D03*
X113665000Y-118745000D03*
X116205000Y-118745000D03*
X118745000Y-118745000D03*
X121285000Y-118745000D03*
X123825000Y-118745000D03*
X126365000Y-118745000D03*
X128905000Y-118745000D03*
X131445000Y-118745000D03*
X133985000Y-118745000D03*
X136525000Y-118745000D03*
X139065000Y-118745000D03*
X141605000Y-118745000D03*
X144145000Y-118745000D03*
X146685000Y-118745000D03*
X149225000Y-118745000D03*
X151765000Y-118745000D03*
X154305000Y-118745000D03*
X156845000Y-118745000D03*
X159385000Y-118745000D03*
X161925000Y-118745000D03*
X164465000Y-118745000D03*
X167005000Y-118745000D03*
X169545000Y-118745000D03*
X172085000Y-118745000D03*
X174625000Y-118745000D03*
X177165000Y-118745000D03*
X179705000Y-118745000D03*
X182245000Y-118745000D03*
X184785000Y-118745000D03*
D15*
X90805000Y-116205000D03*
D14*
X93345000Y-116205000D03*
X95885000Y-116205000D03*
X98425000Y-116205000D03*
X100965000Y-116205000D03*
X103505000Y-116205000D03*
X106045000Y-116205000D03*
X108585000Y-116205000D03*
X111125000Y-116205000D03*
X113665000Y-116205000D03*
X116205000Y-116205000D03*
X118745000Y-116205000D03*
X121285000Y-116205000D03*
X123825000Y-116205000D03*
X126365000Y-116205000D03*
X128905000Y-116205000D03*
X131445000Y-116205000D03*
X133985000Y-116205000D03*
X136525000Y-116205000D03*
X139065000Y-116205000D03*
X141605000Y-116205000D03*
X144145000Y-116205000D03*
X146685000Y-116205000D03*
X149225000Y-116205000D03*
X151765000Y-116205000D03*
X154305000Y-116205000D03*
X156845000Y-116205000D03*
X159385000Y-116205000D03*
X161925000Y-116205000D03*
X164465000Y-116205000D03*
X167005000Y-116205000D03*
X169545000Y-116205000D03*
X172085000Y-116205000D03*
X174625000Y-116205000D03*
X177165000Y-116205000D03*
X179705000Y-116205000D03*
X182245000Y-116205000D03*
X184785000Y-116205000D03*
D15*
X90805000Y-113665000D03*
D14*
X93345000Y-113665000D03*
X95885000Y-113665000D03*
X98425000Y-113665000D03*
X100965000Y-113665000D03*
X103505000Y-113665000D03*
X106045000Y-113665000D03*
X108585000Y-113665000D03*
X111125000Y-113665000D03*
X113665000Y-113665000D03*
X116205000Y-113665000D03*
X118745000Y-113665000D03*
X121285000Y-113665000D03*
X123825000Y-113665000D03*
X126365000Y-113665000D03*
X128905000Y-113665000D03*
X131445000Y-113665000D03*
X133985000Y-113665000D03*
X136525000Y-113665000D03*
X139065000Y-113665000D03*
X141605000Y-113665000D03*
X144145000Y-113665000D03*
X146685000Y-113665000D03*
X149225000Y-113665000D03*
X151765000Y-113665000D03*
X154305000Y-113665000D03*
X156845000Y-113665000D03*
X159385000Y-113665000D03*
X161925000Y-113665000D03*
X164465000Y-113665000D03*
X167005000Y-113665000D03*
X169545000Y-113665000D03*
X172085000Y-113665000D03*
X174625000Y-113665000D03*
X177165000Y-113665000D03*
X179705000Y-113665000D03*
X182245000Y-113665000D03*
X184785000Y-113665000D03*
D15*
X90805000Y-108585000D03*
D14*
X93345000Y-108585000D03*
X95885000Y-108585000D03*
X98425000Y-108585000D03*
X100965000Y-108585000D03*
X103505000Y-108585000D03*
X106045000Y-108585000D03*
X108585000Y-108585000D03*
X111125000Y-108585000D03*
X113665000Y-108585000D03*
X116205000Y-108585000D03*
X118745000Y-108585000D03*
X121285000Y-108585000D03*
X123825000Y-108585000D03*
X126365000Y-108585000D03*
X128905000Y-108585000D03*
X131445000Y-108585000D03*
X133985000Y-108585000D03*
X136525000Y-108585000D03*
X139065000Y-108585000D03*
X141605000Y-108585000D03*
X144145000Y-108585000D03*
X146685000Y-108585000D03*
X149225000Y-108585000D03*
X151765000Y-108585000D03*
X154305000Y-108585000D03*
X156845000Y-108585000D03*
X159385000Y-108585000D03*
X161925000Y-108585000D03*
X164465000Y-108585000D03*
X167005000Y-108585000D03*
X169545000Y-108585000D03*
X172085000Y-108585000D03*
X174625000Y-108585000D03*
X177165000Y-108585000D03*
X179705000Y-108585000D03*
X182245000Y-108585000D03*
X184785000Y-108585000D03*
D15*
X90805000Y-111125000D03*
D14*
X93345000Y-111125000D03*
X95885000Y-111125000D03*
X98425000Y-111125000D03*
X100965000Y-111125000D03*
X103505000Y-111125000D03*
X106045000Y-111125000D03*
X108585000Y-111125000D03*
X111125000Y-111125000D03*
X113665000Y-111125000D03*
X116205000Y-111125000D03*
X118745000Y-111125000D03*
X121285000Y-111125000D03*
X123825000Y-111125000D03*
X126365000Y-111125000D03*
X128905000Y-111125000D03*
X131445000Y-111125000D03*
X133985000Y-111125000D03*
X136525000Y-111125000D03*
X139065000Y-111125000D03*
X141605000Y-111125000D03*
X144145000Y-111125000D03*
X146685000Y-111125000D03*
X149225000Y-111125000D03*
X151765000Y-111125000D03*
X154305000Y-111125000D03*
X156845000Y-111125000D03*
X159385000Y-111125000D03*
X161925000Y-111125000D03*
X164465000Y-111125000D03*
X167005000Y-111125000D03*
X169545000Y-111125000D03*
X172085000Y-111125000D03*
X174625000Y-111125000D03*
X177165000Y-111125000D03*
X179705000Y-111125000D03*
X182245000Y-111125000D03*
X184785000Y-111125000D03*
D15*
X90805000Y-106045000D03*
D14*
X93345000Y-106045000D03*
X95885000Y-106045000D03*
X98425000Y-106045000D03*
X100965000Y-106045000D03*
X103505000Y-106045000D03*
X106045000Y-106045000D03*
X108585000Y-106045000D03*
X111125000Y-106045000D03*
X113665000Y-106045000D03*
X116205000Y-106045000D03*
X118745000Y-106045000D03*
X121285000Y-106045000D03*
X123825000Y-106045000D03*
X126365000Y-106045000D03*
X128905000Y-106045000D03*
X131445000Y-106045000D03*
X133985000Y-106045000D03*
X136525000Y-106045000D03*
X139065000Y-106045000D03*
X141605000Y-106045000D03*
X144145000Y-106045000D03*
X146685000Y-106045000D03*
X149225000Y-106045000D03*
X151765000Y-106045000D03*
X154305000Y-106045000D03*
X156845000Y-106045000D03*
X159385000Y-106045000D03*
X161925000Y-106045000D03*
X164465000Y-106045000D03*
X167005000Y-106045000D03*
X169545000Y-106045000D03*
X172085000Y-106045000D03*
X174625000Y-106045000D03*
X177165000Y-106045000D03*
X179705000Y-106045000D03*
X182245000Y-106045000D03*
X184785000Y-106045000D03*
D15*
X90805000Y-103505000D03*
D14*
X93345000Y-103505000D03*
X95885000Y-103505000D03*
X98425000Y-103505000D03*
X100965000Y-103505000D03*
X103505000Y-103505000D03*
X106045000Y-103505000D03*
X108585000Y-103505000D03*
X111125000Y-103505000D03*
X113665000Y-103505000D03*
X116205000Y-103505000D03*
X118745000Y-103505000D03*
X121285000Y-103505000D03*
X123825000Y-103505000D03*
X126365000Y-103505000D03*
X128905000Y-103505000D03*
X131445000Y-103505000D03*
X133985000Y-103505000D03*
X136525000Y-103505000D03*
X139065000Y-103505000D03*
X141605000Y-103505000D03*
X144145000Y-103505000D03*
X146685000Y-103505000D03*
X149225000Y-103505000D03*
X151765000Y-103505000D03*
X154305000Y-103505000D03*
X156845000Y-103505000D03*
X159385000Y-103505000D03*
X161925000Y-103505000D03*
X164465000Y-103505000D03*
X167005000Y-103505000D03*
X169545000Y-103505000D03*
X172085000Y-103505000D03*
X174625000Y-103505000D03*
X177165000Y-103505000D03*
X179705000Y-103505000D03*
X182245000Y-103505000D03*
X184785000Y-103505000D03*
D15*
X90805000Y-100965000D03*
D14*
X93345000Y-100965000D03*
X95885000Y-100965000D03*
X98425000Y-100965000D03*
X100965000Y-100965000D03*
X103505000Y-100965000D03*
X106045000Y-100965000D03*
X108585000Y-100965000D03*
X111125000Y-100965000D03*
X113665000Y-100965000D03*
X116205000Y-100965000D03*
X118745000Y-100965000D03*
X121285000Y-100965000D03*
X123825000Y-100965000D03*
X126365000Y-100965000D03*
X128905000Y-100965000D03*
X131445000Y-100965000D03*
X133985000Y-100965000D03*
X136525000Y-100965000D03*
X139065000Y-100965000D03*
X141605000Y-100965000D03*
X144145000Y-100965000D03*
X146685000Y-100965000D03*
X149225000Y-100965000D03*
X151765000Y-100965000D03*
X154305000Y-100965000D03*
X156845000Y-100965000D03*
X159385000Y-100965000D03*
X161925000Y-100965000D03*
X164465000Y-100965000D03*
X167005000Y-100965000D03*
X169545000Y-100965000D03*
X172085000Y-100965000D03*
X174625000Y-100965000D03*
X177165000Y-100965000D03*
X179705000Y-100965000D03*
X182245000Y-100965000D03*
X184785000Y-100965000D03*
D15*
X90805000Y-98425000D03*
D14*
X93345000Y-98425000D03*
X95885000Y-98425000D03*
X98425000Y-98425000D03*
X100965000Y-98425000D03*
X103505000Y-98425000D03*
X106045000Y-98425000D03*
X108585000Y-98425000D03*
X111125000Y-98425000D03*
X113665000Y-98425000D03*
X116205000Y-98425000D03*
X118745000Y-98425000D03*
X121285000Y-98425000D03*
X123825000Y-98425000D03*
X126365000Y-98425000D03*
X128905000Y-98425000D03*
X131445000Y-98425000D03*
X133985000Y-98425000D03*
X136525000Y-98425000D03*
X139065000Y-98425000D03*
X141605000Y-98425000D03*
X144145000Y-98425000D03*
X146685000Y-98425000D03*
X149225000Y-98425000D03*
X151765000Y-98425000D03*
X154305000Y-98425000D03*
X156845000Y-98425000D03*
X159385000Y-98425000D03*
X161925000Y-98425000D03*
X164465000Y-98425000D03*
X167005000Y-98425000D03*
X169545000Y-98425000D03*
X172085000Y-98425000D03*
X174625000Y-98425000D03*
X177165000Y-98425000D03*
X179705000Y-98425000D03*
X182245000Y-98425000D03*
X184785000Y-98425000D03*
D15*
X90805000Y-95885000D03*
D14*
X93345000Y-95885000D03*
X95885000Y-95885000D03*
X98425000Y-95885000D03*
X100965000Y-95885000D03*
X103505000Y-95885000D03*
X106045000Y-95885000D03*
X108585000Y-95885000D03*
X111125000Y-95885000D03*
X113665000Y-95885000D03*
X116205000Y-95885000D03*
X118745000Y-95885000D03*
X121285000Y-95885000D03*
X123825000Y-95885000D03*
X126365000Y-95885000D03*
X128905000Y-95885000D03*
X131445000Y-95885000D03*
X133985000Y-95885000D03*
X136525000Y-95885000D03*
X139065000Y-95885000D03*
X141605000Y-95885000D03*
X144145000Y-95885000D03*
X146685000Y-95885000D03*
X149225000Y-95885000D03*
X151765000Y-95885000D03*
X154305000Y-95885000D03*
X156845000Y-95885000D03*
X159385000Y-95885000D03*
X161925000Y-95885000D03*
X164465000Y-95885000D03*
X167005000Y-95885000D03*
X169545000Y-95885000D03*
X172085000Y-95885000D03*
X174625000Y-95885000D03*
X177165000Y-95885000D03*
X179705000Y-95885000D03*
X182245000Y-95885000D03*
X184785000Y-95885000D03*
D15*
X90805000Y-93345000D03*
D14*
X93345000Y-93345000D03*
X95885000Y-93345000D03*
X98425000Y-93345000D03*
X100965000Y-93345000D03*
X103505000Y-93345000D03*
X106045000Y-93345000D03*
X108585000Y-93345000D03*
X111125000Y-93345000D03*
X113665000Y-93345000D03*
X116205000Y-93345000D03*
X118745000Y-93345000D03*
X121285000Y-93345000D03*
X123825000Y-93345000D03*
X126365000Y-93345000D03*
X128905000Y-93345000D03*
X131445000Y-93345000D03*
X133985000Y-93345000D03*
X136525000Y-93345000D03*
X139065000Y-93345000D03*
X141605000Y-93345000D03*
X144145000Y-93345000D03*
X146685000Y-93345000D03*
X149225000Y-93345000D03*
X151765000Y-93345000D03*
X154305000Y-93345000D03*
X156845000Y-93345000D03*
X159385000Y-93345000D03*
X161925000Y-93345000D03*
X164465000Y-93345000D03*
X167005000Y-93345000D03*
X169545000Y-93345000D03*
X172085000Y-93345000D03*
X174625000Y-93345000D03*
X177165000Y-93345000D03*
X179705000Y-93345000D03*
X182245000Y-93345000D03*
X184785000Y-93345000D03*
D15*
X90805000Y-90805000D03*
D14*
X93345000Y-90805000D03*
X95885000Y-90805000D03*
X98425000Y-90805000D03*
X100965000Y-90805000D03*
X103505000Y-90805000D03*
X106045000Y-90805000D03*
X108585000Y-90805000D03*
X111125000Y-90805000D03*
X113665000Y-90805000D03*
X116205000Y-90805000D03*
X118745000Y-90805000D03*
X121285000Y-90805000D03*
X123825000Y-90805000D03*
X126365000Y-90805000D03*
X128905000Y-90805000D03*
X131445000Y-90805000D03*
X133985000Y-90805000D03*
X136525000Y-90805000D03*
X139065000Y-90805000D03*
X141605000Y-90805000D03*
X144145000Y-90805000D03*
X146685000Y-90805000D03*
X149225000Y-90805000D03*
X151765000Y-90805000D03*
X154305000Y-90805000D03*
X156845000Y-90805000D03*
X159385000Y-90805000D03*
X161925000Y-90805000D03*
X164465000Y-90805000D03*
X167005000Y-90805000D03*
X169545000Y-90805000D03*
X172085000Y-90805000D03*
X174625000Y-90805000D03*
X177165000Y-90805000D03*
X179705000Y-90805000D03*
X182245000Y-90805000D03*
X184785000Y-90805000D03*
D15*
X90805000Y-88265000D03*
D14*
X93345000Y-88265000D03*
X95885000Y-88265000D03*
X98425000Y-88265000D03*
X100965000Y-88265000D03*
X103505000Y-88265000D03*
X106045000Y-88265000D03*
X108585000Y-88265000D03*
X111125000Y-88265000D03*
X113665000Y-88265000D03*
X116205000Y-88265000D03*
X118745000Y-88265000D03*
X121285000Y-88265000D03*
X123825000Y-88265000D03*
X126365000Y-88265000D03*
X128905000Y-88265000D03*
X131445000Y-88265000D03*
X133985000Y-88265000D03*
X136525000Y-88265000D03*
X139065000Y-88265000D03*
X141605000Y-88265000D03*
X144145000Y-88265000D03*
X146685000Y-88265000D03*
X149225000Y-88265000D03*
X151765000Y-88265000D03*
X154305000Y-88265000D03*
X156845000Y-88265000D03*
X159385000Y-88265000D03*
X161925000Y-88265000D03*
X164465000Y-88265000D03*
X167005000Y-88265000D03*
X169545000Y-88265000D03*
X172085000Y-88265000D03*
X174625000Y-88265000D03*
X177165000Y-88265000D03*
X179705000Y-88265000D03*
X182245000Y-88265000D03*
X184785000Y-88265000D03*
D15*
X90805000Y-81280000D03*
D14*
X93345000Y-81280000D03*
X95885000Y-81280000D03*
X98425000Y-81280000D03*
X100965000Y-81280000D03*
X103505000Y-81280000D03*
X106045000Y-81280000D03*
X108585000Y-81280000D03*
X111125000Y-81280000D03*
X113665000Y-81280000D03*
X116205000Y-81280000D03*
X118745000Y-81280000D03*
X121285000Y-81280000D03*
X123825000Y-81280000D03*
X126365000Y-81280000D03*
X128905000Y-81280000D03*
X131445000Y-81280000D03*
X133985000Y-81280000D03*
X136525000Y-81280000D03*
X139065000Y-81280000D03*
X141605000Y-81280000D03*
X144145000Y-81280000D03*
X146685000Y-81280000D03*
X149225000Y-81280000D03*
X151765000Y-81280000D03*
X154305000Y-81280000D03*
X156845000Y-81280000D03*
X159385000Y-81280000D03*
X161925000Y-81280000D03*
X164465000Y-81280000D03*
X167005000Y-81280000D03*
X169545000Y-81280000D03*
X172085000Y-81280000D03*
X174625000Y-81280000D03*
X177165000Y-81280000D03*
X179705000Y-81280000D03*
X182245000Y-81280000D03*
X184785000Y-81280000D03*
D17*
X149860000Y-71755000D03*
X116840000Y-64135000D03*
X147320000Y-71755000D03*
X119380000Y-64135000D03*
X144780000Y-71755000D03*
X121920000Y-64135000D03*
X142240000Y-71755000D03*
X124460000Y-64135000D03*
X139700000Y-71755000D03*
X127000000Y-64135000D03*
X137160000Y-71755000D03*
X129540000Y-64135000D03*
X134620000Y-71755000D03*
X132080000Y-64135000D03*
X132080000Y-71755000D03*
X134620000Y-64135000D03*
X129540000Y-71755000D03*
X137160000Y-64135000D03*
X127000000Y-71755000D03*
X139700000Y-64135000D03*
X124460000Y-71755000D03*
X142240000Y-64135000D03*
X121920000Y-71755000D03*
X144780000Y-64135000D03*
X119380000Y-71755000D03*
X147320000Y-64135000D03*
X116840000Y-71755000D03*
D18*
X149860000Y-64135000D03*
D19*
X125295000Y-56515000D03*
X130175000Y-56515000D03*
D20*
X110490000Y-50800000D03*
X107950000Y-50800000D03*
D21*
X105410000Y-50800000D03*
D22*
X175260000Y-71120000D03*
D23*
X162560000Y-71120000D03*
D22*
X175260000Y-67310000D03*
D23*
X162560000Y-67310000D03*
D22*
X175260000Y-63500000D03*
D23*
X162560000Y-63500000D03*
D22*
X175260000Y-59690000D03*
D23*
X162560000Y-59690000D03*
D22*
X175260000Y-50800000D03*
D23*
X162560000Y-50800000D03*
D22*
X162560000Y-74930000D03*
D23*
X175260000Y-74930000D03*
D24*
X162560000Y-55245000D03*
D25*
X175260000Y-55245000D03*
D14*
X184150000Y-69850000D03*
X181610000Y-69850000D03*
X184150000Y-67310000D03*
X181610000Y-67310000D03*
X184150000Y-64770000D03*
D15*
X181610000Y-64770000D03*
D26*
X95250000Y-72945000D03*
D27*
X95250000Y-67945000D03*
D28*
X156210000Y-52705000D03*
D29*
X156210000Y-50165000D03*
D23*
X111760000Y-62150000D03*
X111760000Y-57150000D03*
X112395000Y-71040000D03*
X112395000Y-66040000D03*
X138430000Y-55325000D03*
X138430000Y-60325000D03*
X142875000Y-60245000D03*
X142875000Y-55245000D03*
X120730000Y-50800000D03*
X125730000Y-50800000D03*
X133905000Y-50800000D03*
X128905000Y-50800000D03*
X107950000Y-62150000D03*
X107950000Y-57150000D03*
X104140000Y-62150000D03*
X104140000Y-57150000D03*
X95330000Y-59690000D03*
D30*
X100330000Y-59690000D03*
M02*
