M48
; DRILL file {KiCad 5.1.9+dfsg1-1} date Thu Jul 21 18:16:22 2022
; FORMAT={-:-/ absolute / metric / decimal}
; #@! TF.CreationDate,2022-07-21T18:16:22-05:00
; #@! TF.GenerationSoftware,Kicad,Pcbnew,5.1.9+dfsg1-1
; #@! TF.FileFunction,Plated,1,2,PTH
FMAT,2
METRIC
T1C0.400
T2C0.800
T3C0.900
T4C1.000
T5C1.100
T6C1.320
T7C3.500
%
G90
G05
T1
X115.57Y-66.675
X116.84Y-65.95
X118.11Y-60.325
X121.92Y-59.69
X123.19Y-60.415
X125.291Y-75.126
X125.64Y-76.2
X127.09Y-76.2
X127.545Y-75.02
X128.995Y-74.295
X129.54Y-76.11
X129.646Y-75.054
X130.175Y-78.105
X130.72Y-79.375
X130.81Y-68.58
X132.715Y-78.105
X133.35Y-74.93
X133.985Y-67.945
X134.62Y-55.245
X137.795Y-67.4
X140.335Y-67.4
X146.05Y-59.055
X147.32Y-57.15
X149.225Y-59.055
T2
X95.33Y-59.69
X100.33Y-59.69
X104.14Y-57.15
X104.14Y-62.15
X107.95Y-57.15
X107.95Y-62.15
X111.76Y-57.15
X111.76Y-62.15
X112.395Y-66.04
X112.395Y-71.04
X116.84Y-64.135
X116.84Y-71.755
X119.38Y-64.135
X119.38Y-71.755
X120.73Y-50.8
X121.92Y-64.135
X121.92Y-71.755
X124.46Y-64.135
X124.46Y-71.755
X125.295Y-56.515
X125.73Y-50.8
X127.0Y-64.135
X127.0Y-71.755
X128.905Y-50.8
X129.54Y-64.135
X129.54Y-71.755
X130.175Y-56.515
X132.08Y-64.135
X132.08Y-71.755
X133.905Y-50.8
X134.62Y-64.135
X134.62Y-71.755
X137.16Y-64.135
X137.16Y-71.755
X138.43Y-55.325
X138.43Y-60.325
X139.7Y-64.135
X139.7Y-71.755
X142.24Y-64.135
X142.24Y-71.755
X142.875Y-55.245
X142.875Y-60.245
X144.78Y-64.135
X144.78Y-71.755
X147.32Y-64.135
X147.32Y-71.755
X149.86Y-64.135
X149.86Y-71.755
X162.56Y-50.8
X162.56Y-59.69
X162.56Y-63.5
X162.56Y-67.31
X162.56Y-71.12
X162.56Y-74.93
X175.26Y-50.8
X175.26Y-59.69
X175.26Y-63.5
X175.26Y-67.31
X175.26Y-71.12
X175.26Y-74.93
T3
X156.21Y-50.165
X156.21Y-52.705
T4
X90.805Y-81.28
X90.805Y-88.265
X90.805Y-90.805
X90.805Y-93.345
X90.805Y-95.885
X90.805Y-98.425
X90.805Y-100.965
X90.805Y-103.505
X90.805Y-106.045
X90.805Y-108.585
X90.805Y-111.125
X90.805Y-113.665
X90.805Y-116.205
X90.805Y-118.745
X90.805Y-121.285
X90.805Y-128.905
X90.805Y-131.445
X90.805Y-133.985
X90.815Y-123.825
X90.815Y-126.365
X93.345Y-81.28
X93.345Y-88.265
X93.345Y-90.805
X93.345Y-93.345
X93.345Y-95.885
X93.345Y-98.425
X93.345Y-100.965
X93.345Y-103.505
X93.345Y-106.045
X93.345Y-108.585
X93.345Y-111.125
X93.345Y-113.665
X93.345Y-116.205
X93.345Y-118.745
X93.345Y-121.285
X93.345Y-128.905
X93.345Y-131.445
X93.345Y-133.985
X93.355Y-123.825
X93.355Y-126.365
X95.885Y-81.28
X95.885Y-88.265
X95.885Y-90.805
X95.885Y-93.345
X95.885Y-95.885
X95.885Y-98.425
X95.885Y-100.965
X95.885Y-103.505
X95.885Y-106.045
X95.885Y-108.585
X95.885Y-111.125
X95.885Y-113.665
X95.885Y-116.205
X95.885Y-118.745
X95.885Y-121.285
X95.885Y-128.905
X95.885Y-131.445
X95.885Y-133.985
X95.895Y-123.825
X95.895Y-126.365
X98.425Y-81.28
X98.425Y-88.265
X98.425Y-90.805
X98.425Y-93.345
X98.425Y-95.885
X98.425Y-98.425
X98.425Y-100.965
X98.425Y-103.505
X98.425Y-106.045
X98.425Y-108.585
X98.425Y-111.125
X98.425Y-113.665
X98.425Y-116.205
X98.425Y-118.745
X98.425Y-121.285
X98.425Y-128.905
X98.425Y-131.445
X98.425Y-133.985
X98.435Y-123.825
X98.435Y-126.365
X100.965Y-81.28
X100.965Y-88.265
X100.965Y-90.805
X100.965Y-93.345
X100.965Y-95.885
X100.965Y-98.425
X100.965Y-100.965
X100.965Y-103.505
X100.965Y-106.045
X100.965Y-108.585
X100.965Y-111.125
X100.965Y-113.665
X100.965Y-116.205
X100.965Y-118.745
X100.965Y-121.285
X100.965Y-128.905
X100.965Y-131.445
X100.965Y-133.985
X100.975Y-123.825
X100.975Y-126.365
X103.505Y-81.28
X103.505Y-88.265
X103.505Y-90.805
X103.505Y-93.345
X103.505Y-95.885
X103.505Y-98.425
X103.505Y-100.965
X103.505Y-103.505
X103.505Y-106.045
X103.505Y-108.585
X103.505Y-111.125
X103.505Y-113.665
X103.505Y-116.205
X103.505Y-118.745
X103.505Y-121.285
X103.505Y-128.905
X103.505Y-131.445
X103.505Y-133.985
X103.515Y-123.825
X103.515Y-126.365
X104.14Y-66.04
X106.045Y-81.28
X106.045Y-88.265
X106.045Y-90.805
X106.045Y-93.345
X106.045Y-95.885
X106.045Y-98.425
X106.045Y-100.965
X106.045Y-103.505
X106.045Y-106.045
X106.045Y-108.585
X106.045Y-111.125
X106.045Y-113.665
X106.045Y-116.205
X106.045Y-118.745
X106.045Y-121.285
X106.045Y-128.905
X106.045Y-131.445
X106.045Y-133.985
X106.055Y-123.825
X106.055Y-126.365
X106.68Y-66.04
X108.585Y-81.28
X108.585Y-88.265
X108.585Y-90.805
X108.585Y-93.345
X108.585Y-95.885
X108.585Y-98.425
X108.585Y-100.965
X108.585Y-103.505
X108.585Y-106.045
X108.585Y-108.585
X108.585Y-111.125
X108.585Y-113.665
X108.585Y-116.205
X108.585Y-118.745
X108.585Y-121.285
X108.585Y-128.905
X108.585Y-131.445
X108.585Y-133.985
X108.595Y-123.825
X108.595Y-126.365
X111.125Y-81.28
X111.125Y-88.265
X111.125Y-90.805
X111.125Y-93.345
X111.125Y-95.885
X111.125Y-98.425
X111.125Y-100.965
X111.125Y-103.505
X111.125Y-106.045
X111.125Y-108.585
X111.125Y-111.125
X111.125Y-113.665
X111.125Y-116.205
X111.125Y-118.745
X111.125Y-121.285
X111.125Y-128.905
X111.125Y-131.445
X111.125Y-133.985
X111.135Y-123.825
X111.135Y-126.365
X113.665Y-81.28
X113.665Y-88.265
X113.665Y-90.805
X113.665Y-93.345
X113.665Y-95.885
X113.665Y-98.425
X113.665Y-100.965
X113.665Y-103.505
X113.665Y-106.045
X113.665Y-108.585
X113.665Y-111.125
X113.665Y-113.665
X113.665Y-116.205
X113.665Y-118.745
X113.665Y-121.285
X113.665Y-128.905
X113.665Y-131.445
X113.665Y-133.985
X113.675Y-123.825
X113.675Y-126.365
X116.205Y-81.28
X116.205Y-88.265
X116.205Y-90.805
X116.205Y-93.345
X116.205Y-95.885
X116.205Y-98.425
X116.205Y-100.965
X116.205Y-103.505
X116.205Y-106.045
X116.205Y-108.585
X116.205Y-111.125
X116.205Y-113.665
X116.205Y-116.205
X116.205Y-118.745
X116.205Y-121.285
X116.205Y-128.905
X116.205Y-131.445
X116.205Y-133.985
X116.215Y-123.825
X116.215Y-126.365
X118.745Y-81.28
X118.745Y-88.265
X118.745Y-90.805
X118.745Y-93.345
X118.745Y-95.885
X118.745Y-98.425
X118.745Y-100.965
X118.745Y-103.505
X118.745Y-106.045
X118.745Y-108.585
X118.745Y-111.125
X118.745Y-113.665
X118.745Y-116.205
X118.745Y-118.745
X118.745Y-121.285
X118.745Y-128.905
X118.745Y-131.445
X118.745Y-133.985
X118.755Y-123.825
X118.755Y-126.365
X121.285Y-81.28
X121.285Y-88.265
X121.285Y-90.805
X121.285Y-93.345
X121.285Y-95.885
X121.285Y-98.425
X121.285Y-100.965
X121.285Y-103.505
X121.285Y-106.045
X121.285Y-108.585
X121.285Y-111.125
X121.285Y-113.665
X121.285Y-116.205
X121.285Y-118.745
X121.285Y-121.285
X121.285Y-128.905
X121.285Y-131.445
X121.285Y-133.985
X121.295Y-123.825
X121.295Y-126.365
X123.825Y-81.28
X123.825Y-88.265
X123.825Y-90.805
X123.825Y-93.345
X123.825Y-95.885
X123.825Y-98.425
X123.825Y-100.965
X123.825Y-103.505
X123.825Y-106.045
X123.825Y-108.585
X123.825Y-111.125
X123.825Y-113.665
X123.825Y-116.205
X123.825Y-118.745
X123.825Y-121.285
X123.825Y-128.905
X123.825Y-131.445
X123.825Y-133.985
X123.835Y-123.825
X123.835Y-126.365
X126.365Y-81.28
X126.365Y-88.265
X126.365Y-90.805
X126.365Y-93.345
X126.365Y-95.885
X126.365Y-98.425
X126.365Y-100.965
X126.365Y-103.505
X126.365Y-106.045
X126.365Y-108.585
X126.365Y-111.125
X126.365Y-113.665
X126.365Y-116.205
X126.365Y-118.745
X126.365Y-121.285
X126.365Y-128.905
X126.365Y-131.445
X126.365Y-133.985
X126.375Y-123.825
X126.375Y-126.365
X128.905Y-81.28
X128.905Y-88.265
X128.905Y-90.805
X128.905Y-93.345
X128.905Y-95.885
X128.905Y-98.425
X128.905Y-100.965
X128.905Y-103.505
X128.905Y-106.045
X128.905Y-108.585
X128.905Y-111.125
X128.905Y-113.665
X128.905Y-116.205
X128.905Y-118.745
X128.905Y-121.285
X128.905Y-128.905
X128.905Y-131.445
X128.905Y-133.985
X128.915Y-123.825
X128.915Y-126.365
X131.445Y-81.28
X131.445Y-88.265
X131.445Y-90.805
X131.445Y-93.345
X131.445Y-95.885
X131.445Y-98.425
X131.445Y-100.965
X131.445Y-103.505
X131.445Y-106.045
X131.445Y-108.585
X131.445Y-111.125
X131.445Y-113.665
X131.445Y-116.205
X131.445Y-118.745
X131.445Y-121.285
X131.445Y-128.905
X131.445Y-131.445
X131.445Y-133.985
X131.455Y-123.825
X131.455Y-126.365
X133.985Y-81.28
X133.985Y-88.265
X133.985Y-90.805
X133.985Y-93.345
X133.985Y-95.885
X133.985Y-98.425
X133.985Y-100.965
X133.985Y-103.505
X133.985Y-106.045
X133.985Y-108.585
X133.985Y-111.125
X133.985Y-113.665
X133.985Y-116.205
X133.985Y-118.745
X133.985Y-121.285
X133.985Y-128.905
X133.985Y-131.445
X133.985Y-133.985
X133.995Y-123.825
X133.995Y-126.365
X136.525Y-81.28
X136.525Y-88.265
X136.525Y-90.805
X136.525Y-93.345
X136.525Y-95.885
X136.525Y-98.425
X136.525Y-100.965
X136.525Y-103.505
X136.525Y-106.045
X136.525Y-108.585
X136.525Y-111.125
X136.525Y-113.665
X136.525Y-116.205
X136.525Y-118.745
X136.525Y-121.285
X136.525Y-128.905
X136.525Y-131.445
X136.525Y-133.985
X136.535Y-123.825
X136.535Y-126.365
X139.065Y-81.28
X139.065Y-88.265
X139.065Y-90.805
X139.065Y-93.345
X139.065Y-95.885
X139.065Y-98.425
X139.065Y-100.965
X139.065Y-103.505
X139.065Y-106.045
X139.065Y-108.585
X139.065Y-111.125
X139.065Y-113.665
X139.065Y-116.205
X139.065Y-118.745
X139.065Y-121.285
X139.065Y-128.905
X139.065Y-131.445
X139.065Y-133.985
X139.075Y-123.825
X139.075Y-126.365
X141.605Y-81.28
X141.605Y-88.265
X141.605Y-90.805
X141.605Y-93.345
X141.605Y-95.885
X141.605Y-98.425
X141.605Y-100.965
X141.605Y-103.505
X141.605Y-106.045
X141.605Y-108.585
X141.605Y-111.125
X141.605Y-113.665
X141.605Y-116.205
X141.605Y-118.745
X141.605Y-121.285
X141.605Y-128.905
X141.605Y-131.445
X141.605Y-133.985
X141.615Y-123.825
X141.615Y-126.365
X144.145Y-81.28
X144.145Y-88.265
X144.145Y-90.805
X144.145Y-93.345
X144.145Y-95.885
X144.145Y-98.425
X144.145Y-100.965
X144.145Y-103.505
X144.145Y-106.045
X144.145Y-108.585
X144.145Y-111.125
X144.145Y-113.665
X144.145Y-116.205
X144.145Y-118.745
X144.145Y-121.285
X144.145Y-128.905
X144.145Y-131.445
X144.145Y-133.985
X144.155Y-123.825
X144.155Y-126.365
X146.685Y-81.28
X146.685Y-88.265
X146.685Y-90.805
X146.685Y-93.345
X146.685Y-95.885
X146.685Y-98.425
X146.685Y-100.965
X146.685Y-103.505
X146.685Y-106.045
X146.685Y-108.585
X146.685Y-111.125
X146.685Y-113.665
X146.685Y-116.205
X146.685Y-118.745
X146.685Y-121.285
X146.685Y-128.905
X146.685Y-131.445
X146.685Y-133.985
X146.695Y-123.825
X146.695Y-126.365
X149.225Y-81.28
X149.225Y-88.265
X149.225Y-90.805
X149.225Y-93.345
X149.225Y-95.885
X149.225Y-98.425
X149.225Y-100.965
X149.225Y-103.505
X149.225Y-106.045
X149.225Y-108.585
X149.225Y-111.125
X149.225Y-113.665
X149.225Y-116.205
X149.225Y-118.745
X149.225Y-121.285
X149.225Y-128.905
X149.225Y-131.445
X149.225Y-133.985
X149.235Y-123.825
X149.235Y-126.365
X151.765Y-81.28
X151.765Y-88.265
X151.765Y-90.805
X151.765Y-93.345
X151.765Y-95.885
X151.765Y-98.425
X151.765Y-100.965
X151.765Y-103.505
X151.765Y-106.045
X151.765Y-108.585
X151.765Y-111.125
X151.765Y-113.665
X151.765Y-116.205
X151.765Y-118.745
X151.765Y-121.285
X151.765Y-128.905
X151.765Y-131.445
X151.765Y-133.985
X151.775Y-123.825
X151.775Y-126.365
X154.305Y-81.28
X154.305Y-88.265
X154.305Y-90.805
X154.305Y-93.345
X154.305Y-95.885
X154.305Y-98.425
X154.305Y-100.965
X154.305Y-103.505
X154.305Y-106.045
X154.305Y-108.585
X154.305Y-111.125
X154.305Y-113.665
X154.305Y-116.205
X154.305Y-118.745
X154.305Y-121.285
X154.305Y-128.905
X154.305Y-131.445
X154.305Y-133.985
X154.315Y-123.825
X154.315Y-126.365
X156.845Y-81.28
X156.845Y-88.265
X156.845Y-90.805
X156.845Y-93.345
X156.845Y-95.885
X156.845Y-98.425
X156.845Y-100.965
X156.845Y-103.505
X156.845Y-106.045
X156.845Y-108.585
X156.845Y-111.125
X156.845Y-113.665
X156.845Y-116.205
X156.845Y-118.745
X156.845Y-121.285
X156.845Y-128.905
X156.845Y-131.445
X156.845Y-133.985
X156.855Y-123.825
X156.855Y-126.365
X159.385Y-81.28
X159.385Y-88.265
X159.385Y-90.805
X159.385Y-93.345
X159.385Y-95.885
X159.385Y-98.425
X159.385Y-100.965
X159.385Y-103.505
X159.385Y-106.045
X159.385Y-108.585
X159.385Y-111.125
X159.385Y-113.665
X159.385Y-116.205
X159.385Y-118.745
X159.385Y-121.285
X159.385Y-128.905
X159.385Y-131.445
X159.385Y-133.985
X159.395Y-123.825
X159.395Y-126.365
X161.925Y-81.28
X161.925Y-88.265
X161.925Y-90.805
X161.925Y-93.345
X161.925Y-95.885
X161.925Y-98.425
X161.925Y-100.965
X161.925Y-103.505
X161.925Y-106.045
X161.925Y-108.585
X161.925Y-111.125
X161.925Y-113.665
X161.925Y-116.205
X161.925Y-118.745
X161.925Y-121.285
X161.925Y-128.905
X161.925Y-131.445
X161.925Y-133.985
X161.935Y-123.825
X161.935Y-126.365
X162.56Y-55.245
X164.465Y-81.28
X164.465Y-88.265
X164.465Y-90.805
X164.465Y-93.345
X164.465Y-95.885
X164.465Y-98.425
X164.465Y-100.965
X164.465Y-103.505
X164.465Y-106.045
X164.465Y-108.585
X164.465Y-111.125
X164.465Y-113.665
X164.465Y-116.205
X164.465Y-118.745
X164.465Y-121.285
X164.465Y-128.905
X164.465Y-131.445
X164.465Y-133.985
X164.475Y-123.825
X164.475Y-126.365
X167.005Y-81.28
X167.005Y-88.265
X167.005Y-90.805
X167.005Y-93.345
X167.005Y-95.885
X167.005Y-98.425
X167.005Y-100.965
X167.005Y-103.505
X167.005Y-106.045
X167.005Y-108.585
X167.005Y-111.125
X167.005Y-113.665
X167.005Y-116.205
X167.005Y-118.745
X167.005Y-121.285
X167.005Y-128.905
X167.005Y-131.445
X167.005Y-133.985
X167.015Y-123.825
X167.015Y-126.365
X169.545Y-81.28
X169.545Y-88.265
X169.545Y-90.805
X169.545Y-93.345
X169.545Y-95.885
X169.545Y-98.425
X169.545Y-100.965
X169.545Y-103.505
X169.545Y-106.045
X169.545Y-108.585
X169.545Y-111.125
X169.545Y-113.665
X169.545Y-116.205
X169.545Y-118.745
X169.545Y-121.285
X169.545Y-128.905
X169.545Y-131.445
X169.545Y-133.985
X169.555Y-123.825
X169.555Y-126.365
X172.085Y-81.28
X172.085Y-88.265
X172.085Y-90.805
X172.085Y-93.345
X172.085Y-95.885
X172.085Y-98.425
X172.085Y-100.965
X172.085Y-103.505
X172.085Y-106.045
X172.085Y-108.585
X172.085Y-111.125
X172.085Y-113.665
X172.085Y-116.205
X172.085Y-118.745
X172.085Y-121.285
X172.085Y-128.905
X172.085Y-131.445
X172.085Y-133.985
X172.095Y-123.825
X172.095Y-126.365
X174.625Y-81.28
X174.625Y-88.265
X174.625Y-90.805
X174.625Y-93.345
X174.625Y-95.885
X174.625Y-98.425
X174.625Y-100.965
X174.625Y-103.505
X174.625Y-106.045
X174.625Y-108.585
X174.625Y-111.125
X174.625Y-113.665
X174.625Y-116.205
X174.625Y-118.745
X174.625Y-121.285
X174.625Y-128.905
X174.625Y-131.445
X174.625Y-133.985
X174.635Y-123.825
X174.635Y-126.365
X175.26Y-55.245
X177.165Y-81.28
X177.165Y-88.265
X177.165Y-90.805
X177.165Y-93.345
X177.165Y-95.885
X177.165Y-98.425
X177.165Y-100.965
X177.165Y-103.505
X177.165Y-106.045
X177.165Y-108.585
X177.165Y-111.125
X177.165Y-113.665
X177.165Y-116.205
X177.165Y-118.745
X177.165Y-121.285
X177.165Y-128.905
X177.165Y-131.445
X177.165Y-133.985
X177.175Y-123.825
X177.175Y-126.365
X179.705Y-81.28
X179.705Y-88.265
X179.705Y-90.805
X179.705Y-93.345
X179.705Y-95.885
X179.705Y-98.425
X179.705Y-100.965
X179.705Y-103.505
X179.705Y-106.045
X179.705Y-108.585
X179.705Y-111.125
X179.705Y-113.665
X179.705Y-116.205
X179.705Y-118.745
X179.705Y-121.285
X179.705Y-128.905
X179.705Y-131.445
X179.705Y-133.985
X179.715Y-123.825
X179.715Y-126.365
X181.61Y-64.77
X181.61Y-67.31
X181.61Y-69.85
X182.245Y-81.28
X182.245Y-88.265
X182.245Y-90.805
X182.245Y-93.345
X182.245Y-95.885
X182.245Y-98.425
X182.245Y-100.965
X182.245Y-103.505
X182.245Y-106.045
X182.245Y-108.585
X182.245Y-111.125
X182.245Y-113.665
X182.245Y-116.205
X182.245Y-118.745
X182.245Y-121.285
X182.245Y-128.905
X182.245Y-131.445
X182.245Y-133.985
X182.255Y-123.825
X182.255Y-126.365
X184.15Y-64.77
X184.15Y-67.31
X184.15Y-69.85
X184.785Y-81.28
X184.785Y-88.265
X184.785Y-90.805
X184.785Y-93.345
X184.785Y-95.885
X184.785Y-98.425
X184.785Y-100.965
X184.785Y-103.505
X184.785Y-106.045
X184.785Y-108.585
X184.785Y-111.125
X184.785Y-113.665
X184.785Y-116.205
X184.785Y-118.745
X184.785Y-121.285
X184.785Y-128.905
X184.785Y-131.445
X184.785Y-133.985
X184.795Y-123.825
X184.795Y-126.365
T5
X105.41Y-50.8
X107.95Y-50.8
X110.49Y-50.8
T6
X95.25Y-67.945
X95.25Y-72.945
T7
X92.71Y-51.435
X92.71Y-140.335
X181.61Y-51.435
X182.245Y-140.335
T0
M30
