%FSLAX45Y45*%
G04 Gerber Fmt 4.5, Leading zero omitted, Abs format (unit mm)*
G04 Created by KiCad (PCBNEW 5.1.9+dfsg1-1) date 2022-07-21 18:17:03*
%MOMM*%
%LPD*%
G01*
G04 APERTURE LIST*
%TA.AperFunction,Profile*%
%ADD10C,0.100000*%
%TD*%
%ADD11C,0.200000*%
%ADD12C,0.300000*%
G04 APERTURE END LIST*
D10*
X18669000Y-4635500D02*
X18669000Y-14541500D01*
X8763000Y-4635500D02*
X18669000Y-4635500D01*
X8763000Y-14541500D02*
X8763000Y-4635500D01*
X18669000Y-14541500D02*
X8763000Y-14541500D01*
D11*
D12*
X9044428Y-15012214D02*
X9044428Y-14712214D01*
X9115857Y-14712214D01*
X9158714Y-14726500D01*
X9187286Y-14755071D01*
X9201571Y-14783643D01*
X9215857Y-14840786D01*
X9215857Y-14883643D01*
X9201571Y-14940786D01*
X9187286Y-14969357D01*
X9158714Y-14997929D01*
X9115857Y-15012214D01*
X9044428Y-15012214D01*
X9344428Y-15012214D02*
X9344428Y-14812214D01*
X9344428Y-14869357D02*
X9358714Y-14840786D01*
X9373000Y-14826500D01*
X9401571Y-14812214D01*
X9430143Y-14812214D01*
X9530143Y-15012214D02*
X9530143Y-14812214D01*
X9530143Y-14712214D02*
X9515857Y-14726500D01*
X9530143Y-14740786D01*
X9544428Y-14726500D01*
X9530143Y-14712214D01*
X9530143Y-14740786D01*
X9715857Y-15012214D02*
X9687286Y-14997929D01*
X9673000Y-14969357D01*
X9673000Y-14712214D01*
X9873000Y-15012214D02*
X9844428Y-14997929D01*
X9830143Y-14969357D01*
X9830143Y-14712214D01*
X10215857Y-15012214D02*
X10215857Y-14712214D01*
X10315857Y-14926500D01*
X10415857Y-14712214D01*
X10415857Y-15012214D01*
X10687286Y-15012214D02*
X10687286Y-14855071D01*
X10673000Y-14826500D01*
X10644428Y-14812214D01*
X10587286Y-14812214D01*
X10558714Y-14826500D01*
X10687286Y-14997929D02*
X10658714Y-15012214D01*
X10587286Y-15012214D01*
X10558714Y-14997929D01*
X10544428Y-14969357D01*
X10544428Y-14940786D01*
X10558714Y-14912214D01*
X10587286Y-14897929D01*
X10658714Y-14897929D01*
X10687286Y-14883643D01*
X10830143Y-14812214D02*
X10830143Y-15112214D01*
X10830143Y-14826500D02*
X10858714Y-14812214D01*
X10915857Y-14812214D01*
X10944428Y-14826500D01*
X10958714Y-14840786D01*
X10973000Y-14869357D01*
X10973000Y-14955071D01*
X10958714Y-14983643D01*
X10944428Y-14997929D01*
X10915857Y-15012214D01*
X10858714Y-15012214D01*
X10830143Y-14997929D01*
X11101571Y-14983643D02*
X11115857Y-14997929D01*
X11101571Y-15012214D01*
X11087286Y-14997929D01*
X11101571Y-14983643D01*
X11101571Y-15012214D01*
X11101571Y-14826500D02*
X11115857Y-14840786D01*
X11101571Y-14855071D01*
X11087286Y-14840786D01*
X11101571Y-14826500D01*
X11101571Y-14855071D01*
M02*
